%TF.GenerationSoftware,KiCad,Pcbnew,(5.1.5)-3*%
%TF.CreationDate,2020-05-01T16:03:37+02:00*%
%TF.ProjectId,SX1280_module,53583132-3830-45f6-9d6f-64756c652e6b,rev?*%
%TF.SameCoordinates,Original*%
%TF.FileFunction,Copper,L2,Bot*%
%TF.FilePolarity,Positive*%
%FSLAX46Y46*%
G04 Gerber Fmt 4.6, Leading zero omitted, Abs format (unit mm)*
G04 Created by KiCad (PCBNEW (5.1.5)-3) date 2020-05-01 16:03:37*
%MOMM*%
%LPD*%
G04 APERTURE LIST*
%TA.AperFunction,ComponentPad*%
%ADD10C,1.850000*%
%TD*%
%TA.AperFunction,ComponentPad*%
%ADD11C,0.840000*%
%TD*%
%TA.AperFunction,ComponentPad*%
%ADD12R,0.840000X0.840000*%
%TD*%
%TA.AperFunction,ComponentPad*%
%ADD13O,1.350000X1.350000*%
%TD*%
%TA.AperFunction,ComponentPad*%
%ADD14R,1.350000X1.350000*%
%TD*%
%TA.AperFunction,SMDPad,CuDef*%
%ADD15C,0.100000*%
%TD*%
%TA.AperFunction,SMDPad,CuDef*%
%ADD16R,2.000000X0.800000*%
%TD*%
%TA.AperFunction,ViaPad*%
%ADD17C,0.700000*%
%TD*%
%TA.AperFunction,ViaPad*%
%ADD18C,0.900000*%
%TD*%
%TA.AperFunction,Conductor*%
%ADD19C,0.500000*%
%TD*%
%TA.AperFunction,Conductor*%
%ADD20C,0.203200*%
%TD*%
G04 APERTURE END LIST*
D10*
%TO.P,J2,6*%
%TO.N,GND*%
X114125000Y-120870000D03*
X121275000Y-120870000D03*
D11*
%TO.P,J2,5*%
X116400000Y-120650000D03*
%TO.P,J2,4*%
%TO.N,N/C*%
X117050000Y-121650000D03*
%TO.P,J2,3*%
%TO.N,/USB_DP*%
X117700000Y-120650000D03*
%TO.P,J2,2*%
%TO.N,/USB_DM*%
X118350000Y-121650000D03*
D12*
%TO.P,J2,1*%
%TO.N,/USBVDD*%
X119000000Y-120650000D03*
%TD*%
D13*
%TO.P,J1,4*%
%TO.N,/VIN*%
X129098000Y-117976400D03*
%TO.P,J1,3*%
%TO.N,Net-(J1-Pad3)*%
X129098000Y-115976400D03*
%TO.P,J1,2*%
%TO.N,/U1RX*%
X129098000Y-113976400D03*
D14*
%TO.P,J1,1*%
%TO.N,/U1TX*%
X129098000Y-111976400D03*
%TD*%
%TA.AperFunction,SMDPad,CuDef*%
D15*
%TO.P,R18,2*%
%TO.N,/SX1280_TXEN*%
G36*
X129424691Y-103171253D02*
G01*
X129445926Y-103174403D01*
X129466750Y-103179619D01*
X129486962Y-103186851D01*
X129506368Y-103196030D01*
X129524781Y-103207066D01*
X129542024Y-103219854D01*
X129557930Y-103234270D01*
X129572346Y-103250176D01*
X129585134Y-103267419D01*
X129596170Y-103285832D01*
X129605349Y-103305238D01*
X129612581Y-103325450D01*
X129617797Y-103346274D01*
X129620947Y-103367509D01*
X129622000Y-103388950D01*
X129622000Y-103901450D01*
X129620947Y-103922891D01*
X129617797Y-103944126D01*
X129612581Y-103964950D01*
X129605349Y-103985162D01*
X129596170Y-104004568D01*
X129585134Y-104022981D01*
X129572346Y-104040224D01*
X129557930Y-104056130D01*
X129542024Y-104070546D01*
X129524781Y-104083334D01*
X129506368Y-104094370D01*
X129486962Y-104103549D01*
X129466750Y-104110781D01*
X129445926Y-104115997D01*
X129424691Y-104119147D01*
X129403250Y-104120200D01*
X128965750Y-104120200D01*
X128944309Y-104119147D01*
X128923074Y-104115997D01*
X128902250Y-104110781D01*
X128882038Y-104103549D01*
X128862632Y-104094370D01*
X128844219Y-104083334D01*
X128826976Y-104070546D01*
X128811070Y-104056130D01*
X128796654Y-104040224D01*
X128783866Y-104022981D01*
X128772830Y-104004568D01*
X128763651Y-103985162D01*
X128756419Y-103964950D01*
X128751203Y-103944126D01*
X128748053Y-103922891D01*
X128747000Y-103901450D01*
X128747000Y-103388950D01*
X128748053Y-103367509D01*
X128751203Y-103346274D01*
X128756419Y-103325450D01*
X128763651Y-103305238D01*
X128772830Y-103285832D01*
X128783866Y-103267419D01*
X128796654Y-103250176D01*
X128811070Y-103234270D01*
X128826976Y-103219854D01*
X128844219Y-103207066D01*
X128862632Y-103196030D01*
X128882038Y-103186851D01*
X128902250Y-103179619D01*
X128923074Y-103174403D01*
X128944309Y-103171253D01*
X128965750Y-103170200D01*
X129403250Y-103170200D01*
X129424691Y-103171253D01*
G37*
%TD.AperFunction*%
%TA.AperFunction,SMDPad,CuDef*%
%TO.P,R18,1*%
%TO.N,Net-(M1-Pad9)*%
G36*
X127849691Y-103171253D02*
G01*
X127870926Y-103174403D01*
X127891750Y-103179619D01*
X127911962Y-103186851D01*
X127931368Y-103196030D01*
X127949781Y-103207066D01*
X127967024Y-103219854D01*
X127982930Y-103234270D01*
X127997346Y-103250176D01*
X128010134Y-103267419D01*
X128021170Y-103285832D01*
X128030349Y-103305238D01*
X128037581Y-103325450D01*
X128042797Y-103346274D01*
X128045947Y-103367509D01*
X128047000Y-103388950D01*
X128047000Y-103901450D01*
X128045947Y-103922891D01*
X128042797Y-103944126D01*
X128037581Y-103964950D01*
X128030349Y-103985162D01*
X128021170Y-104004568D01*
X128010134Y-104022981D01*
X127997346Y-104040224D01*
X127982930Y-104056130D01*
X127967024Y-104070546D01*
X127949781Y-104083334D01*
X127931368Y-104094370D01*
X127911962Y-104103549D01*
X127891750Y-104110781D01*
X127870926Y-104115997D01*
X127849691Y-104119147D01*
X127828250Y-104120200D01*
X127390750Y-104120200D01*
X127369309Y-104119147D01*
X127348074Y-104115997D01*
X127327250Y-104110781D01*
X127307038Y-104103549D01*
X127287632Y-104094370D01*
X127269219Y-104083334D01*
X127251976Y-104070546D01*
X127236070Y-104056130D01*
X127221654Y-104040224D01*
X127208866Y-104022981D01*
X127197830Y-104004568D01*
X127188651Y-103985162D01*
X127181419Y-103964950D01*
X127176203Y-103944126D01*
X127173053Y-103922891D01*
X127172000Y-103901450D01*
X127172000Y-103388950D01*
X127173053Y-103367509D01*
X127176203Y-103346274D01*
X127181419Y-103325450D01*
X127188651Y-103305238D01*
X127197830Y-103285832D01*
X127208866Y-103267419D01*
X127221654Y-103250176D01*
X127236070Y-103234270D01*
X127251976Y-103219854D01*
X127269219Y-103207066D01*
X127287632Y-103196030D01*
X127307038Y-103186851D01*
X127327250Y-103179619D01*
X127348074Y-103174403D01*
X127369309Y-103171253D01*
X127390750Y-103170200D01*
X127828250Y-103170200D01*
X127849691Y-103171253D01*
G37*
%TD.AperFunction*%
%TD*%
%TA.AperFunction,SMDPad,CuDef*%
%TO.P,R17,2*%
%TO.N,/SX1280_RXEN*%
G36*
X110669291Y-104339653D02*
G01*
X110690526Y-104342803D01*
X110711350Y-104348019D01*
X110731562Y-104355251D01*
X110750968Y-104364430D01*
X110769381Y-104375466D01*
X110786624Y-104388254D01*
X110802530Y-104402670D01*
X110816946Y-104418576D01*
X110829734Y-104435819D01*
X110840770Y-104454232D01*
X110849949Y-104473638D01*
X110857181Y-104493850D01*
X110862397Y-104514674D01*
X110865547Y-104535909D01*
X110866600Y-104557350D01*
X110866600Y-105069850D01*
X110865547Y-105091291D01*
X110862397Y-105112526D01*
X110857181Y-105133350D01*
X110849949Y-105153562D01*
X110840770Y-105172968D01*
X110829734Y-105191381D01*
X110816946Y-105208624D01*
X110802530Y-105224530D01*
X110786624Y-105238946D01*
X110769381Y-105251734D01*
X110750968Y-105262770D01*
X110731562Y-105271949D01*
X110711350Y-105279181D01*
X110690526Y-105284397D01*
X110669291Y-105287547D01*
X110647850Y-105288600D01*
X110210350Y-105288600D01*
X110188909Y-105287547D01*
X110167674Y-105284397D01*
X110146850Y-105279181D01*
X110126638Y-105271949D01*
X110107232Y-105262770D01*
X110088819Y-105251734D01*
X110071576Y-105238946D01*
X110055670Y-105224530D01*
X110041254Y-105208624D01*
X110028466Y-105191381D01*
X110017430Y-105172968D01*
X110008251Y-105153562D01*
X110001019Y-105133350D01*
X109995803Y-105112526D01*
X109992653Y-105091291D01*
X109991600Y-105069850D01*
X109991600Y-104557350D01*
X109992653Y-104535909D01*
X109995803Y-104514674D01*
X110001019Y-104493850D01*
X110008251Y-104473638D01*
X110017430Y-104454232D01*
X110028466Y-104435819D01*
X110041254Y-104418576D01*
X110055670Y-104402670D01*
X110071576Y-104388254D01*
X110088819Y-104375466D01*
X110107232Y-104364430D01*
X110126638Y-104355251D01*
X110146850Y-104348019D01*
X110167674Y-104342803D01*
X110188909Y-104339653D01*
X110210350Y-104338600D01*
X110647850Y-104338600D01*
X110669291Y-104339653D01*
G37*
%TD.AperFunction*%
%TA.AperFunction,SMDPad,CuDef*%
%TO.P,R17,1*%
%TO.N,Net-(M1-Pad8)*%
G36*
X109094291Y-104339653D02*
G01*
X109115526Y-104342803D01*
X109136350Y-104348019D01*
X109156562Y-104355251D01*
X109175968Y-104364430D01*
X109194381Y-104375466D01*
X109211624Y-104388254D01*
X109227530Y-104402670D01*
X109241946Y-104418576D01*
X109254734Y-104435819D01*
X109265770Y-104454232D01*
X109274949Y-104473638D01*
X109282181Y-104493850D01*
X109287397Y-104514674D01*
X109290547Y-104535909D01*
X109291600Y-104557350D01*
X109291600Y-105069850D01*
X109290547Y-105091291D01*
X109287397Y-105112526D01*
X109282181Y-105133350D01*
X109274949Y-105153562D01*
X109265770Y-105172968D01*
X109254734Y-105191381D01*
X109241946Y-105208624D01*
X109227530Y-105224530D01*
X109211624Y-105238946D01*
X109194381Y-105251734D01*
X109175968Y-105262770D01*
X109156562Y-105271949D01*
X109136350Y-105279181D01*
X109115526Y-105284397D01*
X109094291Y-105287547D01*
X109072850Y-105288600D01*
X108635350Y-105288600D01*
X108613909Y-105287547D01*
X108592674Y-105284397D01*
X108571850Y-105279181D01*
X108551638Y-105271949D01*
X108532232Y-105262770D01*
X108513819Y-105251734D01*
X108496576Y-105238946D01*
X108480670Y-105224530D01*
X108466254Y-105208624D01*
X108453466Y-105191381D01*
X108442430Y-105172968D01*
X108433251Y-105153562D01*
X108426019Y-105133350D01*
X108420803Y-105112526D01*
X108417653Y-105091291D01*
X108416600Y-105069850D01*
X108416600Y-104557350D01*
X108417653Y-104535909D01*
X108420803Y-104514674D01*
X108426019Y-104493850D01*
X108433251Y-104473638D01*
X108442430Y-104454232D01*
X108453466Y-104435819D01*
X108466254Y-104418576D01*
X108480670Y-104402670D01*
X108496576Y-104388254D01*
X108513819Y-104375466D01*
X108532232Y-104364430D01*
X108551638Y-104355251D01*
X108571850Y-104348019D01*
X108592674Y-104342803D01*
X108613909Y-104339653D01*
X108635350Y-104338600D01*
X109072850Y-104338600D01*
X109094291Y-104339653D01*
G37*
%TD.AperFunction*%
%TD*%
%TA.AperFunction,SMDPad,CuDef*%
%TO.P,R16,2*%
%TO.N,/SX1280_DIO1*%
G36*
X130481291Y-109013253D02*
G01*
X130502526Y-109016403D01*
X130523350Y-109021619D01*
X130543562Y-109028851D01*
X130562968Y-109038030D01*
X130581381Y-109049066D01*
X130598624Y-109061854D01*
X130614530Y-109076270D01*
X130628946Y-109092176D01*
X130641734Y-109109419D01*
X130652770Y-109127832D01*
X130661949Y-109147238D01*
X130669181Y-109167450D01*
X130674397Y-109188274D01*
X130677547Y-109209509D01*
X130678600Y-109230950D01*
X130678600Y-109743450D01*
X130677547Y-109764891D01*
X130674397Y-109786126D01*
X130669181Y-109806950D01*
X130661949Y-109827162D01*
X130652770Y-109846568D01*
X130641734Y-109864981D01*
X130628946Y-109882224D01*
X130614530Y-109898130D01*
X130598624Y-109912546D01*
X130581381Y-109925334D01*
X130562968Y-109936370D01*
X130543562Y-109945549D01*
X130523350Y-109952781D01*
X130502526Y-109957997D01*
X130481291Y-109961147D01*
X130459850Y-109962200D01*
X130022350Y-109962200D01*
X130000909Y-109961147D01*
X129979674Y-109957997D01*
X129958850Y-109952781D01*
X129938638Y-109945549D01*
X129919232Y-109936370D01*
X129900819Y-109925334D01*
X129883576Y-109912546D01*
X129867670Y-109898130D01*
X129853254Y-109882224D01*
X129840466Y-109864981D01*
X129829430Y-109846568D01*
X129820251Y-109827162D01*
X129813019Y-109806950D01*
X129807803Y-109786126D01*
X129804653Y-109764891D01*
X129803600Y-109743450D01*
X129803600Y-109230950D01*
X129804653Y-109209509D01*
X129807803Y-109188274D01*
X129813019Y-109167450D01*
X129820251Y-109147238D01*
X129829430Y-109127832D01*
X129840466Y-109109419D01*
X129853254Y-109092176D01*
X129867670Y-109076270D01*
X129883576Y-109061854D01*
X129900819Y-109049066D01*
X129919232Y-109038030D01*
X129938638Y-109028851D01*
X129958850Y-109021619D01*
X129979674Y-109016403D01*
X130000909Y-109013253D01*
X130022350Y-109012200D01*
X130459850Y-109012200D01*
X130481291Y-109013253D01*
G37*
%TD.AperFunction*%
%TA.AperFunction,SMDPad,CuDef*%
%TO.P,R16,1*%
%TO.N,Net-(M1-Pad13)*%
G36*
X128906291Y-109013253D02*
G01*
X128927526Y-109016403D01*
X128948350Y-109021619D01*
X128968562Y-109028851D01*
X128987968Y-109038030D01*
X129006381Y-109049066D01*
X129023624Y-109061854D01*
X129039530Y-109076270D01*
X129053946Y-109092176D01*
X129066734Y-109109419D01*
X129077770Y-109127832D01*
X129086949Y-109147238D01*
X129094181Y-109167450D01*
X129099397Y-109188274D01*
X129102547Y-109209509D01*
X129103600Y-109230950D01*
X129103600Y-109743450D01*
X129102547Y-109764891D01*
X129099397Y-109786126D01*
X129094181Y-109806950D01*
X129086949Y-109827162D01*
X129077770Y-109846568D01*
X129066734Y-109864981D01*
X129053946Y-109882224D01*
X129039530Y-109898130D01*
X129023624Y-109912546D01*
X129006381Y-109925334D01*
X128987968Y-109936370D01*
X128968562Y-109945549D01*
X128948350Y-109952781D01*
X128927526Y-109957997D01*
X128906291Y-109961147D01*
X128884850Y-109962200D01*
X128447350Y-109962200D01*
X128425909Y-109961147D01*
X128404674Y-109957997D01*
X128383850Y-109952781D01*
X128363638Y-109945549D01*
X128344232Y-109936370D01*
X128325819Y-109925334D01*
X128308576Y-109912546D01*
X128292670Y-109898130D01*
X128278254Y-109882224D01*
X128265466Y-109864981D01*
X128254430Y-109846568D01*
X128245251Y-109827162D01*
X128238019Y-109806950D01*
X128232803Y-109786126D01*
X128229653Y-109764891D01*
X128228600Y-109743450D01*
X128228600Y-109230950D01*
X128229653Y-109209509D01*
X128232803Y-109188274D01*
X128238019Y-109167450D01*
X128245251Y-109147238D01*
X128254430Y-109127832D01*
X128265466Y-109109419D01*
X128278254Y-109092176D01*
X128292670Y-109076270D01*
X128308576Y-109061854D01*
X128325819Y-109049066D01*
X128344232Y-109038030D01*
X128363638Y-109028851D01*
X128383850Y-109021619D01*
X128404674Y-109016403D01*
X128425909Y-109013253D01*
X128447350Y-109012200D01*
X128884850Y-109012200D01*
X128906291Y-109013253D01*
G37*
%TD.AperFunction*%
%TD*%
%TA.AperFunction,SMDPad,CuDef*%
%TO.P,R14,2*%
%TO.N,/SX1280_BUSY*%
G36*
X130379691Y-106727253D02*
G01*
X130400926Y-106730403D01*
X130421750Y-106735619D01*
X130441962Y-106742851D01*
X130461368Y-106752030D01*
X130479781Y-106763066D01*
X130497024Y-106775854D01*
X130512930Y-106790270D01*
X130527346Y-106806176D01*
X130540134Y-106823419D01*
X130551170Y-106841832D01*
X130560349Y-106861238D01*
X130567581Y-106881450D01*
X130572797Y-106902274D01*
X130575947Y-106923509D01*
X130577000Y-106944950D01*
X130577000Y-107457450D01*
X130575947Y-107478891D01*
X130572797Y-107500126D01*
X130567581Y-107520950D01*
X130560349Y-107541162D01*
X130551170Y-107560568D01*
X130540134Y-107578981D01*
X130527346Y-107596224D01*
X130512930Y-107612130D01*
X130497024Y-107626546D01*
X130479781Y-107639334D01*
X130461368Y-107650370D01*
X130441962Y-107659549D01*
X130421750Y-107666781D01*
X130400926Y-107671997D01*
X130379691Y-107675147D01*
X130358250Y-107676200D01*
X129920750Y-107676200D01*
X129899309Y-107675147D01*
X129878074Y-107671997D01*
X129857250Y-107666781D01*
X129837038Y-107659549D01*
X129817632Y-107650370D01*
X129799219Y-107639334D01*
X129781976Y-107626546D01*
X129766070Y-107612130D01*
X129751654Y-107596224D01*
X129738866Y-107578981D01*
X129727830Y-107560568D01*
X129718651Y-107541162D01*
X129711419Y-107520950D01*
X129706203Y-107500126D01*
X129703053Y-107478891D01*
X129702000Y-107457450D01*
X129702000Y-106944950D01*
X129703053Y-106923509D01*
X129706203Y-106902274D01*
X129711419Y-106881450D01*
X129718651Y-106861238D01*
X129727830Y-106841832D01*
X129738866Y-106823419D01*
X129751654Y-106806176D01*
X129766070Y-106790270D01*
X129781976Y-106775854D01*
X129799219Y-106763066D01*
X129817632Y-106752030D01*
X129837038Y-106742851D01*
X129857250Y-106735619D01*
X129878074Y-106730403D01*
X129899309Y-106727253D01*
X129920750Y-106726200D01*
X130358250Y-106726200D01*
X130379691Y-106727253D01*
G37*
%TD.AperFunction*%
%TA.AperFunction,SMDPad,CuDef*%
%TO.P,R14,1*%
%TO.N,Net-(M1-Pad12)*%
G36*
X128804691Y-106727253D02*
G01*
X128825926Y-106730403D01*
X128846750Y-106735619D01*
X128866962Y-106742851D01*
X128886368Y-106752030D01*
X128904781Y-106763066D01*
X128922024Y-106775854D01*
X128937930Y-106790270D01*
X128952346Y-106806176D01*
X128965134Y-106823419D01*
X128976170Y-106841832D01*
X128985349Y-106861238D01*
X128992581Y-106881450D01*
X128997797Y-106902274D01*
X129000947Y-106923509D01*
X129002000Y-106944950D01*
X129002000Y-107457450D01*
X129000947Y-107478891D01*
X128997797Y-107500126D01*
X128992581Y-107520950D01*
X128985349Y-107541162D01*
X128976170Y-107560568D01*
X128965134Y-107578981D01*
X128952346Y-107596224D01*
X128937930Y-107612130D01*
X128922024Y-107626546D01*
X128904781Y-107639334D01*
X128886368Y-107650370D01*
X128866962Y-107659549D01*
X128846750Y-107666781D01*
X128825926Y-107671997D01*
X128804691Y-107675147D01*
X128783250Y-107676200D01*
X128345750Y-107676200D01*
X128324309Y-107675147D01*
X128303074Y-107671997D01*
X128282250Y-107666781D01*
X128262038Y-107659549D01*
X128242632Y-107650370D01*
X128224219Y-107639334D01*
X128206976Y-107626546D01*
X128191070Y-107612130D01*
X128176654Y-107596224D01*
X128163866Y-107578981D01*
X128152830Y-107560568D01*
X128143651Y-107541162D01*
X128136419Y-107520950D01*
X128131203Y-107500126D01*
X128128053Y-107478891D01*
X128127000Y-107457450D01*
X128127000Y-106944950D01*
X128128053Y-106923509D01*
X128131203Y-106902274D01*
X128136419Y-106881450D01*
X128143651Y-106861238D01*
X128152830Y-106841832D01*
X128163866Y-106823419D01*
X128176654Y-106806176D01*
X128191070Y-106790270D01*
X128206976Y-106775854D01*
X128224219Y-106763066D01*
X128242632Y-106752030D01*
X128262038Y-106742851D01*
X128282250Y-106735619D01*
X128303074Y-106730403D01*
X128324309Y-106727253D01*
X128345750Y-106726200D01*
X128783250Y-106726200D01*
X128804691Y-106727253D01*
G37*
%TD.AperFunction*%
%TD*%
%TA.AperFunction,SMDPad,CuDef*%
%TO.P,R13,2*%
%TO.N,/SX1280_nRESET*%
G36*
X130339191Y-104936053D02*
G01*
X130360426Y-104939203D01*
X130381250Y-104944419D01*
X130401462Y-104951651D01*
X130420868Y-104960830D01*
X130439281Y-104971866D01*
X130456524Y-104984654D01*
X130472430Y-104999070D01*
X130486846Y-105014976D01*
X130499634Y-105032219D01*
X130510670Y-105050632D01*
X130519849Y-105070038D01*
X130527081Y-105090250D01*
X130532297Y-105111074D01*
X130535447Y-105132309D01*
X130536500Y-105153750D01*
X130536500Y-105666250D01*
X130535447Y-105687691D01*
X130532297Y-105708926D01*
X130527081Y-105729750D01*
X130519849Y-105749962D01*
X130510670Y-105769368D01*
X130499634Y-105787781D01*
X130486846Y-105805024D01*
X130472430Y-105820930D01*
X130456524Y-105835346D01*
X130439281Y-105848134D01*
X130420868Y-105859170D01*
X130401462Y-105868349D01*
X130381250Y-105875581D01*
X130360426Y-105880797D01*
X130339191Y-105883947D01*
X130317750Y-105885000D01*
X129880250Y-105885000D01*
X129858809Y-105883947D01*
X129837574Y-105880797D01*
X129816750Y-105875581D01*
X129796538Y-105868349D01*
X129777132Y-105859170D01*
X129758719Y-105848134D01*
X129741476Y-105835346D01*
X129725570Y-105820930D01*
X129711154Y-105805024D01*
X129698366Y-105787781D01*
X129687330Y-105769368D01*
X129678151Y-105749962D01*
X129670919Y-105729750D01*
X129665703Y-105708926D01*
X129662553Y-105687691D01*
X129661500Y-105666250D01*
X129661500Y-105153750D01*
X129662553Y-105132309D01*
X129665703Y-105111074D01*
X129670919Y-105090250D01*
X129678151Y-105070038D01*
X129687330Y-105050632D01*
X129698366Y-105032219D01*
X129711154Y-105014976D01*
X129725570Y-104999070D01*
X129741476Y-104984654D01*
X129758719Y-104971866D01*
X129777132Y-104960830D01*
X129796538Y-104951651D01*
X129816750Y-104944419D01*
X129837574Y-104939203D01*
X129858809Y-104936053D01*
X129880250Y-104935000D01*
X130317750Y-104935000D01*
X130339191Y-104936053D01*
G37*
%TD.AperFunction*%
%TA.AperFunction,SMDPad,CuDef*%
%TO.P,R13,1*%
%TO.N,Net-(M1-Pad11)*%
G36*
X128764191Y-104936053D02*
G01*
X128785426Y-104939203D01*
X128806250Y-104944419D01*
X128826462Y-104951651D01*
X128845868Y-104960830D01*
X128864281Y-104971866D01*
X128881524Y-104984654D01*
X128897430Y-104999070D01*
X128911846Y-105014976D01*
X128924634Y-105032219D01*
X128935670Y-105050632D01*
X128944849Y-105070038D01*
X128952081Y-105090250D01*
X128957297Y-105111074D01*
X128960447Y-105132309D01*
X128961500Y-105153750D01*
X128961500Y-105666250D01*
X128960447Y-105687691D01*
X128957297Y-105708926D01*
X128952081Y-105729750D01*
X128944849Y-105749962D01*
X128935670Y-105769368D01*
X128924634Y-105787781D01*
X128911846Y-105805024D01*
X128897430Y-105820930D01*
X128881524Y-105835346D01*
X128864281Y-105848134D01*
X128845868Y-105859170D01*
X128826462Y-105868349D01*
X128806250Y-105875581D01*
X128785426Y-105880797D01*
X128764191Y-105883947D01*
X128742750Y-105885000D01*
X128305250Y-105885000D01*
X128283809Y-105883947D01*
X128262574Y-105880797D01*
X128241750Y-105875581D01*
X128221538Y-105868349D01*
X128202132Y-105859170D01*
X128183719Y-105848134D01*
X128166476Y-105835346D01*
X128150570Y-105820930D01*
X128136154Y-105805024D01*
X128123366Y-105787781D01*
X128112330Y-105769368D01*
X128103151Y-105749962D01*
X128095919Y-105729750D01*
X128090703Y-105708926D01*
X128087553Y-105687691D01*
X128086500Y-105666250D01*
X128086500Y-105153750D01*
X128087553Y-105132309D01*
X128090703Y-105111074D01*
X128095919Y-105090250D01*
X128103151Y-105070038D01*
X128112330Y-105050632D01*
X128123366Y-105032219D01*
X128136154Y-105014976D01*
X128150570Y-104999070D01*
X128166476Y-104984654D01*
X128183719Y-104971866D01*
X128202132Y-104960830D01*
X128221538Y-104951651D01*
X128241750Y-104944419D01*
X128262574Y-104939203D01*
X128283809Y-104936053D01*
X128305250Y-104935000D01*
X128742750Y-104935000D01*
X128764191Y-104936053D01*
G37*
%TD.AperFunction*%
%TD*%
%TA.AperFunction,SMDPad,CuDef*%
%TO.P,R12,2*%
%TO.N,/SX1280_nCS*%
G36*
X108164691Y-106206053D02*
G01*
X108185926Y-106209203D01*
X108206750Y-106214419D01*
X108226962Y-106221651D01*
X108246368Y-106230830D01*
X108264781Y-106241866D01*
X108282024Y-106254654D01*
X108297930Y-106269070D01*
X108312346Y-106284976D01*
X108325134Y-106302219D01*
X108336170Y-106320632D01*
X108345349Y-106340038D01*
X108352581Y-106360250D01*
X108357797Y-106381074D01*
X108360947Y-106402309D01*
X108362000Y-106423750D01*
X108362000Y-106936250D01*
X108360947Y-106957691D01*
X108357797Y-106978926D01*
X108352581Y-106999750D01*
X108345349Y-107019962D01*
X108336170Y-107039368D01*
X108325134Y-107057781D01*
X108312346Y-107075024D01*
X108297930Y-107090930D01*
X108282024Y-107105346D01*
X108264781Y-107118134D01*
X108246368Y-107129170D01*
X108226962Y-107138349D01*
X108206750Y-107145581D01*
X108185926Y-107150797D01*
X108164691Y-107153947D01*
X108143250Y-107155000D01*
X107705750Y-107155000D01*
X107684309Y-107153947D01*
X107663074Y-107150797D01*
X107642250Y-107145581D01*
X107622038Y-107138349D01*
X107602632Y-107129170D01*
X107584219Y-107118134D01*
X107566976Y-107105346D01*
X107551070Y-107090930D01*
X107536654Y-107075024D01*
X107523866Y-107057781D01*
X107512830Y-107039368D01*
X107503651Y-107019962D01*
X107496419Y-106999750D01*
X107491203Y-106978926D01*
X107488053Y-106957691D01*
X107487000Y-106936250D01*
X107487000Y-106423750D01*
X107488053Y-106402309D01*
X107491203Y-106381074D01*
X107496419Y-106360250D01*
X107503651Y-106340038D01*
X107512830Y-106320632D01*
X107523866Y-106302219D01*
X107536654Y-106284976D01*
X107551070Y-106269070D01*
X107566976Y-106254654D01*
X107584219Y-106241866D01*
X107602632Y-106230830D01*
X107622038Y-106221651D01*
X107642250Y-106214419D01*
X107663074Y-106209203D01*
X107684309Y-106206053D01*
X107705750Y-106205000D01*
X108143250Y-106205000D01*
X108164691Y-106206053D01*
G37*
%TD.AperFunction*%
%TA.AperFunction,SMDPad,CuDef*%
%TO.P,R12,1*%
%TO.N,Net-(M1-Pad6)*%
G36*
X109739691Y-106206053D02*
G01*
X109760926Y-106209203D01*
X109781750Y-106214419D01*
X109801962Y-106221651D01*
X109821368Y-106230830D01*
X109839781Y-106241866D01*
X109857024Y-106254654D01*
X109872930Y-106269070D01*
X109887346Y-106284976D01*
X109900134Y-106302219D01*
X109911170Y-106320632D01*
X109920349Y-106340038D01*
X109927581Y-106360250D01*
X109932797Y-106381074D01*
X109935947Y-106402309D01*
X109937000Y-106423750D01*
X109937000Y-106936250D01*
X109935947Y-106957691D01*
X109932797Y-106978926D01*
X109927581Y-106999750D01*
X109920349Y-107019962D01*
X109911170Y-107039368D01*
X109900134Y-107057781D01*
X109887346Y-107075024D01*
X109872930Y-107090930D01*
X109857024Y-107105346D01*
X109839781Y-107118134D01*
X109821368Y-107129170D01*
X109801962Y-107138349D01*
X109781750Y-107145581D01*
X109760926Y-107150797D01*
X109739691Y-107153947D01*
X109718250Y-107155000D01*
X109280750Y-107155000D01*
X109259309Y-107153947D01*
X109238074Y-107150797D01*
X109217250Y-107145581D01*
X109197038Y-107138349D01*
X109177632Y-107129170D01*
X109159219Y-107118134D01*
X109141976Y-107105346D01*
X109126070Y-107090930D01*
X109111654Y-107075024D01*
X109098866Y-107057781D01*
X109087830Y-107039368D01*
X109078651Y-107019962D01*
X109071419Y-106999750D01*
X109066203Y-106978926D01*
X109063053Y-106957691D01*
X109062000Y-106936250D01*
X109062000Y-106423750D01*
X109063053Y-106402309D01*
X109066203Y-106381074D01*
X109071419Y-106360250D01*
X109078651Y-106340038D01*
X109087830Y-106320632D01*
X109098866Y-106302219D01*
X109111654Y-106284976D01*
X109126070Y-106269070D01*
X109141976Y-106254654D01*
X109159219Y-106241866D01*
X109177632Y-106230830D01*
X109197038Y-106221651D01*
X109217250Y-106214419D01*
X109238074Y-106209203D01*
X109259309Y-106206053D01*
X109280750Y-106205000D01*
X109718250Y-106205000D01*
X109739691Y-106206053D01*
G37*
%TD.AperFunction*%
%TD*%
%TA.AperFunction,SMDPad,CuDef*%
%TO.P,R11,2*%
%TO.N,/SX1280_SCK*%
G36*
X108139191Y-108873053D02*
G01*
X108160426Y-108876203D01*
X108181250Y-108881419D01*
X108201462Y-108888651D01*
X108220868Y-108897830D01*
X108239281Y-108908866D01*
X108256524Y-108921654D01*
X108272430Y-108936070D01*
X108286846Y-108951976D01*
X108299634Y-108969219D01*
X108310670Y-108987632D01*
X108319849Y-109007038D01*
X108327081Y-109027250D01*
X108332297Y-109048074D01*
X108335447Y-109069309D01*
X108336500Y-109090750D01*
X108336500Y-109603250D01*
X108335447Y-109624691D01*
X108332297Y-109645926D01*
X108327081Y-109666750D01*
X108319849Y-109686962D01*
X108310670Y-109706368D01*
X108299634Y-109724781D01*
X108286846Y-109742024D01*
X108272430Y-109757930D01*
X108256524Y-109772346D01*
X108239281Y-109785134D01*
X108220868Y-109796170D01*
X108201462Y-109805349D01*
X108181250Y-109812581D01*
X108160426Y-109817797D01*
X108139191Y-109820947D01*
X108117750Y-109822000D01*
X107680250Y-109822000D01*
X107658809Y-109820947D01*
X107637574Y-109817797D01*
X107616750Y-109812581D01*
X107596538Y-109805349D01*
X107577132Y-109796170D01*
X107558719Y-109785134D01*
X107541476Y-109772346D01*
X107525570Y-109757930D01*
X107511154Y-109742024D01*
X107498366Y-109724781D01*
X107487330Y-109706368D01*
X107478151Y-109686962D01*
X107470919Y-109666750D01*
X107465703Y-109645926D01*
X107462553Y-109624691D01*
X107461500Y-109603250D01*
X107461500Y-109090750D01*
X107462553Y-109069309D01*
X107465703Y-109048074D01*
X107470919Y-109027250D01*
X107478151Y-109007038D01*
X107487330Y-108987632D01*
X107498366Y-108969219D01*
X107511154Y-108951976D01*
X107525570Y-108936070D01*
X107541476Y-108921654D01*
X107558719Y-108908866D01*
X107577132Y-108897830D01*
X107596538Y-108888651D01*
X107616750Y-108881419D01*
X107637574Y-108876203D01*
X107658809Y-108873053D01*
X107680250Y-108872000D01*
X108117750Y-108872000D01*
X108139191Y-108873053D01*
G37*
%TD.AperFunction*%
%TA.AperFunction,SMDPad,CuDef*%
%TO.P,R11,1*%
%TO.N,Net-(M1-Pad5)*%
G36*
X109714191Y-108873053D02*
G01*
X109735426Y-108876203D01*
X109756250Y-108881419D01*
X109776462Y-108888651D01*
X109795868Y-108897830D01*
X109814281Y-108908866D01*
X109831524Y-108921654D01*
X109847430Y-108936070D01*
X109861846Y-108951976D01*
X109874634Y-108969219D01*
X109885670Y-108987632D01*
X109894849Y-109007038D01*
X109902081Y-109027250D01*
X109907297Y-109048074D01*
X109910447Y-109069309D01*
X109911500Y-109090750D01*
X109911500Y-109603250D01*
X109910447Y-109624691D01*
X109907297Y-109645926D01*
X109902081Y-109666750D01*
X109894849Y-109686962D01*
X109885670Y-109706368D01*
X109874634Y-109724781D01*
X109861846Y-109742024D01*
X109847430Y-109757930D01*
X109831524Y-109772346D01*
X109814281Y-109785134D01*
X109795868Y-109796170D01*
X109776462Y-109805349D01*
X109756250Y-109812581D01*
X109735426Y-109817797D01*
X109714191Y-109820947D01*
X109692750Y-109822000D01*
X109255250Y-109822000D01*
X109233809Y-109820947D01*
X109212574Y-109817797D01*
X109191750Y-109812581D01*
X109171538Y-109805349D01*
X109152132Y-109796170D01*
X109133719Y-109785134D01*
X109116476Y-109772346D01*
X109100570Y-109757930D01*
X109086154Y-109742024D01*
X109073366Y-109724781D01*
X109062330Y-109706368D01*
X109053151Y-109686962D01*
X109045919Y-109666750D01*
X109040703Y-109645926D01*
X109037553Y-109624691D01*
X109036500Y-109603250D01*
X109036500Y-109090750D01*
X109037553Y-109069309D01*
X109040703Y-109048074D01*
X109045919Y-109027250D01*
X109053151Y-109007038D01*
X109062330Y-108987632D01*
X109073366Y-108969219D01*
X109086154Y-108951976D01*
X109100570Y-108936070D01*
X109116476Y-108921654D01*
X109133719Y-108908866D01*
X109152132Y-108897830D01*
X109171538Y-108888651D01*
X109191750Y-108881419D01*
X109212574Y-108876203D01*
X109233809Y-108873053D01*
X109255250Y-108872000D01*
X109692750Y-108872000D01*
X109714191Y-108873053D01*
G37*
%TD.AperFunction*%
%TD*%
%TA.AperFunction,SMDPad,CuDef*%
%TO.P,R9,2*%
%TO.N,/SX1280_MISO*%
G36*
X108164691Y-112683053D02*
G01*
X108185926Y-112686203D01*
X108206750Y-112691419D01*
X108226962Y-112698651D01*
X108246368Y-112707830D01*
X108264781Y-112718866D01*
X108282024Y-112731654D01*
X108297930Y-112746070D01*
X108312346Y-112761976D01*
X108325134Y-112779219D01*
X108336170Y-112797632D01*
X108345349Y-112817038D01*
X108352581Y-112837250D01*
X108357797Y-112858074D01*
X108360947Y-112879309D01*
X108362000Y-112900750D01*
X108362000Y-113413250D01*
X108360947Y-113434691D01*
X108357797Y-113455926D01*
X108352581Y-113476750D01*
X108345349Y-113496962D01*
X108336170Y-113516368D01*
X108325134Y-113534781D01*
X108312346Y-113552024D01*
X108297930Y-113567930D01*
X108282024Y-113582346D01*
X108264781Y-113595134D01*
X108246368Y-113606170D01*
X108226962Y-113615349D01*
X108206750Y-113622581D01*
X108185926Y-113627797D01*
X108164691Y-113630947D01*
X108143250Y-113632000D01*
X107705750Y-113632000D01*
X107684309Y-113630947D01*
X107663074Y-113627797D01*
X107642250Y-113622581D01*
X107622038Y-113615349D01*
X107602632Y-113606170D01*
X107584219Y-113595134D01*
X107566976Y-113582346D01*
X107551070Y-113567930D01*
X107536654Y-113552024D01*
X107523866Y-113534781D01*
X107512830Y-113516368D01*
X107503651Y-113496962D01*
X107496419Y-113476750D01*
X107491203Y-113455926D01*
X107488053Y-113434691D01*
X107487000Y-113413250D01*
X107487000Y-112900750D01*
X107488053Y-112879309D01*
X107491203Y-112858074D01*
X107496419Y-112837250D01*
X107503651Y-112817038D01*
X107512830Y-112797632D01*
X107523866Y-112779219D01*
X107536654Y-112761976D01*
X107551070Y-112746070D01*
X107566976Y-112731654D01*
X107584219Y-112718866D01*
X107602632Y-112707830D01*
X107622038Y-112698651D01*
X107642250Y-112691419D01*
X107663074Y-112686203D01*
X107684309Y-112683053D01*
X107705750Y-112682000D01*
X108143250Y-112682000D01*
X108164691Y-112683053D01*
G37*
%TD.AperFunction*%
%TA.AperFunction,SMDPad,CuDef*%
%TO.P,R9,1*%
%TO.N,Net-(M1-Pad3)*%
G36*
X109739691Y-112683053D02*
G01*
X109760926Y-112686203D01*
X109781750Y-112691419D01*
X109801962Y-112698651D01*
X109821368Y-112707830D01*
X109839781Y-112718866D01*
X109857024Y-112731654D01*
X109872930Y-112746070D01*
X109887346Y-112761976D01*
X109900134Y-112779219D01*
X109911170Y-112797632D01*
X109920349Y-112817038D01*
X109927581Y-112837250D01*
X109932797Y-112858074D01*
X109935947Y-112879309D01*
X109937000Y-112900750D01*
X109937000Y-113413250D01*
X109935947Y-113434691D01*
X109932797Y-113455926D01*
X109927581Y-113476750D01*
X109920349Y-113496962D01*
X109911170Y-113516368D01*
X109900134Y-113534781D01*
X109887346Y-113552024D01*
X109872930Y-113567930D01*
X109857024Y-113582346D01*
X109839781Y-113595134D01*
X109821368Y-113606170D01*
X109801962Y-113615349D01*
X109781750Y-113622581D01*
X109760926Y-113627797D01*
X109739691Y-113630947D01*
X109718250Y-113632000D01*
X109280750Y-113632000D01*
X109259309Y-113630947D01*
X109238074Y-113627797D01*
X109217250Y-113622581D01*
X109197038Y-113615349D01*
X109177632Y-113606170D01*
X109159219Y-113595134D01*
X109141976Y-113582346D01*
X109126070Y-113567930D01*
X109111654Y-113552024D01*
X109098866Y-113534781D01*
X109087830Y-113516368D01*
X109078651Y-113496962D01*
X109071419Y-113476750D01*
X109066203Y-113455926D01*
X109063053Y-113434691D01*
X109062000Y-113413250D01*
X109062000Y-112900750D01*
X109063053Y-112879309D01*
X109066203Y-112858074D01*
X109071419Y-112837250D01*
X109078651Y-112817038D01*
X109087830Y-112797632D01*
X109098866Y-112779219D01*
X109111654Y-112761976D01*
X109126070Y-112746070D01*
X109141976Y-112731654D01*
X109159219Y-112718866D01*
X109177632Y-112707830D01*
X109197038Y-112698651D01*
X109217250Y-112691419D01*
X109238074Y-112686203D01*
X109259309Y-112683053D01*
X109280750Y-112682000D01*
X109718250Y-112682000D01*
X109739691Y-112683053D01*
G37*
%TD.AperFunction*%
%TD*%
%TA.AperFunction,SMDPad,CuDef*%
%TO.P,R8,2*%
%TO.N,/SX1280_MOSI*%
G36*
X108164691Y-111159053D02*
G01*
X108185926Y-111162203D01*
X108206750Y-111167419D01*
X108226962Y-111174651D01*
X108246368Y-111183830D01*
X108264781Y-111194866D01*
X108282024Y-111207654D01*
X108297930Y-111222070D01*
X108312346Y-111237976D01*
X108325134Y-111255219D01*
X108336170Y-111273632D01*
X108345349Y-111293038D01*
X108352581Y-111313250D01*
X108357797Y-111334074D01*
X108360947Y-111355309D01*
X108362000Y-111376750D01*
X108362000Y-111889250D01*
X108360947Y-111910691D01*
X108357797Y-111931926D01*
X108352581Y-111952750D01*
X108345349Y-111972962D01*
X108336170Y-111992368D01*
X108325134Y-112010781D01*
X108312346Y-112028024D01*
X108297930Y-112043930D01*
X108282024Y-112058346D01*
X108264781Y-112071134D01*
X108246368Y-112082170D01*
X108226962Y-112091349D01*
X108206750Y-112098581D01*
X108185926Y-112103797D01*
X108164691Y-112106947D01*
X108143250Y-112108000D01*
X107705750Y-112108000D01*
X107684309Y-112106947D01*
X107663074Y-112103797D01*
X107642250Y-112098581D01*
X107622038Y-112091349D01*
X107602632Y-112082170D01*
X107584219Y-112071134D01*
X107566976Y-112058346D01*
X107551070Y-112043930D01*
X107536654Y-112028024D01*
X107523866Y-112010781D01*
X107512830Y-111992368D01*
X107503651Y-111972962D01*
X107496419Y-111952750D01*
X107491203Y-111931926D01*
X107488053Y-111910691D01*
X107487000Y-111889250D01*
X107487000Y-111376750D01*
X107488053Y-111355309D01*
X107491203Y-111334074D01*
X107496419Y-111313250D01*
X107503651Y-111293038D01*
X107512830Y-111273632D01*
X107523866Y-111255219D01*
X107536654Y-111237976D01*
X107551070Y-111222070D01*
X107566976Y-111207654D01*
X107584219Y-111194866D01*
X107602632Y-111183830D01*
X107622038Y-111174651D01*
X107642250Y-111167419D01*
X107663074Y-111162203D01*
X107684309Y-111159053D01*
X107705750Y-111158000D01*
X108143250Y-111158000D01*
X108164691Y-111159053D01*
G37*
%TD.AperFunction*%
%TA.AperFunction,SMDPad,CuDef*%
%TO.P,R8,1*%
%TO.N,Net-(M1-Pad4)*%
G36*
X109739691Y-111159053D02*
G01*
X109760926Y-111162203D01*
X109781750Y-111167419D01*
X109801962Y-111174651D01*
X109821368Y-111183830D01*
X109839781Y-111194866D01*
X109857024Y-111207654D01*
X109872930Y-111222070D01*
X109887346Y-111237976D01*
X109900134Y-111255219D01*
X109911170Y-111273632D01*
X109920349Y-111293038D01*
X109927581Y-111313250D01*
X109932797Y-111334074D01*
X109935947Y-111355309D01*
X109937000Y-111376750D01*
X109937000Y-111889250D01*
X109935947Y-111910691D01*
X109932797Y-111931926D01*
X109927581Y-111952750D01*
X109920349Y-111972962D01*
X109911170Y-111992368D01*
X109900134Y-112010781D01*
X109887346Y-112028024D01*
X109872930Y-112043930D01*
X109857024Y-112058346D01*
X109839781Y-112071134D01*
X109821368Y-112082170D01*
X109801962Y-112091349D01*
X109781750Y-112098581D01*
X109760926Y-112103797D01*
X109739691Y-112106947D01*
X109718250Y-112108000D01*
X109280750Y-112108000D01*
X109259309Y-112106947D01*
X109238074Y-112103797D01*
X109217250Y-112098581D01*
X109197038Y-112091349D01*
X109177632Y-112082170D01*
X109159219Y-112071134D01*
X109141976Y-112058346D01*
X109126070Y-112043930D01*
X109111654Y-112028024D01*
X109098866Y-112010781D01*
X109087830Y-111992368D01*
X109078651Y-111972962D01*
X109071419Y-111952750D01*
X109066203Y-111931926D01*
X109063053Y-111910691D01*
X109062000Y-111889250D01*
X109062000Y-111376750D01*
X109063053Y-111355309D01*
X109066203Y-111334074D01*
X109071419Y-111313250D01*
X109078651Y-111293038D01*
X109087830Y-111273632D01*
X109098866Y-111255219D01*
X109111654Y-111237976D01*
X109126070Y-111222070D01*
X109141976Y-111207654D01*
X109159219Y-111194866D01*
X109177632Y-111183830D01*
X109197038Y-111174651D01*
X109217250Y-111167419D01*
X109238074Y-111162203D01*
X109259309Y-111159053D01*
X109280750Y-111158000D01*
X109718250Y-111158000D01*
X109739691Y-111159053D01*
G37*
%TD.AperFunction*%
%TD*%
D16*
%TO.P,M1,8*%
%TO.N,Net-(M1-Pad8)*%
X111500000Y-106555000D03*
%TO.P,M1,9*%
%TO.N,Net-(M1-Pad9)*%
X126500000Y-106555000D03*
%TO.P,M1,7*%
%TO.N,GND*%
X111500000Y-107825000D03*
%TO.P,M1,10*%
X126500000Y-107825000D03*
%TO.P,M1,6*%
%TO.N,Net-(M1-Pad6)*%
X111500000Y-109095000D03*
%TO.P,M1,11*%
%TO.N,Net-(M1-Pad11)*%
X126500000Y-109095000D03*
%TO.P,M1,5*%
%TO.N,Net-(M1-Pad5)*%
X111500000Y-110365000D03*
%TO.P,M1,12*%
%TO.N,Net-(M1-Pad12)*%
X126500000Y-110365000D03*
%TO.P,M1,4*%
%TO.N,Net-(M1-Pad4)*%
X111500000Y-111635000D03*
%TO.P,M1,13*%
%TO.N,Net-(M1-Pad13)*%
X126500000Y-111635000D03*
%TO.P,M1,3*%
%TO.N,Net-(M1-Pad3)*%
X111500000Y-112905000D03*
%TO.P,M1,14*%
%TO.N,N/C*%
X126500000Y-112905000D03*
%TO.P,M1,2*%
%TO.N,GND*%
X111500000Y-114175000D03*
%TO.P,M1,15*%
%TO.N,N/C*%
X126500000Y-114175000D03*
%TO.P,M1,1*%
%TO.N,Net-(C7-Pad1)*%
X111500000Y-115445000D03*
%TO.P,M1,16*%
%TO.N,GND*%
X126500000Y-115445000D03*
%TD*%
%TA.AperFunction,SMDPad,CuDef*%
D15*
%TO.P,L1,2*%
%TO.N,Net-(C7-Pad1)*%
G36*
X111900491Y-118829653D02*
G01*
X111921726Y-118832803D01*
X111942550Y-118838019D01*
X111962762Y-118845251D01*
X111982168Y-118854430D01*
X112000581Y-118865466D01*
X112017824Y-118878254D01*
X112033730Y-118892670D01*
X112048146Y-118908576D01*
X112060934Y-118925819D01*
X112071970Y-118944232D01*
X112081149Y-118963638D01*
X112088381Y-118983850D01*
X112093597Y-119004674D01*
X112096747Y-119025909D01*
X112097800Y-119047350D01*
X112097800Y-119484850D01*
X112096747Y-119506291D01*
X112093597Y-119527526D01*
X112088381Y-119548350D01*
X112081149Y-119568562D01*
X112071970Y-119587968D01*
X112060934Y-119606381D01*
X112048146Y-119623624D01*
X112033730Y-119639530D01*
X112017824Y-119653946D01*
X112000581Y-119666734D01*
X111982168Y-119677770D01*
X111962762Y-119686949D01*
X111942550Y-119694181D01*
X111921726Y-119699397D01*
X111900491Y-119702547D01*
X111879050Y-119703600D01*
X111366550Y-119703600D01*
X111345109Y-119702547D01*
X111323874Y-119699397D01*
X111303050Y-119694181D01*
X111282838Y-119686949D01*
X111263432Y-119677770D01*
X111245019Y-119666734D01*
X111227776Y-119653946D01*
X111211870Y-119639530D01*
X111197454Y-119623624D01*
X111184666Y-119606381D01*
X111173630Y-119587968D01*
X111164451Y-119568562D01*
X111157219Y-119548350D01*
X111152003Y-119527526D01*
X111148853Y-119506291D01*
X111147800Y-119484850D01*
X111147800Y-119047350D01*
X111148853Y-119025909D01*
X111152003Y-119004674D01*
X111157219Y-118983850D01*
X111164451Y-118963638D01*
X111173630Y-118944232D01*
X111184666Y-118925819D01*
X111197454Y-118908576D01*
X111211870Y-118892670D01*
X111227776Y-118878254D01*
X111245019Y-118865466D01*
X111263432Y-118854430D01*
X111282838Y-118845251D01*
X111303050Y-118838019D01*
X111323874Y-118832803D01*
X111345109Y-118829653D01*
X111366550Y-118828600D01*
X111879050Y-118828600D01*
X111900491Y-118829653D01*
G37*
%TD.AperFunction*%
%TA.AperFunction,SMDPad,CuDef*%
%TO.P,L1,1*%
%TO.N,+3V3*%
G36*
X111900491Y-120404653D02*
G01*
X111921726Y-120407803D01*
X111942550Y-120413019D01*
X111962762Y-120420251D01*
X111982168Y-120429430D01*
X112000581Y-120440466D01*
X112017824Y-120453254D01*
X112033730Y-120467670D01*
X112048146Y-120483576D01*
X112060934Y-120500819D01*
X112071970Y-120519232D01*
X112081149Y-120538638D01*
X112088381Y-120558850D01*
X112093597Y-120579674D01*
X112096747Y-120600909D01*
X112097800Y-120622350D01*
X112097800Y-121059850D01*
X112096747Y-121081291D01*
X112093597Y-121102526D01*
X112088381Y-121123350D01*
X112081149Y-121143562D01*
X112071970Y-121162968D01*
X112060934Y-121181381D01*
X112048146Y-121198624D01*
X112033730Y-121214530D01*
X112017824Y-121228946D01*
X112000581Y-121241734D01*
X111982168Y-121252770D01*
X111962762Y-121261949D01*
X111942550Y-121269181D01*
X111921726Y-121274397D01*
X111900491Y-121277547D01*
X111879050Y-121278600D01*
X111366550Y-121278600D01*
X111345109Y-121277547D01*
X111323874Y-121274397D01*
X111303050Y-121269181D01*
X111282838Y-121261949D01*
X111263432Y-121252770D01*
X111245019Y-121241734D01*
X111227776Y-121228946D01*
X111211870Y-121214530D01*
X111197454Y-121198624D01*
X111184666Y-121181381D01*
X111173630Y-121162968D01*
X111164451Y-121143562D01*
X111157219Y-121123350D01*
X111152003Y-121102526D01*
X111148853Y-121081291D01*
X111147800Y-121059850D01*
X111147800Y-120622350D01*
X111148853Y-120600909D01*
X111152003Y-120579674D01*
X111157219Y-120558850D01*
X111164451Y-120538638D01*
X111173630Y-120519232D01*
X111184666Y-120500819D01*
X111197454Y-120483576D01*
X111211870Y-120467670D01*
X111227776Y-120453254D01*
X111245019Y-120440466D01*
X111263432Y-120429430D01*
X111282838Y-120420251D01*
X111303050Y-120413019D01*
X111323874Y-120407803D01*
X111345109Y-120404653D01*
X111366550Y-120403600D01*
X111879050Y-120403600D01*
X111900491Y-120404653D01*
G37*
%TD.AperFunction*%
%TD*%
%TA.AperFunction,SMDPad,CuDef*%
%TO.P,C8,2*%
%TO.N,Net-(C7-Pad1)*%
G36*
X109497691Y-115794053D02*
G01*
X109518926Y-115797203D01*
X109539750Y-115802419D01*
X109559962Y-115809651D01*
X109579368Y-115818830D01*
X109597781Y-115829866D01*
X109615024Y-115842654D01*
X109630930Y-115857070D01*
X109645346Y-115872976D01*
X109658134Y-115890219D01*
X109669170Y-115908632D01*
X109678349Y-115928038D01*
X109685581Y-115948250D01*
X109690797Y-115969074D01*
X109693947Y-115990309D01*
X109695000Y-116011750D01*
X109695000Y-116449250D01*
X109693947Y-116470691D01*
X109690797Y-116491926D01*
X109685581Y-116512750D01*
X109678349Y-116532962D01*
X109669170Y-116552368D01*
X109658134Y-116570781D01*
X109645346Y-116588024D01*
X109630930Y-116603930D01*
X109615024Y-116618346D01*
X109597781Y-116631134D01*
X109579368Y-116642170D01*
X109559962Y-116651349D01*
X109539750Y-116658581D01*
X109518926Y-116663797D01*
X109497691Y-116666947D01*
X109476250Y-116668000D01*
X108963750Y-116668000D01*
X108942309Y-116666947D01*
X108921074Y-116663797D01*
X108900250Y-116658581D01*
X108880038Y-116651349D01*
X108860632Y-116642170D01*
X108842219Y-116631134D01*
X108824976Y-116618346D01*
X108809070Y-116603930D01*
X108794654Y-116588024D01*
X108781866Y-116570781D01*
X108770830Y-116552368D01*
X108761651Y-116532962D01*
X108754419Y-116512750D01*
X108749203Y-116491926D01*
X108746053Y-116470691D01*
X108745000Y-116449250D01*
X108745000Y-116011750D01*
X108746053Y-115990309D01*
X108749203Y-115969074D01*
X108754419Y-115948250D01*
X108761651Y-115928038D01*
X108770830Y-115908632D01*
X108781866Y-115890219D01*
X108794654Y-115872976D01*
X108809070Y-115857070D01*
X108824976Y-115842654D01*
X108842219Y-115829866D01*
X108860632Y-115818830D01*
X108880038Y-115809651D01*
X108900250Y-115802419D01*
X108921074Y-115797203D01*
X108942309Y-115794053D01*
X108963750Y-115793000D01*
X109476250Y-115793000D01*
X109497691Y-115794053D01*
G37*
%TD.AperFunction*%
%TA.AperFunction,SMDPad,CuDef*%
%TO.P,C8,1*%
%TO.N,GND*%
G36*
X109497691Y-114219053D02*
G01*
X109518926Y-114222203D01*
X109539750Y-114227419D01*
X109559962Y-114234651D01*
X109579368Y-114243830D01*
X109597781Y-114254866D01*
X109615024Y-114267654D01*
X109630930Y-114282070D01*
X109645346Y-114297976D01*
X109658134Y-114315219D01*
X109669170Y-114333632D01*
X109678349Y-114353038D01*
X109685581Y-114373250D01*
X109690797Y-114394074D01*
X109693947Y-114415309D01*
X109695000Y-114436750D01*
X109695000Y-114874250D01*
X109693947Y-114895691D01*
X109690797Y-114916926D01*
X109685581Y-114937750D01*
X109678349Y-114957962D01*
X109669170Y-114977368D01*
X109658134Y-114995781D01*
X109645346Y-115013024D01*
X109630930Y-115028930D01*
X109615024Y-115043346D01*
X109597781Y-115056134D01*
X109579368Y-115067170D01*
X109559962Y-115076349D01*
X109539750Y-115083581D01*
X109518926Y-115088797D01*
X109497691Y-115091947D01*
X109476250Y-115093000D01*
X108963750Y-115093000D01*
X108942309Y-115091947D01*
X108921074Y-115088797D01*
X108900250Y-115083581D01*
X108880038Y-115076349D01*
X108860632Y-115067170D01*
X108842219Y-115056134D01*
X108824976Y-115043346D01*
X108809070Y-115028930D01*
X108794654Y-115013024D01*
X108781866Y-114995781D01*
X108770830Y-114977368D01*
X108761651Y-114957962D01*
X108754419Y-114937750D01*
X108749203Y-114916926D01*
X108746053Y-114895691D01*
X108745000Y-114874250D01*
X108745000Y-114436750D01*
X108746053Y-114415309D01*
X108749203Y-114394074D01*
X108754419Y-114373250D01*
X108761651Y-114353038D01*
X108770830Y-114333632D01*
X108781866Y-114315219D01*
X108794654Y-114297976D01*
X108809070Y-114282070D01*
X108824976Y-114267654D01*
X108842219Y-114254866D01*
X108860632Y-114243830D01*
X108880038Y-114234651D01*
X108900250Y-114227419D01*
X108921074Y-114222203D01*
X108942309Y-114219053D01*
X108963750Y-114218000D01*
X109476250Y-114218000D01*
X109497691Y-114219053D01*
G37*
%TD.AperFunction*%
%TD*%
%TA.AperFunction,SMDPad,CuDef*%
%TO.P,C7,2*%
%TO.N,GND*%
G36*
X110882691Y-117255053D02*
G01*
X110903926Y-117258203D01*
X110924750Y-117263419D01*
X110944962Y-117270651D01*
X110964368Y-117279830D01*
X110982781Y-117290866D01*
X111000024Y-117303654D01*
X111015930Y-117318070D01*
X111030346Y-117333976D01*
X111043134Y-117351219D01*
X111054170Y-117369632D01*
X111063349Y-117389038D01*
X111070581Y-117409250D01*
X111075797Y-117430074D01*
X111078947Y-117451309D01*
X111080000Y-117472750D01*
X111080000Y-117985250D01*
X111078947Y-118006691D01*
X111075797Y-118027926D01*
X111070581Y-118048750D01*
X111063349Y-118068962D01*
X111054170Y-118088368D01*
X111043134Y-118106781D01*
X111030346Y-118124024D01*
X111015930Y-118139930D01*
X111000024Y-118154346D01*
X110982781Y-118167134D01*
X110964368Y-118178170D01*
X110944962Y-118187349D01*
X110924750Y-118194581D01*
X110903926Y-118199797D01*
X110882691Y-118202947D01*
X110861250Y-118204000D01*
X110423750Y-118204000D01*
X110402309Y-118202947D01*
X110381074Y-118199797D01*
X110360250Y-118194581D01*
X110340038Y-118187349D01*
X110320632Y-118178170D01*
X110302219Y-118167134D01*
X110284976Y-118154346D01*
X110269070Y-118139930D01*
X110254654Y-118124024D01*
X110241866Y-118106781D01*
X110230830Y-118088368D01*
X110221651Y-118068962D01*
X110214419Y-118048750D01*
X110209203Y-118027926D01*
X110206053Y-118006691D01*
X110205000Y-117985250D01*
X110205000Y-117472750D01*
X110206053Y-117451309D01*
X110209203Y-117430074D01*
X110214419Y-117409250D01*
X110221651Y-117389038D01*
X110230830Y-117369632D01*
X110241866Y-117351219D01*
X110254654Y-117333976D01*
X110269070Y-117318070D01*
X110284976Y-117303654D01*
X110302219Y-117290866D01*
X110320632Y-117279830D01*
X110340038Y-117270651D01*
X110360250Y-117263419D01*
X110381074Y-117258203D01*
X110402309Y-117255053D01*
X110423750Y-117254000D01*
X110861250Y-117254000D01*
X110882691Y-117255053D01*
G37*
%TD.AperFunction*%
%TA.AperFunction,SMDPad,CuDef*%
%TO.P,C7,1*%
%TO.N,Net-(C7-Pad1)*%
G36*
X109307691Y-117255053D02*
G01*
X109328926Y-117258203D01*
X109349750Y-117263419D01*
X109369962Y-117270651D01*
X109389368Y-117279830D01*
X109407781Y-117290866D01*
X109425024Y-117303654D01*
X109440930Y-117318070D01*
X109455346Y-117333976D01*
X109468134Y-117351219D01*
X109479170Y-117369632D01*
X109488349Y-117389038D01*
X109495581Y-117409250D01*
X109500797Y-117430074D01*
X109503947Y-117451309D01*
X109505000Y-117472750D01*
X109505000Y-117985250D01*
X109503947Y-118006691D01*
X109500797Y-118027926D01*
X109495581Y-118048750D01*
X109488349Y-118068962D01*
X109479170Y-118088368D01*
X109468134Y-118106781D01*
X109455346Y-118124024D01*
X109440930Y-118139930D01*
X109425024Y-118154346D01*
X109407781Y-118167134D01*
X109389368Y-118178170D01*
X109369962Y-118187349D01*
X109349750Y-118194581D01*
X109328926Y-118199797D01*
X109307691Y-118202947D01*
X109286250Y-118204000D01*
X108848750Y-118204000D01*
X108827309Y-118202947D01*
X108806074Y-118199797D01*
X108785250Y-118194581D01*
X108765038Y-118187349D01*
X108745632Y-118178170D01*
X108727219Y-118167134D01*
X108709976Y-118154346D01*
X108694070Y-118139930D01*
X108679654Y-118124024D01*
X108666866Y-118106781D01*
X108655830Y-118088368D01*
X108646651Y-118068962D01*
X108639419Y-118048750D01*
X108634203Y-118027926D01*
X108631053Y-118006691D01*
X108630000Y-117985250D01*
X108630000Y-117472750D01*
X108631053Y-117451309D01*
X108634203Y-117430074D01*
X108639419Y-117409250D01*
X108646651Y-117389038D01*
X108655830Y-117369632D01*
X108666866Y-117351219D01*
X108679654Y-117333976D01*
X108694070Y-117318070D01*
X108709976Y-117303654D01*
X108727219Y-117290866D01*
X108745632Y-117279830D01*
X108765038Y-117270651D01*
X108785250Y-117263419D01*
X108806074Y-117258203D01*
X108827309Y-117255053D01*
X108848750Y-117254000D01*
X109286250Y-117254000D01*
X109307691Y-117255053D01*
G37*
%TD.AperFunction*%
%TD*%
D17*
%TO.N,GND*%
X114300000Y-118618000D03*
X115189000Y-118618000D03*
X119195420Y-113389679D03*
X115585200Y-111824000D03*
X113248400Y-109030000D03*
X121630400Y-103238800D03*
X112555085Y-103041994D03*
X123764000Y-100464610D03*
X124943231Y-107709200D03*
X122957958Y-109632842D03*
X116535200Y-118618000D03*
X116535200Y-117348000D03*
X116535200Y-115671600D03*
%TO.N,+3V3*%
X123916400Y-101765600D03*
D18*
X111607600Y-121869200D03*
D17*
X110540800Y-102260400D03*
%TO.N,/USBVDD*%
X118887200Y-114554000D03*
X118922800Y-116230400D03*
%TO.N,/SX1280_MOSI*%
X108995409Y-110540751D03*
%TO.N,/SX1280_MISO*%
X108223810Y-114313200D03*
%TO.N,/SX1280_SCK*%
X116855200Y-103645200D03*
%TO.N,/SX1280_nCS*%
X116055661Y-104089139D03*
%TO.N,/SX1280_nRESET*%
X124981207Y-106057899D03*
X120751138Y-107003287D03*
X129453600Y-105931200D03*
%TO.N,/SX1280_BUSY*%
X129656800Y-108318800D03*
%TO.N,/SX1280_DIO1*%
X130315303Y-110450659D03*
%TO.N,/SX1280_RXEN*%
X117769600Y-106998000D03*
%TO.N,/SX1280_TXEN*%
X128386800Y-104407200D03*
X125729916Y-105312606D03*
X121744919Y-106967951D03*
%TO.N,/USB_DP*%
X119502074Y-108114688D03*
%TO.N,/USB_DM*%
X118938000Y-108826800D03*
%TO.N,Net-(D4-Pad1)*%
X119700000Y-103289600D03*
X125596484Y-102555562D03*
%TD*%
D19*
%TO.N,GND*%
X109700500Y-114175000D02*
X111500000Y-114175000D01*
X109220000Y-114655500D02*
X109700500Y-114175000D01*
X111500000Y-107825000D02*
X111465990Y-107790990D01*
X126500000Y-107825000D02*
X126351014Y-107676014D01*
X126351014Y-107676014D02*
X125865557Y-107676014D01*
D20*
X126384200Y-107709200D02*
X126500000Y-107825000D01*
X124943231Y-107709200D02*
X126384200Y-107709200D01*
D19*
%TO.N,+3V3*%
X111622800Y-120841100D02*
X111607600Y-121869200D01*
D20*
X111035600Y-101765600D02*
X110540800Y-102260400D01*
X123916400Y-101765600D02*
X111035600Y-101765600D01*
D19*
%TO.N,Net-(C7-Pad1)*%
X109220000Y-116611500D02*
X109220000Y-117957500D01*
X110714500Y-116230500D02*
X111500000Y-115445000D01*
X109220000Y-116230500D02*
X110714500Y-116230500D01*
X111199500Y-118864500D02*
X111760000Y-119425000D01*
X109728000Y-118864500D02*
X111199500Y-118864500D01*
X109067500Y-118204000D02*
X109728000Y-118864500D01*
X109067500Y-117729000D02*
X109067500Y-118204000D01*
D20*
%TO.N,/USBVDD*%
X118988800Y-116053426D02*
X118887200Y-115951826D01*
X118887200Y-115951826D02*
X118887200Y-114554000D01*
X118922800Y-116230400D02*
X118988800Y-116053426D01*
D19*
%TO.N,Net-(M1-Pad8)*%
X111500000Y-106555000D02*
X111000000Y-106555000D01*
D20*
X111500000Y-106555000D02*
X110875000Y-106555000D01*
X110875000Y-106555000D02*
X110098800Y-105778800D01*
X108854100Y-105288600D02*
X108854100Y-104813600D01*
X109344300Y-105778800D02*
X108854100Y-105288600D01*
X110098800Y-105778800D02*
X109344300Y-105778800D01*
%TO.N,Net-(M1-Pad9)*%
X126500000Y-106555000D02*
X126972600Y-106555000D01*
X126972600Y-106555000D02*
X127457200Y-106070400D01*
X127609500Y-104120200D02*
X127609500Y-103645200D01*
X127457200Y-104272500D02*
X127609500Y-104120200D01*
X127457200Y-106070400D02*
X127457200Y-104272500D01*
%TO.N,Net-(M1-Pad6)*%
X110900000Y-109095000D02*
X110225400Y-108420400D01*
X111500000Y-109095000D02*
X110900000Y-109095000D01*
X110225400Y-108420400D02*
X109489200Y-108420400D01*
X109489200Y-108420400D02*
X109286000Y-108217200D01*
X109499500Y-107155000D02*
X109499500Y-106680000D01*
X109286000Y-107368500D02*
X109499500Y-107155000D01*
X109286000Y-108217200D02*
X109286000Y-107368500D01*
%TO.N,Net-(M1-Pad11)*%
X127847590Y-108347410D02*
X127847590Y-105648910D01*
X126500000Y-109095000D02*
X127100000Y-109095000D01*
X128086500Y-105410000D02*
X128524000Y-105410000D01*
X127847590Y-105648910D02*
X128086500Y-105410000D01*
X127100000Y-109095000D02*
X127847590Y-108347410D01*
D19*
%TO.N,Net-(M1-Pad5)*%
X111500000Y-110365000D02*
X110746000Y-110365000D01*
X110492000Y-110365000D02*
X109474000Y-109347000D01*
X111500000Y-110365000D02*
X110492000Y-110365000D01*
%TO.N,Net-(M1-Pad4)*%
X109501500Y-111635000D02*
X109499500Y-111633000D01*
X111500000Y-111635000D02*
X109501500Y-111635000D01*
D20*
%TO.N,Net-(M1-Pad13)*%
X127100000Y-111635000D02*
X128666100Y-110068900D01*
X128666100Y-109962200D02*
X128666100Y-109487200D01*
X128666100Y-110068900D02*
X128666100Y-109962200D01*
X126500000Y-111635000D02*
X127100000Y-111635000D01*
D19*
%TO.N,Net-(M1-Pad3)*%
X109751500Y-112905000D02*
X109499500Y-113157000D01*
X111500000Y-112905000D02*
X109751500Y-112905000D01*
%TO.N,/SX1280_MOSI*%
X108995409Y-110562091D02*
X108995409Y-110540751D01*
X107924500Y-111633000D02*
X108995409Y-110562091D01*
D20*
%TO.N,/SX1280_MISO*%
X107926600Y-113157000D02*
X107924500Y-113157000D01*
X107924500Y-114013890D02*
X108223810Y-114313200D01*
X107924500Y-113157000D02*
X107924500Y-114013890D01*
%TO.N,/SX1280_SCK*%
X108641410Y-109042090D02*
X108641410Y-105896210D01*
X108313210Y-104059190D02*
X112093446Y-104059190D01*
X116855200Y-104204000D02*
X116855200Y-104140174D01*
X107899000Y-109347000D02*
X108336500Y-109347000D01*
X108137190Y-104235210D02*
X108313210Y-104059190D01*
X112128068Y-104093812D02*
X115170212Y-104093812D01*
X112093446Y-104059190D02*
X112128068Y-104093812D01*
X116855200Y-104140174D02*
X116855200Y-103645200D01*
X116296400Y-104762800D02*
X116855200Y-104204000D01*
X108137190Y-105391990D02*
X108137190Y-104235210D01*
X115839200Y-104762800D02*
X116296400Y-104762800D01*
X115170212Y-104093812D02*
X115839200Y-104762800D01*
X108641410Y-105896210D02*
X108137190Y-105391990D01*
X108336500Y-109347000D02*
X108641410Y-109042090D01*
%TO.N,/SX1280_nCS*%
X107924500Y-106205000D02*
X107756179Y-106036679D01*
X107756179Y-106036679D02*
X107756179Y-104077391D01*
X115679323Y-103712801D02*
X115705662Y-103739140D01*
X107756179Y-104077391D02*
X108155391Y-103678179D01*
X112285887Y-103712801D02*
X115679323Y-103712801D01*
X107924500Y-106680000D02*
X107924500Y-106205000D01*
X112251265Y-103678179D02*
X112285887Y-103712801D01*
X115705662Y-103739140D02*
X116055661Y-104089139D01*
X108155391Y-103678179D02*
X112251265Y-103678179D01*
%TO.N,/SX1280_nRESET*%
X129661500Y-105410000D02*
X129484590Y-105586910D01*
X129484590Y-105586910D02*
X129484590Y-105813037D01*
X130099000Y-105410000D02*
X129661500Y-105410000D01*
X124739708Y-105816400D02*
X124981207Y-106057899D01*
X120751138Y-107498261D02*
X120850239Y-107597361D01*
X120850239Y-107597361D02*
X122120239Y-107597361D01*
X120751138Y-107003287D02*
X120751138Y-107498261D01*
X122120239Y-107597361D02*
X123901200Y-105816400D01*
X123901200Y-105816400D02*
X124739708Y-105816400D01*
%TO.N,/SX1280_BUSY*%
X130139500Y-107836100D02*
X129656800Y-108318800D01*
X130139500Y-107201200D02*
X130139500Y-107836100D01*
%TO.N,/SX1280_DIO1*%
X130241100Y-109487200D02*
X130241100Y-110376456D01*
X130241100Y-110376456D02*
X130315303Y-110450659D01*
%TO.N,/SX1280_RXEN*%
X114487410Y-104813600D02*
X110429100Y-104813600D01*
X117769600Y-106998000D02*
X116652000Y-106998000D01*
X116652000Y-106998000D02*
X114487410Y-104813600D01*
%TO.N,/SX1280_TXEN*%
X129148800Y-103645200D02*
X128386800Y-104407200D01*
X129184500Y-103645200D02*
X129148800Y-103645200D01*
X125729916Y-105312606D02*
X123400264Y-105312606D01*
X123400264Y-105312606D02*
X121744919Y-106967951D01*
%TO.N,/USB_DP*%
X118718598Y-108114688D02*
X119007100Y-108114688D01*
X117700000Y-120650000D02*
X117700000Y-109133286D01*
X119007100Y-108114688D02*
X119502074Y-108114688D01*
X117700000Y-109133286D02*
X118718598Y-108114688D01*
%TO.N,/USB_DM*%
X119699401Y-120006479D02*
X118237000Y-118544078D01*
X119342922Y-121650000D02*
X119699401Y-121293521D01*
X118237000Y-118544078D02*
X118237000Y-109527800D01*
X119699401Y-121293521D02*
X119699401Y-120006479D01*
X118588001Y-109176799D02*
X118938000Y-108826800D01*
X118237000Y-109527800D02*
X118588001Y-109176799D01*
X118350000Y-121650000D02*
X119342922Y-121650000D01*
%TO.N,Net-(D4-Pad1)*%
X119700000Y-103289600D02*
X120434038Y-102555562D01*
X120434038Y-102555562D02*
X125101510Y-102555562D01*
X125101510Y-102555562D02*
X125596484Y-102555562D01*
%TO.N,Net-(M1-Pad12)*%
X128564500Y-107676200D02*
X128564500Y-107201200D01*
X128564500Y-108202252D02*
X128564500Y-107676200D01*
X127949190Y-108858010D02*
X128031200Y-108776000D01*
X127703200Y-110365000D02*
X127949190Y-110119010D01*
X126500000Y-110365000D02*
X127703200Y-110365000D01*
X127949190Y-110119010D02*
X127949190Y-108858010D01*
X128031200Y-108776000D02*
X128564500Y-108202252D01*
%TD*%
%TO.N,GND*%
G36*
X130670200Y-104767075D02*
G01*
X130609438Y-104717208D01*
X130518668Y-104668691D01*
X130420177Y-104638814D01*
X130317750Y-104628726D01*
X129880250Y-104628726D01*
X129777823Y-104638814D01*
X129679332Y-104668691D01*
X129588562Y-104717208D01*
X129509002Y-104782502D01*
X129443708Y-104862062D01*
X129395191Y-104952832D01*
X129365314Y-105051323D01*
X129356560Y-105140204D01*
X129267774Y-105228990D01*
X129267774Y-105153750D01*
X129257686Y-105051323D01*
X129227809Y-104952832D01*
X129179292Y-104862062D01*
X129113998Y-104782502D01*
X129034438Y-104717208D01*
X128979339Y-104687758D01*
X129016436Y-104598198D01*
X129041600Y-104471692D01*
X129041600Y-104426474D01*
X129403250Y-104426474D01*
X129505677Y-104416386D01*
X129604168Y-104386509D01*
X129694938Y-104337992D01*
X129774498Y-104272698D01*
X129839792Y-104193138D01*
X129888309Y-104102368D01*
X129918186Y-104003877D01*
X129928274Y-103901450D01*
X129928274Y-103388950D01*
X129918186Y-103286523D01*
X129888309Y-103188032D01*
X129839792Y-103097262D01*
X129774498Y-103017702D01*
X129694938Y-102952408D01*
X129604168Y-102903891D01*
X129505677Y-102874014D01*
X129403250Y-102863926D01*
X128965750Y-102863926D01*
X128863323Y-102874014D01*
X128764832Y-102903891D01*
X128674062Y-102952408D01*
X128594502Y-103017702D01*
X128529208Y-103097262D01*
X128480691Y-103188032D01*
X128450814Y-103286523D01*
X128440726Y-103388950D01*
X128440726Y-103752400D01*
X128353274Y-103752400D01*
X128353274Y-103388950D01*
X128343186Y-103286523D01*
X128313309Y-103188032D01*
X128264792Y-103097262D01*
X128199498Y-103017702D01*
X128119938Y-102952408D01*
X128029168Y-102903891D01*
X127930677Y-102874014D01*
X127828250Y-102863926D01*
X127390750Y-102863926D01*
X127288323Y-102874014D01*
X127189832Y-102903891D01*
X127099062Y-102952408D01*
X127019502Y-103017702D01*
X126954208Y-103097262D01*
X126905691Y-103188032D01*
X126875814Y-103286523D01*
X126865726Y-103388950D01*
X126865726Y-103901450D01*
X126875814Y-104003877D01*
X126905691Y-104102368D01*
X126954208Y-104193138D01*
X127019502Y-104272698D01*
X127050801Y-104298385D01*
X127050800Y-105848726D01*
X126106164Y-105848726D01*
X126147326Y-105821222D01*
X126238532Y-105730016D01*
X126310192Y-105622770D01*
X126359552Y-105503604D01*
X126384716Y-105377098D01*
X126384716Y-105248114D01*
X126359552Y-105121608D01*
X126310192Y-105002442D01*
X126238532Y-104895196D01*
X126147326Y-104803990D01*
X126040080Y-104732330D01*
X125920914Y-104682970D01*
X125794408Y-104657806D01*
X125665424Y-104657806D01*
X125538918Y-104682970D01*
X125419752Y-104732330D01*
X125312506Y-104803990D01*
X125221300Y-104895196D01*
X125213943Y-104906206D01*
X123420216Y-104906206D01*
X123400263Y-104904241D01*
X123380310Y-104906206D01*
X123380304Y-104906206D01*
X123328599Y-104911299D01*
X123320595Y-104912087D01*
X123297562Y-104919074D01*
X123243989Y-104935325D01*
X123173388Y-104973062D01*
X123111506Y-105023848D01*
X123098782Y-105039352D01*
X121822399Y-106315735D01*
X121809411Y-106313151D01*
X121680427Y-106313151D01*
X121553921Y-106338315D01*
X121434755Y-106387675D01*
X121327509Y-106459335D01*
X121236303Y-106550541D01*
X121231543Y-106557666D01*
X121168548Y-106494671D01*
X121061302Y-106423011D01*
X120942136Y-106373651D01*
X120815630Y-106348487D01*
X120686646Y-106348487D01*
X120560140Y-106373651D01*
X120440974Y-106423011D01*
X120333728Y-106494671D01*
X120242522Y-106585877D01*
X120170862Y-106693123D01*
X120121502Y-106812289D01*
X120096338Y-106938795D01*
X120096338Y-107067779D01*
X120121502Y-107194285D01*
X120170862Y-107313451D01*
X120242522Y-107420697D01*
X120333728Y-107511903D01*
X120344848Y-107519333D01*
X120350619Y-107577931D01*
X120373858Y-107654537D01*
X120385881Y-107677029D01*
X120411595Y-107725137D01*
X120462381Y-107787019D01*
X120477885Y-107799743D01*
X120548757Y-107870615D01*
X120561481Y-107886119D01*
X120623363Y-107936905D01*
X120693964Y-107974642D01*
X120770571Y-107997880D01*
X120830279Y-108003761D01*
X120830287Y-108003761D01*
X120850240Y-108005726D01*
X120870190Y-108003761D01*
X122100286Y-108003761D01*
X122120239Y-108005726D01*
X122140192Y-108003761D01*
X122140199Y-108003761D01*
X122199907Y-107997880D01*
X122276514Y-107974642D01*
X122347115Y-107936905D01*
X122408997Y-107886119D01*
X122421721Y-107870615D01*
X124069536Y-106222800D01*
X124346380Y-106222800D01*
X124351571Y-106248897D01*
X124400931Y-106368063D01*
X124472591Y-106475309D01*
X124563797Y-106566515D01*
X124671043Y-106638175D01*
X124790209Y-106687535D01*
X124916715Y-106712699D01*
X125045699Y-106712699D01*
X125172205Y-106687535D01*
X125193726Y-106678621D01*
X125193726Y-106955000D01*
X125199611Y-107014751D01*
X125217040Y-107072206D01*
X125245342Y-107125157D01*
X125283432Y-107171568D01*
X125305890Y-107190000D01*
X125283431Y-107208431D01*
X125245342Y-107254843D01*
X125217039Y-107307794D01*
X125199610Y-107365249D01*
X125193725Y-107425000D01*
X125195200Y-107723400D01*
X125271400Y-107799600D01*
X126474600Y-107799600D01*
X126474600Y-107779600D01*
X126525400Y-107779600D01*
X126525400Y-107799600D01*
X126545400Y-107799600D01*
X126545400Y-107850400D01*
X126525400Y-107850400D01*
X126525400Y-107870400D01*
X126474600Y-107870400D01*
X126474600Y-107850400D01*
X125271400Y-107850400D01*
X125195200Y-107926600D01*
X125193725Y-108225000D01*
X125199610Y-108284751D01*
X125217039Y-108342206D01*
X125245342Y-108395157D01*
X125283431Y-108441569D01*
X125305890Y-108460000D01*
X125283432Y-108478432D01*
X125245342Y-108524843D01*
X125217040Y-108577794D01*
X125199611Y-108635249D01*
X125193726Y-108695000D01*
X125193726Y-109495000D01*
X125199611Y-109554751D01*
X125217040Y-109612206D01*
X125245342Y-109665157D01*
X125283432Y-109711568D01*
X125305891Y-109730000D01*
X125283432Y-109748432D01*
X125245342Y-109794843D01*
X125217040Y-109847794D01*
X125199611Y-109905249D01*
X125193726Y-109965000D01*
X125193726Y-110765000D01*
X125199611Y-110824751D01*
X125217040Y-110882206D01*
X125245342Y-110935157D01*
X125283432Y-110981568D01*
X125305891Y-111000000D01*
X125283432Y-111018432D01*
X125245342Y-111064843D01*
X125217040Y-111117794D01*
X125199611Y-111175249D01*
X125193726Y-111235000D01*
X125193726Y-112035000D01*
X125199611Y-112094751D01*
X125217040Y-112152206D01*
X125245342Y-112205157D01*
X125283432Y-112251568D01*
X125305891Y-112270000D01*
X125283432Y-112288432D01*
X125245342Y-112334843D01*
X125217040Y-112387794D01*
X125199611Y-112445249D01*
X125193726Y-112505000D01*
X125193726Y-113305000D01*
X125199611Y-113364751D01*
X125217040Y-113422206D01*
X125245342Y-113475157D01*
X125283432Y-113521568D01*
X125305891Y-113540000D01*
X125283432Y-113558432D01*
X125245342Y-113604843D01*
X125217040Y-113657794D01*
X125199611Y-113715249D01*
X125193726Y-113775000D01*
X125193726Y-114575000D01*
X125199611Y-114634751D01*
X125217040Y-114692206D01*
X125245342Y-114745157D01*
X125283432Y-114791568D01*
X125305890Y-114810000D01*
X125283431Y-114828431D01*
X125245342Y-114874843D01*
X125217039Y-114927794D01*
X125199610Y-114985249D01*
X125193725Y-115045000D01*
X125195200Y-115343400D01*
X125271400Y-115419600D01*
X126474600Y-115419600D01*
X126474600Y-115399600D01*
X126525400Y-115399600D01*
X126525400Y-115419600D01*
X127728600Y-115419600D01*
X127804800Y-115343400D01*
X127806275Y-115045000D01*
X127800390Y-114985249D01*
X127782961Y-114927794D01*
X127754658Y-114874843D01*
X127716569Y-114828431D01*
X127694110Y-114810000D01*
X127716568Y-114791568D01*
X127754658Y-114745157D01*
X127782960Y-114692206D01*
X127800389Y-114634751D01*
X127806274Y-114575000D01*
X127806274Y-113879898D01*
X128118200Y-113879898D01*
X128118200Y-114072902D01*
X128155853Y-114262197D01*
X128229712Y-114440509D01*
X128336940Y-114600986D01*
X128473414Y-114737460D01*
X128633891Y-114844688D01*
X128812203Y-114918547D01*
X129001498Y-114956200D01*
X129194502Y-114956200D01*
X129383797Y-114918547D01*
X129562109Y-114844688D01*
X129722586Y-114737460D01*
X129859060Y-114600986D01*
X129966288Y-114440509D01*
X130040147Y-114262197D01*
X130077800Y-114072902D01*
X130077800Y-113879898D01*
X130040147Y-113690603D01*
X129966288Y-113512291D01*
X129859060Y-113351814D01*
X129722586Y-113215340D01*
X129562109Y-113108112D01*
X129383797Y-113034253D01*
X129194502Y-112996600D01*
X129001498Y-112996600D01*
X128812203Y-113034253D01*
X128633891Y-113108112D01*
X128473414Y-113215340D01*
X128336940Y-113351814D01*
X128229712Y-113512291D01*
X128155853Y-113690603D01*
X128118200Y-113879898D01*
X127806274Y-113879898D01*
X127806274Y-113775000D01*
X127800389Y-113715249D01*
X127782960Y-113657794D01*
X127754658Y-113604843D01*
X127716568Y-113558432D01*
X127694109Y-113540000D01*
X127716568Y-113521568D01*
X127754658Y-113475157D01*
X127782960Y-113422206D01*
X127800389Y-113364751D01*
X127806274Y-113305000D01*
X127806274Y-112505000D01*
X127800389Y-112445249D01*
X127782960Y-112387794D01*
X127754658Y-112334843D01*
X127716568Y-112288432D01*
X127694109Y-112270000D01*
X127716568Y-112251568D01*
X127754658Y-112205157D01*
X127782960Y-112152206D01*
X127800389Y-112094751D01*
X127806274Y-112035000D01*
X127806274Y-111503462D01*
X128156686Y-111153050D01*
X128140040Y-111184194D01*
X128122611Y-111241649D01*
X128116726Y-111301400D01*
X128116726Y-112651400D01*
X128122611Y-112711151D01*
X128140040Y-112768606D01*
X128168342Y-112821557D01*
X128206432Y-112867968D01*
X128252843Y-112906058D01*
X128305794Y-112934360D01*
X128363249Y-112951789D01*
X128423000Y-112957674D01*
X129773000Y-112957674D01*
X129832751Y-112951789D01*
X129890206Y-112934360D01*
X129943157Y-112906058D01*
X129989568Y-112867968D01*
X130027658Y-112821557D01*
X130055960Y-112768606D01*
X130073389Y-112711151D01*
X130079274Y-112651400D01*
X130079274Y-111301400D01*
X130073389Y-111241649D01*
X130055960Y-111184194D01*
X130027658Y-111131243D01*
X129989568Y-111084832D01*
X129943157Y-111046742D01*
X129890206Y-111018440D01*
X129832751Y-111001011D01*
X129773000Y-110995126D01*
X128423000Y-110995126D01*
X128363249Y-111001011D01*
X128305794Y-111018440D01*
X128274651Y-111035086D01*
X128939361Y-110370376D01*
X128954858Y-110357658D01*
X128967577Y-110342160D01*
X128967582Y-110342155D01*
X128984817Y-110321154D01*
X129005644Y-110295776D01*
X129033051Y-110244500D01*
X129085768Y-110228509D01*
X129176538Y-110179992D01*
X129256098Y-110114698D01*
X129321392Y-110035138D01*
X129369909Y-109944368D01*
X129399786Y-109845877D01*
X129409874Y-109743450D01*
X129409874Y-109230950D01*
X129399786Y-109128523D01*
X129369909Y-109030032D01*
X129321392Y-108939262D01*
X129256098Y-108859702D01*
X129176538Y-108794408D01*
X129085768Y-108745891D01*
X128987277Y-108716014D01*
X128884850Y-108705926D01*
X128651180Y-108705926D01*
X128843509Y-108499011D01*
X128853258Y-108491010D01*
X128870697Y-108469760D01*
X128875757Y-108464317D01*
X128883352Y-108454341D01*
X128904044Y-108429128D01*
X128907572Y-108422528D01*
X128912100Y-108416580D01*
X128926404Y-108387295D01*
X128941781Y-108358527D01*
X128943953Y-108351368D01*
X128947235Y-108344648D01*
X128955552Y-108313128D01*
X128965019Y-108281920D01*
X128965753Y-108274473D01*
X128967660Y-108267244D01*
X128969667Y-108234732D01*
X128970900Y-108222212D01*
X128970900Y-108214754D01*
X128972592Y-108187342D01*
X128970900Y-108174855D01*
X128970900Y-107946534D01*
X128984168Y-107942509D01*
X129074938Y-107893992D01*
X129154498Y-107828698D01*
X129219792Y-107749138D01*
X129268309Y-107658368D01*
X129298186Y-107559877D01*
X129308274Y-107457450D01*
X129308274Y-106944950D01*
X129298186Y-106842523D01*
X129268309Y-106744032D01*
X129219792Y-106653262D01*
X129154498Y-106573702D01*
X129074938Y-106508408D01*
X128984168Y-106459891D01*
X128885677Y-106430014D01*
X128783250Y-106419926D01*
X128345750Y-106419926D01*
X128253990Y-106428963D01*
X128253990Y-106186225D01*
X128305250Y-106191274D01*
X128742750Y-106191274D01*
X128845177Y-106181186D01*
X128848038Y-106180318D01*
X128873324Y-106241364D01*
X128944984Y-106348610D01*
X129036190Y-106439816D01*
X129143436Y-106511476D01*
X129262602Y-106560836D01*
X129389108Y-106586000D01*
X129518092Y-106586000D01*
X129543568Y-106580932D01*
X129484208Y-106653262D01*
X129435691Y-106744032D01*
X129405814Y-106842523D01*
X129395726Y-106944950D01*
X129395726Y-107457450D01*
X129405814Y-107559877D01*
X129435691Y-107658368D01*
X129454626Y-107693793D01*
X129346636Y-107738524D01*
X129239390Y-107810184D01*
X129148184Y-107901390D01*
X129076524Y-108008636D01*
X129027164Y-108127802D01*
X129002000Y-108254308D01*
X129002000Y-108383292D01*
X129027164Y-108509798D01*
X129076524Y-108628964D01*
X129148184Y-108736210D01*
X129239390Y-108827416D01*
X129346636Y-108899076D01*
X129465802Y-108948436D01*
X129569843Y-108969131D01*
X129537291Y-109030032D01*
X129507414Y-109128523D01*
X129497326Y-109230950D01*
X129497326Y-109743450D01*
X129507414Y-109845877D01*
X129537291Y-109944368D01*
X129585808Y-110035138D01*
X129651102Y-110114698D01*
X129721710Y-110172645D01*
X129685667Y-110259661D01*
X129660503Y-110386167D01*
X129660503Y-110515151D01*
X129685667Y-110641657D01*
X129735027Y-110760823D01*
X129806687Y-110868069D01*
X129897893Y-110959275D01*
X130005139Y-111030935D01*
X130124305Y-111080295D01*
X130250811Y-111105459D01*
X130379795Y-111105459D01*
X130506301Y-111080295D01*
X130625467Y-111030935D01*
X130670201Y-111001045D01*
X130670201Y-122670200D01*
X107329800Y-122670200D01*
X107329800Y-120861639D01*
X107595200Y-120861639D01*
X107595200Y-121138361D01*
X107649186Y-121409765D01*
X107755083Y-121665422D01*
X107908821Y-121895508D01*
X108104492Y-122091179D01*
X108334578Y-122244917D01*
X108590235Y-122350814D01*
X108861639Y-122404800D01*
X109138361Y-122404800D01*
X109409765Y-122350814D01*
X109665422Y-122244917D01*
X109895508Y-122091179D01*
X110091179Y-121895508D01*
X110244917Y-121665422D01*
X110350814Y-121409765D01*
X110404800Y-121138361D01*
X110404800Y-120861639D01*
X110357203Y-120622350D01*
X110841526Y-120622350D01*
X110841526Y-121059850D01*
X110851614Y-121162277D01*
X110881491Y-121260768D01*
X110930008Y-121351538D01*
X110993780Y-121429243D01*
X110938705Y-121511668D01*
X110881807Y-121649033D01*
X110852800Y-121794859D01*
X110852800Y-121943541D01*
X110881807Y-122089367D01*
X110938705Y-122226732D01*
X111021309Y-122350357D01*
X111126443Y-122455491D01*
X111250068Y-122538095D01*
X111387433Y-122594993D01*
X111533259Y-122624000D01*
X111681941Y-122624000D01*
X111827767Y-122594993D01*
X111965132Y-122538095D01*
X112088757Y-122455491D01*
X112193891Y-122350357D01*
X112276495Y-122226732D01*
X112333393Y-122089367D01*
X112362400Y-121943541D01*
X112362400Y-121794859D01*
X112345061Y-121707690D01*
X113323231Y-121707690D01*
X113419346Y-121884461D01*
X113630817Y-122002635D01*
X113861279Y-122077282D01*
X114101875Y-122105533D01*
X114343360Y-122086304D01*
X114576453Y-122020333D01*
X114792198Y-121910155D01*
X114830654Y-121884461D01*
X114926769Y-121707690D01*
X114125000Y-120905921D01*
X113323231Y-121707690D01*
X112345061Y-121707690D01*
X112333393Y-121649033D01*
X112276495Y-121511668D01*
X112232448Y-121445747D01*
X112250298Y-121431098D01*
X112315592Y-121351538D01*
X112364109Y-121260768D01*
X112393986Y-121162277D01*
X112404074Y-121059850D01*
X112404074Y-120846875D01*
X112889467Y-120846875D01*
X112908696Y-121088360D01*
X112974667Y-121321453D01*
X113084845Y-121537198D01*
X113110539Y-121575654D01*
X113287310Y-121671769D01*
X114089079Y-120870000D01*
X114160921Y-120870000D01*
X114962690Y-121671769D01*
X115139461Y-121575654D01*
X115257635Y-121364183D01*
X115332282Y-121133721D01*
X115332869Y-121128720D01*
X115957201Y-121128720D01*
X115992721Y-121253784D01*
X116118340Y-121321638D01*
X116254782Y-121363682D01*
X116378793Y-121376445D01*
X116353054Y-121438584D01*
X116325200Y-121578613D01*
X116325200Y-121721387D01*
X116353054Y-121861416D01*
X116407691Y-121993322D01*
X116487011Y-122112033D01*
X116587967Y-122212989D01*
X116706678Y-122292309D01*
X116838584Y-122346946D01*
X116978613Y-122374800D01*
X117121387Y-122374800D01*
X117261416Y-122346946D01*
X117393322Y-122292309D01*
X117512033Y-122212989D01*
X117612989Y-122112033D01*
X117692309Y-121993322D01*
X117700000Y-121974754D01*
X117707691Y-121993322D01*
X117787011Y-122112033D01*
X117887967Y-122212989D01*
X118006678Y-122292309D01*
X118138584Y-122346946D01*
X118278613Y-122374800D01*
X118421387Y-122374800D01*
X118561416Y-122346946D01*
X118693322Y-122292309D01*
X118812033Y-122212989D01*
X118912989Y-122112033D01*
X118950162Y-122056400D01*
X119322969Y-122056400D01*
X119342922Y-122058365D01*
X119362875Y-122056400D01*
X119362882Y-122056400D01*
X119422590Y-122050519D01*
X119499197Y-122027281D01*
X119569798Y-121989544D01*
X119631680Y-121938758D01*
X119644404Y-121923254D01*
X119859968Y-121707690D01*
X120473231Y-121707690D01*
X120569346Y-121884461D01*
X120780817Y-122002635D01*
X121011279Y-122077282D01*
X121251875Y-122105533D01*
X121493360Y-122086304D01*
X121726453Y-122020333D01*
X121942198Y-121910155D01*
X121980654Y-121884461D01*
X122076769Y-121707690D01*
X121275000Y-120905921D01*
X120473231Y-121707690D01*
X119859968Y-121707690D01*
X119972656Y-121595002D01*
X119988159Y-121582279D01*
X120038945Y-121520397D01*
X120076682Y-121449796D01*
X120098984Y-121376274D01*
X120099920Y-121373190D01*
X120101912Y-121352960D01*
X120105801Y-121313481D01*
X120105801Y-121313475D01*
X120107766Y-121293522D01*
X120105801Y-121273569D01*
X120105801Y-121254794D01*
X120124667Y-121321453D01*
X120234845Y-121537198D01*
X120260539Y-121575654D01*
X120437310Y-121671769D01*
X121239079Y-120870000D01*
X121310921Y-120870000D01*
X122112690Y-121671769D01*
X122289461Y-121575654D01*
X122407635Y-121364183D01*
X122482282Y-121133721D01*
X122510533Y-120893125D01*
X122508026Y-120861639D01*
X127595200Y-120861639D01*
X127595200Y-121138361D01*
X127649186Y-121409765D01*
X127755083Y-121665422D01*
X127908821Y-121895508D01*
X128104492Y-122091179D01*
X128334578Y-122244917D01*
X128590235Y-122350814D01*
X128861639Y-122404800D01*
X129138361Y-122404800D01*
X129409765Y-122350814D01*
X129665422Y-122244917D01*
X129895508Y-122091179D01*
X130091179Y-121895508D01*
X130244917Y-121665422D01*
X130350814Y-121409765D01*
X130404800Y-121138361D01*
X130404800Y-120861639D01*
X130350814Y-120590235D01*
X130244917Y-120334578D01*
X130091179Y-120104492D01*
X129895508Y-119908821D01*
X129665422Y-119755083D01*
X129409765Y-119649186D01*
X129138361Y-119595200D01*
X128861639Y-119595200D01*
X128590235Y-119649186D01*
X128334578Y-119755083D01*
X128104492Y-119908821D01*
X127908821Y-120104492D01*
X127755083Y-120334578D01*
X127649186Y-120590235D01*
X127595200Y-120861639D01*
X122508026Y-120861639D01*
X122491304Y-120651640D01*
X122425333Y-120418547D01*
X122315155Y-120202802D01*
X122289461Y-120164346D01*
X122112690Y-120068231D01*
X121310921Y-120870000D01*
X121239079Y-120870000D01*
X120437310Y-120068231D01*
X120260539Y-120164346D01*
X120142365Y-120375817D01*
X120105801Y-120488703D01*
X120105801Y-120032310D01*
X120473231Y-120032310D01*
X121275000Y-120834079D01*
X122076769Y-120032310D01*
X121980654Y-119855539D01*
X121769183Y-119737365D01*
X121538721Y-119662718D01*
X121298125Y-119634467D01*
X121056640Y-119653696D01*
X120823547Y-119719667D01*
X120607802Y-119829845D01*
X120569346Y-119855539D01*
X120473231Y-120032310D01*
X120105801Y-120032310D01*
X120105801Y-120026431D01*
X120107766Y-120006478D01*
X120105801Y-119986525D01*
X120105801Y-119986519D01*
X120099920Y-119926811D01*
X120099432Y-119925200D01*
X120088308Y-119888531D01*
X120076682Y-119850204D01*
X120038945Y-119779603D01*
X119988159Y-119717721D01*
X119972655Y-119704997D01*
X118643400Y-118375742D01*
X118643400Y-117879898D01*
X128118200Y-117879898D01*
X128118200Y-118072902D01*
X128155853Y-118262197D01*
X128229712Y-118440509D01*
X128336940Y-118600986D01*
X128473414Y-118737460D01*
X128633891Y-118844688D01*
X128812203Y-118918547D01*
X129001498Y-118956200D01*
X129194502Y-118956200D01*
X129383797Y-118918547D01*
X129562109Y-118844688D01*
X129722586Y-118737460D01*
X129859060Y-118600986D01*
X129966288Y-118440509D01*
X130040147Y-118262197D01*
X130077800Y-118072902D01*
X130077800Y-117879898D01*
X130040147Y-117690603D01*
X129966288Y-117512291D01*
X129859060Y-117351814D01*
X129722586Y-117215340D01*
X129562109Y-117108112D01*
X129383797Y-117034253D01*
X129194502Y-116996600D01*
X129001498Y-116996600D01*
X128812203Y-117034253D01*
X128633891Y-117108112D01*
X128473414Y-117215340D01*
X128336940Y-117351814D01*
X128229712Y-117512291D01*
X128155853Y-117690603D01*
X128118200Y-117879898D01*
X118643400Y-117879898D01*
X118643400Y-116823419D01*
X118731802Y-116860036D01*
X118858308Y-116885200D01*
X118987292Y-116885200D01*
X119113798Y-116860036D01*
X119232964Y-116810676D01*
X119340210Y-116739016D01*
X119431416Y-116647810D01*
X119503076Y-116540564D01*
X119552436Y-116421398D01*
X119577600Y-116294892D01*
X119577600Y-116165908D01*
X119552436Y-116039402D01*
X119503076Y-115920236D01*
X119452805Y-115845000D01*
X125193725Y-115845000D01*
X125199610Y-115904751D01*
X125217039Y-115962206D01*
X125245342Y-116015157D01*
X125283431Y-116061569D01*
X125329843Y-116099658D01*
X125382794Y-116127961D01*
X125440249Y-116145390D01*
X125500000Y-116151275D01*
X126398400Y-116149800D01*
X126474600Y-116073600D01*
X126474600Y-115470400D01*
X126525400Y-115470400D01*
X126525400Y-116073600D01*
X126601600Y-116149800D01*
X127500000Y-116151275D01*
X127559751Y-116145390D01*
X127617206Y-116127961D01*
X127670157Y-116099658D01*
X127716569Y-116061569D01*
X127754658Y-116015157D01*
X127782961Y-115962206D01*
X127800390Y-115904751D01*
X127802837Y-115879898D01*
X128118200Y-115879898D01*
X128118200Y-116072902D01*
X128155853Y-116262197D01*
X128229712Y-116440509D01*
X128336940Y-116600986D01*
X128473414Y-116737460D01*
X128633891Y-116844688D01*
X128812203Y-116918547D01*
X129001498Y-116956200D01*
X129194502Y-116956200D01*
X129383797Y-116918547D01*
X129562109Y-116844688D01*
X129722586Y-116737460D01*
X129859060Y-116600986D01*
X129966288Y-116440509D01*
X130040147Y-116262197D01*
X130077800Y-116072902D01*
X130077800Y-115879898D01*
X130040147Y-115690603D01*
X129966288Y-115512291D01*
X129859060Y-115351814D01*
X129722586Y-115215340D01*
X129562109Y-115108112D01*
X129383797Y-115034253D01*
X129194502Y-114996600D01*
X129001498Y-114996600D01*
X128812203Y-115034253D01*
X128633891Y-115108112D01*
X128473414Y-115215340D01*
X128336940Y-115351814D01*
X128229712Y-115512291D01*
X128155853Y-115690603D01*
X128118200Y-115879898D01*
X127802837Y-115879898D01*
X127806275Y-115845000D01*
X127804800Y-115546600D01*
X127728600Y-115470400D01*
X126525400Y-115470400D01*
X126474600Y-115470400D01*
X125271400Y-115470400D01*
X125195200Y-115546600D01*
X125193725Y-115845000D01*
X119452805Y-115845000D01*
X119431416Y-115812990D01*
X119340210Y-115721784D01*
X119293600Y-115690640D01*
X119293600Y-115069973D01*
X119304610Y-115062616D01*
X119395816Y-114971410D01*
X119467476Y-114864164D01*
X119516836Y-114744998D01*
X119542000Y-114618492D01*
X119542000Y-114489508D01*
X119516836Y-114363002D01*
X119467476Y-114243836D01*
X119395816Y-114136590D01*
X119304610Y-114045384D01*
X119197364Y-113973724D01*
X119078198Y-113924364D01*
X118951692Y-113899200D01*
X118822708Y-113899200D01*
X118696202Y-113924364D01*
X118643400Y-113946235D01*
X118643400Y-109696136D01*
X118860520Y-109479016D01*
X118873508Y-109481600D01*
X119002492Y-109481600D01*
X119128998Y-109456436D01*
X119248164Y-109407076D01*
X119355410Y-109335416D01*
X119446616Y-109244210D01*
X119518276Y-109136964D01*
X119567636Y-109017798D01*
X119592800Y-108891292D01*
X119592800Y-108764270D01*
X119693072Y-108744324D01*
X119812238Y-108694964D01*
X119919484Y-108623304D01*
X120010690Y-108532098D01*
X120082350Y-108424852D01*
X120131710Y-108305686D01*
X120156874Y-108179180D01*
X120156874Y-108050196D01*
X120131710Y-107923690D01*
X120082350Y-107804524D01*
X120010690Y-107697278D01*
X119919484Y-107606072D01*
X119812238Y-107534412D01*
X119693072Y-107485052D01*
X119566566Y-107459888D01*
X119437582Y-107459888D01*
X119311076Y-107485052D01*
X119191910Y-107534412D01*
X119084664Y-107606072D01*
X118993458Y-107697278D01*
X118986101Y-107708288D01*
X118738550Y-107708288D01*
X118718597Y-107706323D01*
X118698644Y-107708288D01*
X118698638Y-107708288D01*
X118646933Y-107713381D01*
X118638929Y-107714169D01*
X118621100Y-107719578D01*
X118562323Y-107737407D01*
X118491722Y-107775144D01*
X118429840Y-107825930D01*
X118417116Y-107841434D01*
X117426741Y-108831809D01*
X117411243Y-108844528D01*
X117398524Y-108860026D01*
X117398518Y-108860032D01*
X117390142Y-108870239D01*
X117360457Y-108906410D01*
X117344947Y-108935428D01*
X117322719Y-108977012D01*
X117299481Y-109053618D01*
X117291635Y-109133286D01*
X117293601Y-109153249D01*
X117293600Y-120049838D01*
X117237967Y-120087011D01*
X117137011Y-120187967D01*
X117057691Y-120306678D01*
X117049196Y-120327187D01*
X117007334Y-120248035D01*
X117003784Y-120242721D01*
X116878720Y-120207201D01*
X116435921Y-120650000D01*
X116450064Y-120664143D01*
X116414143Y-120700064D01*
X116400000Y-120685921D01*
X115957201Y-121128720D01*
X115332869Y-121128720D01*
X115360533Y-120893125D01*
X115341304Y-120651640D01*
X115339936Y-120646805D01*
X115671701Y-120646805D01*
X115685071Y-120788951D01*
X115725917Y-120925756D01*
X115792666Y-121051965D01*
X115796216Y-121057279D01*
X115921280Y-121092799D01*
X116364079Y-120650000D01*
X115921280Y-120207201D01*
X115796216Y-120242721D01*
X115728362Y-120368340D01*
X115686318Y-120504782D01*
X115671701Y-120646805D01*
X115339936Y-120646805D01*
X115275333Y-120418547D01*
X115165155Y-120202802D01*
X115144094Y-120171280D01*
X115957201Y-120171280D01*
X116400000Y-120614079D01*
X116842799Y-120171280D01*
X116807279Y-120046216D01*
X116681660Y-119978362D01*
X116545218Y-119936318D01*
X116403195Y-119921701D01*
X116261049Y-119935071D01*
X116124244Y-119975917D01*
X115998035Y-120042666D01*
X115992721Y-120046216D01*
X115957201Y-120171280D01*
X115144094Y-120171280D01*
X115139461Y-120164346D01*
X114962690Y-120068231D01*
X114160921Y-120870000D01*
X114089079Y-120870000D01*
X113287310Y-120068231D01*
X113110539Y-120164346D01*
X112992365Y-120375817D01*
X112917718Y-120606279D01*
X112889467Y-120846875D01*
X112404074Y-120846875D01*
X112404074Y-120622350D01*
X112393986Y-120519923D01*
X112364109Y-120421432D01*
X112315592Y-120330662D01*
X112250298Y-120251102D01*
X112170738Y-120185808D01*
X112079968Y-120137291D01*
X111981477Y-120107414D01*
X111879050Y-120097326D01*
X111366550Y-120097326D01*
X111264123Y-120107414D01*
X111165632Y-120137291D01*
X111074862Y-120185808D01*
X110995302Y-120251102D01*
X110930008Y-120330662D01*
X110881491Y-120421432D01*
X110851614Y-120519923D01*
X110841526Y-120622350D01*
X110357203Y-120622350D01*
X110350814Y-120590235D01*
X110244917Y-120334578D01*
X110091179Y-120104492D01*
X110018997Y-120032310D01*
X113323231Y-120032310D01*
X114125000Y-120834079D01*
X114926769Y-120032310D01*
X114830654Y-119855539D01*
X114619183Y-119737365D01*
X114388721Y-119662718D01*
X114148125Y-119634467D01*
X113906640Y-119653696D01*
X113673547Y-119719667D01*
X113457802Y-119829845D01*
X113419346Y-119855539D01*
X113323231Y-120032310D01*
X110018997Y-120032310D01*
X109895508Y-119908821D01*
X109665422Y-119755083D01*
X109409765Y-119649186D01*
X109138361Y-119595200D01*
X108861639Y-119595200D01*
X108590235Y-119649186D01*
X108334578Y-119755083D01*
X108104492Y-119908821D01*
X107908821Y-120104492D01*
X107755083Y-120334578D01*
X107649186Y-120590235D01*
X107595200Y-120861639D01*
X107329800Y-120861639D01*
X107329800Y-117472750D01*
X108323726Y-117472750D01*
X108323726Y-117985250D01*
X108333814Y-118087677D01*
X108363691Y-118186168D01*
X108412208Y-118276938D01*
X108477502Y-118356498D01*
X108553090Y-118418532D01*
X108603969Y-118513721D01*
X108603970Y-118513722D01*
X108673300Y-118598201D01*
X108694468Y-118615573D01*
X109316426Y-119237532D01*
X109333799Y-119258701D01*
X109354966Y-119276072D01*
X109418278Y-119328031D01*
X109514660Y-119379548D01*
X109619240Y-119411272D01*
X109727999Y-119421984D01*
X109755250Y-119419300D01*
X110841526Y-119419300D01*
X110841526Y-119484850D01*
X110851614Y-119587277D01*
X110881491Y-119685768D01*
X110930008Y-119776538D01*
X110995302Y-119856098D01*
X111074862Y-119921392D01*
X111165632Y-119969909D01*
X111264123Y-119999786D01*
X111366550Y-120009874D01*
X111879050Y-120009874D01*
X111981477Y-119999786D01*
X112079968Y-119969909D01*
X112170738Y-119921392D01*
X112250298Y-119856098D01*
X112315592Y-119776538D01*
X112364109Y-119685768D01*
X112393986Y-119587277D01*
X112404074Y-119484850D01*
X112404074Y-119047350D01*
X112393986Y-118944923D01*
X112364109Y-118846432D01*
X112315592Y-118755662D01*
X112250298Y-118676102D01*
X112170738Y-118610808D01*
X112079968Y-118562291D01*
X111981477Y-118532414D01*
X111879050Y-118522326D01*
X111641931Y-118522326D01*
X111611078Y-118491473D01*
X111593701Y-118470299D01*
X111509222Y-118400969D01*
X111412840Y-118349452D01*
X111356929Y-118332492D01*
X111362961Y-118321206D01*
X111380390Y-118263751D01*
X111386275Y-118204000D01*
X111384800Y-117830600D01*
X111308600Y-117754400D01*
X110667900Y-117754400D01*
X110667900Y-117774400D01*
X110617100Y-117774400D01*
X110617100Y-117754400D01*
X109976400Y-117754400D01*
X109900200Y-117830600D01*
X109898725Y-118204000D01*
X109903818Y-118255713D01*
X109785964Y-118137858D01*
X109801186Y-118087677D01*
X109811274Y-117985250D01*
X109811274Y-117472750D01*
X109801186Y-117370323D01*
X109774800Y-117283340D01*
X109774800Y-117254000D01*
X109898725Y-117254000D01*
X109900200Y-117627400D01*
X109976400Y-117703600D01*
X110617100Y-117703600D01*
X110617100Y-117025400D01*
X110667900Y-117025400D01*
X110667900Y-117703600D01*
X111308600Y-117703600D01*
X111384800Y-117627400D01*
X111386275Y-117254000D01*
X111380390Y-117194249D01*
X111362961Y-117136794D01*
X111334658Y-117083843D01*
X111296569Y-117037431D01*
X111250157Y-116999342D01*
X111197206Y-116971039D01*
X111139751Y-116953610D01*
X111080000Y-116947725D01*
X110744100Y-116949200D01*
X110667900Y-117025400D01*
X110617100Y-117025400D01*
X110540900Y-116949200D01*
X110205000Y-116947725D01*
X110145249Y-116953610D01*
X110087794Y-116971039D01*
X110034843Y-116999342D01*
X109988431Y-117037431D01*
X109950342Y-117083843D01*
X109922039Y-117136794D01*
X109904610Y-117194249D01*
X109898725Y-117254000D01*
X109774800Y-117254000D01*
X109774800Y-116880160D01*
X109847498Y-116820498D01*
X109876385Y-116785300D01*
X110687249Y-116785300D01*
X110714500Y-116787984D01*
X110741751Y-116785300D01*
X110823260Y-116777272D01*
X110927840Y-116745548D01*
X111024222Y-116694031D01*
X111108701Y-116624701D01*
X111126078Y-116603527D01*
X111578332Y-116151274D01*
X112500000Y-116151274D01*
X112559751Y-116145389D01*
X112617206Y-116127960D01*
X112670157Y-116099658D01*
X112716568Y-116061568D01*
X112754658Y-116015157D01*
X112782960Y-115962206D01*
X112800389Y-115904751D01*
X112806274Y-115845000D01*
X112806274Y-115045000D01*
X112800389Y-114985249D01*
X112782960Y-114927794D01*
X112754658Y-114874843D01*
X112716568Y-114828432D01*
X112694110Y-114810000D01*
X112716569Y-114791569D01*
X112754658Y-114745157D01*
X112782961Y-114692206D01*
X112800390Y-114634751D01*
X112806275Y-114575000D01*
X112804800Y-114276600D01*
X112728600Y-114200400D01*
X111525400Y-114200400D01*
X111525400Y-114220400D01*
X111474600Y-114220400D01*
X111474600Y-114200400D01*
X110271400Y-114200400D01*
X110195200Y-114276600D01*
X110193725Y-114575000D01*
X110199610Y-114634751D01*
X110217039Y-114692206D01*
X110245342Y-114745157D01*
X110283431Y-114791569D01*
X110305890Y-114810000D01*
X110283432Y-114828432D01*
X110245342Y-114874843D01*
X110217040Y-114927794D01*
X110199611Y-114985249D01*
X110193726Y-115045000D01*
X110193726Y-115675700D01*
X109876385Y-115675700D01*
X109847498Y-115640502D01*
X109767938Y-115575208D01*
X109677168Y-115526691D01*
X109578677Y-115496814D01*
X109476250Y-115486726D01*
X108963750Y-115486726D01*
X108861323Y-115496814D01*
X108762832Y-115526691D01*
X108672062Y-115575208D01*
X108592502Y-115640502D01*
X108527208Y-115720062D01*
X108478691Y-115810832D01*
X108448814Y-115909323D01*
X108438726Y-116011750D01*
X108438726Y-116449250D01*
X108448814Y-116551677D01*
X108478691Y-116650168D01*
X108527208Y-116740938D01*
X108592502Y-116820498D01*
X108665200Y-116880161D01*
X108665200Y-116982422D01*
X108647832Y-116987691D01*
X108557062Y-117036208D01*
X108477502Y-117101502D01*
X108412208Y-117181062D01*
X108363691Y-117271832D01*
X108333814Y-117370323D01*
X108323726Y-117472750D01*
X107329800Y-117472750D01*
X107329800Y-113778769D01*
X107334502Y-113784498D01*
X107414062Y-113849792D01*
X107504832Y-113898309D01*
X107518101Y-113902334D01*
X107518101Y-113993928D01*
X107516135Y-114013890D01*
X107523981Y-114093558D01*
X107547219Y-114170164D01*
X107547220Y-114170165D01*
X107574486Y-114221177D01*
X107569010Y-114248708D01*
X107569010Y-114377692D01*
X107594174Y-114504198D01*
X107643534Y-114623364D01*
X107715194Y-114730610D01*
X107806400Y-114821816D01*
X107913646Y-114893476D01*
X108032812Y-114942836D01*
X108159318Y-114968000D01*
X108288302Y-114968000D01*
X108414808Y-114942836D01*
X108439429Y-114932638D01*
X108438725Y-115093000D01*
X108444610Y-115152751D01*
X108462039Y-115210206D01*
X108490342Y-115263157D01*
X108528431Y-115309569D01*
X108574843Y-115347658D01*
X108627794Y-115375961D01*
X108685249Y-115393390D01*
X108745000Y-115399275D01*
X109118400Y-115397800D01*
X109194600Y-115321600D01*
X109194600Y-114680900D01*
X109245400Y-114680900D01*
X109245400Y-115321600D01*
X109321600Y-115397800D01*
X109695000Y-115399275D01*
X109754751Y-115393390D01*
X109812206Y-115375961D01*
X109865157Y-115347658D01*
X109911569Y-115309569D01*
X109949658Y-115263157D01*
X109977961Y-115210206D01*
X109995390Y-115152751D01*
X110001275Y-115093000D01*
X109999800Y-114757100D01*
X109923600Y-114680900D01*
X109245400Y-114680900D01*
X109194600Y-114680900D01*
X109174600Y-114680900D01*
X109174600Y-114630100D01*
X109194600Y-114630100D01*
X109194600Y-114610100D01*
X109245400Y-114610100D01*
X109245400Y-114630100D01*
X109923600Y-114630100D01*
X109999800Y-114553900D01*
X110001275Y-114218000D01*
X109995390Y-114158249D01*
X109977961Y-114100794D01*
X109949658Y-114047843D01*
X109911569Y-114001431D01*
X109865157Y-113963342D01*
X109812206Y-113935039D01*
X109797228Y-113930495D01*
X109820677Y-113928186D01*
X109919168Y-113898309D01*
X110009938Y-113849792D01*
X110089498Y-113784498D01*
X110154792Y-113704938D01*
X110203309Y-113614168D01*
X110233186Y-113515677D01*
X110238447Y-113462257D01*
X110245342Y-113475157D01*
X110283432Y-113521568D01*
X110305890Y-113540000D01*
X110283431Y-113558431D01*
X110245342Y-113604843D01*
X110217039Y-113657794D01*
X110199610Y-113715249D01*
X110193725Y-113775000D01*
X110195200Y-114073400D01*
X110271400Y-114149600D01*
X111474600Y-114149600D01*
X111474600Y-114129600D01*
X111525400Y-114129600D01*
X111525400Y-114149600D01*
X112728600Y-114149600D01*
X112804800Y-114073400D01*
X112806275Y-113775000D01*
X112800390Y-113715249D01*
X112782961Y-113657794D01*
X112754658Y-113604843D01*
X112716569Y-113558431D01*
X112694110Y-113540000D01*
X112716568Y-113521568D01*
X112754658Y-113475157D01*
X112782960Y-113422206D01*
X112800389Y-113364751D01*
X112806274Y-113305000D01*
X112806274Y-112505000D01*
X112800389Y-112445249D01*
X112782960Y-112387794D01*
X112754658Y-112334843D01*
X112716568Y-112288432D01*
X112694109Y-112270000D01*
X112716568Y-112251568D01*
X112754658Y-112205157D01*
X112782960Y-112152206D01*
X112800389Y-112094751D01*
X112806274Y-112035000D01*
X112806274Y-111235000D01*
X112800389Y-111175249D01*
X112782960Y-111117794D01*
X112754658Y-111064843D01*
X112716568Y-111018432D01*
X112694109Y-111000000D01*
X112716568Y-110981568D01*
X112754658Y-110935157D01*
X112782960Y-110882206D01*
X112800389Y-110824751D01*
X112806274Y-110765000D01*
X112806274Y-109965000D01*
X112800389Y-109905249D01*
X112782960Y-109847794D01*
X112754658Y-109794843D01*
X112716568Y-109748432D01*
X112694109Y-109730000D01*
X112716568Y-109711568D01*
X112754658Y-109665157D01*
X112782960Y-109612206D01*
X112800389Y-109554751D01*
X112806274Y-109495000D01*
X112806274Y-108695000D01*
X112800389Y-108635249D01*
X112782960Y-108577794D01*
X112754658Y-108524843D01*
X112716568Y-108478432D01*
X112694110Y-108460000D01*
X112716569Y-108441569D01*
X112754658Y-108395157D01*
X112782961Y-108342206D01*
X112800390Y-108284751D01*
X112806275Y-108225000D01*
X112804800Y-107926600D01*
X112728600Y-107850400D01*
X111525400Y-107850400D01*
X111525400Y-107870400D01*
X111474600Y-107870400D01*
X111474600Y-107850400D01*
X110271400Y-107850400D01*
X110195200Y-107926600D01*
X110194768Y-108014000D01*
X109692400Y-108014000D01*
X109692400Y-107536836D01*
X109772755Y-107456481D01*
X109773551Y-107455827D01*
X109820677Y-107451186D01*
X109919168Y-107421309D01*
X110009938Y-107372792D01*
X110089498Y-107307498D01*
X110154792Y-107227938D01*
X110203309Y-107137168D01*
X110220852Y-107079337D01*
X110245342Y-107125157D01*
X110283432Y-107171568D01*
X110305890Y-107190000D01*
X110283431Y-107208431D01*
X110245342Y-107254843D01*
X110217039Y-107307794D01*
X110199610Y-107365249D01*
X110193725Y-107425000D01*
X110195200Y-107723400D01*
X110271400Y-107799600D01*
X111474600Y-107799600D01*
X111474600Y-107779600D01*
X111525400Y-107779600D01*
X111525400Y-107799600D01*
X112728600Y-107799600D01*
X112804800Y-107723400D01*
X112806275Y-107425000D01*
X112800390Y-107365249D01*
X112782961Y-107307794D01*
X112754658Y-107254843D01*
X112716569Y-107208431D01*
X112694110Y-107190000D01*
X112716568Y-107171568D01*
X112754658Y-107125157D01*
X112782960Y-107072206D01*
X112800389Y-107014751D01*
X112806274Y-106955000D01*
X112806274Y-106155000D01*
X112800389Y-106095249D01*
X112782960Y-106037794D01*
X112754658Y-105984843D01*
X112716568Y-105938432D01*
X112670157Y-105900342D01*
X112617206Y-105872040D01*
X112559751Y-105854611D01*
X112500000Y-105848726D01*
X110743462Y-105848726D01*
X110489610Y-105594874D01*
X110647850Y-105594874D01*
X110750277Y-105584786D01*
X110848768Y-105554909D01*
X110939538Y-105506392D01*
X111019098Y-105441098D01*
X111084392Y-105361538D01*
X111132909Y-105270768D01*
X111148309Y-105220000D01*
X114317989Y-105220000D01*
X116349931Y-107270539D01*
X116363242Y-107286758D01*
X116393461Y-107311558D01*
X116423579Y-107336506D01*
X116424399Y-107336949D01*
X116425124Y-107337544D01*
X116459680Y-107356015D01*
X116494008Y-107374565D01*
X116494900Y-107374840D01*
X116495725Y-107375281D01*
X116533116Y-107386623D01*
X116570507Y-107398152D01*
X116571439Y-107398248D01*
X116572332Y-107398519D01*
X116611295Y-107402357D01*
X116650139Y-107406361D01*
X116671026Y-107404400D01*
X117253627Y-107404400D01*
X117260984Y-107415410D01*
X117352190Y-107506616D01*
X117459436Y-107578276D01*
X117578602Y-107627636D01*
X117705108Y-107652800D01*
X117834092Y-107652800D01*
X117960598Y-107627636D01*
X118079764Y-107578276D01*
X118187010Y-107506616D01*
X118278216Y-107415410D01*
X118349876Y-107308164D01*
X118399236Y-107188998D01*
X118424400Y-107062492D01*
X118424400Y-106933508D01*
X118399236Y-106807002D01*
X118349876Y-106687836D01*
X118278216Y-106580590D01*
X118187010Y-106489384D01*
X118079764Y-106417724D01*
X117960598Y-106368364D01*
X117834092Y-106343200D01*
X117705108Y-106343200D01*
X117578602Y-106368364D01*
X117459436Y-106417724D01*
X117352190Y-106489384D01*
X117260984Y-106580590D01*
X117253627Y-106591600D01*
X116821422Y-106591600D01*
X114789483Y-104541066D01*
X114776168Y-104524842D01*
X114746157Y-104500212D01*
X115001876Y-104500212D01*
X115537722Y-105036059D01*
X115550442Y-105051558D01*
X115565940Y-105064277D01*
X115565945Y-105064282D01*
X115573470Y-105070457D01*
X115612324Y-105102344D01*
X115682925Y-105140081D01*
X115759531Y-105163319D01*
X115766804Y-105164035D01*
X115819240Y-105169200D01*
X115819247Y-105169200D01*
X115839200Y-105171165D01*
X115859153Y-105169200D01*
X116276447Y-105169200D01*
X116296400Y-105171165D01*
X116316353Y-105169200D01*
X116316360Y-105169200D01*
X116376068Y-105163319D01*
X116452675Y-105140081D01*
X116523276Y-105102344D01*
X116585158Y-105051558D01*
X116597882Y-105036054D01*
X117128460Y-104505476D01*
X117143958Y-104492758D01*
X117156677Y-104477260D01*
X117156682Y-104477255D01*
X117189689Y-104437035D01*
X117194744Y-104430876D01*
X117232481Y-104360275D01*
X117255719Y-104283668D01*
X117261600Y-104223960D01*
X117261600Y-104223953D01*
X117263565Y-104204000D01*
X117261600Y-104184047D01*
X117261600Y-104161173D01*
X117272610Y-104153816D01*
X117363816Y-104062610D01*
X117435476Y-103955364D01*
X117484836Y-103836198D01*
X117510000Y-103709692D01*
X117510000Y-103580708D01*
X117484836Y-103454202D01*
X117435476Y-103335036D01*
X117363816Y-103227790D01*
X117272610Y-103136584D01*
X117165364Y-103064924D01*
X117046198Y-103015564D01*
X116919692Y-102990400D01*
X116790708Y-102990400D01*
X116664202Y-103015564D01*
X116545036Y-103064924D01*
X116437790Y-103136584D01*
X116346584Y-103227790D01*
X116274924Y-103335036D01*
X116225564Y-103454202D01*
X116225353Y-103455265D01*
X116120153Y-103434339D01*
X115991169Y-103434339D01*
X115978585Y-103436842D01*
X115968081Y-103424043D01*
X115906199Y-103373257D01*
X115835598Y-103335520D01*
X115758991Y-103312282D01*
X115699283Y-103306401D01*
X115699276Y-103306401D01*
X115679323Y-103304436D01*
X115659370Y-103306401D01*
X112417835Y-103306401D01*
X112407540Y-103300898D01*
X112330933Y-103277660D01*
X112271225Y-103271779D01*
X112271218Y-103271779D01*
X112251265Y-103269814D01*
X112231312Y-103271779D01*
X108175343Y-103271779D01*
X108155390Y-103269814D01*
X108135437Y-103271779D01*
X108135431Y-103271779D01*
X108083726Y-103276872D01*
X108075722Y-103277660D01*
X108036361Y-103289600D01*
X107999116Y-103300898D01*
X107928515Y-103338635D01*
X107903137Y-103359462D01*
X107882136Y-103376697D01*
X107882131Y-103376702D01*
X107866633Y-103389421D01*
X107853913Y-103404920D01*
X107482920Y-103775914D01*
X107467422Y-103788633D01*
X107454703Y-103804131D01*
X107454697Y-103804137D01*
X107435997Y-103826924D01*
X107416636Y-103850515D01*
X107396465Y-103888253D01*
X107378898Y-103921117D01*
X107355660Y-103997723D01*
X107347814Y-104077391D01*
X107349780Y-104097353D01*
X107349779Y-106016726D01*
X107347814Y-106036679D01*
X107348260Y-106041211D01*
X107334502Y-106052502D01*
X107329800Y-106058231D01*
X107329800Y-100861639D01*
X107595200Y-100861639D01*
X107595200Y-101138361D01*
X107649186Y-101409765D01*
X107755083Y-101665422D01*
X107908821Y-101895508D01*
X108104492Y-102091179D01*
X108334578Y-102244917D01*
X108590235Y-102350814D01*
X108861639Y-102404800D01*
X109138361Y-102404800D01*
X109409765Y-102350814D01*
X109665422Y-102244917D01*
X109895508Y-102091179D01*
X109909644Y-102077043D01*
X109886000Y-102195908D01*
X109886000Y-102324892D01*
X109911164Y-102451398D01*
X109960524Y-102570564D01*
X110032184Y-102677810D01*
X110123390Y-102769016D01*
X110230636Y-102840676D01*
X110349802Y-102890036D01*
X110476308Y-102915200D01*
X110605292Y-102915200D01*
X110731798Y-102890036D01*
X110850964Y-102840676D01*
X110958210Y-102769016D01*
X111049416Y-102677810D01*
X111121076Y-102570564D01*
X111170436Y-102451398D01*
X111195600Y-102324892D01*
X111195600Y-102195908D01*
X111193017Y-102182920D01*
X111203937Y-102172000D01*
X120298469Y-102172000D01*
X120277763Y-102178281D01*
X120207162Y-102216018D01*
X120145280Y-102266804D01*
X120132556Y-102282308D01*
X119777480Y-102637384D01*
X119764492Y-102634800D01*
X119635508Y-102634800D01*
X119509002Y-102659964D01*
X119389836Y-102709324D01*
X119282590Y-102780984D01*
X119191384Y-102872190D01*
X119119724Y-102979436D01*
X119070364Y-103098602D01*
X119045200Y-103225108D01*
X119045200Y-103354092D01*
X119070364Y-103480598D01*
X119119724Y-103599764D01*
X119191384Y-103707010D01*
X119282590Y-103798216D01*
X119389836Y-103869876D01*
X119509002Y-103919236D01*
X119635508Y-103944400D01*
X119764492Y-103944400D01*
X119890998Y-103919236D01*
X120010164Y-103869876D01*
X120117410Y-103798216D01*
X120208616Y-103707010D01*
X120280276Y-103599764D01*
X120329636Y-103480598D01*
X120354800Y-103354092D01*
X120354800Y-103225108D01*
X120352216Y-103212120D01*
X120602374Y-102961962D01*
X125080511Y-102961962D01*
X125087868Y-102972972D01*
X125179074Y-103064178D01*
X125286320Y-103135838D01*
X125405486Y-103185198D01*
X125531992Y-103210362D01*
X125660976Y-103210362D01*
X125787482Y-103185198D01*
X125906648Y-103135838D01*
X126013894Y-103064178D01*
X126105100Y-102972972D01*
X126176760Y-102865726D01*
X126226120Y-102746560D01*
X126251284Y-102620054D01*
X126251284Y-102491070D01*
X126226120Y-102364564D01*
X126176760Y-102245398D01*
X126105100Y-102138152D01*
X126013894Y-102046946D01*
X125906648Y-101975286D01*
X125787482Y-101925926D01*
X125660976Y-101900762D01*
X125531992Y-101900762D01*
X125405486Y-101925926D01*
X125286320Y-101975286D01*
X125179074Y-102046946D01*
X125087868Y-102138152D01*
X125080511Y-102149162D01*
X124447633Y-102149162D01*
X124496676Y-102075764D01*
X124546036Y-101956598D01*
X124571200Y-101830092D01*
X124571200Y-101701108D01*
X124546036Y-101574602D01*
X124496676Y-101455436D01*
X124425016Y-101348190D01*
X124333810Y-101256984D01*
X124226564Y-101185324D01*
X124107398Y-101135964D01*
X123980892Y-101110800D01*
X123851908Y-101110800D01*
X123725402Y-101135964D01*
X123606236Y-101185324D01*
X123498990Y-101256984D01*
X123407784Y-101348190D01*
X123400427Y-101359200D01*
X111055553Y-101359200D01*
X111035600Y-101357235D01*
X111015647Y-101359200D01*
X111015640Y-101359200D01*
X110963204Y-101364365D01*
X110955931Y-101365081D01*
X110879325Y-101388319D01*
X110808724Y-101426056D01*
X110783346Y-101446883D01*
X110762345Y-101464118D01*
X110762340Y-101464123D01*
X110746842Y-101476842D01*
X110734122Y-101492341D01*
X110618280Y-101608183D01*
X110605292Y-101605600D01*
X110476308Y-101605600D01*
X110349802Y-101630764D01*
X110236799Y-101677571D01*
X110244917Y-101665422D01*
X110350814Y-101409765D01*
X110404800Y-101138361D01*
X110404800Y-100861639D01*
X127595200Y-100861639D01*
X127595200Y-101138361D01*
X127649186Y-101409765D01*
X127755083Y-101665422D01*
X127908821Y-101895508D01*
X128104492Y-102091179D01*
X128334578Y-102244917D01*
X128590235Y-102350814D01*
X128861639Y-102404800D01*
X129138361Y-102404800D01*
X129409765Y-102350814D01*
X129665422Y-102244917D01*
X129895508Y-102091179D01*
X130091179Y-101895508D01*
X130244917Y-101665422D01*
X130350814Y-101409765D01*
X130404800Y-101138361D01*
X130404800Y-100861639D01*
X130350814Y-100590235D01*
X130244917Y-100334578D01*
X130091179Y-100104492D01*
X129895508Y-99908821D01*
X129665422Y-99755083D01*
X129409765Y-99649186D01*
X129138361Y-99595200D01*
X128861639Y-99595200D01*
X128590235Y-99649186D01*
X128334578Y-99755083D01*
X128104492Y-99908821D01*
X127908821Y-100104492D01*
X127755083Y-100334578D01*
X127649186Y-100590235D01*
X127595200Y-100861639D01*
X110404800Y-100861639D01*
X110350814Y-100590235D01*
X110244917Y-100334578D01*
X110091179Y-100104492D01*
X109895508Y-99908821D01*
X109665422Y-99755083D01*
X109409765Y-99649186D01*
X109138361Y-99595200D01*
X108861639Y-99595200D01*
X108590235Y-99649186D01*
X108334578Y-99755083D01*
X108104492Y-99908821D01*
X107908821Y-100104492D01*
X107755083Y-100334578D01*
X107649186Y-100590235D01*
X107595200Y-100861639D01*
X107329800Y-100861639D01*
X107329800Y-99329800D01*
X130670200Y-99329800D01*
X130670200Y-104767075D01*
G37*
X130670200Y-104767075D02*
X130609438Y-104717208D01*
X130518668Y-104668691D01*
X130420177Y-104638814D01*
X130317750Y-104628726D01*
X129880250Y-104628726D01*
X129777823Y-104638814D01*
X129679332Y-104668691D01*
X129588562Y-104717208D01*
X129509002Y-104782502D01*
X129443708Y-104862062D01*
X129395191Y-104952832D01*
X129365314Y-105051323D01*
X129356560Y-105140204D01*
X129267774Y-105228990D01*
X129267774Y-105153750D01*
X129257686Y-105051323D01*
X129227809Y-104952832D01*
X129179292Y-104862062D01*
X129113998Y-104782502D01*
X129034438Y-104717208D01*
X128979339Y-104687758D01*
X129016436Y-104598198D01*
X129041600Y-104471692D01*
X129041600Y-104426474D01*
X129403250Y-104426474D01*
X129505677Y-104416386D01*
X129604168Y-104386509D01*
X129694938Y-104337992D01*
X129774498Y-104272698D01*
X129839792Y-104193138D01*
X129888309Y-104102368D01*
X129918186Y-104003877D01*
X129928274Y-103901450D01*
X129928274Y-103388950D01*
X129918186Y-103286523D01*
X129888309Y-103188032D01*
X129839792Y-103097262D01*
X129774498Y-103017702D01*
X129694938Y-102952408D01*
X129604168Y-102903891D01*
X129505677Y-102874014D01*
X129403250Y-102863926D01*
X128965750Y-102863926D01*
X128863323Y-102874014D01*
X128764832Y-102903891D01*
X128674062Y-102952408D01*
X128594502Y-103017702D01*
X128529208Y-103097262D01*
X128480691Y-103188032D01*
X128450814Y-103286523D01*
X128440726Y-103388950D01*
X128440726Y-103752400D01*
X128353274Y-103752400D01*
X128353274Y-103388950D01*
X128343186Y-103286523D01*
X128313309Y-103188032D01*
X128264792Y-103097262D01*
X128199498Y-103017702D01*
X128119938Y-102952408D01*
X128029168Y-102903891D01*
X127930677Y-102874014D01*
X127828250Y-102863926D01*
X127390750Y-102863926D01*
X127288323Y-102874014D01*
X127189832Y-102903891D01*
X127099062Y-102952408D01*
X127019502Y-103017702D01*
X126954208Y-103097262D01*
X126905691Y-103188032D01*
X126875814Y-103286523D01*
X126865726Y-103388950D01*
X126865726Y-103901450D01*
X126875814Y-104003877D01*
X126905691Y-104102368D01*
X126954208Y-104193138D01*
X127019502Y-104272698D01*
X127050801Y-104298385D01*
X127050800Y-105848726D01*
X126106164Y-105848726D01*
X126147326Y-105821222D01*
X126238532Y-105730016D01*
X126310192Y-105622770D01*
X126359552Y-105503604D01*
X126384716Y-105377098D01*
X126384716Y-105248114D01*
X126359552Y-105121608D01*
X126310192Y-105002442D01*
X126238532Y-104895196D01*
X126147326Y-104803990D01*
X126040080Y-104732330D01*
X125920914Y-104682970D01*
X125794408Y-104657806D01*
X125665424Y-104657806D01*
X125538918Y-104682970D01*
X125419752Y-104732330D01*
X125312506Y-104803990D01*
X125221300Y-104895196D01*
X125213943Y-104906206D01*
X123420216Y-104906206D01*
X123400263Y-104904241D01*
X123380310Y-104906206D01*
X123380304Y-104906206D01*
X123328599Y-104911299D01*
X123320595Y-104912087D01*
X123297562Y-104919074D01*
X123243989Y-104935325D01*
X123173388Y-104973062D01*
X123111506Y-105023848D01*
X123098782Y-105039352D01*
X121822399Y-106315735D01*
X121809411Y-106313151D01*
X121680427Y-106313151D01*
X121553921Y-106338315D01*
X121434755Y-106387675D01*
X121327509Y-106459335D01*
X121236303Y-106550541D01*
X121231543Y-106557666D01*
X121168548Y-106494671D01*
X121061302Y-106423011D01*
X120942136Y-106373651D01*
X120815630Y-106348487D01*
X120686646Y-106348487D01*
X120560140Y-106373651D01*
X120440974Y-106423011D01*
X120333728Y-106494671D01*
X120242522Y-106585877D01*
X120170862Y-106693123D01*
X120121502Y-106812289D01*
X120096338Y-106938795D01*
X120096338Y-107067779D01*
X120121502Y-107194285D01*
X120170862Y-107313451D01*
X120242522Y-107420697D01*
X120333728Y-107511903D01*
X120344848Y-107519333D01*
X120350619Y-107577931D01*
X120373858Y-107654537D01*
X120385881Y-107677029D01*
X120411595Y-107725137D01*
X120462381Y-107787019D01*
X120477885Y-107799743D01*
X120548757Y-107870615D01*
X120561481Y-107886119D01*
X120623363Y-107936905D01*
X120693964Y-107974642D01*
X120770571Y-107997880D01*
X120830279Y-108003761D01*
X120830287Y-108003761D01*
X120850240Y-108005726D01*
X120870190Y-108003761D01*
X122100286Y-108003761D01*
X122120239Y-108005726D01*
X122140192Y-108003761D01*
X122140199Y-108003761D01*
X122199907Y-107997880D01*
X122276514Y-107974642D01*
X122347115Y-107936905D01*
X122408997Y-107886119D01*
X122421721Y-107870615D01*
X124069536Y-106222800D01*
X124346380Y-106222800D01*
X124351571Y-106248897D01*
X124400931Y-106368063D01*
X124472591Y-106475309D01*
X124563797Y-106566515D01*
X124671043Y-106638175D01*
X124790209Y-106687535D01*
X124916715Y-106712699D01*
X125045699Y-106712699D01*
X125172205Y-106687535D01*
X125193726Y-106678621D01*
X125193726Y-106955000D01*
X125199611Y-107014751D01*
X125217040Y-107072206D01*
X125245342Y-107125157D01*
X125283432Y-107171568D01*
X125305890Y-107190000D01*
X125283431Y-107208431D01*
X125245342Y-107254843D01*
X125217039Y-107307794D01*
X125199610Y-107365249D01*
X125193725Y-107425000D01*
X125195200Y-107723400D01*
X125271400Y-107799600D01*
X126474600Y-107799600D01*
X126474600Y-107779600D01*
X126525400Y-107779600D01*
X126525400Y-107799600D01*
X126545400Y-107799600D01*
X126545400Y-107850400D01*
X126525400Y-107850400D01*
X126525400Y-107870400D01*
X126474600Y-107870400D01*
X126474600Y-107850400D01*
X125271400Y-107850400D01*
X125195200Y-107926600D01*
X125193725Y-108225000D01*
X125199610Y-108284751D01*
X125217039Y-108342206D01*
X125245342Y-108395157D01*
X125283431Y-108441569D01*
X125305890Y-108460000D01*
X125283432Y-108478432D01*
X125245342Y-108524843D01*
X125217040Y-108577794D01*
X125199611Y-108635249D01*
X125193726Y-108695000D01*
X125193726Y-109495000D01*
X125199611Y-109554751D01*
X125217040Y-109612206D01*
X125245342Y-109665157D01*
X125283432Y-109711568D01*
X125305891Y-109730000D01*
X125283432Y-109748432D01*
X125245342Y-109794843D01*
X125217040Y-109847794D01*
X125199611Y-109905249D01*
X125193726Y-109965000D01*
X125193726Y-110765000D01*
X125199611Y-110824751D01*
X125217040Y-110882206D01*
X125245342Y-110935157D01*
X125283432Y-110981568D01*
X125305891Y-111000000D01*
X125283432Y-111018432D01*
X125245342Y-111064843D01*
X125217040Y-111117794D01*
X125199611Y-111175249D01*
X125193726Y-111235000D01*
X125193726Y-112035000D01*
X125199611Y-112094751D01*
X125217040Y-112152206D01*
X125245342Y-112205157D01*
X125283432Y-112251568D01*
X125305891Y-112270000D01*
X125283432Y-112288432D01*
X125245342Y-112334843D01*
X125217040Y-112387794D01*
X125199611Y-112445249D01*
X125193726Y-112505000D01*
X125193726Y-113305000D01*
X125199611Y-113364751D01*
X125217040Y-113422206D01*
X125245342Y-113475157D01*
X125283432Y-113521568D01*
X125305891Y-113540000D01*
X125283432Y-113558432D01*
X125245342Y-113604843D01*
X125217040Y-113657794D01*
X125199611Y-113715249D01*
X125193726Y-113775000D01*
X125193726Y-114575000D01*
X125199611Y-114634751D01*
X125217040Y-114692206D01*
X125245342Y-114745157D01*
X125283432Y-114791568D01*
X125305890Y-114810000D01*
X125283431Y-114828431D01*
X125245342Y-114874843D01*
X125217039Y-114927794D01*
X125199610Y-114985249D01*
X125193725Y-115045000D01*
X125195200Y-115343400D01*
X125271400Y-115419600D01*
X126474600Y-115419600D01*
X126474600Y-115399600D01*
X126525400Y-115399600D01*
X126525400Y-115419600D01*
X127728600Y-115419600D01*
X127804800Y-115343400D01*
X127806275Y-115045000D01*
X127800390Y-114985249D01*
X127782961Y-114927794D01*
X127754658Y-114874843D01*
X127716569Y-114828431D01*
X127694110Y-114810000D01*
X127716568Y-114791568D01*
X127754658Y-114745157D01*
X127782960Y-114692206D01*
X127800389Y-114634751D01*
X127806274Y-114575000D01*
X127806274Y-113879898D01*
X128118200Y-113879898D01*
X128118200Y-114072902D01*
X128155853Y-114262197D01*
X128229712Y-114440509D01*
X128336940Y-114600986D01*
X128473414Y-114737460D01*
X128633891Y-114844688D01*
X128812203Y-114918547D01*
X129001498Y-114956200D01*
X129194502Y-114956200D01*
X129383797Y-114918547D01*
X129562109Y-114844688D01*
X129722586Y-114737460D01*
X129859060Y-114600986D01*
X129966288Y-114440509D01*
X130040147Y-114262197D01*
X130077800Y-114072902D01*
X130077800Y-113879898D01*
X130040147Y-113690603D01*
X129966288Y-113512291D01*
X129859060Y-113351814D01*
X129722586Y-113215340D01*
X129562109Y-113108112D01*
X129383797Y-113034253D01*
X129194502Y-112996600D01*
X129001498Y-112996600D01*
X128812203Y-113034253D01*
X128633891Y-113108112D01*
X128473414Y-113215340D01*
X128336940Y-113351814D01*
X128229712Y-113512291D01*
X128155853Y-113690603D01*
X128118200Y-113879898D01*
X127806274Y-113879898D01*
X127806274Y-113775000D01*
X127800389Y-113715249D01*
X127782960Y-113657794D01*
X127754658Y-113604843D01*
X127716568Y-113558432D01*
X127694109Y-113540000D01*
X127716568Y-113521568D01*
X127754658Y-113475157D01*
X127782960Y-113422206D01*
X127800389Y-113364751D01*
X127806274Y-113305000D01*
X127806274Y-112505000D01*
X127800389Y-112445249D01*
X127782960Y-112387794D01*
X127754658Y-112334843D01*
X127716568Y-112288432D01*
X127694109Y-112270000D01*
X127716568Y-112251568D01*
X127754658Y-112205157D01*
X127782960Y-112152206D01*
X127800389Y-112094751D01*
X127806274Y-112035000D01*
X127806274Y-111503462D01*
X128156686Y-111153050D01*
X128140040Y-111184194D01*
X128122611Y-111241649D01*
X128116726Y-111301400D01*
X128116726Y-112651400D01*
X128122611Y-112711151D01*
X128140040Y-112768606D01*
X128168342Y-112821557D01*
X128206432Y-112867968D01*
X128252843Y-112906058D01*
X128305794Y-112934360D01*
X128363249Y-112951789D01*
X128423000Y-112957674D01*
X129773000Y-112957674D01*
X129832751Y-112951789D01*
X129890206Y-112934360D01*
X129943157Y-112906058D01*
X129989568Y-112867968D01*
X130027658Y-112821557D01*
X130055960Y-112768606D01*
X130073389Y-112711151D01*
X130079274Y-112651400D01*
X130079274Y-111301400D01*
X130073389Y-111241649D01*
X130055960Y-111184194D01*
X130027658Y-111131243D01*
X129989568Y-111084832D01*
X129943157Y-111046742D01*
X129890206Y-111018440D01*
X129832751Y-111001011D01*
X129773000Y-110995126D01*
X128423000Y-110995126D01*
X128363249Y-111001011D01*
X128305794Y-111018440D01*
X128274651Y-111035086D01*
X128939361Y-110370376D01*
X128954858Y-110357658D01*
X128967577Y-110342160D01*
X128967582Y-110342155D01*
X128984817Y-110321154D01*
X129005644Y-110295776D01*
X129033051Y-110244500D01*
X129085768Y-110228509D01*
X129176538Y-110179992D01*
X129256098Y-110114698D01*
X129321392Y-110035138D01*
X129369909Y-109944368D01*
X129399786Y-109845877D01*
X129409874Y-109743450D01*
X129409874Y-109230950D01*
X129399786Y-109128523D01*
X129369909Y-109030032D01*
X129321392Y-108939262D01*
X129256098Y-108859702D01*
X129176538Y-108794408D01*
X129085768Y-108745891D01*
X128987277Y-108716014D01*
X128884850Y-108705926D01*
X128651180Y-108705926D01*
X128843509Y-108499011D01*
X128853258Y-108491010D01*
X128870697Y-108469760D01*
X128875757Y-108464317D01*
X128883352Y-108454341D01*
X128904044Y-108429128D01*
X128907572Y-108422528D01*
X128912100Y-108416580D01*
X128926404Y-108387295D01*
X128941781Y-108358527D01*
X128943953Y-108351368D01*
X128947235Y-108344648D01*
X128955552Y-108313128D01*
X128965019Y-108281920D01*
X128965753Y-108274473D01*
X128967660Y-108267244D01*
X128969667Y-108234732D01*
X128970900Y-108222212D01*
X128970900Y-108214754D01*
X128972592Y-108187342D01*
X128970900Y-108174855D01*
X128970900Y-107946534D01*
X128984168Y-107942509D01*
X129074938Y-107893992D01*
X129154498Y-107828698D01*
X129219792Y-107749138D01*
X129268309Y-107658368D01*
X129298186Y-107559877D01*
X129308274Y-107457450D01*
X129308274Y-106944950D01*
X129298186Y-106842523D01*
X129268309Y-106744032D01*
X129219792Y-106653262D01*
X129154498Y-106573702D01*
X129074938Y-106508408D01*
X128984168Y-106459891D01*
X128885677Y-106430014D01*
X128783250Y-106419926D01*
X128345750Y-106419926D01*
X128253990Y-106428963D01*
X128253990Y-106186225D01*
X128305250Y-106191274D01*
X128742750Y-106191274D01*
X128845177Y-106181186D01*
X128848038Y-106180318D01*
X128873324Y-106241364D01*
X128944984Y-106348610D01*
X129036190Y-106439816D01*
X129143436Y-106511476D01*
X129262602Y-106560836D01*
X129389108Y-106586000D01*
X129518092Y-106586000D01*
X129543568Y-106580932D01*
X129484208Y-106653262D01*
X129435691Y-106744032D01*
X129405814Y-106842523D01*
X129395726Y-106944950D01*
X129395726Y-107457450D01*
X129405814Y-107559877D01*
X129435691Y-107658368D01*
X129454626Y-107693793D01*
X129346636Y-107738524D01*
X129239390Y-107810184D01*
X129148184Y-107901390D01*
X129076524Y-108008636D01*
X129027164Y-108127802D01*
X129002000Y-108254308D01*
X129002000Y-108383292D01*
X129027164Y-108509798D01*
X129076524Y-108628964D01*
X129148184Y-108736210D01*
X129239390Y-108827416D01*
X129346636Y-108899076D01*
X129465802Y-108948436D01*
X129569843Y-108969131D01*
X129537291Y-109030032D01*
X129507414Y-109128523D01*
X129497326Y-109230950D01*
X129497326Y-109743450D01*
X129507414Y-109845877D01*
X129537291Y-109944368D01*
X129585808Y-110035138D01*
X129651102Y-110114698D01*
X129721710Y-110172645D01*
X129685667Y-110259661D01*
X129660503Y-110386167D01*
X129660503Y-110515151D01*
X129685667Y-110641657D01*
X129735027Y-110760823D01*
X129806687Y-110868069D01*
X129897893Y-110959275D01*
X130005139Y-111030935D01*
X130124305Y-111080295D01*
X130250811Y-111105459D01*
X130379795Y-111105459D01*
X130506301Y-111080295D01*
X130625467Y-111030935D01*
X130670201Y-111001045D01*
X130670201Y-122670200D01*
X107329800Y-122670200D01*
X107329800Y-120861639D01*
X107595200Y-120861639D01*
X107595200Y-121138361D01*
X107649186Y-121409765D01*
X107755083Y-121665422D01*
X107908821Y-121895508D01*
X108104492Y-122091179D01*
X108334578Y-122244917D01*
X108590235Y-122350814D01*
X108861639Y-122404800D01*
X109138361Y-122404800D01*
X109409765Y-122350814D01*
X109665422Y-122244917D01*
X109895508Y-122091179D01*
X110091179Y-121895508D01*
X110244917Y-121665422D01*
X110350814Y-121409765D01*
X110404800Y-121138361D01*
X110404800Y-120861639D01*
X110357203Y-120622350D01*
X110841526Y-120622350D01*
X110841526Y-121059850D01*
X110851614Y-121162277D01*
X110881491Y-121260768D01*
X110930008Y-121351538D01*
X110993780Y-121429243D01*
X110938705Y-121511668D01*
X110881807Y-121649033D01*
X110852800Y-121794859D01*
X110852800Y-121943541D01*
X110881807Y-122089367D01*
X110938705Y-122226732D01*
X111021309Y-122350357D01*
X111126443Y-122455491D01*
X111250068Y-122538095D01*
X111387433Y-122594993D01*
X111533259Y-122624000D01*
X111681941Y-122624000D01*
X111827767Y-122594993D01*
X111965132Y-122538095D01*
X112088757Y-122455491D01*
X112193891Y-122350357D01*
X112276495Y-122226732D01*
X112333393Y-122089367D01*
X112362400Y-121943541D01*
X112362400Y-121794859D01*
X112345061Y-121707690D01*
X113323231Y-121707690D01*
X113419346Y-121884461D01*
X113630817Y-122002635D01*
X113861279Y-122077282D01*
X114101875Y-122105533D01*
X114343360Y-122086304D01*
X114576453Y-122020333D01*
X114792198Y-121910155D01*
X114830654Y-121884461D01*
X114926769Y-121707690D01*
X114125000Y-120905921D01*
X113323231Y-121707690D01*
X112345061Y-121707690D01*
X112333393Y-121649033D01*
X112276495Y-121511668D01*
X112232448Y-121445747D01*
X112250298Y-121431098D01*
X112315592Y-121351538D01*
X112364109Y-121260768D01*
X112393986Y-121162277D01*
X112404074Y-121059850D01*
X112404074Y-120846875D01*
X112889467Y-120846875D01*
X112908696Y-121088360D01*
X112974667Y-121321453D01*
X113084845Y-121537198D01*
X113110539Y-121575654D01*
X113287310Y-121671769D01*
X114089079Y-120870000D01*
X114160921Y-120870000D01*
X114962690Y-121671769D01*
X115139461Y-121575654D01*
X115257635Y-121364183D01*
X115332282Y-121133721D01*
X115332869Y-121128720D01*
X115957201Y-121128720D01*
X115992721Y-121253784D01*
X116118340Y-121321638D01*
X116254782Y-121363682D01*
X116378793Y-121376445D01*
X116353054Y-121438584D01*
X116325200Y-121578613D01*
X116325200Y-121721387D01*
X116353054Y-121861416D01*
X116407691Y-121993322D01*
X116487011Y-122112033D01*
X116587967Y-122212989D01*
X116706678Y-122292309D01*
X116838584Y-122346946D01*
X116978613Y-122374800D01*
X117121387Y-122374800D01*
X117261416Y-122346946D01*
X117393322Y-122292309D01*
X117512033Y-122212989D01*
X117612989Y-122112033D01*
X117692309Y-121993322D01*
X117700000Y-121974754D01*
X117707691Y-121993322D01*
X117787011Y-122112033D01*
X117887967Y-122212989D01*
X118006678Y-122292309D01*
X118138584Y-122346946D01*
X118278613Y-122374800D01*
X118421387Y-122374800D01*
X118561416Y-122346946D01*
X118693322Y-122292309D01*
X118812033Y-122212989D01*
X118912989Y-122112033D01*
X118950162Y-122056400D01*
X119322969Y-122056400D01*
X119342922Y-122058365D01*
X119362875Y-122056400D01*
X119362882Y-122056400D01*
X119422590Y-122050519D01*
X119499197Y-122027281D01*
X119569798Y-121989544D01*
X119631680Y-121938758D01*
X119644404Y-121923254D01*
X119859968Y-121707690D01*
X120473231Y-121707690D01*
X120569346Y-121884461D01*
X120780817Y-122002635D01*
X121011279Y-122077282D01*
X121251875Y-122105533D01*
X121493360Y-122086304D01*
X121726453Y-122020333D01*
X121942198Y-121910155D01*
X121980654Y-121884461D01*
X122076769Y-121707690D01*
X121275000Y-120905921D01*
X120473231Y-121707690D01*
X119859968Y-121707690D01*
X119972656Y-121595002D01*
X119988159Y-121582279D01*
X120038945Y-121520397D01*
X120076682Y-121449796D01*
X120098984Y-121376274D01*
X120099920Y-121373190D01*
X120101912Y-121352960D01*
X120105801Y-121313481D01*
X120105801Y-121313475D01*
X120107766Y-121293522D01*
X120105801Y-121273569D01*
X120105801Y-121254794D01*
X120124667Y-121321453D01*
X120234845Y-121537198D01*
X120260539Y-121575654D01*
X120437310Y-121671769D01*
X121239079Y-120870000D01*
X121310921Y-120870000D01*
X122112690Y-121671769D01*
X122289461Y-121575654D01*
X122407635Y-121364183D01*
X122482282Y-121133721D01*
X122510533Y-120893125D01*
X122508026Y-120861639D01*
X127595200Y-120861639D01*
X127595200Y-121138361D01*
X127649186Y-121409765D01*
X127755083Y-121665422D01*
X127908821Y-121895508D01*
X128104492Y-122091179D01*
X128334578Y-122244917D01*
X128590235Y-122350814D01*
X128861639Y-122404800D01*
X129138361Y-122404800D01*
X129409765Y-122350814D01*
X129665422Y-122244917D01*
X129895508Y-122091179D01*
X130091179Y-121895508D01*
X130244917Y-121665422D01*
X130350814Y-121409765D01*
X130404800Y-121138361D01*
X130404800Y-120861639D01*
X130350814Y-120590235D01*
X130244917Y-120334578D01*
X130091179Y-120104492D01*
X129895508Y-119908821D01*
X129665422Y-119755083D01*
X129409765Y-119649186D01*
X129138361Y-119595200D01*
X128861639Y-119595200D01*
X128590235Y-119649186D01*
X128334578Y-119755083D01*
X128104492Y-119908821D01*
X127908821Y-120104492D01*
X127755083Y-120334578D01*
X127649186Y-120590235D01*
X127595200Y-120861639D01*
X122508026Y-120861639D01*
X122491304Y-120651640D01*
X122425333Y-120418547D01*
X122315155Y-120202802D01*
X122289461Y-120164346D01*
X122112690Y-120068231D01*
X121310921Y-120870000D01*
X121239079Y-120870000D01*
X120437310Y-120068231D01*
X120260539Y-120164346D01*
X120142365Y-120375817D01*
X120105801Y-120488703D01*
X120105801Y-120032310D01*
X120473231Y-120032310D01*
X121275000Y-120834079D01*
X122076769Y-120032310D01*
X121980654Y-119855539D01*
X121769183Y-119737365D01*
X121538721Y-119662718D01*
X121298125Y-119634467D01*
X121056640Y-119653696D01*
X120823547Y-119719667D01*
X120607802Y-119829845D01*
X120569346Y-119855539D01*
X120473231Y-120032310D01*
X120105801Y-120032310D01*
X120105801Y-120026431D01*
X120107766Y-120006478D01*
X120105801Y-119986525D01*
X120105801Y-119986519D01*
X120099920Y-119926811D01*
X120099432Y-119925200D01*
X120088308Y-119888531D01*
X120076682Y-119850204D01*
X120038945Y-119779603D01*
X119988159Y-119717721D01*
X119972655Y-119704997D01*
X118643400Y-118375742D01*
X118643400Y-117879898D01*
X128118200Y-117879898D01*
X128118200Y-118072902D01*
X128155853Y-118262197D01*
X128229712Y-118440509D01*
X128336940Y-118600986D01*
X128473414Y-118737460D01*
X128633891Y-118844688D01*
X128812203Y-118918547D01*
X129001498Y-118956200D01*
X129194502Y-118956200D01*
X129383797Y-118918547D01*
X129562109Y-118844688D01*
X129722586Y-118737460D01*
X129859060Y-118600986D01*
X129966288Y-118440509D01*
X130040147Y-118262197D01*
X130077800Y-118072902D01*
X130077800Y-117879898D01*
X130040147Y-117690603D01*
X129966288Y-117512291D01*
X129859060Y-117351814D01*
X129722586Y-117215340D01*
X129562109Y-117108112D01*
X129383797Y-117034253D01*
X129194502Y-116996600D01*
X129001498Y-116996600D01*
X128812203Y-117034253D01*
X128633891Y-117108112D01*
X128473414Y-117215340D01*
X128336940Y-117351814D01*
X128229712Y-117512291D01*
X128155853Y-117690603D01*
X128118200Y-117879898D01*
X118643400Y-117879898D01*
X118643400Y-116823419D01*
X118731802Y-116860036D01*
X118858308Y-116885200D01*
X118987292Y-116885200D01*
X119113798Y-116860036D01*
X119232964Y-116810676D01*
X119340210Y-116739016D01*
X119431416Y-116647810D01*
X119503076Y-116540564D01*
X119552436Y-116421398D01*
X119577600Y-116294892D01*
X119577600Y-116165908D01*
X119552436Y-116039402D01*
X119503076Y-115920236D01*
X119452805Y-115845000D01*
X125193725Y-115845000D01*
X125199610Y-115904751D01*
X125217039Y-115962206D01*
X125245342Y-116015157D01*
X125283431Y-116061569D01*
X125329843Y-116099658D01*
X125382794Y-116127961D01*
X125440249Y-116145390D01*
X125500000Y-116151275D01*
X126398400Y-116149800D01*
X126474600Y-116073600D01*
X126474600Y-115470400D01*
X126525400Y-115470400D01*
X126525400Y-116073600D01*
X126601600Y-116149800D01*
X127500000Y-116151275D01*
X127559751Y-116145390D01*
X127617206Y-116127961D01*
X127670157Y-116099658D01*
X127716569Y-116061569D01*
X127754658Y-116015157D01*
X127782961Y-115962206D01*
X127800390Y-115904751D01*
X127802837Y-115879898D01*
X128118200Y-115879898D01*
X128118200Y-116072902D01*
X128155853Y-116262197D01*
X128229712Y-116440509D01*
X128336940Y-116600986D01*
X128473414Y-116737460D01*
X128633891Y-116844688D01*
X128812203Y-116918547D01*
X129001498Y-116956200D01*
X129194502Y-116956200D01*
X129383797Y-116918547D01*
X129562109Y-116844688D01*
X129722586Y-116737460D01*
X129859060Y-116600986D01*
X129966288Y-116440509D01*
X130040147Y-116262197D01*
X130077800Y-116072902D01*
X130077800Y-115879898D01*
X130040147Y-115690603D01*
X129966288Y-115512291D01*
X129859060Y-115351814D01*
X129722586Y-115215340D01*
X129562109Y-115108112D01*
X129383797Y-115034253D01*
X129194502Y-114996600D01*
X129001498Y-114996600D01*
X128812203Y-115034253D01*
X128633891Y-115108112D01*
X128473414Y-115215340D01*
X128336940Y-115351814D01*
X128229712Y-115512291D01*
X128155853Y-115690603D01*
X128118200Y-115879898D01*
X127802837Y-115879898D01*
X127806275Y-115845000D01*
X127804800Y-115546600D01*
X127728600Y-115470400D01*
X126525400Y-115470400D01*
X126474600Y-115470400D01*
X125271400Y-115470400D01*
X125195200Y-115546600D01*
X125193725Y-115845000D01*
X119452805Y-115845000D01*
X119431416Y-115812990D01*
X119340210Y-115721784D01*
X119293600Y-115690640D01*
X119293600Y-115069973D01*
X119304610Y-115062616D01*
X119395816Y-114971410D01*
X119467476Y-114864164D01*
X119516836Y-114744998D01*
X119542000Y-114618492D01*
X119542000Y-114489508D01*
X119516836Y-114363002D01*
X119467476Y-114243836D01*
X119395816Y-114136590D01*
X119304610Y-114045384D01*
X119197364Y-113973724D01*
X119078198Y-113924364D01*
X118951692Y-113899200D01*
X118822708Y-113899200D01*
X118696202Y-113924364D01*
X118643400Y-113946235D01*
X118643400Y-109696136D01*
X118860520Y-109479016D01*
X118873508Y-109481600D01*
X119002492Y-109481600D01*
X119128998Y-109456436D01*
X119248164Y-109407076D01*
X119355410Y-109335416D01*
X119446616Y-109244210D01*
X119518276Y-109136964D01*
X119567636Y-109017798D01*
X119592800Y-108891292D01*
X119592800Y-108764270D01*
X119693072Y-108744324D01*
X119812238Y-108694964D01*
X119919484Y-108623304D01*
X120010690Y-108532098D01*
X120082350Y-108424852D01*
X120131710Y-108305686D01*
X120156874Y-108179180D01*
X120156874Y-108050196D01*
X120131710Y-107923690D01*
X120082350Y-107804524D01*
X120010690Y-107697278D01*
X119919484Y-107606072D01*
X119812238Y-107534412D01*
X119693072Y-107485052D01*
X119566566Y-107459888D01*
X119437582Y-107459888D01*
X119311076Y-107485052D01*
X119191910Y-107534412D01*
X119084664Y-107606072D01*
X118993458Y-107697278D01*
X118986101Y-107708288D01*
X118738550Y-107708288D01*
X118718597Y-107706323D01*
X118698644Y-107708288D01*
X118698638Y-107708288D01*
X118646933Y-107713381D01*
X118638929Y-107714169D01*
X118621100Y-107719578D01*
X118562323Y-107737407D01*
X118491722Y-107775144D01*
X118429840Y-107825930D01*
X118417116Y-107841434D01*
X117426741Y-108831809D01*
X117411243Y-108844528D01*
X117398524Y-108860026D01*
X117398518Y-108860032D01*
X117390142Y-108870239D01*
X117360457Y-108906410D01*
X117344947Y-108935428D01*
X117322719Y-108977012D01*
X117299481Y-109053618D01*
X117291635Y-109133286D01*
X117293601Y-109153249D01*
X117293600Y-120049838D01*
X117237967Y-120087011D01*
X117137011Y-120187967D01*
X117057691Y-120306678D01*
X117049196Y-120327187D01*
X117007334Y-120248035D01*
X117003784Y-120242721D01*
X116878720Y-120207201D01*
X116435921Y-120650000D01*
X116450064Y-120664143D01*
X116414143Y-120700064D01*
X116400000Y-120685921D01*
X115957201Y-121128720D01*
X115332869Y-121128720D01*
X115360533Y-120893125D01*
X115341304Y-120651640D01*
X115339936Y-120646805D01*
X115671701Y-120646805D01*
X115685071Y-120788951D01*
X115725917Y-120925756D01*
X115792666Y-121051965D01*
X115796216Y-121057279D01*
X115921280Y-121092799D01*
X116364079Y-120650000D01*
X115921280Y-120207201D01*
X115796216Y-120242721D01*
X115728362Y-120368340D01*
X115686318Y-120504782D01*
X115671701Y-120646805D01*
X115339936Y-120646805D01*
X115275333Y-120418547D01*
X115165155Y-120202802D01*
X115144094Y-120171280D01*
X115957201Y-120171280D01*
X116400000Y-120614079D01*
X116842799Y-120171280D01*
X116807279Y-120046216D01*
X116681660Y-119978362D01*
X116545218Y-119936318D01*
X116403195Y-119921701D01*
X116261049Y-119935071D01*
X116124244Y-119975917D01*
X115998035Y-120042666D01*
X115992721Y-120046216D01*
X115957201Y-120171280D01*
X115144094Y-120171280D01*
X115139461Y-120164346D01*
X114962690Y-120068231D01*
X114160921Y-120870000D01*
X114089079Y-120870000D01*
X113287310Y-120068231D01*
X113110539Y-120164346D01*
X112992365Y-120375817D01*
X112917718Y-120606279D01*
X112889467Y-120846875D01*
X112404074Y-120846875D01*
X112404074Y-120622350D01*
X112393986Y-120519923D01*
X112364109Y-120421432D01*
X112315592Y-120330662D01*
X112250298Y-120251102D01*
X112170738Y-120185808D01*
X112079968Y-120137291D01*
X111981477Y-120107414D01*
X111879050Y-120097326D01*
X111366550Y-120097326D01*
X111264123Y-120107414D01*
X111165632Y-120137291D01*
X111074862Y-120185808D01*
X110995302Y-120251102D01*
X110930008Y-120330662D01*
X110881491Y-120421432D01*
X110851614Y-120519923D01*
X110841526Y-120622350D01*
X110357203Y-120622350D01*
X110350814Y-120590235D01*
X110244917Y-120334578D01*
X110091179Y-120104492D01*
X110018997Y-120032310D01*
X113323231Y-120032310D01*
X114125000Y-120834079D01*
X114926769Y-120032310D01*
X114830654Y-119855539D01*
X114619183Y-119737365D01*
X114388721Y-119662718D01*
X114148125Y-119634467D01*
X113906640Y-119653696D01*
X113673547Y-119719667D01*
X113457802Y-119829845D01*
X113419346Y-119855539D01*
X113323231Y-120032310D01*
X110018997Y-120032310D01*
X109895508Y-119908821D01*
X109665422Y-119755083D01*
X109409765Y-119649186D01*
X109138361Y-119595200D01*
X108861639Y-119595200D01*
X108590235Y-119649186D01*
X108334578Y-119755083D01*
X108104492Y-119908821D01*
X107908821Y-120104492D01*
X107755083Y-120334578D01*
X107649186Y-120590235D01*
X107595200Y-120861639D01*
X107329800Y-120861639D01*
X107329800Y-117472750D01*
X108323726Y-117472750D01*
X108323726Y-117985250D01*
X108333814Y-118087677D01*
X108363691Y-118186168D01*
X108412208Y-118276938D01*
X108477502Y-118356498D01*
X108553090Y-118418532D01*
X108603969Y-118513721D01*
X108603970Y-118513722D01*
X108673300Y-118598201D01*
X108694468Y-118615573D01*
X109316426Y-119237532D01*
X109333799Y-119258701D01*
X109354966Y-119276072D01*
X109418278Y-119328031D01*
X109514660Y-119379548D01*
X109619240Y-119411272D01*
X109727999Y-119421984D01*
X109755250Y-119419300D01*
X110841526Y-119419300D01*
X110841526Y-119484850D01*
X110851614Y-119587277D01*
X110881491Y-119685768D01*
X110930008Y-119776538D01*
X110995302Y-119856098D01*
X111074862Y-119921392D01*
X111165632Y-119969909D01*
X111264123Y-119999786D01*
X111366550Y-120009874D01*
X111879050Y-120009874D01*
X111981477Y-119999786D01*
X112079968Y-119969909D01*
X112170738Y-119921392D01*
X112250298Y-119856098D01*
X112315592Y-119776538D01*
X112364109Y-119685768D01*
X112393986Y-119587277D01*
X112404074Y-119484850D01*
X112404074Y-119047350D01*
X112393986Y-118944923D01*
X112364109Y-118846432D01*
X112315592Y-118755662D01*
X112250298Y-118676102D01*
X112170738Y-118610808D01*
X112079968Y-118562291D01*
X111981477Y-118532414D01*
X111879050Y-118522326D01*
X111641931Y-118522326D01*
X111611078Y-118491473D01*
X111593701Y-118470299D01*
X111509222Y-118400969D01*
X111412840Y-118349452D01*
X111356929Y-118332492D01*
X111362961Y-118321206D01*
X111380390Y-118263751D01*
X111386275Y-118204000D01*
X111384800Y-117830600D01*
X111308600Y-117754400D01*
X110667900Y-117754400D01*
X110667900Y-117774400D01*
X110617100Y-117774400D01*
X110617100Y-117754400D01*
X109976400Y-117754400D01*
X109900200Y-117830600D01*
X109898725Y-118204000D01*
X109903818Y-118255713D01*
X109785964Y-118137858D01*
X109801186Y-118087677D01*
X109811274Y-117985250D01*
X109811274Y-117472750D01*
X109801186Y-117370323D01*
X109774800Y-117283340D01*
X109774800Y-117254000D01*
X109898725Y-117254000D01*
X109900200Y-117627400D01*
X109976400Y-117703600D01*
X110617100Y-117703600D01*
X110617100Y-117025400D01*
X110667900Y-117025400D01*
X110667900Y-117703600D01*
X111308600Y-117703600D01*
X111384800Y-117627400D01*
X111386275Y-117254000D01*
X111380390Y-117194249D01*
X111362961Y-117136794D01*
X111334658Y-117083843D01*
X111296569Y-117037431D01*
X111250157Y-116999342D01*
X111197206Y-116971039D01*
X111139751Y-116953610D01*
X111080000Y-116947725D01*
X110744100Y-116949200D01*
X110667900Y-117025400D01*
X110617100Y-117025400D01*
X110540900Y-116949200D01*
X110205000Y-116947725D01*
X110145249Y-116953610D01*
X110087794Y-116971039D01*
X110034843Y-116999342D01*
X109988431Y-117037431D01*
X109950342Y-117083843D01*
X109922039Y-117136794D01*
X109904610Y-117194249D01*
X109898725Y-117254000D01*
X109774800Y-117254000D01*
X109774800Y-116880160D01*
X109847498Y-116820498D01*
X109876385Y-116785300D01*
X110687249Y-116785300D01*
X110714500Y-116787984D01*
X110741751Y-116785300D01*
X110823260Y-116777272D01*
X110927840Y-116745548D01*
X111024222Y-116694031D01*
X111108701Y-116624701D01*
X111126078Y-116603527D01*
X111578332Y-116151274D01*
X112500000Y-116151274D01*
X112559751Y-116145389D01*
X112617206Y-116127960D01*
X112670157Y-116099658D01*
X112716568Y-116061568D01*
X112754658Y-116015157D01*
X112782960Y-115962206D01*
X112800389Y-115904751D01*
X112806274Y-115845000D01*
X112806274Y-115045000D01*
X112800389Y-114985249D01*
X112782960Y-114927794D01*
X112754658Y-114874843D01*
X112716568Y-114828432D01*
X112694110Y-114810000D01*
X112716569Y-114791569D01*
X112754658Y-114745157D01*
X112782961Y-114692206D01*
X112800390Y-114634751D01*
X112806275Y-114575000D01*
X112804800Y-114276600D01*
X112728600Y-114200400D01*
X111525400Y-114200400D01*
X111525400Y-114220400D01*
X111474600Y-114220400D01*
X111474600Y-114200400D01*
X110271400Y-114200400D01*
X110195200Y-114276600D01*
X110193725Y-114575000D01*
X110199610Y-114634751D01*
X110217039Y-114692206D01*
X110245342Y-114745157D01*
X110283431Y-114791569D01*
X110305890Y-114810000D01*
X110283432Y-114828432D01*
X110245342Y-114874843D01*
X110217040Y-114927794D01*
X110199611Y-114985249D01*
X110193726Y-115045000D01*
X110193726Y-115675700D01*
X109876385Y-115675700D01*
X109847498Y-115640502D01*
X109767938Y-115575208D01*
X109677168Y-115526691D01*
X109578677Y-115496814D01*
X109476250Y-115486726D01*
X108963750Y-115486726D01*
X108861323Y-115496814D01*
X108762832Y-115526691D01*
X108672062Y-115575208D01*
X108592502Y-115640502D01*
X108527208Y-115720062D01*
X108478691Y-115810832D01*
X108448814Y-115909323D01*
X108438726Y-116011750D01*
X108438726Y-116449250D01*
X108448814Y-116551677D01*
X108478691Y-116650168D01*
X108527208Y-116740938D01*
X108592502Y-116820498D01*
X108665200Y-116880161D01*
X108665200Y-116982422D01*
X108647832Y-116987691D01*
X108557062Y-117036208D01*
X108477502Y-117101502D01*
X108412208Y-117181062D01*
X108363691Y-117271832D01*
X108333814Y-117370323D01*
X108323726Y-117472750D01*
X107329800Y-117472750D01*
X107329800Y-113778769D01*
X107334502Y-113784498D01*
X107414062Y-113849792D01*
X107504832Y-113898309D01*
X107518101Y-113902334D01*
X107518101Y-113993928D01*
X107516135Y-114013890D01*
X107523981Y-114093558D01*
X107547219Y-114170164D01*
X107547220Y-114170165D01*
X107574486Y-114221177D01*
X107569010Y-114248708D01*
X107569010Y-114377692D01*
X107594174Y-114504198D01*
X107643534Y-114623364D01*
X107715194Y-114730610D01*
X107806400Y-114821816D01*
X107913646Y-114893476D01*
X108032812Y-114942836D01*
X108159318Y-114968000D01*
X108288302Y-114968000D01*
X108414808Y-114942836D01*
X108439429Y-114932638D01*
X108438725Y-115093000D01*
X108444610Y-115152751D01*
X108462039Y-115210206D01*
X108490342Y-115263157D01*
X108528431Y-115309569D01*
X108574843Y-115347658D01*
X108627794Y-115375961D01*
X108685249Y-115393390D01*
X108745000Y-115399275D01*
X109118400Y-115397800D01*
X109194600Y-115321600D01*
X109194600Y-114680900D01*
X109245400Y-114680900D01*
X109245400Y-115321600D01*
X109321600Y-115397800D01*
X109695000Y-115399275D01*
X109754751Y-115393390D01*
X109812206Y-115375961D01*
X109865157Y-115347658D01*
X109911569Y-115309569D01*
X109949658Y-115263157D01*
X109977961Y-115210206D01*
X109995390Y-115152751D01*
X110001275Y-115093000D01*
X109999800Y-114757100D01*
X109923600Y-114680900D01*
X109245400Y-114680900D01*
X109194600Y-114680900D01*
X109174600Y-114680900D01*
X109174600Y-114630100D01*
X109194600Y-114630100D01*
X109194600Y-114610100D01*
X109245400Y-114610100D01*
X109245400Y-114630100D01*
X109923600Y-114630100D01*
X109999800Y-114553900D01*
X110001275Y-114218000D01*
X109995390Y-114158249D01*
X109977961Y-114100794D01*
X109949658Y-114047843D01*
X109911569Y-114001431D01*
X109865157Y-113963342D01*
X109812206Y-113935039D01*
X109797228Y-113930495D01*
X109820677Y-113928186D01*
X109919168Y-113898309D01*
X110009938Y-113849792D01*
X110089498Y-113784498D01*
X110154792Y-113704938D01*
X110203309Y-113614168D01*
X110233186Y-113515677D01*
X110238447Y-113462257D01*
X110245342Y-113475157D01*
X110283432Y-113521568D01*
X110305890Y-113540000D01*
X110283431Y-113558431D01*
X110245342Y-113604843D01*
X110217039Y-113657794D01*
X110199610Y-113715249D01*
X110193725Y-113775000D01*
X110195200Y-114073400D01*
X110271400Y-114149600D01*
X111474600Y-114149600D01*
X111474600Y-114129600D01*
X111525400Y-114129600D01*
X111525400Y-114149600D01*
X112728600Y-114149600D01*
X112804800Y-114073400D01*
X112806275Y-113775000D01*
X112800390Y-113715249D01*
X112782961Y-113657794D01*
X112754658Y-113604843D01*
X112716569Y-113558431D01*
X112694110Y-113540000D01*
X112716568Y-113521568D01*
X112754658Y-113475157D01*
X112782960Y-113422206D01*
X112800389Y-113364751D01*
X112806274Y-113305000D01*
X112806274Y-112505000D01*
X112800389Y-112445249D01*
X112782960Y-112387794D01*
X112754658Y-112334843D01*
X112716568Y-112288432D01*
X112694109Y-112270000D01*
X112716568Y-112251568D01*
X112754658Y-112205157D01*
X112782960Y-112152206D01*
X112800389Y-112094751D01*
X112806274Y-112035000D01*
X112806274Y-111235000D01*
X112800389Y-111175249D01*
X112782960Y-111117794D01*
X112754658Y-111064843D01*
X112716568Y-111018432D01*
X112694109Y-111000000D01*
X112716568Y-110981568D01*
X112754658Y-110935157D01*
X112782960Y-110882206D01*
X112800389Y-110824751D01*
X112806274Y-110765000D01*
X112806274Y-109965000D01*
X112800389Y-109905249D01*
X112782960Y-109847794D01*
X112754658Y-109794843D01*
X112716568Y-109748432D01*
X112694109Y-109730000D01*
X112716568Y-109711568D01*
X112754658Y-109665157D01*
X112782960Y-109612206D01*
X112800389Y-109554751D01*
X112806274Y-109495000D01*
X112806274Y-108695000D01*
X112800389Y-108635249D01*
X112782960Y-108577794D01*
X112754658Y-108524843D01*
X112716568Y-108478432D01*
X112694110Y-108460000D01*
X112716569Y-108441569D01*
X112754658Y-108395157D01*
X112782961Y-108342206D01*
X112800390Y-108284751D01*
X112806275Y-108225000D01*
X112804800Y-107926600D01*
X112728600Y-107850400D01*
X111525400Y-107850400D01*
X111525400Y-107870400D01*
X111474600Y-107870400D01*
X111474600Y-107850400D01*
X110271400Y-107850400D01*
X110195200Y-107926600D01*
X110194768Y-108014000D01*
X109692400Y-108014000D01*
X109692400Y-107536836D01*
X109772755Y-107456481D01*
X109773551Y-107455827D01*
X109820677Y-107451186D01*
X109919168Y-107421309D01*
X110009938Y-107372792D01*
X110089498Y-107307498D01*
X110154792Y-107227938D01*
X110203309Y-107137168D01*
X110220852Y-107079337D01*
X110245342Y-107125157D01*
X110283432Y-107171568D01*
X110305890Y-107190000D01*
X110283431Y-107208431D01*
X110245342Y-107254843D01*
X110217039Y-107307794D01*
X110199610Y-107365249D01*
X110193725Y-107425000D01*
X110195200Y-107723400D01*
X110271400Y-107799600D01*
X111474600Y-107799600D01*
X111474600Y-107779600D01*
X111525400Y-107779600D01*
X111525400Y-107799600D01*
X112728600Y-107799600D01*
X112804800Y-107723400D01*
X112806275Y-107425000D01*
X112800390Y-107365249D01*
X112782961Y-107307794D01*
X112754658Y-107254843D01*
X112716569Y-107208431D01*
X112694110Y-107190000D01*
X112716568Y-107171568D01*
X112754658Y-107125157D01*
X112782960Y-107072206D01*
X112800389Y-107014751D01*
X112806274Y-106955000D01*
X112806274Y-106155000D01*
X112800389Y-106095249D01*
X112782960Y-106037794D01*
X112754658Y-105984843D01*
X112716568Y-105938432D01*
X112670157Y-105900342D01*
X112617206Y-105872040D01*
X112559751Y-105854611D01*
X112500000Y-105848726D01*
X110743462Y-105848726D01*
X110489610Y-105594874D01*
X110647850Y-105594874D01*
X110750277Y-105584786D01*
X110848768Y-105554909D01*
X110939538Y-105506392D01*
X111019098Y-105441098D01*
X111084392Y-105361538D01*
X111132909Y-105270768D01*
X111148309Y-105220000D01*
X114317989Y-105220000D01*
X116349931Y-107270539D01*
X116363242Y-107286758D01*
X116393461Y-107311558D01*
X116423579Y-107336506D01*
X116424399Y-107336949D01*
X116425124Y-107337544D01*
X116459680Y-107356015D01*
X116494008Y-107374565D01*
X116494900Y-107374840D01*
X116495725Y-107375281D01*
X116533116Y-107386623D01*
X116570507Y-107398152D01*
X116571439Y-107398248D01*
X116572332Y-107398519D01*
X116611295Y-107402357D01*
X116650139Y-107406361D01*
X116671026Y-107404400D01*
X117253627Y-107404400D01*
X117260984Y-107415410D01*
X117352190Y-107506616D01*
X117459436Y-107578276D01*
X117578602Y-107627636D01*
X117705108Y-107652800D01*
X117834092Y-107652800D01*
X117960598Y-107627636D01*
X118079764Y-107578276D01*
X118187010Y-107506616D01*
X118278216Y-107415410D01*
X118349876Y-107308164D01*
X118399236Y-107188998D01*
X118424400Y-107062492D01*
X118424400Y-106933508D01*
X118399236Y-106807002D01*
X118349876Y-106687836D01*
X118278216Y-106580590D01*
X118187010Y-106489384D01*
X118079764Y-106417724D01*
X117960598Y-106368364D01*
X117834092Y-106343200D01*
X117705108Y-106343200D01*
X117578602Y-106368364D01*
X117459436Y-106417724D01*
X117352190Y-106489384D01*
X117260984Y-106580590D01*
X117253627Y-106591600D01*
X116821422Y-106591600D01*
X114789483Y-104541066D01*
X114776168Y-104524842D01*
X114746157Y-104500212D01*
X115001876Y-104500212D01*
X115537722Y-105036059D01*
X115550442Y-105051558D01*
X115565940Y-105064277D01*
X115565945Y-105064282D01*
X115573470Y-105070457D01*
X115612324Y-105102344D01*
X115682925Y-105140081D01*
X115759531Y-105163319D01*
X115766804Y-105164035D01*
X115819240Y-105169200D01*
X115819247Y-105169200D01*
X115839200Y-105171165D01*
X115859153Y-105169200D01*
X116276447Y-105169200D01*
X116296400Y-105171165D01*
X116316353Y-105169200D01*
X116316360Y-105169200D01*
X116376068Y-105163319D01*
X116452675Y-105140081D01*
X116523276Y-105102344D01*
X116585158Y-105051558D01*
X116597882Y-105036054D01*
X117128460Y-104505476D01*
X117143958Y-104492758D01*
X117156677Y-104477260D01*
X117156682Y-104477255D01*
X117189689Y-104437035D01*
X117194744Y-104430876D01*
X117232481Y-104360275D01*
X117255719Y-104283668D01*
X117261600Y-104223960D01*
X117261600Y-104223953D01*
X117263565Y-104204000D01*
X117261600Y-104184047D01*
X117261600Y-104161173D01*
X117272610Y-104153816D01*
X117363816Y-104062610D01*
X117435476Y-103955364D01*
X117484836Y-103836198D01*
X117510000Y-103709692D01*
X117510000Y-103580708D01*
X117484836Y-103454202D01*
X117435476Y-103335036D01*
X117363816Y-103227790D01*
X117272610Y-103136584D01*
X117165364Y-103064924D01*
X117046198Y-103015564D01*
X116919692Y-102990400D01*
X116790708Y-102990400D01*
X116664202Y-103015564D01*
X116545036Y-103064924D01*
X116437790Y-103136584D01*
X116346584Y-103227790D01*
X116274924Y-103335036D01*
X116225564Y-103454202D01*
X116225353Y-103455265D01*
X116120153Y-103434339D01*
X115991169Y-103434339D01*
X115978585Y-103436842D01*
X115968081Y-103424043D01*
X115906199Y-103373257D01*
X115835598Y-103335520D01*
X115758991Y-103312282D01*
X115699283Y-103306401D01*
X115699276Y-103306401D01*
X115679323Y-103304436D01*
X115659370Y-103306401D01*
X112417835Y-103306401D01*
X112407540Y-103300898D01*
X112330933Y-103277660D01*
X112271225Y-103271779D01*
X112271218Y-103271779D01*
X112251265Y-103269814D01*
X112231312Y-103271779D01*
X108175343Y-103271779D01*
X108155390Y-103269814D01*
X108135437Y-103271779D01*
X108135431Y-103271779D01*
X108083726Y-103276872D01*
X108075722Y-103277660D01*
X108036361Y-103289600D01*
X107999116Y-103300898D01*
X107928515Y-103338635D01*
X107903137Y-103359462D01*
X107882136Y-103376697D01*
X107882131Y-103376702D01*
X107866633Y-103389421D01*
X107853913Y-103404920D01*
X107482920Y-103775914D01*
X107467422Y-103788633D01*
X107454703Y-103804131D01*
X107454697Y-103804137D01*
X107435997Y-103826924D01*
X107416636Y-103850515D01*
X107396465Y-103888253D01*
X107378898Y-103921117D01*
X107355660Y-103997723D01*
X107347814Y-104077391D01*
X107349780Y-104097353D01*
X107349779Y-106016726D01*
X107347814Y-106036679D01*
X107348260Y-106041211D01*
X107334502Y-106052502D01*
X107329800Y-106058231D01*
X107329800Y-100861639D01*
X107595200Y-100861639D01*
X107595200Y-101138361D01*
X107649186Y-101409765D01*
X107755083Y-101665422D01*
X107908821Y-101895508D01*
X108104492Y-102091179D01*
X108334578Y-102244917D01*
X108590235Y-102350814D01*
X108861639Y-102404800D01*
X109138361Y-102404800D01*
X109409765Y-102350814D01*
X109665422Y-102244917D01*
X109895508Y-102091179D01*
X109909644Y-102077043D01*
X109886000Y-102195908D01*
X109886000Y-102324892D01*
X109911164Y-102451398D01*
X109960524Y-102570564D01*
X110032184Y-102677810D01*
X110123390Y-102769016D01*
X110230636Y-102840676D01*
X110349802Y-102890036D01*
X110476308Y-102915200D01*
X110605292Y-102915200D01*
X110731798Y-102890036D01*
X110850964Y-102840676D01*
X110958210Y-102769016D01*
X111049416Y-102677810D01*
X111121076Y-102570564D01*
X111170436Y-102451398D01*
X111195600Y-102324892D01*
X111195600Y-102195908D01*
X111193017Y-102182920D01*
X111203937Y-102172000D01*
X120298469Y-102172000D01*
X120277763Y-102178281D01*
X120207162Y-102216018D01*
X120145280Y-102266804D01*
X120132556Y-102282308D01*
X119777480Y-102637384D01*
X119764492Y-102634800D01*
X119635508Y-102634800D01*
X119509002Y-102659964D01*
X119389836Y-102709324D01*
X119282590Y-102780984D01*
X119191384Y-102872190D01*
X119119724Y-102979436D01*
X119070364Y-103098602D01*
X119045200Y-103225108D01*
X119045200Y-103354092D01*
X119070364Y-103480598D01*
X119119724Y-103599764D01*
X119191384Y-103707010D01*
X119282590Y-103798216D01*
X119389836Y-103869876D01*
X119509002Y-103919236D01*
X119635508Y-103944400D01*
X119764492Y-103944400D01*
X119890998Y-103919236D01*
X120010164Y-103869876D01*
X120117410Y-103798216D01*
X120208616Y-103707010D01*
X120280276Y-103599764D01*
X120329636Y-103480598D01*
X120354800Y-103354092D01*
X120354800Y-103225108D01*
X120352216Y-103212120D01*
X120602374Y-102961962D01*
X125080511Y-102961962D01*
X125087868Y-102972972D01*
X125179074Y-103064178D01*
X125286320Y-103135838D01*
X125405486Y-103185198D01*
X125531992Y-103210362D01*
X125660976Y-103210362D01*
X125787482Y-103185198D01*
X125906648Y-103135838D01*
X126013894Y-103064178D01*
X126105100Y-102972972D01*
X126176760Y-102865726D01*
X126226120Y-102746560D01*
X126251284Y-102620054D01*
X126251284Y-102491070D01*
X126226120Y-102364564D01*
X126176760Y-102245398D01*
X126105100Y-102138152D01*
X126013894Y-102046946D01*
X125906648Y-101975286D01*
X125787482Y-101925926D01*
X125660976Y-101900762D01*
X125531992Y-101900762D01*
X125405486Y-101925926D01*
X125286320Y-101975286D01*
X125179074Y-102046946D01*
X125087868Y-102138152D01*
X125080511Y-102149162D01*
X124447633Y-102149162D01*
X124496676Y-102075764D01*
X124546036Y-101956598D01*
X124571200Y-101830092D01*
X124571200Y-101701108D01*
X124546036Y-101574602D01*
X124496676Y-101455436D01*
X124425016Y-101348190D01*
X124333810Y-101256984D01*
X124226564Y-101185324D01*
X124107398Y-101135964D01*
X123980892Y-101110800D01*
X123851908Y-101110800D01*
X123725402Y-101135964D01*
X123606236Y-101185324D01*
X123498990Y-101256984D01*
X123407784Y-101348190D01*
X123400427Y-101359200D01*
X111055553Y-101359200D01*
X111035600Y-101357235D01*
X111015647Y-101359200D01*
X111015640Y-101359200D01*
X110963204Y-101364365D01*
X110955931Y-101365081D01*
X110879325Y-101388319D01*
X110808724Y-101426056D01*
X110783346Y-101446883D01*
X110762345Y-101464118D01*
X110762340Y-101464123D01*
X110746842Y-101476842D01*
X110734122Y-101492341D01*
X110618280Y-101608183D01*
X110605292Y-101605600D01*
X110476308Y-101605600D01*
X110349802Y-101630764D01*
X110236799Y-101677571D01*
X110244917Y-101665422D01*
X110350814Y-101409765D01*
X110404800Y-101138361D01*
X110404800Y-100861639D01*
X127595200Y-100861639D01*
X127595200Y-101138361D01*
X127649186Y-101409765D01*
X127755083Y-101665422D01*
X127908821Y-101895508D01*
X128104492Y-102091179D01*
X128334578Y-102244917D01*
X128590235Y-102350814D01*
X128861639Y-102404800D01*
X129138361Y-102404800D01*
X129409765Y-102350814D01*
X129665422Y-102244917D01*
X129895508Y-102091179D01*
X130091179Y-101895508D01*
X130244917Y-101665422D01*
X130350814Y-101409765D01*
X130404800Y-101138361D01*
X130404800Y-100861639D01*
X130350814Y-100590235D01*
X130244917Y-100334578D01*
X130091179Y-100104492D01*
X129895508Y-99908821D01*
X129665422Y-99755083D01*
X129409765Y-99649186D01*
X129138361Y-99595200D01*
X128861639Y-99595200D01*
X128590235Y-99649186D01*
X128334578Y-99755083D01*
X128104492Y-99908821D01*
X127908821Y-100104492D01*
X127755083Y-100334578D01*
X127649186Y-100590235D01*
X127595200Y-100861639D01*
X110404800Y-100861639D01*
X110350814Y-100590235D01*
X110244917Y-100334578D01*
X110091179Y-100104492D01*
X109895508Y-99908821D01*
X109665422Y-99755083D01*
X109409765Y-99649186D01*
X109138361Y-99595200D01*
X108861639Y-99595200D01*
X108590235Y-99649186D01*
X108334578Y-99755083D01*
X108104492Y-99908821D01*
X107908821Y-100104492D01*
X107755083Y-100334578D01*
X107649186Y-100590235D01*
X107595200Y-100861639D01*
X107329800Y-100861639D01*
X107329800Y-99329800D01*
X130670200Y-99329800D01*
X130670200Y-104767075D01*
%TD*%
M02*
