M48
; DRILL file {KiCad (5.1.5)-3} date 05/01/20 16:04:46
; FORMAT={-:-/ absolute / inch / decimal}
; #@! TF.CreationDate,2020-05-01T16:04:46+02:00
; #@! TF.GenerationSoftware,Kicad,Pcbnew,(5.1.5)-3
; #@! TF.FileFunction,Plated,1,2,PTH
FMAT,2
INCH
T1C0.0118
T2C0.0173
T3C0.0197
T4C0.0315
T5C0.0531
%
G90
G05
T1
X4.2608Y-4.5005
X4.2912Y-4.352
X4.352Y-4.026
X4.4313Y-4.0568
X4.4586Y-4.2925
X4.5Y-4.67
X4.535Y-4.67
X4.5506Y-4.4025
X4.5691Y-4.098
X4.588Y-4.554
X4.588Y-4.62
X4.588Y-4.67
X4.6006Y-4.0805
X4.6366Y-4.2125
X4.6806Y-4.51
X4.682Y-4.576
X4.6826Y-4.2845
X4.6927Y-4.4642
X4.7048Y-4.2565
X4.7126Y-4.0665
X4.754Y-4.2127
X4.7886Y-4.0645
X4.7931Y-4.2113
X4.8409Y-4.3163
X4.8726Y-3.9553
X4.8786Y-4.0065
X4.919Y-4.2405
X4.9205Y-4.1755
X4.9447Y-4.0376
X4.95Y-4.1462
X5.0546Y-4.1105
X5.0966Y-4.1705
X5.1046Y-4.2645
X5.1305Y-4.3485
T2
X4.5827Y-4.75
X4.6083Y-4.7894
X4.6339Y-4.75
X4.6594Y-4.7894
X4.685Y-4.75
T3
X4.394Y-4.798
T4
X5.0826Y-4.4085
X5.0826Y-4.4873
X5.0826Y-4.566
X5.0826Y-4.6447
T5
X4.4931Y-4.7587
X4.7746Y-4.7587
T0
M30
