%TF.GenerationSoftware,KiCad,Pcbnew,(5.1.5)-3*%
%TF.CreationDate,2020-05-01T16:03:37+02:00*%
%TF.ProjectId,SX1280_module,53583132-3830-45f6-9d6f-64756c652e6b,rev?*%
%TF.SameCoordinates,Original*%
%TF.FileFunction,Legend,Top*%
%TF.FilePolarity,Positive*%
%FSLAX46Y46*%
G04 Gerber Fmt 4.6, Leading zero omitted, Abs format (unit mm)*
G04 Created by KiCad (PCBNEW (5.1.5)-3) date 2020-05-01 16:03:37*
%MOMM*%
%LPD*%
G04 APERTURE LIST*
%ADD10C,0.150000*%
%ADD11C,0.120000*%
G04 APERTURE END LIST*
D10*
X107882376Y-115474171D02*
X108149042Y-115474171D01*
X108263328Y-115997980D02*
X107882376Y-115997980D01*
X107882376Y-114997980D01*
X108263328Y-114997980D01*
X108529995Y-115997980D02*
X108949042Y-115331314D01*
X108529995Y-115331314D02*
X108949042Y-115997980D01*
X109634757Y-115997980D02*
X109253804Y-115997980D01*
X109253804Y-114997980D01*
X110358566Y-115997980D02*
X110091900Y-115521790D01*
X109901423Y-115997980D02*
X109901423Y-114997980D01*
X110206185Y-114997980D01*
X110282376Y-115045600D01*
X110320471Y-115093219D01*
X110358566Y-115188457D01*
X110358566Y-115331314D01*
X110320471Y-115426552D01*
X110282376Y-115474171D01*
X110206185Y-115521790D01*
X109901423Y-115521790D01*
X110663328Y-115950361D02*
X110777614Y-115997980D01*
X110968090Y-115997980D01*
X111044280Y-115950361D01*
X111082376Y-115902742D01*
X111120471Y-115807504D01*
X111120471Y-115712266D01*
X111082376Y-115617028D01*
X111044280Y-115569409D01*
X110968090Y-115521790D01*
X110815709Y-115474171D01*
X110739519Y-115426552D01*
X110701423Y-115378933D01*
X110663328Y-115283695D01*
X110663328Y-115188457D01*
X110701423Y-115093219D01*
X110739519Y-115045600D01*
X110815709Y-114997980D01*
X111006185Y-114997980D01*
X111120471Y-115045600D01*
X107844280Y-116743219D02*
X107882376Y-116695600D01*
X107958566Y-116647980D01*
X108149042Y-116647980D01*
X108225233Y-116695600D01*
X108263328Y-116743219D01*
X108301423Y-116838457D01*
X108301423Y-116933695D01*
X108263328Y-117076552D01*
X107806185Y-117647980D01*
X108301423Y-117647980D01*
X108644280Y-117552742D02*
X108682376Y-117600361D01*
X108644280Y-117647980D01*
X108606185Y-117600361D01*
X108644280Y-117552742D01*
X108644280Y-117647980D01*
X109368090Y-116981314D02*
X109368090Y-117647980D01*
X109177614Y-116600361D02*
X108987138Y-117314647D01*
X109482376Y-117314647D01*
X110206185Y-116695600D02*
X110129995Y-116647980D01*
X110015709Y-116647980D01*
X109901423Y-116695600D01*
X109825233Y-116790838D01*
X109787138Y-116886076D01*
X109749042Y-117076552D01*
X109749042Y-117219409D01*
X109787138Y-117409885D01*
X109825233Y-117505123D01*
X109901423Y-117600361D01*
X110015709Y-117647980D01*
X110091900Y-117647980D01*
X110206185Y-117600361D01*
X110244280Y-117552742D01*
X110244280Y-117219409D01*
X110091900Y-117219409D01*
X110587138Y-117647980D02*
X110587138Y-116647980D01*
X110929995Y-117647980D02*
X110929995Y-117124171D01*
X110891900Y-117028933D01*
X110815709Y-116981314D01*
X110701423Y-116981314D01*
X110625233Y-117028933D01*
X110587138Y-117076552D01*
X111234757Y-116981314D02*
X111653804Y-116981314D01*
X111234757Y-117647980D01*
X111653804Y-117647980D01*
X107806185Y-118631314D02*
X107996661Y-119297980D01*
X108187138Y-118631314D01*
X108910947Y-119297980D02*
X108453804Y-119297980D01*
X108682376Y-119297980D02*
X108682376Y-118297980D01*
X108606185Y-118440838D01*
X108529995Y-118536076D01*
X108453804Y-118583695D01*
X109253804Y-119202742D02*
X109291900Y-119250361D01*
X109253804Y-119297980D01*
X109215709Y-119250361D01*
X109253804Y-119202742D01*
X109253804Y-119297980D01*
X109787138Y-118297980D02*
X109863328Y-118297980D01*
X109939519Y-118345600D01*
X109977614Y-118393219D01*
X110015709Y-118488457D01*
X110053804Y-118678933D01*
X110053804Y-118917028D01*
X110015709Y-119107504D01*
X109977614Y-119202742D01*
X109939519Y-119250361D01*
X109863328Y-119297980D01*
X109787138Y-119297980D01*
X109710947Y-119250361D01*
X109672852Y-119202742D01*
X109634757Y-119107504D01*
X109596661Y-118917028D01*
X109596661Y-118678933D01*
X109634757Y-118488457D01*
X109672852Y-118393219D01*
X109710947Y-118345600D01*
X109787138Y-118297980D01*
D11*
%TO.C,TP8*%
X110849600Y-106642400D02*
G75*
G03X110849600Y-106642400I-700000J0D01*
G01*
%TO.C,TP7*%
X110849600Y-105067600D02*
G75*
G03X110849600Y-105067600I-700000J0D01*
G01*
%TO.C,TP6*%
X119942800Y-111976400D02*
G75*
G03X119942800Y-111976400I-700000J0D01*
G01*
%TO.C,TP5*%
X122990800Y-111976400D02*
G75*
G03X122990800Y-111976400I-700000J0D01*
G01*
%TO.C,TP4*%
X121466800Y-111976400D02*
G75*
G03X121466800Y-111976400I-700000J0D01*
G01*
%TO.C,TP3*%
X119333200Y-99987600D02*
G75*
G03X119333200Y-99987600I-700000J0D01*
G01*
%TO.C,TP2*%
X129493200Y-109030000D02*
G75*
G03X129493200Y-109030000I-700000J0D01*
G01*
%TO.C,TP1*%
X129544000Y-107404400D02*
G75*
G03X129544000Y-107404400I-700000J0D01*
G01*
%TO.C,R20*%
X125391600Y-101115579D02*
X125391600Y-100790021D01*
X124371600Y-101115579D02*
X124371600Y-100790021D01*
%TO.C,R19*%
X110862800Y-112697979D02*
X110862800Y-112372421D01*
X109842800Y-112697979D02*
X109842800Y-112372421D01*
%TO.C,D4*%
X126988200Y-102437800D02*
X126988200Y-100152800D01*
X125518200Y-102437800D02*
X126988200Y-102437800D01*
X125518200Y-100152800D02*
X125518200Y-102437800D01*
%TO.C,D3*%
X112650600Y-109615800D02*
X110365600Y-109615800D01*
X112650600Y-111085800D02*
X112650600Y-109615800D01*
X110365600Y-111085800D02*
X112650600Y-111085800D01*
%TO.C,X1*%
X111043600Y-102426200D02*
X114843600Y-102426200D01*
X111043600Y-99276200D02*
X111043600Y-102426200D01*
%TO.C,U2*%
X122038400Y-102381400D02*
X122038400Y-101066400D01*
X122338400Y-102381400D02*
X122038400Y-102381400D01*
X122338400Y-102681400D02*
X122338400Y-102381400D01*
X122338400Y-109601400D02*
X122038400Y-109601400D01*
X122338400Y-109301400D02*
X122338400Y-109601400D01*
X115118400Y-102381400D02*
X115418400Y-102381400D01*
X115118400Y-102681400D02*
X115118400Y-102381400D01*
X115118400Y-109601400D02*
X115418400Y-109601400D01*
X115118400Y-109301400D02*
X115118400Y-109601400D01*
%TO.C,U1*%
X122147500Y-119615000D02*
X116137500Y-119615000D01*
X119897500Y-112795000D02*
X116137500Y-112795000D01*
X116137500Y-119615000D02*
X116137500Y-118355000D01*
X116137500Y-112795000D02*
X116137500Y-114055000D01*
%TO.C,R15*%
X116235221Y-100599200D02*
X116560779Y-100599200D01*
X116235221Y-99579200D02*
X116560779Y-99579200D01*
%TO.C,R7*%
X126395221Y-112943600D02*
X126720779Y-112943600D01*
X126395221Y-111923600D02*
X126720779Y-111923600D01*
%TO.C,R6*%
X126395221Y-111622800D02*
X126720779Y-111622800D01*
X126395221Y-110602800D02*
X126720779Y-110602800D01*
%TO.C,R5*%
X120705621Y-100446800D02*
X121031179Y-100446800D01*
X120705621Y-99426800D02*
X121031179Y-99426800D01*
%TO.C,R4*%
X125379221Y-104510800D02*
X125704779Y-104510800D01*
X125379221Y-103490800D02*
X125704779Y-103490800D01*
%TO.C,R3*%
X125387600Y-107444821D02*
X125387600Y-107770379D01*
X126407600Y-107444821D02*
X126407600Y-107770379D01*
%TO.C,R2*%
X124324800Y-114208779D02*
X124324800Y-113883221D01*
X123304800Y-114208779D02*
X123304800Y-113883221D01*
%TO.C,R1*%
X126547621Y-115636000D02*
X126873179Y-115636000D01*
X126547621Y-114616000D02*
X126873179Y-114616000D01*
%TO.C,D2*%
X125460000Y-118145000D02*
X125460000Y-122045000D01*
X123460000Y-118145000D02*
X123460000Y-122045000D01*
X125460000Y-118145000D02*
X123460000Y-118145000D01*
%TO.C,D1*%
X123480000Y-115840000D02*
X127380000Y-115840000D01*
X123480000Y-117840000D02*
X127380000Y-117840000D01*
X123480000Y-115840000D02*
X123480000Y-117840000D01*
%TO.C,C6*%
X110698021Y-103799600D02*
X111023579Y-103799600D01*
X110698021Y-102779600D02*
X111023579Y-102779600D01*
%TO.C,C5*%
X123410400Y-101115579D02*
X123410400Y-100790021D01*
X122390400Y-101115579D02*
X122390400Y-100790021D01*
%TO.C,C4*%
X114059200Y-110899221D02*
X114059200Y-111224779D01*
X115079200Y-110899221D02*
X115079200Y-111224779D01*
%TO.C,C3*%
X112382800Y-117960421D02*
X112382800Y-118285979D01*
X113402800Y-117960421D02*
X113402800Y-118285979D01*
%TO.C,C2*%
X126708400Y-108562421D02*
X126708400Y-108887979D01*
X127728400Y-108562421D02*
X127728400Y-108887979D01*
%TO.C,C1*%
X124335000Y-111160779D02*
X124335000Y-110835221D01*
X123315000Y-111160779D02*
X123315000Y-110835221D01*
%TO.C,TP8*%
D10*
X110904495Y-106081580D02*
X111475923Y-106081580D01*
X111190209Y-107081580D02*
X111190209Y-106081580D01*
X111809257Y-107081580D02*
X111809257Y-106081580D01*
X112190209Y-106081580D01*
X112285447Y-106129200D01*
X112333066Y-106176819D01*
X112380685Y-106272057D01*
X112380685Y-106414914D01*
X112333066Y-106510152D01*
X112285447Y-106557771D01*
X112190209Y-106605390D01*
X111809257Y-106605390D01*
X112952114Y-106510152D02*
X112856876Y-106462533D01*
X112809257Y-106414914D01*
X112761638Y-106319676D01*
X112761638Y-106272057D01*
X112809257Y-106176819D01*
X112856876Y-106129200D01*
X112952114Y-106081580D01*
X113142590Y-106081580D01*
X113237828Y-106129200D01*
X113285447Y-106176819D01*
X113333066Y-106272057D01*
X113333066Y-106319676D01*
X113285447Y-106414914D01*
X113237828Y-106462533D01*
X113142590Y-106510152D01*
X112952114Y-106510152D01*
X112856876Y-106557771D01*
X112809257Y-106605390D01*
X112761638Y-106700628D01*
X112761638Y-106891104D01*
X112809257Y-106986342D01*
X112856876Y-107033961D01*
X112952114Y-107081580D01*
X113142590Y-107081580D01*
X113237828Y-107033961D01*
X113285447Y-106986342D01*
X113333066Y-106891104D01*
X113333066Y-106700628D01*
X113285447Y-106605390D01*
X113237828Y-106557771D01*
X113142590Y-106510152D01*
%TO.C,TP7*%
X110904495Y-104608380D02*
X111475923Y-104608380D01*
X111190209Y-105608380D02*
X111190209Y-104608380D01*
X111809257Y-105608380D02*
X111809257Y-104608380D01*
X112190209Y-104608380D01*
X112285447Y-104656000D01*
X112333066Y-104703619D01*
X112380685Y-104798857D01*
X112380685Y-104941714D01*
X112333066Y-105036952D01*
X112285447Y-105084571D01*
X112190209Y-105132190D01*
X111809257Y-105132190D01*
X112714019Y-104608380D02*
X113380685Y-104608380D01*
X112952114Y-105608380D01*
%TO.C,R19*%
X109375180Y-113114057D02*
X108898990Y-113447390D01*
X109375180Y-113685485D02*
X108375180Y-113685485D01*
X108375180Y-113304533D01*
X108422800Y-113209295D01*
X108470419Y-113161676D01*
X108565657Y-113114057D01*
X108708514Y-113114057D01*
X108803752Y-113161676D01*
X108851371Y-113209295D01*
X108898990Y-113304533D01*
X108898990Y-113685485D01*
X109375180Y-112161676D02*
X109375180Y-112733104D01*
X109375180Y-112447390D02*
X108375180Y-112447390D01*
X108518038Y-112542628D01*
X108613276Y-112637866D01*
X108660895Y-112733104D01*
X109375180Y-111685485D02*
X109375180Y-111495009D01*
X109327561Y-111399771D01*
X109279942Y-111352152D01*
X109137085Y-111256914D01*
X108946609Y-111209295D01*
X108565657Y-111209295D01*
X108470419Y-111256914D01*
X108422800Y-111304533D01*
X108375180Y-111399771D01*
X108375180Y-111590247D01*
X108422800Y-111685485D01*
X108470419Y-111733104D01*
X108565657Y-111780723D01*
X108803752Y-111780723D01*
X108898990Y-111733104D01*
X108946609Y-111685485D01*
X108994228Y-111590247D01*
X108994228Y-111399771D01*
X108946609Y-111304533D01*
X108898990Y-111256914D01*
X108803752Y-111209295D01*
%TO.C,D4*%
X126922304Y-103373180D02*
X126922304Y-102373180D01*
X127160400Y-102373180D01*
X127303257Y-102420800D01*
X127398495Y-102516038D01*
X127446114Y-102611276D01*
X127493733Y-102801752D01*
X127493733Y-102944609D01*
X127446114Y-103135085D01*
X127398495Y-103230323D01*
X127303257Y-103325561D01*
X127160400Y-103373180D01*
X126922304Y-103373180D01*
X128350876Y-102706514D02*
X128350876Y-103373180D01*
X128112780Y-102325561D02*
X127874685Y-103039847D01*
X128493733Y-103039847D01*
%TO.C,D3*%
X110259904Y-109367580D02*
X110259904Y-108367580D01*
X110498000Y-108367580D01*
X110640857Y-108415200D01*
X110736095Y-108510438D01*
X110783714Y-108605676D01*
X110831333Y-108796152D01*
X110831333Y-108939009D01*
X110783714Y-109129485D01*
X110736095Y-109224723D01*
X110640857Y-109319961D01*
X110498000Y-109367580D01*
X110259904Y-109367580D01*
X111164666Y-108367580D02*
X111783714Y-108367580D01*
X111450380Y-108748533D01*
X111593238Y-108748533D01*
X111688476Y-108796152D01*
X111736095Y-108843771D01*
X111783714Y-108939009D01*
X111783714Y-109177104D01*
X111736095Y-109272342D01*
X111688476Y-109319961D01*
X111593238Y-109367580D01*
X111307523Y-109367580D01*
X111212285Y-109319961D01*
X111164666Y-109272342D01*
%TO.C,U2*%
X118059295Y-105217980D02*
X118059295Y-106027504D01*
X118106914Y-106122742D01*
X118154533Y-106170361D01*
X118249771Y-106217980D01*
X118440247Y-106217980D01*
X118535485Y-106170361D01*
X118583104Y-106122742D01*
X118630723Y-106027504D01*
X118630723Y-105217980D01*
X119059295Y-105313219D02*
X119106914Y-105265600D01*
X119202152Y-105217980D01*
X119440247Y-105217980D01*
X119535485Y-105265600D01*
X119583104Y-105313219D01*
X119630723Y-105408457D01*
X119630723Y-105503695D01*
X119583104Y-105646552D01*
X119011676Y-106217980D01*
X119630723Y-106217980D01*
%TO.C,U1*%
X122337580Y-120345104D02*
X123147104Y-120345104D01*
X123242342Y-120297485D01*
X123289961Y-120249866D01*
X123337580Y-120154628D01*
X123337580Y-119964152D01*
X123289961Y-119868914D01*
X123242342Y-119821295D01*
X123147104Y-119773676D01*
X122337580Y-119773676D01*
X123337580Y-118773676D02*
X123337580Y-119345104D01*
X123337580Y-119059390D02*
X122337580Y-119059390D01*
X122480438Y-119154628D01*
X122575676Y-119249866D01*
X122623295Y-119345104D01*
%TO.C,R6*%
X128662133Y-111043980D02*
X128328800Y-110567790D01*
X128090704Y-111043980D02*
X128090704Y-110043980D01*
X128471657Y-110043980D01*
X128566895Y-110091600D01*
X128614514Y-110139219D01*
X128662133Y-110234457D01*
X128662133Y-110377314D01*
X128614514Y-110472552D01*
X128566895Y-110520171D01*
X128471657Y-110567790D01*
X128090704Y-110567790D01*
X129519276Y-110043980D02*
X129328800Y-110043980D01*
X129233561Y-110091600D01*
X129185942Y-110139219D01*
X129090704Y-110282076D01*
X129043085Y-110472552D01*
X129043085Y-110853504D01*
X129090704Y-110948742D01*
X129138323Y-110996361D01*
X129233561Y-111043980D01*
X129424038Y-111043980D01*
X129519276Y-110996361D01*
X129566895Y-110948742D01*
X129614514Y-110853504D01*
X129614514Y-110615409D01*
X129566895Y-110520171D01*
X129519276Y-110472552D01*
X129424038Y-110424933D01*
X129233561Y-110424933D01*
X129138323Y-110472552D01*
X129090704Y-110520171D01*
X129043085Y-110615409D01*
%TO.C,R4*%
X124496533Y-105709980D02*
X124163200Y-105233790D01*
X123925104Y-105709980D02*
X123925104Y-104709980D01*
X124306057Y-104709980D01*
X124401295Y-104757600D01*
X124448914Y-104805219D01*
X124496533Y-104900457D01*
X124496533Y-105043314D01*
X124448914Y-105138552D01*
X124401295Y-105186171D01*
X124306057Y-105233790D01*
X123925104Y-105233790D01*
X125353676Y-105043314D02*
X125353676Y-105709980D01*
X125115580Y-104662361D02*
X124877485Y-105376647D01*
X125496533Y-105376647D01*
%TO.C,R2*%
X125572780Y-114009466D02*
X125096590Y-114342800D01*
X125572780Y-114580895D02*
X124572780Y-114580895D01*
X124572780Y-114199942D01*
X124620400Y-114104704D01*
X124668019Y-114057085D01*
X124763257Y-114009466D01*
X124906114Y-114009466D01*
X125001352Y-114057085D01*
X125048971Y-114104704D01*
X125096590Y-114199942D01*
X125096590Y-114580895D01*
X124668019Y-113628514D02*
X124620400Y-113580895D01*
X124572780Y-113485657D01*
X124572780Y-113247561D01*
X124620400Y-113152323D01*
X124668019Y-113104704D01*
X124763257Y-113057085D01*
X124858495Y-113057085D01*
X125001352Y-113104704D01*
X125572780Y-113676133D01*
X125572780Y-113057085D01*
%TO.C,D2*%
X126842780Y-122251695D02*
X125842780Y-122251695D01*
X125842780Y-122013600D01*
X125890400Y-121870742D01*
X125985638Y-121775504D01*
X126080876Y-121727885D01*
X126271352Y-121680266D01*
X126414209Y-121680266D01*
X126604685Y-121727885D01*
X126699923Y-121775504D01*
X126795161Y-121870742D01*
X126842780Y-122013600D01*
X126842780Y-122251695D01*
X125938019Y-121299314D02*
X125890400Y-121251695D01*
X125842780Y-121156457D01*
X125842780Y-120918361D01*
X125890400Y-120823123D01*
X125938019Y-120775504D01*
X126033257Y-120727885D01*
X126128495Y-120727885D01*
X126271352Y-120775504D01*
X126842780Y-121346933D01*
X126842780Y-120727885D01*
%TO.C,D1*%
X125804704Y-119070380D02*
X125804704Y-118070380D01*
X126042800Y-118070380D01*
X126185657Y-118118000D01*
X126280895Y-118213238D01*
X126328514Y-118308476D01*
X126376133Y-118498952D01*
X126376133Y-118641809D01*
X126328514Y-118832285D01*
X126280895Y-118927523D01*
X126185657Y-119022761D01*
X126042800Y-119070380D01*
X125804704Y-119070380D01*
X127328514Y-119070380D02*
X126757085Y-119070380D01*
X127042800Y-119070380D02*
X127042800Y-118070380D01*
X126947561Y-118213238D01*
X126852323Y-118308476D01*
X126757085Y-118356095D01*
%TO.C,C6*%
X108240533Y-103633542D02*
X108192914Y-103681161D01*
X108050057Y-103728780D01*
X107954819Y-103728780D01*
X107811961Y-103681161D01*
X107716723Y-103585923D01*
X107669104Y-103490685D01*
X107621485Y-103300209D01*
X107621485Y-103157352D01*
X107669104Y-102966876D01*
X107716723Y-102871638D01*
X107811961Y-102776400D01*
X107954819Y-102728780D01*
X108050057Y-102728780D01*
X108192914Y-102776400D01*
X108240533Y-102824019D01*
X109097676Y-102728780D02*
X108907200Y-102728780D01*
X108811961Y-102776400D01*
X108764342Y-102824019D01*
X108669104Y-102966876D01*
X108621485Y-103157352D01*
X108621485Y-103538304D01*
X108669104Y-103633542D01*
X108716723Y-103681161D01*
X108811961Y-103728780D01*
X109002438Y-103728780D01*
X109097676Y-103681161D01*
X109145295Y-103633542D01*
X109192914Y-103538304D01*
X109192914Y-103300209D01*
X109145295Y-103204971D01*
X109097676Y-103157352D01*
X109002438Y-103109733D01*
X108811961Y-103109733D01*
X108716723Y-103157352D01*
X108669104Y-103204971D01*
X108621485Y-103300209D01*
%TO.C,C4*%
X114387333Y-113590342D02*
X114339714Y-113637961D01*
X114196857Y-113685580D01*
X114101619Y-113685580D01*
X113958761Y-113637961D01*
X113863523Y-113542723D01*
X113815904Y-113447485D01*
X113768285Y-113257009D01*
X113768285Y-113114152D01*
X113815904Y-112923676D01*
X113863523Y-112828438D01*
X113958761Y-112733200D01*
X114101619Y-112685580D01*
X114196857Y-112685580D01*
X114339714Y-112733200D01*
X114387333Y-112780819D01*
X115244476Y-113018914D02*
X115244476Y-113685580D01*
X115006380Y-112637961D02*
X114768285Y-113352247D01*
X115387333Y-113352247D01*
%TO.C,C3*%
X114679942Y-118289866D02*
X114727561Y-118337485D01*
X114775180Y-118480342D01*
X114775180Y-118575580D01*
X114727561Y-118718438D01*
X114632323Y-118813676D01*
X114537085Y-118861295D01*
X114346609Y-118908914D01*
X114203752Y-118908914D01*
X114013276Y-118861295D01*
X113918038Y-118813676D01*
X113822800Y-118718438D01*
X113775180Y-118575580D01*
X113775180Y-118480342D01*
X113822800Y-118337485D01*
X113870419Y-118289866D01*
X113775180Y-117956533D02*
X113775180Y-117337485D01*
X114156133Y-117670819D01*
X114156133Y-117527961D01*
X114203752Y-117432723D01*
X114251371Y-117385104D01*
X114346609Y-117337485D01*
X114584704Y-117337485D01*
X114679942Y-117385104D01*
X114727561Y-117432723D01*
X114775180Y-117527961D01*
X114775180Y-117813676D01*
X114727561Y-117908914D01*
X114679942Y-117956533D01*
%TO.C,C2*%
X127661942Y-106592666D02*
X127709561Y-106640285D01*
X127757180Y-106783142D01*
X127757180Y-106878380D01*
X127709561Y-107021238D01*
X127614323Y-107116476D01*
X127519085Y-107164095D01*
X127328609Y-107211714D01*
X127185752Y-107211714D01*
X126995276Y-107164095D01*
X126900038Y-107116476D01*
X126804800Y-107021238D01*
X126757180Y-106878380D01*
X126757180Y-106783142D01*
X126804800Y-106640285D01*
X126852419Y-106592666D01*
X126852419Y-106211714D02*
X126804800Y-106164095D01*
X126757180Y-106068857D01*
X126757180Y-105830761D01*
X126804800Y-105735523D01*
X126852419Y-105687904D01*
X126947657Y-105640285D01*
X127042895Y-105640285D01*
X127185752Y-105687904D01*
X127757180Y-106259333D01*
X127757180Y-105640285D01*
%TD*%
M02*
