%TF.GenerationSoftware,KiCad,Pcbnew,(5.1.5)-3*%
%TF.CreationDate,2020-05-01T16:03:37+02:00*%
%TF.ProjectId,SX1280_module,53583132-3830-45f6-9d6f-64756c652e6b,rev?*%
%TF.SameCoordinates,Original*%
%TF.FileFunction,Soldermask,Top*%
%TF.FilePolarity,Negative*%
%FSLAX46Y46*%
G04 Gerber Fmt 4.6, Leading zero omitted, Abs format (unit mm)*
G04 Created by KiCad (PCBNEW (5.1.5)-3) date 2020-05-01 16:03:37*
%MOMM*%
%LPD*%
G04 APERTURE LIST*
%ADD10C,0.100000*%
G04 APERTURE END LIST*
D10*
G36*
X125111000Y-122546000D02*
G01*
X123809000Y-122546000D01*
X123809000Y-121544000D01*
X125111000Y-121544000D01*
X125111000Y-122546000D01*
G37*
G36*
X129224549Y-119871116D02*
G01*
X129335734Y-119893232D01*
X129545203Y-119979997D01*
X129733720Y-120105960D01*
X129894040Y-120266280D01*
X130020003Y-120454797D01*
X130106768Y-120664266D01*
X130113158Y-120696391D01*
X130151000Y-120886635D01*
X130151000Y-121113365D01*
X130145291Y-121142066D01*
X130106768Y-121335734D01*
X130020003Y-121545203D01*
X129894040Y-121733720D01*
X129733720Y-121894040D01*
X129545203Y-122020003D01*
X129335734Y-122106768D01*
X129224549Y-122128884D01*
X129113365Y-122151000D01*
X128886635Y-122151000D01*
X128775451Y-122128884D01*
X128664266Y-122106768D01*
X128454797Y-122020003D01*
X128266280Y-121894040D01*
X128105960Y-121733720D01*
X127979997Y-121545203D01*
X127893232Y-121335734D01*
X127854709Y-121142066D01*
X127849000Y-121113365D01*
X127849000Y-120886635D01*
X127886842Y-120696391D01*
X127893232Y-120664266D01*
X127979997Y-120454797D01*
X128105960Y-120266280D01*
X128266280Y-120105960D01*
X128454797Y-119979997D01*
X128664266Y-119893232D01*
X128775451Y-119871116D01*
X128886635Y-119849000D01*
X129113365Y-119849000D01*
X129224549Y-119871116D01*
G37*
G36*
X109224549Y-119871116D02*
G01*
X109335734Y-119893232D01*
X109545203Y-119979997D01*
X109733720Y-120105960D01*
X109894040Y-120266280D01*
X110020003Y-120454797D01*
X110106768Y-120664266D01*
X110113158Y-120696391D01*
X110151000Y-120886635D01*
X110151000Y-121113365D01*
X110145291Y-121142066D01*
X110106768Y-121335734D01*
X110020003Y-121545203D01*
X109894040Y-121733720D01*
X109733720Y-121894040D01*
X109545203Y-122020003D01*
X109335734Y-122106768D01*
X109224549Y-122128884D01*
X109113365Y-122151000D01*
X108886635Y-122151000D01*
X108775451Y-122128884D01*
X108664266Y-122106768D01*
X108454797Y-122020003D01*
X108266280Y-121894040D01*
X108105960Y-121733720D01*
X107979997Y-121545203D01*
X107893232Y-121335734D01*
X107854709Y-121142066D01*
X107849000Y-121113365D01*
X107849000Y-120886635D01*
X107886842Y-120696391D01*
X107893232Y-120664266D01*
X107979997Y-120454797D01*
X108105960Y-120266280D01*
X108266280Y-120105960D01*
X108454797Y-119979997D01*
X108664266Y-119893232D01*
X108775451Y-119871116D01*
X108886635Y-119849000D01*
X109113365Y-119849000D01*
X109224549Y-119871116D01*
G37*
G36*
X117157054Y-121191067D02*
G01*
X117187386Y-121197100D01*
X117273102Y-121232605D01*
X117350245Y-121284150D01*
X117415850Y-121349755D01*
X117467395Y-121426898D01*
X117502900Y-121512614D01*
X117521000Y-121603611D01*
X117521000Y-121696389D01*
X117502900Y-121787386D01*
X117467395Y-121873102D01*
X117415850Y-121950245D01*
X117350245Y-122015850D01*
X117273102Y-122067395D01*
X117187386Y-122102900D01*
X117157054Y-122108933D01*
X117096391Y-122121000D01*
X117003609Y-122121000D01*
X116942946Y-122108933D01*
X116912614Y-122102900D01*
X116826898Y-122067395D01*
X116749755Y-122015850D01*
X116684150Y-121950245D01*
X116632605Y-121873102D01*
X116597100Y-121787386D01*
X116579000Y-121696389D01*
X116579000Y-121603611D01*
X116597100Y-121512614D01*
X116632605Y-121426898D01*
X116684150Y-121349755D01*
X116749755Y-121284150D01*
X116826898Y-121232605D01*
X116912614Y-121197100D01*
X116942946Y-121191067D01*
X117003609Y-121179000D01*
X117096391Y-121179000D01*
X117157054Y-121191067D01*
G37*
G36*
X119471000Y-121121000D02*
G01*
X118788869Y-121121000D01*
X118764483Y-121123402D01*
X118741034Y-121130515D01*
X118719423Y-121142066D01*
X118700481Y-121157611D01*
X118684936Y-121176553D01*
X118673385Y-121198164D01*
X118666272Y-121221613D01*
X118663870Y-121245999D01*
X118666272Y-121270385D01*
X118673385Y-121293834D01*
X118684936Y-121315445D01*
X118700476Y-121334381D01*
X118715850Y-121349755D01*
X118767395Y-121426898D01*
X118802900Y-121512614D01*
X118821000Y-121603611D01*
X118821000Y-121696389D01*
X118802900Y-121787386D01*
X118767395Y-121873102D01*
X118715850Y-121950245D01*
X118650245Y-122015850D01*
X118573102Y-122067395D01*
X118487386Y-122102900D01*
X118457054Y-122108933D01*
X118396391Y-122121000D01*
X118303609Y-122121000D01*
X118242946Y-122108933D01*
X118212614Y-122102900D01*
X118126898Y-122067395D01*
X118049755Y-122015850D01*
X117984150Y-121950245D01*
X117932605Y-121873102D01*
X117897100Y-121787386D01*
X117879000Y-121696389D01*
X117879000Y-121603611D01*
X117897100Y-121512614D01*
X117932605Y-121426898D01*
X117984150Y-121349755D01*
X118049755Y-121284150D01*
X118126898Y-121232605D01*
X118212614Y-121197100D01*
X118242946Y-121191067D01*
X118303609Y-121179000D01*
X118404001Y-121179000D01*
X118428387Y-121176598D01*
X118451836Y-121169485D01*
X118473447Y-121157934D01*
X118492389Y-121142389D01*
X118507934Y-121123447D01*
X118519485Y-121101836D01*
X118526598Y-121078387D01*
X118529000Y-121054001D01*
X118529000Y-120179000D01*
X119471000Y-120179000D01*
X119471000Y-121121000D01*
G37*
G36*
X114409687Y-119931507D02*
G01*
X114409690Y-119931508D01*
X114409689Y-119931508D01*
X114587309Y-120005080D01*
X114587310Y-120005081D01*
X114747161Y-120111889D01*
X114883111Y-120247839D01*
X114951208Y-120349755D01*
X114989920Y-120407691D01*
X115046825Y-120545073D01*
X115063493Y-120585313D01*
X115101000Y-120773871D01*
X115101000Y-120966129D01*
X115063493Y-121154687D01*
X115063492Y-121154689D01*
X114989920Y-121332309D01*
X114987632Y-121335733D01*
X114883111Y-121492161D01*
X114747161Y-121628111D01*
X114613891Y-121717158D01*
X114587309Y-121734920D01*
X114460646Y-121787385D01*
X114409687Y-121808493D01*
X114221129Y-121846000D01*
X114028871Y-121846000D01*
X113840313Y-121808493D01*
X113789354Y-121787385D01*
X113662691Y-121734920D01*
X113636109Y-121717158D01*
X113502839Y-121628111D01*
X113366889Y-121492161D01*
X113262368Y-121335733D01*
X113260080Y-121332309D01*
X113186508Y-121154689D01*
X113186507Y-121154687D01*
X113149000Y-120966129D01*
X113149000Y-120773871D01*
X113186507Y-120585313D01*
X113203175Y-120545073D01*
X113260080Y-120407691D01*
X113298792Y-120349755D01*
X113366889Y-120247839D01*
X113502839Y-120111889D01*
X113662690Y-120005081D01*
X113662691Y-120005080D01*
X113840311Y-119931508D01*
X113840310Y-119931508D01*
X113840313Y-119931507D01*
X114028871Y-119894000D01*
X114221129Y-119894000D01*
X114409687Y-119931507D01*
G37*
G36*
X121559687Y-119931507D02*
G01*
X121559690Y-119931508D01*
X121559689Y-119931508D01*
X121737309Y-120005080D01*
X121737310Y-120005081D01*
X121897161Y-120111889D01*
X122033111Y-120247839D01*
X122101208Y-120349755D01*
X122139920Y-120407691D01*
X122196825Y-120545073D01*
X122213493Y-120585313D01*
X122251000Y-120773871D01*
X122251000Y-120966129D01*
X122213493Y-121154687D01*
X122213492Y-121154689D01*
X122139920Y-121332309D01*
X122137632Y-121335733D01*
X122033111Y-121492161D01*
X121897161Y-121628111D01*
X121763891Y-121717158D01*
X121737309Y-121734920D01*
X121610646Y-121787385D01*
X121559687Y-121808493D01*
X121371129Y-121846000D01*
X121178871Y-121846000D01*
X120990313Y-121808493D01*
X120939354Y-121787385D01*
X120812691Y-121734920D01*
X120786109Y-121717158D01*
X120652839Y-121628111D01*
X120516889Y-121492161D01*
X120412368Y-121335733D01*
X120410080Y-121332309D01*
X120336508Y-121154689D01*
X120336507Y-121154687D01*
X120299000Y-120966129D01*
X120299000Y-120773871D01*
X120336507Y-120585313D01*
X120353175Y-120545073D01*
X120410080Y-120407691D01*
X120448792Y-120349755D01*
X120516889Y-120247839D01*
X120652839Y-120111889D01*
X120812690Y-120005081D01*
X120812691Y-120005080D01*
X120990311Y-119931508D01*
X120990310Y-119931508D01*
X120990313Y-119931507D01*
X121178871Y-119894000D01*
X121371129Y-119894000D01*
X121559687Y-119931507D01*
G37*
G36*
X117807054Y-120191067D02*
G01*
X117837386Y-120197100D01*
X117923102Y-120232605D01*
X118000245Y-120284150D01*
X118065850Y-120349755D01*
X118104561Y-120407691D01*
X118117396Y-120426900D01*
X118152900Y-120512615D01*
X118167361Y-120585313D01*
X118171000Y-120603611D01*
X118171000Y-120696389D01*
X118152900Y-120787386D01*
X118117395Y-120873102D01*
X118065850Y-120950245D01*
X118000245Y-121015850D01*
X117923102Y-121067395D01*
X117837386Y-121102900D01*
X117807054Y-121108933D01*
X117746391Y-121121000D01*
X117653609Y-121121000D01*
X117592946Y-121108933D01*
X117562614Y-121102900D01*
X117476898Y-121067395D01*
X117399755Y-121015850D01*
X117334150Y-120950245D01*
X117282605Y-120873102D01*
X117247100Y-120787386D01*
X117229000Y-120696389D01*
X117229000Y-120603611D01*
X117232640Y-120585313D01*
X117247100Y-120512615D01*
X117282604Y-120426900D01*
X117295439Y-120407691D01*
X117334150Y-120349755D01*
X117399755Y-120284150D01*
X117476898Y-120232605D01*
X117562614Y-120197100D01*
X117592946Y-120191067D01*
X117653609Y-120179000D01*
X117746391Y-120179000D01*
X117807054Y-120191067D01*
G37*
G36*
X116507054Y-120191067D02*
G01*
X116537386Y-120197100D01*
X116623102Y-120232605D01*
X116700245Y-120284150D01*
X116765850Y-120349755D01*
X116804561Y-120407691D01*
X116817396Y-120426900D01*
X116852900Y-120512615D01*
X116867361Y-120585313D01*
X116871000Y-120603611D01*
X116871000Y-120696389D01*
X116852900Y-120787386D01*
X116817395Y-120873102D01*
X116765850Y-120950245D01*
X116700245Y-121015850D01*
X116623102Y-121067395D01*
X116537386Y-121102900D01*
X116507054Y-121108933D01*
X116446391Y-121121000D01*
X116353609Y-121121000D01*
X116292946Y-121108933D01*
X116262614Y-121102900D01*
X116176898Y-121067395D01*
X116099755Y-121015850D01*
X116034150Y-120950245D01*
X115982605Y-120873102D01*
X115947100Y-120787386D01*
X115929000Y-120696389D01*
X115929000Y-120603611D01*
X115932640Y-120585313D01*
X115947100Y-120512615D01*
X115982604Y-120426900D01*
X115995439Y-120407691D01*
X116034150Y-120349755D01*
X116099755Y-120284150D01*
X116176898Y-120232605D01*
X116262614Y-120197100D01*
X116292946Y-120191067D01*
X116353609Y-120179000D01*
X116446391Y-120179000D01*
X116507054Y-120191067D01*
G37*
G36*
X113272391Y-118426285D02*
G01*
X113306369Y-118436593D01*
X113337690Y-118453334D01*
X113365139Y-118475861D01*
X113387666Y-118503310D01*
X113404407Y-118534631D01*
X113414715Y-118568609D01*
X113418800Y-118610090D01*
X113418800Y-119211310D01*
X113414715Y-119252791D01*
X113404407Y-119286769D01*
X113387666Y-119318090D01*
X113365139Y-119345539D01*
X113337690Y-119368066D01*
X113306369Y-119384807D01*
X113272391Y-119395115D01*
X113230910Y-119399200D01*
X112554690Y-119399200D01*
X112513209Y-119395115D01*
X112479231Y-119384807D01*
X112447910Y-119368066D01*
X112420461Y-119345539D01*
X112397934Y-119318090D01*
X112381193Y-119286769D01*
X112370885Y-119252791D01*
X112366800Y-119211310D01*
X112366800Y-118610090D01*
X112370885Y-118568609D01*
X112381193Y-118534631D01*
X112397934Y-118503310D01*
X112420461Y-118475861D01*
X112447910Y-118453334D01*
X112479231Y-118436593D01*
X112513209Y-118426285D01*
X112554690Y-118422200D01*
X113230910Y-118422200D01*
X113272391Y-118426285D01*
G37*
G36*
X125111000Y-119246000D02*
G01*
X123809000Y-119246000D01*
X123809000Y-118244000D01*
X125111000Y-118244000D01*
X125111000Y-119246000D01*
G37*
G36*
X122311000Y-119006000D02*
G01*
X120009000Y-119006000D01*
X120009000Y-117904000D01*
X122311000Y-117904000D01*
X122311000Y-119006000D01*
G37*
G36*
X129309766Y-117278299D02*
G01*
X129441888Y-117333026D01*
X129441890Y-117333027D01*
X129560798Y-117412479D01*
X129661921Y-117513602D01*
X129661922Y-117513604D01*
X129741374Y-117632512D01*
X129796101Y-117764634D01*
X129824000Y-117904894D01*
X129824000Y-118047906D01*
X129796101Y-118188166D01*
X129741374Y-118320288D01*
X129741373Y-118320290D01*
X129661921Y-118439198D01*
X129560798Y-118540321D01*
X129441890Y-118619773D01*
X129441889Y-118619774D01*
X129441888Y-118619774D01*
X129309766Y-118674501D01*
X129169506Y-118702400D01*
X129026494Y-118702400D01*
X128886234Y-118674501D01*
X128754112Y-118619774D01*
X128754111Y-118619774D01*
X128754110Y-118619773D01*
X128635202Y-118540321D01*
X128534079Y-118439198D01*
X128454627Y-118320290D01*
X128454626Y-118320288D01*
X128399899Y-118188166D01*
X128372000Y-118047906D01*
X128372000Y-117904894D01*
X128399899Y-117764634D01*
X128454626Y-117632512D01*
X128534078Y-117513604D01*
X128534079Y-117513602D01*
X128635202Y-117412479D01*
X128754110Y-117333027D01*
X128754112Y-117333026D01*
X128886234Y-117278299D01*
X129026494Y-117250400D01*
X129169506Y-117250400D01*
X129309766Y-117278299D01*
G37*
G36*
X115811000Y-117956000D02*
G01*
X113909000Y-117956000D01*
X113909000Y-114454000D01*
X115811000Y-114454000D01*
X115811000Y-117956000D01*
G37*
G36*
X113272391Y-116851285D02*
G01*
X113306369Y-116861593D01*
X113337690Y-116878334D01*
X113365139Y-116900861D01*
X113387666Y-116928310D01*
X113404407Y-116959631D01*
X113414715Y-116993609D01*
X113418800Y-117035090D01*
X113418800Y-117636310D01*
X113414715Y-117677791D01*
X113404407Y-117711769D01*
X113387666Y-117743090D01*
X113365139Y-117770539D01*
X113337690Y-117793066D01*
X113306369Y-117809807D01*
X113272391Y-117820115D01*
X113230910Y-117824200D01*
X112554690Y-117824200D01*
X112513209Y-117820115D01*
X112479231Y-117809807D01*
X112447910Y-117793066D01*
X112420461Y-117770539D01*
X112397934Y-117743090D01*
X112381193Y-117711769D01*
X112370885Y-117677791D01*
X112366800Y-117636310D01*
X112366800Y-117035090D01*
X112370885Y-116993609D01*
X112381193Y-116959631D01*
X112397934Y-116928310D01*
X112420461Y-116900861D01*
X112447910Y-116878334D01*
X112479231Y-116861593D01*
X112513209Y-116851285D01*
X112554690Y-116847200D01*
X113230910Y-116847200D01*
X113272391Y-116851285D01*
G37*
G36*
X122311000Y-117506000D02*
G01*
X120009000Y-117506000D01*
X120009000Y-116404000D01*
X122311000Y-116404000D01*
X122311000Y-117506000D01*
G37*
G36*
X127881000Y-117491000D02*
G01*
X126879000Y-117491000D01*
X126879000Y-116189000D01*
X127881000Y-116189000D01*
X127881000Y-117491000D01*
G37*
G36*
X124581000Y-117491000D02*
G01*
X123579000Y-117491000D01*
X123579000Y-116189000D01*
X124581000Y-116189000D01*
X124581000Y-117491000D01*
G37*
G36*
X129309766Y-115278299D02*
G01*
X129441888Y-115333026D01*
X129441890Y-115333027D01*
X129560798Y-115412479D01*
X129661921Y-115513602D01*
X129741373Y-115632510D01*
X129741374Y-115632512D01*
X129796101Y-115764634D01*
X129824000Y-115904894D01*
X129824000Y-116047906D01*
X129796101Y-116188166D01*
X129741374Y-116320288D01*
X129741373Y-116320290D01*
X129661921Y-116439198D01*
X129560798Y-116540321D01*
X129441890Y-116619773D01*
X129441889Y-116619774D01*
X129441888Y-116619774D01*
X129309766Y-116674501D01*
X129169506Y-116702400D01*
X129026494Y-116702400D01*
X128886234Y-116674501D01*
X128754112Y-116619774D01*
X128754111Y-116619774D01*
X128754110Y-116619773D01*
X128635202Y-116540321D01*
X128534079Y-116439198D01*
X128454627Y-116320290D01*
X128454626Y-116320288D01*
X128399899Y-116188166D01*
X128372000Y-116047906D01*
X128372000Y-115904894D01*
X128399899Y-115764634D01*
X128454626Y-115632512D01*
X128454627Y-115632510D01*
X128534079Y-115513602D01*
X128635202Y-115412479D01*
X128754110Y-115333027D01*
X128754112Y-115333026D01*
X128886234Y-115278299D01*
X129026494Y-115250400D01*
X129169506Y-115250400D01*
X129309766Y-115278299D01*
G37*
G36*
X122311000Y-116006000D02*
G01*
X120009000Y-116006000D01*
X120009000Y-114904000D01*
X122311000Y-114904000D01*
X122311000Y-116006000D01*
G37*
G36*
X127839991Y-114604085D02*
G01*
X127873969Y-114614393D01*
X127905290Y-114631134D01*
X127932739Y-114653661D01*
X127955266Y-114681110D01*
X127972007Y-114712431D01*
X127982315Y-114746409D01*
X127986400Y-114787890D01*
X127986400Y-115464110D01*
X127982315Y-115505591D01*
X127972007Y-115539569D01*
X127955266Y-115570890D01*
X127932739Y-115598339D01*
X127905290Y-115620866D01*
X127873969Y-115637607D01*
X127839991Y-115647915D01*
X127798510Y-115652000D01*
X127197290Y-115652000D01*
X127155809Y-115647915D01*
X127121831Y-115637607D01*
X127090510Y-115620866D01*
X127063061Y-115598339D01*
X127040534Y-115570890D01*
X127023793Y-115539569D01*
X127013485Y-115505591D01*
X127009400Y-115464110D01*
X127009400Y-114787890D01*
X127013485Y-114746409D01*
X127023793Y-114712431D01*
X127040534Y-114681110D01*
X127063061Y-114653661D01*
X127090510Y-114631134D01*
X127121831Y-114614393D01*
X127155809Y-114604085D01*
X127197290Y-114600000D01*
X127798510Y-114600000D01*
X127839991Y-114604085D01*
G37*
G36*
X126264991Y-114604085D02*
G01*
X126298969Y-114614393D01*
X126330290Y-114631134D01*
X126357739Y-114653661D01*
X126380266Y-114681110D01*
X126397007Y-114712431D01*
X126407315Y-114746409D01*
X126411400Y-114787890D01*
X126411400Y-115464110D01*
X126407315Y-115505591D01*
X126397007Y-115539569D01*
X126380266Y-115570890D01*
X126357739Y-115598339D01*
X126330290Y-115620866D01*
X126298969Y-115637607D01*
X126264991Y-115647915D01*
X126223510Y-115652000D01*
X125622290Y-115652000D01*
X125580809Y-115647915D01*
X125546831Y-115637607D01*
X125515510Y-115620866D01*
X125488061Y-115598339D01*
X125465534Y-115570890D01*
X125448793Y-115539569D01*
X125438485Y-115505591D01*
X125434400Y-115464110D01*
X125434400Y-114787890D01*
X125438485Y-114746409D01*
X125448793Y-114712431D01*
X125465534Y-114681110D01*
X125488061Y-114653661D01*
X125515510Y-114631134D01*
X125546831Y-114614393D01*
X125580809Y-114604085D01*
X125622290Y-114600000D01*
X126223510Y-114600000D01*
X126264991Y-114604085D01*
G37*
G36*
X124194391Y-114349085D02*
G01*
X124228369Y-114359393D01*
X124259690Y-114376134D01*
X124287139Y-114398661D01*
X124309666Y-114426110D01*
X124326407Y-114457431D01*
X124336715Y-114491409D01*
X124340800Y-114532890D01*
X124340800Y-115134110D01*
X124336715Y-115175591D01*
X124326407Y-115209569D01*
X124309666Y-115240890D01*
X124287139Y-115268339D01*
X124259690Y-115290866D01*
X124228369Y-115307607D01*
X124194391Y-115317915D01*
X124152910Y-115322000D01*
X123476690Y-115322000D01*
X123435209Y-115317915D01*
X123401231Y-115307607D01*
X123369910Y-115290866D01*
X123342461Y-115268339D01*
X123319934Y-115240890D01*
X123303193Y-115209569D01*
X123292885Y-115175591D01*
X123288800Y-115134110D01*
X123288800Y-114532890D01*
X123292885Y-114491409D01*
X123303193Y-114457431D01*
X123319934Y-114426110D01*
X123342461Y-114398661D01*
X123369910Y-114376134D01*
X123401231Y-114359393D01*
X123435209Y-114349085D01*
X123476690Y-114345000D01*
X124152910Y-114345000D01*
X124194391Y-114349085D01*
G37*
G36*
X129309766Y-113278299D02*
G01*
X129441888Y-113333026D01*
X129441890Y-113333027D01*
X129560798Y-113412479D01*
X129661921Y-113513602D01*
X129741373Y-113632510D01*
X129741374Y-113632512D01*
X129796101Y-113764634D01*
X129824000Y-113904894D01*
X129824000Y-114047906D01*
X129796101Y-114188166D01*
X129741374Y-114320288D01*
X129741373Y-114320290D01*
X129661921Y-114439198D01*
X129560798Y-114540321D01*
X129441890Y-114619773D01*
X129441889Y-114619774D01*
X129441888Y-114619774D01*
X129309766Y-114674501D01*
X129169506Y-114702400D01*
X129026494Y-114702400D01*
X128886234Y-114674501D01*
X128754112Y-114619774D01*
X128754111Y-114619774D01*
X128754110Y-114619773D01*
X128635202Y-114540321D01*
X128534079Y-114439198D01*
X128454627Y-114320290D01*
X128454626Y-114320288D01*
X128399899Y-114188166D01*
X128372000Y-114047906D01*
X128372000Y-113904894D01*
X128399899Y-113764634D01*
X128454626Y-113632512D01*
X128454627Y-113632510D01*
X128534079Y-113513602D01*
X128635202Y-113412479D01*
X128754110Y-113333027D01*
X128754112Y-113333026D01*
X128886234Y-113278299D01*
X129026494Y-113250400D01*
X129169506Y-113250400D01*
X129309766Y-113278299D01*
G37*
G36*
X122311000Y-114506000D02*
G01*
X120009000Y-114506000D01*
X120009000Y-113404000D01*
X122311000Y-113404000D01*
X122311000Y-114506000D01*
G37*
G36*
X110732391Y-112838285D02*
G01*
X110766369Y-112848593D01*
X110797690Y-112865334D01*
X110825139Y-112887861D01*
X110847666Y-112915310D01*
X110864407Y-112946631D01*
X110874715Y-112980609D01*
X110878800Y-113022090D01*
X110878800Y-113623310D01*
X110874715Y-113664791D01*
X110864407Y-113698769D01*
X110847666Y-113730090D01*
X110825139Y-113757539D01*
X110797690Y-113780066D01*
X110766369Y-113796807D01*
X110732391Y-113807115D01*
X110690910Y-113811200D01*
X110014690Y-113811200D01*
X109973209Y-113807115D01*
X109939231Y-113796807D01*
X109907910Y-113780066D01*
X109880461Y-113757539D01*
X109857934Y-113730090D01*
X109841193Y-113698769D01*
X109830885Y-113664791D01*
X109826800Y-113623310D01*
X109826800Y-113022090D01*
X109830885Y-112980609D01*
X109841193Y-112946631D01*
X109857934Y-112915310D01*
X109880461Y-112887861D01*
X109907910Y-112865334D01*
X109939231Y-112848593D01*
X109973209Y-112838285D01*
X110014690Y-112834200D01*
X110690910Y-112834200D01*
X110732391Y-112838285D01*
G37*
G36*
X124194391Y-112774085D02*
G01*
X124228369Y-112784393D01*
X124259690Y-112801134D01*
X124287139Y-112823661D01*
X124309666Y-112851110D01*
X124326407Y-112882431D01*
X124336715Y-112916409D01*
X124340800Y-112957890D01*
X124340800Y-113559110D01*
X124336715Y-113600591D01*
X124326407Y-113634569D01*
X124309666Y-113665890D01*
X124287139Y-113693339D01*
X124259690Y-113715866D01*
X124228369Y-113732607D01*
X124194391Y-113742915D01*
X124152910Y-113747000D01*
X123476690Y-113747000D01*
X123435209Y-113742915D01*
X123401231Y-113732607D01*
X123369910Y-113715866D01*
X123342461Y-113693339D01*
X123319934Y-113665890D01*
X123303193Y-113634569D01*
X123292885Y-113600591D01*
X123288800Y-113559110D01*
X123288800Y-112957890D01*
X123292885Y-112916409D01*
X123303193Y-112882431D01*
X123319934Y-112851110D01*
X123342461Y-112823661D01*
X123369910Y-112801134D01*
X123401231Y-112784393D01*
X123435209Y-112774085D01*
X123476690Y-112770000D01*
X124152910Y-112770000D01*
X124194391Y-112774085D01*
G37*
G36*
X127687591Y-111911685D02*
G01*
X127721569Y-111921993D01*
X127752890Y-111938734D01*
X127780339Y-111961261D01*
X127802866Y-111988710D01*
X127819607Y-112020031D01*
X127829915Y-112054009D01*
X127834000Y-112095490D01*
X127834000Y-112771710D01*
X127829915Y-112813191D01*
X127819607Y-112847169D01*
X127802866Y-112878490D01*
X127780339Y-112905939D01*
X127752890Y-112928466D01*
X127721569Y-112945207D01*
X127687591Y-112955515D01*
X127646110Y-112959600D01*
X127044890Y-112959600D01*
X127003409Y-112955515D01*
X126969431Y-112945207D01*
X126938110Y-112928466D01*
X126910661Y-112905939D01*
X126888134Y-112878490D01*
X126871393Y-112847169D01*
X126861085Y-112813191D01*
X126857000Y-112771710D01*
X126857000Y-112095490D01*
X126861085Y-112054009D01*
X126871393Y-112020031D01*
X126888134Y-111988710D01*
X126910661Y-111961261D01*
X126938110Y-111938734D01*
X126969431Y-111921993D01*
X127003409Y-111911685D01*
X127044890Y-111907600D01*
X127646110Y-111907600D01*
X127687591Y-111911685D01*
G37*
G36*
X126112591Y-111911685D02*
G01*
X126146569Y-111921993D01*
X126177890Y-111938734D01*
X126205339Y-111961261D01*
X126227866Y-111988710D01*
X126244607Y-112020031D01*
X126254915Y-112054009D01*
X126259000Y-112095490D01*
X126259000Y-112771710D01*
X126254915Y-112813191D01*
X126244607Y-112847169D01*
X126227866Y-112878490D01*
X126205339Y-112905939D01*
X126177890Y-112928466D01*
X126146569Y-112945207D01*
X126112591Y-112955515D01*
X126071110Y-112959600D01*
X125469890Y-112959600D01*
X125428409Y-112955515D01*
X125394431Y-112945207D01*
X125363110Y-112928466D01*
X125335661Y-112905939D01*
X125313134Y-112878490D01*
X125296393Y-112847169D01*
X125286085Y-112813191D01*
X125282000Y-112771710D01*
X125282000Y-112095490D01*
X125286085Y-112054009D01*
X125296393Y-112020031D01*
X125313134Y-111988710D01*
X125335661Y-111961261D01*
X125363110Y-111938734D01*
X125394431Y-111921993D01*
X125428409Y-111911685D01*
X125469890Y-111907600D01*
X126071110Y-111907600D01*
X126112591Y-111911685D01*
G37*
G36*
X129824000Y-112702400D02*
G01*
X128372000Y-112702400D01*
X128372000Y-111250400D01*
X129824000Y-111250400D01*
X129824000Y-112702400D01*
G37*
G36*
X119403521Y-111446574D02*
G01*
X119503795Y-111488109D01*
X119503796Y-111488110D01*
X119594042Y-111548410D01*
X119670790Y-111625158D01*
X119679905Y-111638800D01*
X119731091Y-111715405D01*
X119772626Y-111815679D01*
X119793800Y-111922130D01*
X119793800Y-112030670D01*
X119772626Y-112137121D01*
X119731091Y-112237395D01*
X119731090Y-112237396D01*
X119670790Y-112327642D01*
X119594042Y-112404390D01*
X119548612Y-112434745D01*
X119503795Y-112464691D01*
X119403521Y-112506226D01*
X119297070Y-112527400D01*
X119188530Y-112527400D01*
X119082079Y-112506226D01*
X118981805Y-112464691D01*
X118936988Y-112434745D01*
X118891558Y-112404390D01*
X118814810Y-112327642D01*
X118754510Y-112237396D01*
X118754509Y-112237395D01*
X118712974Y-112137121D01*
X118691800Y-112030670D01*
X118691800Y-111922130D01*
X118712974Y-111815679D01*
X118754509Y-111715405D01*
X118805695Y-111638800D01*
X118814810Y-111625158D01*
X118891558Y-111548410D01*
X118981804Y-111488110D01*
X118981805Y-111488109D01*
X119082079Y-111446574D01*
X119188530Y-111425400D01*
X119297070Y-111425400D01*
X119403521Y-111446574D01*
G37*
G36*
X122451521Y-111446574D02*
G01*
X122551795Y-111488109D01*
X122551796Y-111488110D01*
X122642042Y-111548410D01*
X122718790Y-111625158D01*
X122727905Y-111638800D01*
X122779091Y-111715405D01*
X122820626Y-111815679D01*
X122841800Y-111922130D01*
X122841800Y-112030670D01*
X122820626Y-112137121D01*
X122779091Y-112237395D01*
X122779090Y-112237396D01*
X122718790Y-112327642D01*
X122642042Y-112404390D01*
X122596612Y-112434745D01*
X122551795Y-112464691D01*
X122451521Y-112506226D01*
X122345070Y-112527400D01*
X122236530Y-112527400D01*
X122130079Y-112506226D01*
X122029805Y-112464691D01*
X121984988Y-112434745D01*
X121939558Y-112404390D01*
X121862810Y-112327642D01*
X121802510Y-112237396D01*
X121802509Y-112237395D01*
X121760974Y-112137121D01*
X121739800Y-112030670D01*
X121739800Y-111922130D01*
X121760974Y-111815679D01*
X121802509Y-111715405D01*
X121853695Y-111638800D01*
X121862810Y-111625158D01*
X121939558Y-111548410D01*
X122029804Y-111488110D01*
X122029805Y-111488109D01*
X122130079Y-111446574D01*
X122236530Y-111425400D01*
X122345070Y-111425400D01*
X122451521Y-111446574D01*
G37*
G36*
X120927521Y-111446574D02*
G01*
X121027795Y-111488109D01*
X121027796Y-111488110D01*
X121118042Y-111548410D01*
X121194790Y-111625158D01*
X121203905Y-111638800D01*
X121255091Y-111715405D01*
X121296626Y-111815679D01*
X121317800Y-111922130D01*
X121317800Y-112030670D01*
X121296626Y-112137121D01*
X121255091Y-112237395D01*
X121255090Y-112237396D01*
X121194790Y-112327642D01*
X121118042Y-112404390D01*
X121072612Y-112434745D01*
X121027795Y-112464691D01*
X120927521Y-112506226D01*
X120821070Y-112527400D01*
X120712530Y-112527400D01*
X120606079Y-112506226D01*
X120505805Y-112464691D01*
X120460988Y-112434745D01*
X120415558Y-112404390D01*
X120338810Y-112327642D01*
X120278510Y-112237396D01*
X120278509Y-112237395D01*
X120236974Y-112137121D01*
X120215800Y-112030670D01*
X120215800Y-111922130D01*
X120236974Y-111815679D01*
X120278509Y-111715405D01*
X120329695Y-111638800D01*
X120338810Y-111625158D01*
X120415558Y-111548410D01*
X120505804Y-111488110D01*
X120505805Y-111488109D01*
X120606079Y-111446574D01*
X120712530Y-111425400D01*
X120821070Y-111425400D01*
X120927521Y-111446574D01*
G37*
G36*
X114948791Y-111365085D02*
G01*
X114982769Y-111375393D01*
X115014090Y-111392134D01*
X115041539Y-111414661D01*
X115064066Y-111442110D01*
X115080807Y-111473431D01*
X115091115Y-111507409D01*
X115095200Y-111548890D01*
X115095200Y-112150110D01*
X115091115Y-112191591D01*
X115080807Y-112225569D01*
X115064066Y-112256890D01*
X115041539Y-112284339D01*
X115014090Y-112306866D01*
X114982769Y-112323607D01*
X114948791Y-112333915D01*
X114907310Y-112338000D01*
X114231090Y-112338000D01*
X114189609Y-112333915D01*
X114155631Y-112323607D01*
X114124310Y-112306866D01*
X114096861Y-112284339D01*
X114074334Y-112256890D01*
X114057593Y-112225569D01*
X114047285Y-112191591D01*
X114043200Y-112150110D01*
X114043200Y-111548890D01*
X114047285Y-111507409D01*
X114057593Y-111473431D01*
X114074334Y-111442110D01*
X114096861Y-111414661D01*
X114124310Y-111392134D01*
X114155631Y-111375393D01*
X114189609Y-111365085D01*
X114231090Y-111361000D01*
X114907310Y-111361000D01*
X114948791Y-111365085D01*
G37*
G36*
X124204591Y-111301085D02*
G01*
X124238569Y-111311393D01*
X124269890Y-111328134D01*
X124297339Y-111350661D01*
X124319866Y-111378110D01*
X124336607Y-111409431D01*
X124346915Y-111443409D01*
X124351000Y-111484890D01*
X124351000Y-112086110D01*
X124346915Y-112127591D01*
X124336607Y-112161569D01*
X124319866Y-112192890D01*
X124297339Y-112220339D01*
X124269890Y-112242866D01*
X124238569Y-112259607D01*
X124204591Y-112269915D01*
X124163110Y-112274000D01*
X123486890Y-112274000D01*
X123445409Y-112269915D01*
X123411431Y-112259607D01*
X123380110Y-112242866D01*
X123352661Y-112220339D01*
X123330134Y-112192890D01*
X123313393Y-112161569D01*
X123303085Y-112127591D01*
X123299000Y-112086110D01*
X123299000Y-111484890D01*
X123303085Y-111443409D01*
X123313393Y-111409431D01*
X123330134Y-111378110D01*
X123352661Y-111350661D01*
X123380110Y-111328134D01*
X123411431Y-111311393D01*
X123445409Y-111301085D01*
X123486890Y-111297000D01*
X124163110Y-111297000D01*
X124204591Y-111301085D01*
G37*
G36*
X110732391Y-111263285D02*
G01*
X110766369Y-111273593D01*
X110797690Y-111290334D01*
X110825139Y-111312861D01*
X110847666Y-111340310D01*
X110864407Y-111371631D01*
X110874715Y-111405609D01*
X110878800Y-111447090D01*
X110878800Y-112048310D01*
X110874715Y-112089791D01*
X110864407Y-112123769D01*
X110847666Y-112155090D01*
X110825139Y-112182539D01*
X110797690Y-112205066D01*
X110766369Y-112221807D01*
X110732391Y-112232115D01*
X110690910Y-112236200D01*
X110014690Y-112236200D01*
X109973209Y-112232115D01*
X109939231Y-112221807D01*
X109907910Y-112205066D01*
X109880461Y-112182539D01*
X109857934Y-112155090D01*
X109841193Y-112123769D01*
X109830885Y-112089791D01*
X109826800Y-112048310D01*
X109826800Y-111447090D01*
X109830885Y-111405609D01*
X109841193Y-111371631D01*
X109857934Y-111340310D01*
X109880461Y-111312861D01*
X109907910Y-111290334D01*
X109939231Y-111273593D01*
X109973209Y-111263285D01*
X110014690Y-111259200D01*
X110690910Y-111259200D01*
X110732391Y-111263285D01*
G37*
G36*
X126112591Y-110590885D02*
G01*
X126146569Y-110601193D01*
X126177890Y-110617934D01*
X126205339Y-110640461D01*
X126227866Y-110667910D01*
X126244607Y-110699231D01*
X126254915Y-110733209D01*
X126259000Y-110774690D01*
X126259000Y-111450910D01*
X126254915Y-111492391D01*
X126244607Y-111526369D01*
X126227866Y-111557690D01*
X126205339Y-111585139D01*
X126177890Y-111607666D01*
X126146569Y-111624407D01*
X126112591Y-111634715D01*
X126071110Y-111638800D01*
X125469890Y-111638800D01*
X125428409Y-111634715D01*
X125394431Y-111624407D01*
X125363110Y-111607666D01*
X125335661Y-111585139D01*
X125313134Y-111557690D01*
X125296393Y-111526369D01*
X125286085Y-111492391D01*
X125282000Y-111450910D01*
X125282000Y-110774690D01*
X125286085Y-110733209D01*
X125296393Y-110699231D01*
X125313134Y-110667910D01*
X125335661Y-110640461D01*
X125363110Y-110617934D01*
X125394431Y-110601193D01*
X125428409Y-110590885D01*
X125469890Y-110586800D01*
X126071110Y-110586800D01*
X126112591Y-110590885D01*
G37*
G36*
X127687591Y-110590885D02*
G01*
X127721569Y-110601193D01*
X127752890Y-110617934D01*
X127780339Y-110640461D01*
X127802866Y-110667910D01*
X127819607Y-110699231D01*
X127829915Y-110733209D01*
X127834000Y-110774690D01*
X127834000Y-111450910D01*
X127829915Y-111492391D01*
X127819607Y-111526369D01*
X127802866Y-111557690D01*
X127780339Y-111585139D01*
X127752890Y-111607666D01*
X127721569Y-111624407D01*
X127687591Y-111634715D01*
X127646110Y-111638800D01*
X127044890Y-111638800D01*
X127003409Y-111634715D01*
X126969431Y-111624407D01*
X126938110Y-111607666D01*
X126910661Y-111585139D01*
X126888134Y-111557690D01*
X126871393Y-111526369D01*
X126861085Y-111492391D01*
X126857000Y-111450910D01*
X126857000Y-110774690D01*
X126861085Y-110733209D01*
X126871393Y-110699231D01*
X126888134Y-110667910D01*
X126910661Y-110640461D01*
X126938110Y-110617934D01*
X126969431Y-110601193D01*
X127003409Y-110590885D01*
X127044890Y-110586800D01*
X127646110Y-110586800D01*
X127687591Y-110590885D01*
G37*
G36*
X116158451Y-109367684D02*
G01*
X116174843Y-109372657D01*
X116189955Y-109380734D01*
X116203198Y-109391602D01*
X116214067Y-109404847D01*
X116218161Y-109412506D01*
X116231774Y-109432880D01*
X116249101Y-109450207D01*
X116269476Y-109463821D01*
X116292114Y-109473198D01*
X116316148Y-109477979D01*
X116340652Y-109477979D01*
X116364685Y-109473199D01*
X116387324Y-109463821D01*
X116407698Y-109450208D01*
X116425025Y-109432881D01*
X116438639Y-109412506D01*
X116442733Y-109404847D01*
X116453602Y-109391602D01*
X116466845Y-109380734D01*
X116481957Y-109372657D01*
X116498349Y-109367684D01*
X116521541Y-109365400D01*
X116935259Y-109365400D01*
X116958451Y-109367684D01*
X116974843Y-109372657D01*
X116989955Y-109380734D01*
X117003198Y-109391602D01*
X117014067Y-109404847D01*
X117018161Y-109412506D01*
X117031774Y-109432880D01*
X117049101Y-109450207D01*
X117069476Y-109463821D01*
X117092114Y-109473198D01*
X117116148Y-109477979D01*
X117140652Y-109477979D01*
X117164685Y-109473199D01*
X117187324Y-109463821D01*
X117207698Y-109450208D01*
X117225025Y-109432881D01*
X117238639Y-109412506D01*
X117242733Y-109404847D01*
X117253602Y-109391602D01*
X117266845Y-109380734D01*
X117281957Y-109372657D01*
X117298349Y-109367684D01*
X117321541Y-109365400D01*
X117735259Y-109365400D01*
X117758451Y-109367684D01*
X117774843Y-109372657D01*
X117789955Y-109380734D01*
X117803198Y-109391602D01*
X117814067Y-109404847D01*
X117818161Y-109412506D01*
X117831774Y-109432880D01*
X117849101Y-109450207D01*
X117869476Y-109463821D01*
X117892114Y-109473198D01*
X117916148Y-109477979D01*
X117940652Y-109477979D01*
X117964685Y-109473199D01*
X117987324Y-109463821D01*
X118007698Y-109450208D01*
X118025025Y-109432881D01*
X118038639Y-109412506D01*
X118042733Y-109404847D01*
X118053602Y-109391602D01*
X118066845Y-109380734D01*
X118081957Y-109372657D01*
X118098349Y-109367684D01*
X118121541Y-109365400D01*
X118535259Y-109365400D01*
X118558451Y-109367684D01*
X118574843Y-109372657D01*
X118589955Y-109380734D01*
X118603198Y-109391602D01*
X118614067Y-109404847D01*
X118618161Y-109412506D01*
X118631774Y-109432880D01*
X118649101Y-109450207D01*
X118669476Y-109463821D01*
X118692114Y-109473198D01*
X118716148Y-109477979D01*
X118740652Y-109477979D01*
X118764685Y-109473199D01*
X118787324Y-109463821D01*
X118807698Y-109450208D01*
X118825025Y-109432881D01*
X118838639Y-109412506D01*
X118842733Y-109404847D01*
X118853602Y-109391602D01*
X118866845Y-109380734D01*
X118881957Y-109372657D01*
X118898349Y-109367684D01*
X118921541Y-109365400D01*
X119335259Y-109365400D01*
X119358451Y-109367684D01*
X119374843Y-109372657D01*
X119389955Y-109380734D01*
X119403198Y-109391602D01*
X119414067Y-109404847D01*
X119418161Y-109412506D01*
X119431774Y-109432880D01*
X119449101Y-109450207D01*
X119469476Y-109463821D01*
X119492114Y-109473198D01*
X119516148Y-109477979D01*
X119540652Y-109477979D01*
X119564685Y-109473199D01*
X119587324Y-109463821D01*
X119607698Y-109450208D01*
X119625025Y-109432881D01*
X119638639Y-109412506D01*
X119642733Y-109404847D01*
X119653602Y-109391602D01*
X119666845Y-109380734D01*
X119681957Y-109372657D01*
X119698349Y-109367684D01*
X119721541Y-109365400D01*
X120135259Y-109365400D01*
X120158451Y-109367684D01*
X120174843Y-109372657D01*
X120189955Y-109380734D01*
X120203198Y-109391602D01*
X120214067Y-109404847D01*
X120218161Y-109412506D01*
X120231774Y-109432880D01*
X120249101Y-109450207D01*
X120269476Y-109463821D01*
X120292114Y-109473198D01*
X120316148Y-109477979D01*
X120340652Y-109477979D01*
X120364685Y-109473199D01*
X120387324Y-109463821D01*
X120407698Y-109450208D01*
X120425025Y-109432881D01*
X120438639Y-109412506D01*
X120442733Y-109404847D01*
X120453602Y-109391602D01*
X120466845Y-109380734D01*
X120481957Y-109372657D01*
X120498349Y-109367684D01*
X120521541Y-109365400D01*
X120935259Y-109365400D01*
X120958451Y-109367684D01*
X120974843Y-109372657D01*
X120989955Y-109380734D01*
X121003198Y-109391602D01*
X121014067Y-109404847D01*
X121018161Y-109412506D01*
X121031774Y-109432880D01*
X121049101Y-109450207D01*
X121069476Y-109463821D01*
X121092114Y-109473198D01*
X121116148Y-109477979D01*
X121140652Y-109477979D01*
X121164685Y-109473199D01*
X121187324Y-109463821D01*
X121207698Y-109450208D01*
X121225025Y-109432881D01*
X121238639Y-109412506D01*
X121242733Y-109404847D01*
X121253602Y-109391602D01*
X121266845Y-109380734D01*
X121281957Y-109372657D01*
X121298349Y-109367684D01*
X121321541Y-109365400D01*
X121735259Y-109365400D01*
X121758451Y-109367684D01*
X121774843Y-109372657D01*
X121789955Y-109380734D01*
X121803198Y-109391602D01*
X121814066Y-109404845D01*
X121822143Y-109419957D01*
X121827116Y-109436349D01*
X121829400Y-109459541D01*
X121829400Y-110873259D01*
X121827116Y-110896451D01*
X121822143Y-110912843D01*
X121814066Y-110927955D01*
X121803198Y-110941198D01*
X121789955Y-110952066D01*
X121774843Y-110960143D01*
X121758451Y-110965116D01*
X121735259Y-110967400D01*
X121321541Y-110967400D01*
X121298349Y-110965116D01*
X121281957Y-110960143D01*
X121266845Y-110952066D01*
X121253602Y-110941198D01*
X121242733Y-110927953D01*
X121238639Y-110920294D01*
X121225026Y-110899920D01*
X121207699Y-110882593D01*
X121187324Y-110868979D01*
X121164686Y-110859602D01*
X121140652Y-110854821D01*
X121116148Y-110854821D01*
X121092115Y-110859601D01*
X121069476Y-110868979D01*
X121049102Y-110882592D01*
X121031775Y-110899919D01*
X121018161Y-110920294D01*
X121014067Y-110927953D01*
X121003198Y-110941198D01*
X120989955Y-110952066D01*
X120974843Y-110960143D01*
X120958451Y-110965116D01*
X120935259Y-110967400D01*
X120521541Y-110967400D01*
X120498349Y-110965116D01*
X120481957Y-110960143D01*
X120466845Y-110952066D01*
X120453602Y-110941198D01*
X120442733Y-110927953D01*
X120438639Y-110920294D01*
X120425026Y-110899920D01*
X120407699Y-110882593D01*
X120387324Y-110868979D01*
X120364686Y-110859602D01*
X120340652Y-110854821D01*
X120316148Y-110854821D01*
X120292115Y-110859601D01*
X120269476Y-110868979D01*
X120249102Y-110882592D01*
X120231775Y-110899919D01*
X120218161Y-110920294D01*
X120214067Y-110927953D01*
X120203198Y-110941198D01*
X120189955Y-110952066D01*
X120174843Y-110960143D01*
X120158451Y-110965116D01*
X120135259Y-110967400D01*
X119721541Y-110967400D01*
X119698349Y-110965116D01*
X119681957Y-110960143D01*
X119666845Y-110952066D01*
X119653602Y-110941198D01*
X119642733Y-110927953D01*
X119638639Y-110920294D01*
X119625026Y-110899920D01*
X119607699Y-110882593D01*
X119587324Y-110868979D01*
X119564686Y-110859602D01*
X119540652Y-110854821D01*
X119516148Y-110854821D01*
X119492115Y-110859601D01*
X119469476Y-110868979D01*
X119449102Y-110882592D01*
X119431775Y-110899919D01*
X119418161Y-110920294D01*
X119414067Y-110927953D01*
X119403198Y-110941198D01*
X119389955Y-110952066D01*
X119374843Y-110960143D01*
X119358451Y-110965116D01*
X119335259Y-110967400D01*
X118921541Y-110967400D01*
X118898349Y-110965116D01*
X118881957Y-110960143D01*
X118866845Y-110952066D01*
X118853602Y-110941198D01*
X118842733Y-110927953D01*
X118838639Y-110920294D01*
X118825026Y-110899920D01*
X118807699Y-110882593D01*
X118787324Y-110868979D01*
X118764686Y-110859602D01*
X118740652Y-110854821D01*
X118716148Y-110854821D01*
X118692115Y-110859601D01*
X118669476Y-110868979D01*
X118649102Y-110882592D01*
X118631775Y-110899919D01*
X118618161Y-110920294D01*
X118614067Y-110927953D01*
X118603198Y-110941198D01*
X118589955Y-110952066D01*
X118574843Y-110960143D01*
X118558451Y-110965116D01*
X118535259Y-110967400D01*
X118121541Y-110967400D01*
X118098349Y-110965116D01*
X118081957Y-110960143D01*
X118066845Y-110952066D01*
X118053602Y-110941198D01*
X118042733Y-110927953D01*
X118038639Y-110920294D01*
X118025026Y-110899920D01*
X118007699Y-110882593D01*
X117987324Y-110868979D01*
X117964686Y-110859602D01*
X117940652Y-110854821D01*
X117916148Y-110854821D01*
X117892115Y-110859601D01*
X117869476Y-110868979D01*
X117849102Y-110882592D01*
X117831775Y-110899919D01*
X117818161Y-110920294D01*
X117814067Y-110927953D01*
X117803198Y-110941198D01*
X117789955Y-110952066D01*
X117774843Y-110960143D01*
X117758451Y-110965116D01*
X117735259Y-110967400D01*
X117321541Y-110967400D01*
X117298349Y-110965116D01*
X117281957Y-110960143D01*
X117266845Y-110952066D01*
X117253602Y-110941198D01*
X117242733Y-110927953D01*
X117238639Y-110920294D01*
X117225026Y-110899920D01*
X117207699Y-110882593D01*
X117187324Y-110868979D01*
X117164686Y-110859602D01*
X117140652Y-110854821D01*
X117116148Y-110854821D01*
X117092115Y-110859601D01*
X117069476Y-110868979D01*
X117049102Y-110882592D01*
X117031775Y-110899919D01*
X117018161Y-110920294D01*
X117014067Y-110927953D01*
X117003198Y-110941198D01*
X116989955Y-110952066D01*
X116974843Y-110960143D01*
X116958451Y-110965116D01*
X116935259Y-110967400D01*
X116521541Y-110967400D01*
X116498349Y-110965116D01*
X116481957Y-110960143D01*
X116466845Y-110952066D01*
X116453602Y-110941198D01*
X116442733Y-110927953D01*
X116438639Y-110920294D01*
X116425026Y-110899920D01*
X116407699Y-110882593D01*
X116387324Y-110868979D01*
X116364686Y-110859602D01*
X116340652Y-110854821D01*
X116316148Y-110854821D01*
X116292115Y-110859601D01*
X116269476Y-110868979D01*
X116249102Y-110882592D01*
X116231775Y-110899919D01*
X116218161Y-110920294D01*
X116214067Y-110927953D01*
X116203198Y-110941198D01*
X116189955Y-110952066D01*
X116174843Y-110960143D01*
X116158451Y-110965116D01*
X116135259Y-110967400D01*
X115721541Y-110967400D01*
X115698349Y-110965116D01*
X115681957Y-110960143D01*
X115666845Y-110952066D01*
X115653602Y-110941198D01*
X115642734Y-110927955D01*
X115634657Y-110912843D01*
X115629684Y-110896451D01*
X115627400Y-110873259D01*
X115627400Y-109459541D01*
X115629684Y-109436349D01*
X115634657Y-109419957D01*
X115642734Y-109404845D01*
X115653602Y-109391602D01*
X115666845Y-109380734D01*
X115681957Y-109372657D01*
X115698349Y-109367684D01*
X115721541Y-109365400D01*
X116135259Y-109365400D01*
X116158451Y-109367684D01*
G37*
G36*
X110720191Y-109828885D02*
G01*
X110754169Y-109839193D01*
X110785490Y-109855934D01*
X110812939Y-109878461D01*
X110835466Y-109905910D01*
X110852207Y-109937231D01*
X110862515Y-109971209D01*
X110866600Y-110012690D01*
X110866600Y-110688910D01*
X110862515Y-110730391D01*
X110852207Y-110764369D01*
X110835466Y-110795690D01*
X110812939Y-110823139D01*
X110785490Y-110845666D01*
X110754169Y-110862407D01*
X110720191Y-110872715D01*
X110678710Y-110876800D01*
X110077490Y-110876800D01*
X110036009Y-110872715D01*
X110002031Y-110862407D01*
X109970710Y-110845666D01*
X109943261Y-110823139D01*
X109920734Y-110795690D01*
X109903993Y-110764369D01*
X109893685Y-110730391D01*
X109889600Y-110688910D01*
X109889600Y-110012690D01*
X109893685Y-109971209D01*
X109903993Y-109937231D01*
X109920734Y-109905910D01*
X109943261Y-109878461D01*
X109970710Y-109855934D01*
X110002031Y-109839193D01*
X110036009Y-109828885D01*
X110077490Y-109824800D01*
X110678710Y-109824800D01*
X110720191Y-109828885D01*
G37*
G36*
X112295191Y-109828885D02*
G01*
X112329169Y-109839193D01*
X112360490Y-109855934D01*
X112387939Y-109878461D01*
X112410466Y-109905910D01*
X112427207Y-109937231D01*
X112437515Y-109971209D01*
X112441600Y-110012690D01*
X112441600Y-110688910D01*
X112437515Y-110730391D01*
X112427207Y-110764369D01*
X112410466Y-110795690D01*
X112387939Y-110823139D01*
X112360490Y-110845666D01*
X112329169Y-110862407D01*
X112295191Y-110872715D01*
X112253710Y-110876800D01*
X111652490Y-110876800D01*
X111611009Y-110872715D01*
X111577031Y-110862407D01*
X111545710Y-110845666D01*
X111518261Y-110823139D01*
X111495734Y-110795690D01*
X111478993Y-110764369D01*
X111468685Y-110730391D01*
X111464600Y-110688910D01*
X111464600Y-110012690D01*
X111468685Y-109971209D01*
X111478993Y-109937231D01*
X111495734Y-109905910D01*
X111518261Y-109878461D01*
X111545710Y-109855934D01*
X111577031Y-109839193D01*
X111611009Y-109828885D01*
X111652490Y-109824800D01*
X112253710Y-109824800D01*
X112295191Y-109828885D01*
G37*
G36*
X114948791Y-109790085D02*
G01*
X114982769Y-109800393D01*
X115014090Y-109817134D01*
X115041539Y-109839661D01*
X115064066Y-109867110D01*
X115080807Y-109898431D01*
X115091115Y-109932409D01*
X115095200Y-109973890D01*
X115095200Y-110575110D01*
X115091115Y-110616591D01*
X115080807Y-110650569D01*
X115064066Y-110681890D01*
X115041539Y-110709339D01*
X115014090Y-110731866D01*
X114982769Y-110748607D01*
X114948791Y-110758915D01*
X114907310Y-110763000D01*
X114231090Y-110763000D01*
X114189609Y-110758915D01*
X114155631Y-110748607D01*
X114124310Y-110731866D01*
X114096861Y-110709339D01*
X114074334Y-110681890D01*
X114057593Y-110650569D01*
X114047285Y-110616591D01*
X114043200Y-110575110D01*
X114043200Y-109973890D01*
X114047285Y-109932409D01*
X114057593Y-109898431D01*
X114074334Y-109867110D01*
X114096861Y-109839661D01*
X114124310Y-109817134D01*
X114155631Y-109800393D01*
X114189609Y-109790085D01*
X114231090Y-109786000D01*
X114907310Y-109786000D01*
X114948791Y-109790085D01*
G37*
G36*
X124204591Y-109726085D02*
G01*
X124238569Y-109736393D01*
X124269890Y-109753134D01*
X124297339Y-109775661D01*
X124319866Y-109803110D01*
X124336607Y-109834431D01*
X124346915Y-109868409D01*
X124351000Y-109909890D01*
X124351000Y-110511110D01*
X124346915Y-110552591D01*
X124336607Y-110586569D01*
X124319866Y-110617890D01*
X124297339Y-110645339D01*
X124269890Y-110667866D01*
X124238569Y-110684607D01*
X124204591Y-110694915D01*
X124163110Y-110699000D01*
X123486890Y-110699000D01*
X123445409Y-110694915D01*
X123411431Y-110684607D01*
X123380110Y-110667866D01*
X123352661Y-110645339D01*
X123330134Y-110617890D01*
X123313393Y-110586569D01*
X123303085Y-110552591D01*
X123299000Y-110511110D01*
X123299000Y-109909890D01*
X123303085Y-109868409D01*
X123313393Y-109834431D01*
X123330134Y-109803110D01*
X123352661Y-109775661D01*
X123380110Y-109753134D01*
X123411431Y-109736393D01*
X123445409Y-109726085D01*
X123486890Y-109722000D01*
X124163110Y-109722000D01*
X124204591Y-109726085D01*
G37*
G36*
X127597991Y-109028285D02*
G01*
X127631969Y-109038593D01*
X127663290Y-109055334D01*
X127690739Y-109077861D01*
X127713266Y-109105310D01*
X127730007Y-109136631D01*
X127740315Y-109170609D01*
X127744400Y-109212090D01*
X127744400Y-109813310D01*
X127740315Y-109854791D01*
X127730007Y-109888769D01*
X127713266Y-109920090D01*
X127690739Y-109947539D01*
X127663290Y-109970066D01*
X127631969Y-109986807D01*
X127597991Y-109997115D01*
X127556510Y-110001200D01*
X126880290Y-110001200D01*
X126838809Y-109997115D01*
X126804831Y-109986807D01*
X126773510Y-109970066D01*
X126746061Y-109947539D01*
X126723534Y-109920090D01*
X126706793Y-109888769D01*
X126696485Y-109854791D01*
X126692400Y-109813310D01*
X126692400Y-109212090D01*
X126696485Y-109170609D01*
X126706793Y-109136631D01*
X126723534Y-109105310D01*
X126746061Y-109077861D01*
X126773510Y-109055334D01*
X126804831Y-109038593D01*
X126838809Y-109028285D01*
X126880290Y-109024200D01*
X127556510Y-109024200D01*
X127597991Y-109028285D01*
G37*
G36*
X128953921Y-108500174D02*
G01*
X129054195Y-108541709D01*
X129054196Y-108541710D01*
X129144442Y-108602010D01*
X129221190Y-108678758D01*
X129232517Y-108695710D01*
X129281491Y-108769005D01*
X129323026Y-108869279D01*
X129344200Y-108975730D01*
X129344200Y-109084270D01*
X129323026Y-109190721D01*
X129281491Y-109290995D01*
X129281490Y-109290996D01*
X129221190Y-109381242D01*
X129144442Y-109457990D01*
X129135715Y-109463821D01*
X129054195Y-109518291D01*
X128953921Y-109559826D01*
X128847470Y-109581000D01*
X128738930Y-109581000D01*
X128632479Y-109559826D01*
X128532205Y-109518291D01*
X128450685Y-109463821D01*
X128441958Y-109457990D01*
X128365210Y-109381242D01*
X128304910Y-109290996D01*
X128304909Y-109290995D01*
X128263374Y-109190721D01*
X128242200Y-109084270D01*
X128242200Y-108975730D01*
X128263374Y-108869279D01*
X128304909Y-108769005D01*
X128353883Y-108695710D01*
X128365210Y-108678758D01*
X128441958Y-108602010D01*
X128532204Y-108541710D01*
X128532205Y-108541709D01*
X128632479Y-108500174D01*
X128738930Y-108479000D01*
X128847470Y-108479000D01*
X128953921Y-108500174D01*
G37*
G36*
X115283451Y-102892684D02*
G01*
X115299843Y-102897657D01*
X115314955Y-102905734D01*
X115328198Y-102916602D01*
X115339066Y-102929845D01*
X115347143Y-102944957D01*
X115352116Y-102961349D01*
X115354400Y-102984541D01*
X115354400Y-103398259D01*
X115352116Y-103421451D01*
X115347143Y-103437843D01*
X115339066Y-103452955D01*
X115328198Y-103466198D01*
X115314953Y-103477067D01*
X115307294Y-103481161D01*
X115286920Y-103494774D01*
X115269593Y-103512101D01*
X115255979Y-103532476D01*
X115246602Y-103555114D01*
X115241821Y-103579148D01*
X115241821Y-103603652D01*
X115246601Y-103627685D01*
X115255979Y-103650324D01*
X115269592Y-103670698D01*
X115286919Y-103688025D01*
X115307294Y-103701639D01*
X115314953Y-103705733D01*
X115328198Y-103716602D01*
X115339066Y-103729845D01*
X115347143Y-103744957D01*
X115352116Y-103761349D01*
X115354400Y-103784541D01*
X115354400Y-104198259D01*
X115352116Y-104221451D01*
X115347143Y-104237843D01*
X115339066Y-104252955D01*
X115328198Y-104266198D01*
X115314953Y-104277067D01*
X115307294Y-104281161D01*
X115286920Y-104294774D01*
X115269593Y-104312101D01*
X115255979Y-104332476D01*
X115246602Y-104355114D01*
X115241821Y-104379148D01*
X115241821Y-104403652D01*
X115246601Y-104427685D01*
X115255979Y-104450324D01*
X115269592Y-104470698D01*
X115286919Y-104488025D01*
X115307294Y-104501639D01*
X115314953Y-104505733D01*
X115328198Y-104516602D01*
X115339066Y-104529845D01*
X115347143Y-104544957D01*
X115352116Y-104561349D01*
X115354400Y-104584541D01*
X115354400Y-104998259D01*
X115352116Y-105021451D01*
X115347143Y-105037843D01*
X115339066Y-105052955D01*
X115328198Y-105066198D01*
X115314953Y-105077067D01*
X115307294Y-105081161D01*
X115286920Y-105094774D01*
X115269593Y-105112101D01*
X115255979Y-105132476D01*
X115246602Y-105155114D01*
X115241821Y-105179148D01*
X115241821Y-105203652D01*
X115246601Y-105227685D01*
X115255979Y-105250324D01*
X115269592Y-105270698D01*
X115286919Y-105288025D01*
X115307294Y-105301639D01*
X115314953Y-105305733D01*
X115328198Y-105316602D01*
X115339066Y-105329845D01*
X115347143Y-105344957D01*
X115352116Y-105361349D01*
X115354400Y-105384541D01*
X115354400Y-105798259D01*
X115352116Y-105821451D01*
X115347143Y-105837843D01*
X115339066Y-105852955D01*
X115328198Y-105866198D01*
X115314953Y-105877067D01*
X115307294Y-105881161D01*
X115286920Y-105894774D01*
X115269593Y-105912101D01*
X115255979Y-105932476D01*
X115246602Y-105955114D01*
X115241821Y-105979148D01*
X115241821Y-106003652D01*
X115246601Y-106027685D01*
X115255979Y-106050324D01*
X115269592Y-106070698D01*
X115286919Y-106088025D01*
X115307294Y-106101639D01*
X115314953Y-106105733D01*
X115328198Y-106116602D01*
X115339066Y-106129845D01*
X115347143Y-106144957D01*
X115352116Y-106161349D01*
X115354400Y-106184541D01*
X115354400Y-106598259D01*
X115352116Y-106621451D01*
X115347143Y-106637843D01*
X115339066Y-106652955D01*
X115328198Y-106666198D01*
X115314953Y-106677067D01*
X115307294Y-106681161D01*
X115286920Y-106694774D01*
X115269593Y-106712101D01*
X115255979Y-106732476D01*
X115246602Y-106755114D01*
X115241821Y-106779148D01*
X115241821Y-106803652D01*
X115246601Y-106827685D01*
X115255979Y-106850324D01*
X115269592Y-106870698D01*
X115286919Y-106888025D01*
X115307294Y-106901639D01*
X115314953Y-106905733D01*
X115328198Y-106916602D01*
X115339066Y-106929845D01*
X115347143Y-106944957D01*
X115352116Y-106961349D01*
X115354400Y-106984541D01*
X115354400Y-107398259D01*
X115352116Y-107421451D01*
X115347143Y-107437843D01*
X115339066Y-107452955D01*
X115328198Y-107466198D01*
X115314953Y-107477067D01*
X115307294Y-107481161D01*
X115286920Y-107494774D01*
X115269593Y-107512101D01*
X115255979Y-107532476D01*
X115246602Y-107555114D01*
X115241821Y-107579148D01*
X115241821Y-107603652D01*
X115246601Y-107627685D01*
X115255979Y-107650324D01*
X115269592Y-107670698D01*
X115286919Y-107688025D01*
X115307294Y-107701639D01*
X115314953Y-107705733D01*
X115328198Y-107716602D01*
X115339066Y-107729845D01*
X115347143Y-107744957D01*
X115352116Y-107761349D01*
X115354400Y-107784541D01*
X115354400Y-108198259D01*
X115352116Y-108221451D01*
X115347143Y-108237843D01*
X115339066Y-108252955D01*
X115328198Y-108266198D01*
X115314953Y-108277067D01*
X115307294Y-108281161D01*
X115286920Y-108294774D01*
X115269593Y-108312101D01*
X115255979Y-108332476D01*
X115246602Y-108355114D01*
X115241821Y-108379148D01*
X115241821Y-108403652D01*
X115246601Y-108427685D01*
X115255979Y-108450324D01*
X115269592Y-108470698D01*
X115286919Y-108488025D01*
X115307294Y-108501639D01*
X115314953Y-108505733D01*
X115328198Y-108516602D01*
X115339066Y-108529845D01*
X115347143Y-108544957D01*
X115352116Y-108561349D01*
X115354400Y-108584541D01*
X115354400Y-108998259D01*
X115352116Y-109021451D01*
X115347143Y-109037843D01*
X115339066Y-109052955D01*
X115328198Y-109066198D01*
X115314955Y-109077066D01*
X115299843Y-109085143D01*
X115283451Y-109090116D01*
X115260259Y-109092400D01*
X113846541Y-109092400D01*
X113823349Y-109090116D01*
X113806957Y-109085143D01*
X113791845Y-109077066D01*
X113778602Y-109066198D01*
X113767734Y-109052955D01*
X113759657Y-109037843D01*
X113754684Y-109021451D01*
X113752400Y-108998259D01*
X113752400Y-108584541D01*
X113754684Y-108561349D01*
X113759657Y-108544957D01*
X113767734Y-108529845D01*
X113778602Y-108516602D01*
X113791847Y-108505733D01*
X113799506Y-108501639D01*
X113819880Y-108488026D01*
X113837207Y-108470699D01*
X113850821Y-108450324D01*
X113860198Y-108427686D01*
X113864979Y-108403652D01*
X113864979Y-108379148D01*
X113860199Y-108355115D01*
X113850821Y-108332476D01*
X113837208Y-108312102D01*
X113819881Y-108294775D01*
X113799506Y-108281161D01*
X113791847Y-108277067D01*
X113778602Y-108266198D01*
X113767734Y-108252955D01*
X113759657Y-108237843D01*
X113754684Y-108221451D01*
X113752400Y-108198259D01*
X113752400Y-107784541D01*
X113754684Y-107761349D01*
X113759657Y-107744957D01*
X113767734Y-107729845D01*
X113778602Y-107716602D01*
X113791847Y-107705733D01*
X113799506Y-107701639D01*
X113819880Y-107688026D01*
X113837207Y-107670699D01*
X113850821Y-107650324D01*
X113860198Y-107627686D01*
X113864979Y-107603652D01*
X113864979Y-107579148D01*
X113860199Y-107555115D01*
X113850821Y-107532476D01*
X113837208Y-107512102D01*
X113819881Y-107494775D01*
X113799506Y-107481161D01*
X113791847Y-107477067D01*
X113778602Y-107466198D01*
X113767734Y-107452955D01*
X113759657Y-107437843D01*
X113754684Y-107421451D01*
X113752400Y-107398259D01*
X113752400Y-106984541D01*
X113754684Y-106961349D01*
X113759657Y-106944957D01*
X113767734Y-106929845D01*
X113778602Y-106916602D01*
X113791847Y-106905733D01*
X113799506Y-106901639D01*
X113819880Y-106888026D01*
X113837207Y-106870699D01*
X113850821Y-106850324D01*
X113860198Y-106827686D01*
X113864979Y-106803652D01*
X113864979Y-106779148D01*
X113860199Y-106755115D01*
X113850821Y-106732476D01*
X113837208Y-106712102D01*
X113819881Y-106694775D01*
X113799506Y-106681161D01*
X113791847Y-106677067D01*
X113778602Y-106666198D01*
X113767734Y-106652955D01*
X113759657Y-106637843D01*
X113754684Y-106621451D01*
X113752400Y-106598259D01*
X113752400Y-106184541D01*
X113754684Y-106161349D01*
X113759657Y-106144957D01*
X113767734Y-106129845D01*
X113778602Y-106116602D01*
X113791847Y-106105733D01*
X113799506Y-106101639D01*
X113819880Y-106088026D01*
X113837207Y-106070699D01*
X113850821Y-106050324D01*
X113860198Y-106027686D01*
X113864979Y-106003652D01*
X113864979Y-105979148D01*
X113860199Y-105955115D01*
X113850821Y-105932476D01*
X113837208Y-105912102D01*
X113819881Y-105894775D01*
X113799506Y-105881161D01*
X113791847Y-105877067D01*
X113778602Y-105866198D01*
X113767734Y-105852955D01*
X113759657Y-105837843D01*
X113754684Y-105821451D01*
X113752400Y-105798259D01*
X113752400Y-105384541D01*
X113754684Y-105361349D01*
X113759657Y-105344957D01*
X113767734Y-105329845D01*
X113778602Y-105316602D01*
X113791847Y-105305733D01*
X113799506Y-105301639D01*
X113819880Y-105288026D01*
X113837207Y-105270699D01*
X113850821Y-105250324D01*
X113860198Y-105227686D01*
X113864979Y-105203652D01*
X113864979Y-105179148D01*
X113860199Y-105155115D01*
X113850821Y-105132476D01*
X113837208Y-105112102D01*
X113819881Y-105094775D01*
X113799506Y-105081161D01*
X113791847Y-105077067D01*
X113778602Y-105066198D01*
X113767734Y-105052955D01*
X113759657Y-105037843D01*
X113754684Y-105021451D01*
X113752400Y-104998259D01*
X113752400Y-104584541D01*
X113754684Y-104561349D01*
X113759657Y-104544957D01*
X113767734Y-104529845D01*
X113778602Y-104516602D01*
X113791847Y-104505733D01*
X113799506Y-104501639D01*
X113819880Y-104488026D01*
X113837207Y-104470699D01*
X113850821Y-104450324D01*
X113860198Y-104427686D01*
X113864979Y-104403652D01*
X113864979Y-104379148D01*
X113860199Y-104355115D01*
X113850821Y-104332476D01*
X113837208Y-104312102D01*
X113819881Y-104294775D01*
X113799506Y-104281161D01*
X113791847Y-104277067D01*
X113778602Y-104266198D01*
X113767734Y-104252955D01*
X113759657Y-104237843D01*
X113754684Y-104221451D01*
X113752400Y-104198259D01*
X113752400Y-103784541D01*
X113754684Y-103761349D01*
X113759657Y-103744957D01*
X113767734Y-103729845D01*
X113778602Y-103716602D01*
X113791847Y-103705733D01*
X113799506Y-103701639D01*
X113819880Y-103688026D01*
X113837207Y-103670699D01*
X113850821Y-103650324D01*
X113860198Y-103627686D01*
X113864979Y-103603652D01*
X113864979Y-103579148D01*
X113860199Y-103555115D01*
X113850821Y-103532476D01*
X113837208Y-103512102D01*
X113819881Y-103494775D01*
X113799506Y-103481161D01*
X113791847Y-103477067D01*
X113778602Y-103466198D01*
X113767734Y-103452955D01*
X113759657Y-103437843D01*
X113754684Y-103421451D01*
X113752400Y-103398259D01*
X113752400Y-102984541D01*
X113754684Y-102961349D01*
X113759657Y-102944957D01*
X113767734Y-102929845D01*
X113778602Y-102916602D01*
X113791845Y-102905734D01*
X113806957Y-102897657D01*
X113823349Y-102892684D01*
X113846541Y-102890400D01*
X115260259Y-102890400D01*
X115283451Y-102892684D01*
G37*
G36*
X123633451Y-102892684D02*
G01*
X123649843Y-102897657D01*
X123664955Y-102905734D01*
X123678198Y-102916602D01*
X123689066Y-102929845D01*
X123697143Y-102944957D01*
X123702116Y-102961349D01*
X123704400Y-102984541D01*
X123704400Y-103398259D01*
X123702116Y-103421451D01*
X123697143Y-103437843D01*
X123689066Y-103452955D01*
X123678198Y-103466198D01*
X123664953Y-103477067D01*
X123657294Y-103481161D01*
X123636920Y-103494774D01*
X123619593Y-103512101D01*
X123605979Y-103532476D01*
X123596602Y-103555114D01*
X123591821Y-103579148D01*
X123591821Y-103603652D01*
X123596601Y-103627685D01*
X123605979Y-103650324D01*
X123619592Y-103670698D01*
X123636919Y-103688025D01*
X123657294Y-103701639D01*
X123664953Y-103705733D01*
X123678198Y-103716602D01*
X123689066Y-103729845D01*
X123697143Y-103744957D01*
X123702116Y-103761349D01*
X123704400Y-103784541D01*
X123704400Y-104198259D01*
X123702116Y-104221451D01*
X123697143Y-104237843D01*
X123689066Y-104252955D01*
X123678198Y-104266198D01*
X123664953Y-104277067D01*
X123657294Y-104281161D01*
X123636920Y-104294774D01*
X123619593Y-104312101D01*
X123605979Y-104332476D01*
X123596602Y-104355114D01*
X123591821Y-104379148D01*
X123591821Y-104403652D01*
X123596601Y-104427685D01*
X123605979Y-104450324D01*
X123619592Y-104470698D01*
X123636919Y-104488025D01*
X123657294Y-104501639D01*
X123664953Y-104505733D01*
X123678198Y-104516602D01*
X123689066Y-104529845D01*
X123697143Y-104544957D01*
X123702116Y-104561349D01*
X123704400Y-104584541D01*
X123704400Y-104998259D01*
X123702116Y-105021451D01*
X123697143Y-105037843D01*
X123689066Y-105052955D01*
X123678198Y-105066198D01*
X123664953Y-105077067D01*
X123657294Y-105081161D01*
X123636920Y-105094774D01*
X123619593Y-105112101D01*
X123605979Y-105132476D01*
X123596602Y-105155114D01*
X123591821Y-105179148D01*
X123591821Y-105203652D01*
X123596601Y-105227685D01*
X123605979Y-105250324D01*
X123619592Y-105270698D01*
X123636919Y-105288025D01*
X123657294Y-105301639D01*
X123664953Y-105305733D01*
X123678198Y-105316602D01*
X123689066Y-105329845D01*
X123697143Y-105344957D01*
X123702116Y-105361349D01*
X123704400Y-105384541D01*
X123704400Y-105798259D01*
X123702116Y-105821451D01*
X123697143Y-105837843D01*
X123689066Y-105852955D01*
X123678198Y-105866198D01*
X123664953Y-105877067D01*
X123657294Y-105881161D01*
X123636920Y-105894774D01*
X123619593Y-105912101D01*
X123605979Y-105932476D01*
X123596602Y-105955114D01*
X123591821Y-105979148D01*
X123591821Y-106003652D01*
X123596601Y-106027685D01*
X123605979Y-106050324D01*
X123619592Y-106070698D01*
X123636919Y-106088025D01*
X123657294Y-106101639D01*
X123664953Y-106105733D01*
X123678198Y-106116602D01*
X123689066Y-106129845D01*
X123697143Y-106144957D01*
X123702116Y-106161349D01*
X123704400Y-106184541D01*
X123704400Y-106598259D01*
X123702116Y-106621451D01*
X123697143Y-106637843D01*
X123689066Y-106652955D01*
X123678198Y-106666198D01*
X123664953Y-106677067D01*
X123657294Y-106681161D01*
X123636920Y-106694774D01*
X123619593Y-106712101D01*
X123605979Y-106732476D01*
X123596602Y-106755114D01*
X123591821Y-106779148D01*
X123591821Y-106803652D01*
X123596601Y-106827685D01*
X123605979Y-106850324D01*
X123619592Y-106870698D01*
X123636919Y-106888025D01*
X123657294Y-106901639D01*
X123664953Y-106905733D01*
X123678198Y-106916602D01*
X123689066Y-106929845D01*
X123697143Y-106944957D01*
X123702116Y-106961349D01*
X123704400Y-106984541D01*
X123704400Y-107398259D01*
X123702116Y-107421451D01*
X123697143Y-107437843D01*
X123689066Y-107452955D01*
X123678198Y-107466198D01*
X123664953Y-107477067D01*
X123657294Y-107481161D01*
X123636920Y-107494774D01*
X123619593Y-107512101D01*
X123605979Y-107532476D01*
X123596602Y-107555114D01*
X123591821Y-107579148D01*
X123591821Y-107603652D01*
X123596601Y-107627685D01*
X123605979Y-107650324D01*
X123619592Y-107670698D01*
X123636919Y-107688025D01*
X123657294Y-107701639D01*
X123664953Y-107705733D01*
X123678198Y-107716602D01*
X123689066Y-107729845D01*
X123697143Y-107744957D01*
X123702116Y-107761349D01*
X123704400Y-107784541D01*
X123704400Y-108198259D01*
X123702116Y-108221451D01*
X123697143Y-108237843D01*
X123689066Y-108252955D01*
X123678198Y-108266198D01*
X123664953Y-108277067D01*
X123657294Y-108281161D01*
X123636920Y-108294774D01*
X123619593Y-108312101D01*
X123605979Y-108332476D01*
X123596602Y-108355114D01*
X123591821Y-108379148D01*
X123591821Y-108403652D01*
X123596601Y-108427685D01*
X123605979Y-108450324D01*
X123619592Y-108470698D01*
X123636919Y-108488025D01*
X123657294Y-108501639D01*
X123664953Y-108505733D01*
X123678198Y-108516602D01*
X123689066Y-108529845D01*
X123697143Y-108544957D01*
X123702116Y-108561349D01*
X123704400Y-108584541D01*
X123704400Y-108998259D01*
X123702116Y-109021451D01*
X123697143Y-109037843D01*
X123689066Y-109052955D01*
X123678198Y-109066198D01*
X123664955Y-109077066D01*
X123649843Y-109085143D01*
X123633451Y-109090116D01*
X123610259Y-109092400D01*
X122196541Y-109092400D01*
X122173349Y-109090116D01*
X122156957Y-109085143D01*
X122141845Y-109077066D01*
X122128602Y-109066198D01*
X122117734Y-109052955D01*
X122109657Y-109037843D01*
X122104684Y-109021451D01*
X122102400Y-108998259D01*
X122102400Y-108584541D01*
X122104684Y-108561349D01*
X122109657Y-108544957D01*
X122117734Y-108529845D01*
X122128602Y-108516602D01*
X122141847Y-108505733D01*
X122149506Y-108501639D01*
X122169880Y-108488026D01*
X122187207Y-108470699D01*
X122200821Y-108450324D01*
X122210198Y-108427686D01*
X122214979Y-108403652D01*
X122214979Y-108379148D01*
X122210199Y-108355115D01*
X122200821Y-108332476D01*
X122187208Y-108312102D01*
X122169881Y-108294775D01*
X122149506Y-108281161D01*
X122141847Y-108277067D01*
X122128602Y-108266198D01*
X122117734Y-108252955D01*
X122109657Y-108237843D01*
X122104684Y-108221451D01*
X122102400Y-108198259D01*
X122102400Y-107784541D01*
X122104684Y-107761349D01*
X122109657Y-107744957D01*
X122117734Y-107729845D01*
X122128602Y-107716602D01*
X122141847Y-107705733D01*
X122149506Y-107701639D01*
X122169880Y-107688026D01*
X122187207Y-107670699D01*
X122200821Y-107650324D01*
X122210198Y-107627686D01*
X122214979Y-107603652D01*
X122214979Y-107579148D01*
X122210199Y-107555115D01*
X122200821Y-107532476D01*
X122187208Y-107512102D01*
X122169881Y-107494775D01*
X122149506Y-107481161D01*
X122141847Y-107477067D01*
X122128602Y-107466198D01*
X122117734Y-107452955D01*
X122109657Y-107437843D01*
X122104684Y-107421451D01*
X122102400Y-107398259D01*
X122102400Y-106984541D01*
X122104684Y-106961349D01*
X122109657Y-106944957D01*
X122117734Y-106929845D01*
X122128602Y-106916602D01*
X122141847Y-106905733D01*
X122149506Y-106901639D01*
X122169880Y-106888026D01*
X122187207Y-106870699D01*
X122200821Y-106850324D01*
X122210198Y-106827686D01*
X122214979Y-106803652D01*
X122214979Y-106779148D01*
X122210199Y-106755115D01*
X122200821Y-106732476D01*
X122187208Y-106712102D01*
X122169881Y-106694775D01*
X122149506Y-106681161D01*
X122141847Y-106677067D01*
X122128602Y-106666198D01*
X122117734Y-106652955D01*
X122109657Y-106637843D01*
X122104684Y-106621451D01*
X122102400Y-106598259D01*
X122102400Y-106184541D01*
X122104684Y-106161349D01*
X122109657Y-106144957D01*
X122117734Y-106129845D01*
X122128602Y-106116602D01*
X122141847Y-106105733D01*
X122149506Y-106101639D01*
X122169880Y-106088026D01*
X122187207Y-106070699D01*
X122200821Y-106050324D01*
X122210198Y-106027686D01*
X122214979Y-106003652D01*
X122214979Y-105979148D01*
X122210199Y-105955115D01*
X122200821Y-105932476D01*
X122187208Y-105912102D01*
X122169881Y-105894775D01*
X122149506Y-105881161D01*
X122141847Y-105877067D01*
X122128602Y-105866198D01*
X122117734Y-105852955D01*
X122109657Y-105837843D01*
X122104684Y-105821451D01*
X122102400Y-105798259D01*
X122102400Y-105384541D01*
X122104684Y-105361349D01*
X122109657Y-105344957D01*
X122117734Y-105329845D01*
X122128602Y-105316602D01*
X122141847Y-105305733D01*
X122149506Y-105301639D01*
X122169880Y-105288026D01*
X122187207Y-105270699D01*
X122200821Y-105250324D01*
X122210198Y-105227686D01*
X122214979Y-105203652D01*
X122214979Y-105179148D01*
X122210199Y-105155115D01*
X122200821Y-105132476D01*
X122187208Y-105112102D01*
X122169881Y-105094775D01*
X122149506Y-105081161D01*
X122141847Y-105077067D01*
X122128602Y-105066198D01*
X122117734Y-105052955D01*
X122109657Y-105037843D01*
X122104684Y-105021451D01*
X122102400Y-104998259D01*
X122102400Y-104584541D01*
X122104684Y-104561349D01*
X122109657Y-104544957D01*
X122117734Y-104529845D01*
X122128602Y-104516602D01*
X122141847Y-104505733D01*
X122149506Y-104501639D01*
X122169880Y-104488026D01*
X122187207Y-104470699D01*
X122200821Y-104450324D01*
X122210198Y-104427686D01*
X122214979Y-104403652D01*
X122214979Y-104379148D01*
X122210199Y-104355115D01*
X122200821Y-104332476D01*
X122187208Y-104312102D01*
X122169881Y-104294775D01*
X122149506Y-104281161D01*
X122141847Y-104277067D01*
X122128602Y-104266198D01*
X122117734Y-104252955D01*
X122109657Y-104237843D01*
X122104684Y-104221451D01*
X122102400Y-104198259D01*
X122102400Y-103784541D01*
X122104684Y-103761349D01*
X122109657Y-103744957D01*
X122117734Y-103729845D01*
X122128602Y-103716602D01*
X122141847Y-103705733D01*
X122149506Y-103701639D01*
X122169880Y-103688026D01*
X122187207Y-103670699D01*
X122200821Y-103650324D01*
X122210198Y-103627686D01*
X122214979Y-103603652D01*
X122214979Y-103579148D01*
X122210199Y-103555115D01*
X122200821Y-103532476D01*
X122187208Y-103512102D01*
X122169881Y-103494775D01*
X122149506Y-103481161D01*
X122141847Y-103477067D01*
X122128602Y-103466198D01*
X122117734Y-103452955D01*
X122109657Y-103437843D01*
X122104684Y-103421451D01*
X122102400Y-103398259D01*
X122102400Y-102984541D01*
X122104684Y-102961349D01*
X122109657Y-102944957D01*
X122117734Y-102929845D01*
X122128602Y-102916602D01*
X122141845Y-102905734D01*
X122156957Y-102897657D01*
X122173349Y-102892684D01*
X122196541Y-102890400D01*
X123610259Y-102890400D01*
X123633451Y-102892684D01*
G37*
G36*
X126277191Y-107910685D02*
G01*
X126311169Y-107920993D01*
X126342490Y-107937734D01*
X126369939Y-107960261D01*
X126392466Y-107987710D01*
X126409207Y-108019031D01*
X126419515Y-108053009D01*
X126423600Y-108094490D01*
X126423600Y-108695710D01*
X126419515Y-108737191D01*
X126409207Y-108771169D01*
X126392466Y-108802490D01*
X126369939Y-108829939D01*
X126342490Y-108852466D01*
X126311169Y-108869207D01*
X126277191Y-108879515D01*
X126235710Y-108883600D01*
X125559490Y-108883600D01*
X125518009Y-108879515D01*
X125484031Y-108869207D01*
X125452710Y-108852466D01*
X125425261Y-108829939D01*
X125402734Y-108802490D01*
X125385993Y-108771169D01*
X125375685Y-108737191D01*
X125371600Y-108695710D01*
X125371600Y-108094490D01*
X125375685Y-108053009D01*
X125385993Y-108019031D01*
X125402734Y-107987710D01*
X125425261Y-107960261D01*
X125452710Y-107937734D01*
X125484031Y-107920993D01*
X125518009Y-107910685D01*
X125559490Y-107906600D01*
X126235710Y-107906600D01*
X126277191Y-107910685D01*
G37*
G36*
X127597991Y-107453285D02*
G01*
X127631969Y-107463593D01*
X127663290Y-107480334D01*
X127690739Y-107502861D01*
X127713266Y-107530310D01*
X127730007Y-107561631D01*
X127740315Y-107595609D01*
X127744400Y-107637090D01*
X127744400Y-108238310D01*
X127740315Y-108279791D01*
X127730007Y-108313769D01*
X127713266Y-108345090D01*
X127690739Y-108372539D01*
X127663290Y-108395066D01*
X127631969Y-108411807D01*
X127597991Y-108422115D01*
X127556510Y-108426200D01*
X126880290Y-108426200D01*
X126838809Y-108422115D01*
X126804831Y-108411807D01*
X126773510Y-108395066D01*
X126746061Y-108372539D01*
X126723534Y-108345090D01*
X126706793Y-108313769D01*
X126696485Y-108279791D01*
X126692400Y-108238310D01*
X126692400Y-107637090D01*
X126696485Y-107595609D01*
X126706793Y-107561631D01*
X126723534Y-107530310D01*
X126746061Y-107502861D01*
X126773510Y-107480334D01*
X126804831Y-107463593D01*
X126838809Y-107453285D01*
X126880290Y-107449200D01*
X127556510Y-107449200D01*
X127597991Y-107453285D01*
G37*
G36*
X129004721Y-106874574D02*
G01*
X129104995Y-106916109D01*
X129125552Y-106929845D01*
X129195242Y-106976410D01*
X129271990Y-107053158D01*
X129302345Y-107098588D01*
X129332291Y-107143405D01*
X129373826Y-107243679D01*
X129395000Y-107350130D01*
X129395000Y-107458670D01*
X129373826Y-107565121D01*
X129332291Y-107665395D01*
X129328747Y-107670699D01*
X129271990Y-107755642D01*
X129195242Y-107832390D01*
X129149812Y-107862745D01*
X129104995Y-107892691D01*
X129004721Y-107934226D01*
X128898270Y-107955400D01*
X128789730Y-107955400D01*
X128683279Y-107934226D01*
X128583005Y-107892691D01*
X128538188Y-107862745D01*
X128492758Y-107832390D01*
X128416010Y-107755642D01*
X128359253Y-107670699D01*
X128355709Y-107665395D01*
X128314174Y-107565121D01*
X128293000Y-107458670D01*
X128293000Y-107350130D01*
X128314174Y-107243679D01*
X128355709Y-107143405D01*
X128385655Y-107098588D01*
X128416010Y-107053158D01*
X128492758Y-106976410D01*
X128562448Y-106929845D01*
X128583005Y-106916109D01*
X128683279Y-106874574D01*
X128789730Y-106853400D01*
X128898270Y-106853400D01*
X129004721Y-106874574D01*
G37*
G36*
X126277191Y-106335685D02*
G01*
X126311169Y-106345993D01*
X126342490Y-106362734D01*
X126369939Y-106385261D01*
X126392466Y-106412710D01*
X126409207Y-106444031D01*
X126419515Y-106478009D01*
X126423600Y-106519490D01*
X126423600Y-107120710D01*
X126419515Y-107162191D01*
X126409207Y-107196169D01*
X126392466Y-107227490D01*
X126369939Y-107254939D01*
X126342490Y-107277466D01*
X126311169Y-107294207D01*
X126277191Y-107304515D01*
X126235710Y-107308600D01*
X125559490Y-107308600D01*
X125518009Y-107304515D01*
X125484031Y-107294207D01*
X125452710Y-107277466D01*
X125425261Y-107254939D01*
X125402734Y-107227490D01*
X125385993Y-107196169D01*
X125375685Y-107162191D01*
X125371600Y-107120710D01*
X125371600Y-106519490D01*
X125375685Y-106478009D01*
X125385993Y-106444031D01*
X125402734Y-106412710D01*
X125425261Y-106385261D01*
X125452710Y-106362734D01*
X125484031Y-106345993D01*
X125518009Y-106335685D01*
X125559490Y-106331600D01*
X126235710Y-106331600D01*
X126277191Y-106335685D01*
G37*
G36*
X110310321Y-106112574D02*
G01*
X110410595Y-106154109D01*
X110410596Y-106154110D01*
X110500842Y-106214410D01*
X110577590Y-106291158D01*
X110577591Y-106291160D01*
X110637891Y-106381405D01*
X110679426Y-106481679D01*
X110700600Y-106588130D01*
X110700600Y-106696670D01*
X110679426Y-106803121D01*
X110637891Y-106903395D01*
X110610120Y-106944957D01*
X110577590Y-106993642D01*
X110500842Y-107070390D01*
X110455412Y-107100745D01*
X110410595Y-107130691D01*
X110310321Y-107172226D01*
X110203870Y-107193400D01*
X110095330Y-107193400D01*
X109988879Y-107172226D01*
X109888605Y-107130691D01*
X109843788Y-107100745D01*
X109798358Y-107070390D01*
X109721610Y-106993642D01*
X109689080Y-106944957D01*
X109661309Y-106903395D01*
X109619774Y-106803121D01*
X109598600Y-106696670D01*
X109598600Y-106588130D01*
X109619774Y-106481679D01*
X109661309Y-106381405D01*
X109721609Y-106291160D01*
X109721610Y-106291158D01*
X109798358Y-106214410D01*
X109888604Y-106154110D01*
X109888605Y-106154109D01*
X109988879Y-106112574D01*
X110095330Y-106091400D01*
X110203870Y-106091400D01*
X110310321Y-106112574D01*
G37*
G36*
X110310321Y-104537774D02*
G01*
X110410595Y-104579309D01*
X110418425Y-104584541D01*
X110500842Y-104639610D01*
X110577590Y-104716358D01*
X110577591Y-104716360D01*
X110637891Y-104806605D01*
X110679426Y-104906879D01*
X110700600Y-105013330D01*
X110700600Y-105121870D01*
X110679426Y-105228321D01*
X110637891Y-105328595D01*
X110616005Y-105361349D01*
X110577590Y-105418842D01*
X110500842Y-105495590D01*
X110455412Y-105525945D01*
X110410595Y-105555891D01*
X110310321Y-105597426D01*
X110203870Y-105618600D01*
X110095330Y-105618600D01*
X109988879Y-105597426D01*
X109888605Y-105555891D01*
X109843788Y-105525945D01*
X109798358Y-105495590D01*
X109721610Y-105418842D01*
X109683195Y-105361349D01*
X109661309Y-105328595D01*
X109619774Y-105228321D01*
X109598600Y-105121870D01*
X109598600Y-105013330D01*
X109619774Y-104906879D01*
X109661309Y-104806605D01*
X109721609Y-104716360D01*
X109721610Y-104716358D01*
X109798358Y-104639610D01*
X109880775Y-104584541D01*
X109888605Y-104579309D01*
X109988879Y-104537774D01*
X110095330Y-104516600D01*
X110203870Y-104516600D01*
X110310321Y-104537774D01*
G37*
G36*
X125096591Y-103478885D02*
G01*
X125130569Y-103489193D01*
X125161890Y-103505934D01*
X125189339Y-103528461D01*
X125211866Y-103555910D01*
X125228607Y-103587231D01*
X125238915Y-103621209D01*
X125243000Y-103662690D01*
X125243000Y-104338910D01*
X125238915Y-104380391D01*
X125228607Y-104414369D01*
X125211866Y-104445690D01*
X125189339Y-104473139D01*
X125161890Y-104495666D01*
X125130569Y-104512407D01*
X125096591Y-104522715D01*
X125055110Y-104526800D01*
X124453890Y-104526800D01*
X124412409Y-104522715D01*
X124378431Y-104512407D01*
X124347110Y-104495666D01*
X124319661Y-104473139D01*
X124297134Y-104445690D01*
X124280393Y-104414369D01*
X124270085Y-104380391D01*
X124266000Y-104338910D01*
X124266000Y-103662690D01*
X124270085Y-103621209D01*
X124280393Y-103587231D01*
X124297134Y-103555910D01*
X124319661Y-103528461D01*
X124347110Y-103505934D01*
X124378431Y-103489193D01*
X124412409Y-103478885D01*
X124453890Y-103474800D01*
X125055110Y-103474800D01*
X125096591Y-103478885D01*
G37*
G36*
X126671591Y-103478885D02*
G01*
X126705569Y-103489193D01*
X126736890Y-103505934D01*
X126764339Y-103528461D01*
X126786866Y-103555910D01*
X126803607Y-103587231D01*
X126813915Y-103621209D01*
X126818000Y-103662690D01*
X126818000Y-104338910D01*
X126813915Y-104380391D01*
X126803607Y-104414369D01*
X126786866Y-104445690D01*
X126764339Y-104473139D01*
X126736890Y-104495666D01*
X126705569Y-104512407D01*
X126671591Y-104522715D01*
X126630110Y-104526800D01*
X126028890Y-104526800D01*
X125987409Y-104522715D01*
X125953431Y-104512407D01*
X125922110Y-104495666D01*
X125894661Y-104473139D01*
X125872134Y-104445690D01*
X125855393Y-104414369D01*
X125845085Y-104380391D01*
X125841000Y-104338910D01*
X125841000Y-103662690D01*
X125845085Y-103621209D01*
X125855393Y-103587231D01*
X125872134Y-103555910D01*
X125894661Y-103528461D01*
X125922110Y-103505934D01*
X125953431Y-103489193D01*
X125987409Y-103478885D01*
X126028890Y-103474800D01*
X126630110Y-103474800D01*
X126671591Y-103478885D01*
G37*
G36*
X110415391Y-102767685D02*
G01*
X110449369Y-102777993D01*
X110480690Y-102794734D01*
X110508139Y-102817261D01*
X110530666Y-102844710D01*
X110547407Y-102876031D01*
X110557715Y-102910009D01*
X110561800Y-102951490D01*
X110561800Y-103627710D01*
X110557715Y-103669191D01*
X110547407Y-103703169D01*
X110530666Y-103734490D01*
X110508139Y-103761939D01*
X110480690Y-103784466D01*
X110449369Y-103801207D01*
X110415391Y-103811515D01*
X110373910Y-103815600D01*
X109772690Y-103815600D01*
X109731209Y-103811515D01*
X109697231Y-103801207D01*
X109665910Y-103784466D01*
X109638461Y-103761939D01*
X109615934Y-103734490D01*
X109599193Y-103703169D01*
X109588885Y-103669191D01*
X109584800Y-103627710D01*
X109584800Y-102951490D01*
X109588885Y-102910009D01*
X109599193Y-102876031D01*
X109615934Y-102844710D01*
X109638461Y-102817261D01*
X109665910Y-102794734D01*
X109697231Y-102777993D01*
X109731209Y-102767685D01*
X109772690Y-102763600D01*
X110373910Y-102763600D01*
X110415391Y-102767685D01*
G37*
G36*
X111990391Y-102767685D02*
G01*
X112024369Y-102777993D01*
X112055690Y-102794734D01*
X112083139Y-102817261D01*
X112105666Y-102844710D01*
X112122407Y-102876031D01*
X112132715Y-102910009D01*
X112136800Y-102951490D01*
X112136800Y-103627710D01*
X112132715Y-103669191D01*
X112122407Y-103703169D01*
X112105666Y-103734490D01*
X112083139Y-103761939D01*
X112055690Y-103784466D01*
X112024369Y-103801207D01*
X111990391Y-103811515D01*
X111948910Y-103815600D01*
X111347690Y-103815600D01*
X111306209Y-103811515D01*
X111272231Y-103801207D01*
X111240910Y-103784466D01*
X111213461Y-103761939D01*
X111190934Y-103734490D01*
X111174193Y-103703169D01*
X111163885Y-103669191D01*
X111159800Y-103627710D01*
X111159800Y-102951490D01*
X111163885Y-102910009D01*
X111174193Y-102876031D01*
X111190934Y-102844710D01*
X111213461Y-102817261D01*
X111240910Y-102794734D01*
X111272231Y-102777993D01*
X111306209Y-102767685D01*
X111347690Y-102763600D01*
X111948910Y-102763600D01*
X111990391Y-102767685D01*
G37*
G36*
X116158451Y-101017684D02*
G01*
X116174843Y-101022657D01*
X116189955Y-101030734D01*
X116203198Y-101041602D01*
X116214067Y-101054847D01*
X116218161Y-101062506D01*
X116231774Y-101082880D01*
X116249101Y-101100207D01*
X116269476Y-101113821D01*
X116292114Y-101123198D01*
X116316148Y-101127979D01*
X116340652Y-101127979D01*
X116364685Y-101123199D01*
X116387324Y-101113821D01*
X116407698Y-101100208D01*
X116425025Y-101082881D01*
X116438639Y-101062506D01*
X116442733Y-101054847D01*
X116453602Y-101041602D01*
X116466845Y-101030734D01*
X116481957Y-101022657D01*
X116498349Y-101017684D01*
X116521541Y-101015400D01*
X116935259Y-101015400D01*
X116958451Y-101017684D01*
X116974843Y-101022657D01*
X116989955Y-101030734D01*
X117003198Y-101041602D01*
X117014067Y-101054847D01*
X117018161Y-101062506D01*
X117031774Y-101082880D01*
X117049101Y-101100207D01*
X117069476Y-101113821D01*
X117092114Y-101123198D01*
X117116148Y-101127979D01*
X117140652Y-101127979D01*
X117164685Y-101123199D01*
X117187324Y-101113821D01*
X117207698Y-101100208D01*
X117225025Y-101082881D01*
X117238639Y-101062506D01*
X117242733Y-101054847D01*
X117253602Y-101041602D01*
X117266845Y-101030734D01*
X117281957Y-101022657D01*
X117298349Y-101017684D01*
X117321541Y-101015400D01*
X117735259Y-101015400D01*
X117758451Y-101017684D01*
X117774843Y-101022657D01*
X117789955Y-101030734D01*
X117803198Y-101041602D01*
X117814067Y-101054847D01*
X117818161Y-101062506D01*
X117831774Y-101082880D01*
X117849101Y-101100207D01*
X117869476Y-101113821D01*
X117892114Y-101123198D01*
X117916148Y-101127979D01*
X117940652Y-101127979D01*
X117964685Y-101123199D01*
X117987324Y-101113821D01*
X118007698Y-101100208D01*
X118025025Y-101082881D01*
X118038639Y-101062506D01*
X118042733Y-101054847D01*
X118053602Y-101041602D01*
X118066845Y-101030734D01*
X118081957Y-101022657D01*
X118098349Y-101017684D01*
X118121541Y-101015400D01*
X118535259Y-101015400D01*
X118558451Y-101017684D01*
X118574843Y-101022657D01*
X118589955Y-101030734D01*
X118603198Y-101041602D01*
X118614067Y-101054847D01*
X118618161Y-101062506D01*
X118631774Y-101082880D01*
X118649101Y-101100207D01*
X118669476Y-101113821D01*
X118692114Y-101123198D01*
X118716148Y-101127979D01*
X118740652Y-101127979D01*
X118764685Y-101123199D01*
X118787324Y-101113821D01*
X118807698Y-101100208D01*
X118825025Y-101082881D01*
X118838639Y-101062506D01*
X118842733Y-101054847D01*
X118853602Y-101041602D01*
X118866845Y-101030734D01*
X118881957Y-101022657D01*
X118898349Y-101017684D01*
X118921541Y-101015400D01*
X119335259Y-101015400D01*
X119358451Y-101017684D01*
X119374843Y-101022657D01*
X119389955Y-101030734D01*
X119403198Y-101041602D01*
X119414067Y-101054847D01*
X119418161Y-101062506D01*
X119431774Y-101082880D01*
X119449101Y-101100207D01*
X119469476Y-101113821D01*
X119492114Y-101123198D01*
X119516148Y-101127979D01*
X119540652Y-101127979D01*
X119564685Y-101123199D01*
X119587324Y-101113821D01*
X119607698Y-101100208D01*
X119625025Y-101082881D01*
X119638639Y-101062506D01*
X119642733Y-101054847D01*
X119653602Y-101041602D01*
X119666845Y-101030734D01*
X119681957Y-101022657D01*
X119698349Y-101017684D01*
X119721541Y-101015400D01*
X120135259Y-101015400D01*
X120158451Y-101017684D01*
X120174843Y-101022657D01*
X120189955Y-101030734D01*
X120203198Y-101041602D01*
X120214067Y-101054847D01*
X120218161Y-101062506D01*
X120231774Y-101082880D01*
X120249101Y-101100207D01*
X120269476Y-101113821D01*
X120292114Y-101123198D01*
X120316148Y-101127979D01*
X120340652Y-101127979D01*
X120364685Y-101123199D01*
X120387324Y-101113821D01*
X120407698Y-101100208D01*
X120425025Y-101082881D01*
X120438639Y-101062506D01*
X120442733Y-101054847D01*
X120453602Y-101041602D01*
X120466845Y-101030734D01*
X120481957Y-101022657D01*
X120498349Y-101017684D01*
X120521541Y-101015400D01*
X120935259Y-101015400D01*
X120958451Y-101017684D01*
X120974843Y-101022657D01*
X120989955Y-101030734D01*
X121003198Y-101041602D01*
X121014067Y-101054847D01*
X121018161Y-101062506D01*
X121031774Y-101082880D01*
X121049101Y-101100207D01*
X121069476Y-101113821D01*
X121092114Y-101123198D01*
X121116148Y-101127979D01*
X121140652Y-101127979D01*
X121164685Y-101123199D01*
X121187324Y-101113821D01*
X121207698Y-101100208D01*
X121225025Y-101082881D01*
X121238639Y-101062506D01*
X121242733Y-101054847D01*
X121253602Y-101041602D01*
X121266845Y-101030734D01*
X121281957Y-101022657D01*
X121298349Y-101017684D01*
X121321541Y-101015400D01*
X121735259Y-101015400D01*
X121758451Y-101017684D01*
X121774843Y-101022657D01*
X121789955Y-101030734D01*
X121803198Y-101041602D01*
X121814066Y-101054845D01*
X121822143Y-101069957D01*
X121827116Y-101086349D01*
X121829400Y-101109541D01*
X121829400Y-102523259D01*
X121827116Y-102546451D01*
X121822143Y-102562843D01*
X121814066Y-102577955D01*
X121803198Y-102591198D01*
X121789955Y-102602066D01*
X121774843Y-102610143D01*
X121758451Y-102615116D01*
X121735259Y-102617400D01*
X121321541Y-102617400D01*
X121298349Y-102615116D01*
X121281957Y-102610143D01*
X121266845Y-102602066D01*
X121253602Y-102591198D01*
X121242733Y-102577953D01*
X121238639Y-102570294D01*
X121225026Y-102549920D01*
X121207699Y-102532593D01*
X121187324Y-102518979D01*
X121164686Y-102509602D01*
X121140652Y-102504821D01*
X121116148Y-102504821D01*
X121092115Y-102509601D01*
X121069476Y-102518979D01*
X121049102Y-102532592D01*
X121031775Y-102549919D01*
X121018161Y-102570294D01*
X121014067Y-102577953D01*
X121003198Y-102591198D01*
X120989955Y-102602066D01*
X120974843Y-102610143D01*
X120958451Y-102615116D01*
X120935259Y-102617400D01*
X120521541Y-102617400D01*
X120498349Y-102615116D01*
X120481957Y-102610143D01*
X120466845Y-102602066D01*
X120453602Y-102591198D01*
X120442733Y-102577953D01*
X120438639Y-102570294D01*
X120425026Y-102549920D01*
X120407699Y-102532593D01*
X120387324Y-102518979D01*
X120364686Y-102509602D01*
X120340652Y-102504821D01*
X120316148Y-102504821D01*
X120292115Y-102509601D01*
X120269476Y-102518979D01*
X120249102Y-102532592D01*
X120231775Y-102549919D01*
X120218161Y-102570294D01*
X120214067Y-102577953D01*
X120203198Y-102591198D01*
X120189955Y-102602066D01*
X120174843Y-102610143D01*
X120158451Y-102615116D01*
X120135259Y-102617400D01*
X119721541Y-102617400D01*
X119698349Y-102615116D01*
X119681957Y-102610143D01*
X119666845Y-102602066D01*
X119653602Y-102591198D01*
X119642733Y-102577953D01*
X119638639Y-102570294D01*
X119625026Y-102549920D01*
X119607699Y-102532593D01*
X119587324Y-102518979D01*
X119564686Y-102509602D01*
X119540652Y-102504821D01*
X119516148Y-102504821D01*
X119492115Y-102509601D01*
X119469476Y-102518979D01*
X119449102Y-102532592D01*
X119431775Y-102549919D01*
X119418161Y-102570294D01*
X119414067Y-102577953D01*
X119403198Y-102591198D01*
X119389955Y-102602066D01*
X119374843Y-102610143D01*
X119358451Y-102615116D01*
X119335259Y-102617400D01*
X118921541Y-102617400D01*
X118898349Y-102615116D01*
X118881957Y-102610143D01*
X118866845Y-102602066D01*
X118853602Y-102591198D01*
X118842733Y-102577953D01*
X118838639Y-102570294D01*
X118825026Y-102549920D01*
X118807699Y-102532593D01*
X118787324Y-102518979D01*
X118764686Y-102509602D01*
X118740652Y-102504821D01*
X118716148Y-102504821D01*
X118692115Y-102509601D01*
X118669476Y-102518979D01*
X118649102Y-102532592D01*
X118631775Y-102549919D01*
X118618161Y-102570294D01*
X118614067Y-102577953D01*
X118603198Y-102591198D01*
X118589955Y-102602066D01*
X118574843Y-102610143D01*
X118558451Y-102615116D01*
X118535259Y-102617400D01*
X118121541Y-102617400D01*
X118098349Y-102615116D01*
X118081957Y-102610143D01*
X118066845Y-102602066D01*
X118053602Y-102591198D01*
X118042733Y-102577953D01*
X118038639Y-102570294D01*
X118025026Y-102549920D01*
X118007699Y-102532593D01*
X117987324Y-102518979D01*
X117964686Y-102509602D01*
X117940652Y-102504821D01*
X117916148Y-102504821D01*
X117892115Y-102509601D01*
X117869476Y-102518979D01*
X117849102Y-102532592D01*
X117831775Y-102549919D01*
X117818161Y-102570294D01*
X117814067Y-102577953D01*
X117803198Y-102591198D01*
X117789955Y-102602066D01*
X117774843Y-102610143D01*
X117758451Y-102615116D01*
X117735259Y-102617400D01*
X117321541Y-102617400D01*
X117298349Y-102615116D01*
X117281957Y-102610143D01*
X117266845Y-102602066D01*
X117253602Y-102591198D01*
X117242733Y-102577953D01*
X117238639Y-102570294D01*
X117225026Y-102549920D01*
X117207699Y-102532593D01*
X117187324Y-102518979D01*
X117164686Y-102509602D01*
X117140652Y-102504821D01*
X117116148Y-102504821D01*
X117092115Y-102509601D01*
X117069476Y-102518979D01*
X117049102Y-102532592D01*
X117031775Y-102549919D01*
X117018161Y-102570294D01*
X117014067Y-102577953D01*
X117003198Y-102591198D01*
X116989955Y-102602066D01*
X116974843Y-102610143D01*
X116958451Y-102615116D01*
X116935259Y-102617400D01*
X116521541Y-102617400D01*
X116498349Y-102615116D01*
X116481957Y-102610143D01*
X116466845Y-102602066D01*
X116453602Y-102591198D01*
X116442733Y-102577953D01*
X116438639Y-102570294D01*
X116425026Y-102549920D01*
X116407699Y-102532593D01*
X116387324Y-102518979D01*
X116364686Y-102509602D01*
X116340652Y-102504821D01*
X116316148Y-102504821D01*
X116292115Y-102509601D01*
X116269476Y-102518979D01*
X116249102Y-102532592D01*
X116231775Y-102549919D01*
X116218161Y-102570294D01*
X116214067Y-102577953D01*
X116203198Y-102591198D01*
X116189955Y-102602066D01*
X116174843Y-102610143D01*
X116158451Y-102615116D01*
X116135259Y-102617400D01*
X115721541Y-102617400D01*
X115698349Y-102615116D01*
X115681957Y-102610143D01*
X115666845Y-102602066D01*
X115653602Y-102591198D01*
X115642734Y-102577955D01*
X115634657Y-102562843D01*
X115629684Y-102546451D01*
X115627400Y-102523259D01*
X115627400Y-101109541D01*
X115629684Y-101086349D01*
X115634657Y-101069957D01*
X115642734Y-101054845D01*
X115653602Y-101041602D01*
X115666845Y-101030734D01*
X115681957Y-101022657D01*
X115698349Y-101017684D01*
X115721541Y-101015400D01*
X116135259Y-101015400D01*
X116158451Y-101017684D01*
G37*
G36*
X112594600Y-102277200D02*
G01*
X111192600Y-102277200D01*
X111192600Y-101075200D01*
X112594600Y-101075200D01*
X112594600Y-102277200D01*
G37*
G36*
X114694600Y-102277200D02*
G01*
X113292600Y-102277200D01*
X113292600Y-101075200D01*
X114694600Y-101075200D01*
X114694600Y-102277200D01*
G37*
G36*
X125261191Y-101255885D02*
G01*
X125295169Y-101266193D01*
X125326490Y-101282934D01*
X125353939Y-101305461D01*
X125376466Y-101332910D01*
X125393207Y-101364231D01*
X125403515Y-101398209D01*
X125407600Y-101439690D01*
X125407600Y-102040910D01*
X125403515Y-102082391D01*
X125393207Y-102116369D01*
X125376466Y-102147690D01*
X125353939Y-102175139D01*
X125326490Y-102197666D01*
X125295169Y-102214407D01*
X125261191Y-102224715D01*
X125219710Y-102228800D01*
X124543490Y-102228800D01*
X124502009Y-102224715D01*
X124468031Y-102214407D01*
X124436710Y-102197666D01*
X124409261Y-102175139D01*
X124386734Y-102147690D01*
X124369993Y-102116369D01*
X124359685Y-102082391D01*
X124355600Y-102040910D01*
X124355600Y-101439690D01*
X124359685Y-101398209D01*
X124369993Y-101364231D01*
X124386734Y-101332910D01*
X124409261Y-101305461D01*
X124436710Y-101282934D01*
X124468031Y-101266193D01*
X124502009Y-101255885D01*
X124543490Y-101251800D01*
X125219710Y-101251800D01*
X125261191Y-101255885D01*
G37*
G36*
X126632791Y-101255885D02*
G01*
X126666769Y-101266193D01*
X126698090Y-101282934D01*
X126725539Y-101305461D01*
X126748066Y-101332910D01*
X126764807Y-101364231D01*
X126775115Y-101398209D01*
X126779200Y-101439690D01*
X126779200Y-102040910D01*
X126775115Y-102082391D01*
X126764807Y-102116369D01*
X126748066Y-102147690D01*
X126725539Y-102175139D01*
X126698090Y-102197666D01*
X126666769Y-102214407D01*
X126632791Y-102224715D01*
X126591310Y-102228800D01*
X125915090Y-102228800D01*
X125873609Y-102224715D01*
X125839631Y-102214407D01*
X125808310Y-102197666D01*
X125780861Y-102175139D01*
X125758334Y-102147690D01*
X125741593Y-102116369D01*
X125731285Y-102082391D01*
X125727200Y-102040910D01*
X125727200Y-101439690D01*
X125731285Y-101398209D01*
X125741593Y-101364231D01*
X125758334Y-101332910D01*
X125780861Y-101305461D01*
X125808310Y-101282934D01*
X125839631Y-101266193D01*
X125873609Y-101255885D01*
X125915090Y-101251800D01*
X126591310Y-101251800D01*
X126632791Y-101255885D01*
G37*
G36*
X123279991Y-101255885D02*
G01*
X123313969Y-101266193D01*
X123345290Y-101282934D01*
X123372739Y-101305461D01*
X123395266Y-101332910D01*
X123412007Y-101364231D01*
X123422315Y-101398209D01*
X123426400Y-101439690D01*
X123426400Y-102040910D01*
X123422315Y-102082391D01*
X123412007Y-102116369D01*
X123395266Y-102147690D01*
X123372739Y-102175139D01*
X123345290Y-102197666D01*
X123313969Y-102214407D01*
X123279991Y-102224715D01*
X123238510Y-102228800D01*
X122562290Y-102228800D01*
X122520809Y-102224715D01*
X122486831Y-102214407D01*
X122455510Y-102197666D01*
X122428061Y-102175139D01*
X122405534Y-102147690D01*
X122388793Y-102116369D01*
X122378485Y-102082391D01*
X122374400Y-102040910D01*
X122374400Y-101439690D01*
X122378485Y-101398209D01*
X122388793Y-101364231D01*
X122405534Y-101332910D01*
X122428061Y-101305461D01*
X122455510Y-101282934D01*
X122486831Y-101266193D01*
X122520809Y-101255885D01*
X122562290Y-101251800D01*
X123238510Y-101251800D01*
X123279991Y-101255885D01*
G37*
G36*
X109224549Y-99871116D02*
G01*
X109335734Y-99893232D01*
X109545203Y-99979997D01*
X109733720Y-100105960D01*
X109894040Y-100266280D01*
X110015733Y-100448407D01*
X110020004Y-100454799D01*
X110039874Y-100502769D01*
X110106768Y-100664266D01*
X110151000Y-100886636D01*
X110151000Y-101113364D01*
X110106768Y-101335734D01*
X110020003Y-101545203D01*
X109894040Y-101733720D01*
X109733720Y-101894040D01*
X109545203Y-102020003D01*
X109545202Y-102020004D01*
X109545201Y-102020004D01*
X109494729Y-102040910D01*
X109335734Y-102106768D01*
X109287466Y-102116369D01*
X109113365Y-102151000D01*
X108886635Y-102151000D01*
X108712534Y-102116369D01*
X108664266Y-102106768D01*
X108505271Y-102040910D01*
X108454799Y-102020004D01*
X108454798Y-102020004D01*
X108454797Y-102020003D01*
X108266280Y-101894040D01*
X108105960Y-101733720D01*
X107979997Y-101545203D01*
X107893232Y-101335734D01*
X107849000Y-101113364D01*
X107849000Y-100886636D01*
X107893232Y-100664266D01*
X107960126Y-100502769D01*
X107979996Y-100454799D01*
X107984267Y-100448407D01*
X108105960Y-100266280D01*
X108266280Y-100105960D01*
X108454797Y-99979997D01*
X108664266Y-99893232D01*
X108775451Y-99871116D01*
X108886635Y-99849000D01*
X109113365Y-99849000D01*
X109224549Y-99871116D01*
G37*
G36*
X129224549Y-99871116D02*
G01*
X129335734Y-99893232D01*
X129545203Y-99979997D01*
X129733720Y-100105960D01*
X129894040Y-100266280D01*
X130015733Y-100448407D01*
X130020004Y-100454799D01*
X130039874Y-100502769D01*
X130106768Y-100664266D01*
X130151000Y-100886636D01*
X130151000Y-101113364D01*
X130106768Y-101335734D01*
X130020003Y-101545203D01*
X129894040Y-101733720D01*
X129733720Y-101894040D01*
X129545203Y-102020003D01*
X129545202Y-102020004D01*
X129545201Y-102020004D01*
X129494729Y-102040910D01*
X129335734Y-102106768D01*
X129287466Y-102116369D01*
X129113365Y-102151000D01*
X128886635Y-102151000D01*
X128712534Y-102116369D01*
X128664266Y-102106768D01*
X128505271Y-102040910D01*
X128454799Y-102020004D01*
X128454798Y-102020004D01*
X128454797Y-102020003D01*
X128266280Y-101894040D01*
X128105960Y-101733720D01*
X127979997Y-101545203D01*
X127893232Y-101335734D01*
X127849000Y-101113364D01*
X127849000Y-100886636D01*
X127893232Y-100664266D01*
X127960126Y-100502769D01*
X127979996Y-100454799D01*
X127984267Y-100448407D01*
X128105960Y-100266280D01*
X128266280Y-100105960D01*
X128454797Y-99979997D01*
X128664266Y-99893232D01*
X128775451Y-99871116D01*
X128886635Y-99849000D01*
X129113365Y-99849000D01*
X129224549Y-99871116D01*
G37*
G36*
X125261191Y-99680885D02*
G01*
X125295169Y-99691193D01*
X125326490Y-99707934D01*
X125353939Y-99730461D01*
X125376466Y-99757910D01*
X125393207Y-99789231D01*
X125403515Y-99823209D01*
X125407600Y-99864690D01*
X125407600Y-100465910D01*
X125403515Y-100507391D01*
X125393207Y-100541369D01*
X125376466Y-100572690D01*
X125353939Y-100600139D01*
X125326490Y-100622666D01*
X125295169Y-100639407D01*
X125261191Y-100649715D01*
X125219710Y-100653800D01*
X124543490Y-100653800D01*
X124502009Y-100649715D01*
X124468031Y-100639407D01*
X124436710Y-100622666D01*
X124409261Y-100600139D01*
X124386734Y-100572690D01*
X124369993Y-100541369D01*
X124359685Y-100507391D01*
X124355600Y-100465910D01*
X124355600Y-99864690D01*
X124359685Y-99823209D01*
X124369993Y-99789231D01*
X124386734Y-99757910D01*
X124409261Y-99730461D01*
X124436710Y-99707934D01*
X124468031Y-99691193D01*
X124502009Y-99680885D01*
X124543490Y-99676800D01*
X125219710Y-99676800D01*
X125261191Y-99680885D01*
G37*
G36*
X121997991Y-99414885D02*
G01*
X122031969Y-99425193D01*
X122063290Y-99441934D01*
X122090739Y-99464461D01*
X122113266Y-99491910D01*
X122130007Y-99523231D01*
X122140315Y-99557209D01*
X122144400Y-99598690D01*
X122144400Y-99752212D01*
X122146802Y-99776598D01*
X122153915Y-99800047D01*
X122165466Y-99821658D01*
X122181011Y-99840600D01*
X122199953Y-99856145D01*
X122221564Y-99867696D01*
X122245013Y-99874809D01*
X122269399Y-99877211D01*
X122293785Y-99874809D01*
X122317234Y-99867696D01*
X122338845Y-99856145D01*
X122357787Y-99840600D01*
X122373332Y-99821658D01*
X122387717Y-99791243D01*
X122405534Y-99757910D01*
X122428061Y-99730461D01*
X122455510Y-99707934D01*
X122486831Y-99691193D01*
X122520809Y-99680885D01*
X122562290Y-99676800D01*
X123238510Y-99676800D01*
X123279991Y-99680885D01*
X123313969Y-99691193D01*
X123345290Y-99707934D01*
X123372739Y-99730461D01*
X123395266Y-99757910D01*
X123412007Y-99789231D01*
X123422315Y-99823209D01*
X123426400Y-99864690D01*
X123426400Y-100465910D01*
X123422315Y-100507391D01*
X123412007Y-100541369D01*
X123395266Y-100572690D01*
X123372739Y-100600139D01*
X123345290Y-100622666D01*
X123313969Y-100639407D01*
X123279991Y-100649715D01*
X123238510Y-100653800D01*
X122562290Y-100653800D01*
X122520809Y-100649715D01*
X122486831Y-100639407D01*
X122455510Y-100622666D01*
X122428061Y-100600139D01*
X122405534Y-100572690D01*
X122388793Y-100541369D01*
X122378485Y-100507391D01*
X122374400Y-100465910D01*
X122374400Y-100387388D01*
X122371998Y-100363002D01*
X122364885Y-100339553D01*
X122353334Y-100317942D01*
X122337789Y-100299000D01*
X122318847Y-100283455D01*
X122297236Y-100271904D01*
X122273787Y-100264791D01*
X122249401Y-100262389D01*
X122225015Y-100264791D01*
X122201566Y-100271904D01*
X122179955Y-100283455D01*
X122161013Y-100299000D01*
X122145468Y-100317942D01*
X122131083Y-100348357D01*
X122113266Y-100381690D01*
X122090739Y-100409139D01*
X122063290Y-100431666D01*
X122031969Y-100448407D01*
X121997991Y-100458715D01*
X121956510Y-100462800D01*
X121355290Y-100462800D01*
X121313809Y-100458715D01*
X121279831Y-100448407D01*
X121248510Y-100431666D01*
X121221061Y-100409139D01*
X121198534Y-100381690D01*
X121181793Y-100350369D01*
X121171485Y-100316391D01*
X121167400Y-100274910D01*
X121167400Y-99598690D01*
X121171485Y-99557209D01*
X121181793Y-99523231D01*
X121198534Y-99491910D01*
X121221061Y-99464461D01*
X121248510Y-99441934D01*
X121279831Y-99425193D01*
X121313809Y-99414885D01*
X121355290Y-99410800D01*
X121956510Y-99410800D01*
X121997991Y-99414885D01*
G37*
G36*
X126632791Y-99680885D02*
G01*
X126666769Y-99691193D01*
X126698090Y-99707934D01*
X126725539Y-99730461D01*
X126748066Y-99757910D01*
X126764807Y-99789231D01*
X126775115Y-99823209D01*
X126779200Y-99864690D01*
X126779200Y-100465910D01*
X126775115Y-100507391D01*
X126764807Y-100541369D01*
X126748066Y-100572690D01*
X126725539Y-100600139D01*
X126698090Y-100622666D01*
X126666769Y-100639407D01*
X126632791Y-100649715D01*
X126591310Y-100653800D01*
X125915090Y-100653800D01*
X125873609Y-100649715D01*
X125839631Y-100639407D01*
X125808310Y-100622666D01*
X125780861Y-100600139D01*
X125758334Y-100572690D01*
X125741593Y-100541369D01*
X125731285Y-100507391D01*
X125727200Y-100465910D01*
X125727200Y-99864690D01*
X125731285Y-99823209D01*
X125741593Y-99789231D01*
X125758334Y-99757910D01*
X125780861Y-99730461D01*
X125808310Y-99707934D01*
X125839631Y-99691193D01*
X125873609Y-99680885D01*
X125915090Y-99676800D01*
X126591310Y-99676800D01*
X126632791Y-99680885D01*
G37*
G36*
X112594600Y-100627200D02*
G01*
X111192600Y-100627200D01*
X111192600Y-99425200D01*
X112594600Y-99425200D01*
X112594600Y-100627200D01*
G37*
G36*
X114694600Y-100627200D02*
G01*
X113292600Y-100627200D01*
X113292600Y-99425200D01*
X114694600Y-99425200D01*
X114694600Y-100627200D01*
G37*
G36*
X117527591Y-99567285D02*
G01*
X117561569Y-99577593D01*
X117592890Y-99594334D01*
X117620339Y-99616861D01*
X117642866Y-99644310D01*
X117659607Y-99675631D01*
X117669915Y-99709609D01*
X117674000Y-99751090D01*
X117674000Y-100427310D01*
X117669915Y-100468791D01*
X117659607Y-100502769D01*
X117642866Y-100534090D01*
X117620339Y-100561539D01*
X117592890Y-100584066D01*
X117561569Y-100600807D01*
X117527591Y-100611115D01*
X117486110Y-100615200D01*
X116884890Y-100615200D01*
X116843409Y-100611115D01*
X116809431Y-100600807D01*
X116778110Y-100584066D01*
X116750661Y-100561539D01*
X116728134Y-100534090D01*
X116711393Y-100502769D01*
X116701085Y-100468791D01*
X116697000Y-100427310D01*
X116697000Y-99751090D01*
X116701085Y-99709609D01*
X116711393Y-99675631D01*
X116728134Y-99644310D01*
X116750661Y-99616861D01*
X116778110Y-99594334D01*
X116809431Y-99577593D01*
X116843409Y-99567285D01*
X116884890Y-99563200D01*
X117486110Y-99563200D01*
X117527591Y-99567285D01*
G37*
G36*
X115952591Y-99567285D02*
G01*
X115986569Y-99577593D01*
X116017890Y-99594334D01*
X116045339Y-99616861D01*
X116067866Y-99644310D01*
X116084607Y-99675631D01*
X116094915Y-99709609D01*
X116099000Y-99751090D01*
X116099000Y-100427310D01*
X116094915Y-100468791D01*
X116084607Y-100502769D01*
X116067866Y-100534090D01*
X116045339Y-100561539D01*
X116017890Y-100584066D01*
X115986569Y-100600807D01*
X115952591Y-100611115D01*
X115911110Y-100615200D01*
X115309890Y-100615200D01*
X115268409Y-100611115D01*
X115234431Y-100600807D01*
X115203110Y-100584066D01*
X115175661Y-100561539D01*
X115153134Y-100534090D01*
X115136393Y-100502769D01*
X115126085Y-100468791D01*
X115122000Y-100427310D01*
X115122000Y-99751090D01*
X115126085Y-99709609D01*
X115136393Y-99675631D01*
X115153134Y-99644310D01*
X115175661Y-99616861D01*
X115203110Y-99594334D01*
X115234431Y-99577593D01*
X115268409Y-99567285D01*
X115309890Y-99563200D01*
X115911110Y-99563200D01*
X115952591Y-99567285D01*
G37*
G36*
X118793921Y-99457774D02*
G01*
X118894195Y-99499309D01*
X118894196Y-99499310D01*
X118984442Y-99559610D01*
X119061190Y-99636358D01*
X119084839Y-99671752D01*
X119121491Y-99726605D01*
X119163026Y-99826879D01*
X119184200Y-99933330D01*
X119184200Y-100041870D01*
X119163026Y-100148321D01*
X119121491Y-100248595D01*
X119105916Y-100271904D01*
X119061190Y-100338842D01*
X118984442Y-100415590D01*
X118960382Y-100431666D01*
X118894195Y-100475891D01*
X118793921Y-100517426D01*
X118687470Y-100538600D01*
X118578930Y-100538600D01*
X118472479Y-100517426D01*
X118372205Y-100475891D01*
X118306018Y-100431666D01*
X118281958Y-100415590D01*
X118205210Y-100338842D01*
X118160484Y-100271904D01*
X118144909Y-100248595D01*
X118103374Y-100148321D01*
X118082200Y-100041870D01*
X118082200Y-99933330D01*
X118103374Y-99826879D01*
X118144909Y-99726605D01*
X118181561Y-99671752D01*
X118205210Y-99636358D01*
X118281958Y-99559610D01*
X118372204Y-99499310D01*
X118372205Y-99499309D01*
X118472479Y-99457774D01*
X118578930Y-99436600D01*
X118687470Y-99436600D01*
X118793921Y-99457774D01*
G37*
G36*
X120422991Y-99414885D02*
G01*
X120456969Y-99425193D01*
X120488290Y-99441934D01*
X120515739Y-99464461D01*
X120538266Y-99491910D01*
X120555007Y-99523231D01*
X120565315Y-99557209D01*
X120569400Y-99598690D01*
X120569400Y-100274910D01*
X120565315Y-100316391D01*
X120555007Y-100350369D01*
X120538266Y-100381690D01*
X120515739Y-100409139D01*
X120488290Y-100431666D01*
X120456969Y-100448407D01*
X120422991Y-100458715D01*
X120381510Y-100462800D01*
X119780290Y-100462800D01*
X119738809Y-100458715D01*
X119704831Y-100448407D01*
X119673510Y-100431666D01*
X119646061Y-100409139D01*
X119623534Y-100381690D01*
X119606793Y-100350369D01*
X119596485Y-100316391D01*
X119592400Y-100274910D01*
X119592400Y-99598690D01*
X119596485Y-99557209D01*
X119606793Y-99523231D01*
X119623534Y-99491910D01*
X119646061Y-99464461D01*
X119673510Y-99441934D01*
X119704831Y-99425193D01*
X119738809Y-99414885D01*
X119780290Y-99410800D01*
X120381510Y-99410800D01*
X120422991Y-99414885D01*
G37*
M02*
