%TF.GenerationSoftware,KiCad,Pcbnew,(5.1.5)-3*%
%TF.CreationDate,2020-05-01T16:03:37+02:00*%
%TF.ProjectId,SX1280_module,53583132-3830-45f6-9d6f-64756c652e6b,rev?*%
%TF.SameCoordinates,Original*%
%TF.FileFunction,Soldermask,Bot*%
%TF.FilePolarity,Negative*%
%FSLAX46Y46*%
G04 Gerber Fmt 4.6, Leading zero omitted, Abs format (unit mm)*
G04 Created by KiCad (PCBNEW (5.1.5)-3) date 2020-05-01 16:03:37*
%MOMM*%
%LPD*%
G04 APERTURE LIST*
%ADD10C,0.100000*%
G04 APERTURE END LIST*
D10*
G36*
X129224549Y-119871116D02*
G01*
X129335734Y-119893232D01*
X129545203Y-119979997D01*
X129733720Y-120105960D01*
X129894040Y-120266280D01*
X130020003Y-120454797D01*
X130106768Y-120664266D01*
X130113158Y-120696391D01*
X130151000Y-120886635D01*
X130151000Y-121113365D01*
X130147094Y-121133001D01*
X130106768Y-121335734D01*
X130020003Y-121545203D01*
X129894040Y-121733720D01*
X129733720Y-121894040D01*
X129545203Y-122020003D01*
X129335734Y-122106768D01*
X129224549Y-122128884D01*
X129113365Y-122151000D01*
X128886635Y-122151000D01*
X128775451Y-122128884D01*
X128664266Y-122106768D01*
X128454797Y-122020003D01*
X128266280Y-121894040D01*
X128105960Y-121733720D01*
X127979997Y-121545203D01*
X127893232Y-121335734D01*
X127852906Y-121133001D01*
X127849000Y-121113365D01*
X127849000Y-120886635D01*
X127886842Y-120696391D01*
X127893232Y-120664266D01*
X127979997Y-120454797D01*
X128105960Y-120266280D01*
X128266280Y-120105960D01*
X128454797Y-119979997D01*
X128664266Y-119893232D01*
X128775451Y-119871116D01*
X128886635Y-119849000D01*
X129113365Y-119849000D01*
X129224549Y-119871116D01*
G37*
G36*
X109224549Y-119871116D02*
G01*
X109335734Y-119893232D01*
X109545203Y-119979997D01*
X109733720Y-120105960D01*
X109894040Y-120266280D01*
X110020003Y-120454797D01*
X110106768Y-120664266D01*
X110113158Y-120696391D01*
X110151000Y-120886635D01*
X110151000Y-121113365D01*
X110147094Y-121133001D01*
X110106768Y-121335734D01*
X110020003Y-121545203D01*
X109894040Y-121733720D01*
X109733720Y-121894040D01*
X109545203Y-122020003D01*
X109335734Y-122106768D01*
X109224549Y-122128884D01*
X109113365Y-122151000D01*
X108886635Y-122151000D01*
X108775451Y-122128884D01*
X108664266Y-122106768D01*
X108454797Y-122020003D01*
X108266280Y-121894040D01*
X108105960Y-121733720D01*
X107979997Y-121545203D01*
X107893232Y-121335734D01*
X107852906Y-121133001D01*
X107849000Y-121113365D01*
X107849000Y-120886635D01*
X107886842Y-120696391D01*
X107893232Y-120664266D01*
X107979997Y-120454797D01*
X108105960Y-120266280D01*
X108266280Y-120105960D01*
X108454797Y-119979997D01*
X108664266Y-119893232D01*
X108775451Y-119871116D01*
X108886635Y-119849000D01*
X109113365Y-119849000D01*
X109224549Y-119871116D01*
G37*
G36*
X117157054Y-121191067D02*
G01*
X117187386Y-121197100D01*
X117273102Y-121232605D01*
X117350245Y-121284150D01*
X117415850Y-121349755D01*
X117467395Y-121426898D01*
X117502900Y-121512614D01*
X117521000Y-121603611D01*
X117521000Y-121696389D01*
X117502900Y-121787386D01*
X117467395Y-121873102D01*
X117415850Y-121950245D01*
X117350245Y-122015850D01*
X117273102Y-122067395D01*
X117187386Y-122102900D01*
X117157054Y-122108933D01*
X117096391Y-122121000D01*
X117003609Y-122121000D01*
X116942946Y-122108933D01*
X116912614Y-122102900D01*
X116826898Y-122067395D01*
X116749755Y-122015850D01*
X116684150Y-121950245D01*
X116632605Y-121873102D01*
X116597100Y-121787386D01*
X116579000Y-121696389D01*
X116579000Y-121603611D01*
X116597100Y-121512614D01*
X116632605Y-121426898D01*
X116684150Y-121349755D01*
X116749755Y-121284150D01*
X116826898Y-121232605D01*
X116912614Y-121197100D01*
X116942946Y-121191067D01*
X117003609Y-121179000D01*
X117096391Y-121179000D01*
X117157054Y-121191067D01*
G37*
G36*
X119471000Y-121121000D02*
G01*
X118788869Y-121121000D01*
X118764483Y-121123402D01*
X118741034Y-121130515D01*
X118719423Y-121142066D01*
X118700481Y-121157611D01*
X118684936Y-121176553D01*
X118673385Y-121198164D01*
X118666272Y-121221613D01*
X118663870Y-121245999D01*
X118666272Y-121270385D01*
X118673385Y-121293834D01*
X118684936Y-121315445D01*
X118700476Y-121334381D01*
X118715850Y-121349755D01*
X118767395Y-121426898D01*
X118802900Y-121512614D01*
X118821000Y-121603611D01*
X118821000Y-121696389D01*
X118802900Y-121787386D01*
X118767395Y-121873102D01*
X118715850Y-121950245D01*
X118650245Y-122015850D01*
X118573102Y-122067395D01*
X118487386Y-122102900D01*
X118457054Y-122108933D01*
X118396391Y-122121000D01*
X118303609Y-122121000D01*
X118242946Y-122108933D01*
X118212614Y-122102900D01*
X118126898Y-122067395D01*
X118049755Y-122015850D01*
X117984150Y-121950245D01*
X117932605Y-121873102D01*
X117897100Y-121787386D01*
X117879000Y-121696389D01*
X117879000Y-121603611D01*
X117897100Y-121512614D01*
X117932605Y-121426898D01*
X117984150Y-121349755D01*
X118049755Y-121284150D01*
X118126898Y-121232605D01*
X118212614Y-121197100D01*
X118242946Y-121191067D01*
X118303609Y-121179000D01*
X118404001Y-121179000D01*
X118428387Y-121176598D01*
X118451836Y-121169485D01*
X118473447Y-121157934D01*
X118492389Y-121142389D01*
X118507934Y-121123447D01*
X118519485Y-121101836D01*
X118526598Y-121078387D01*
X118529000Y-121054001D01*
X118529000Y-120179000D01*
X119471000Y-120179000D01*
X119471000Y-121121000D01*
G37*
G36*
X114409687Y-119931507D02*
G01*
X114409690Y-119931508D01*
X114409689Y-119931508D01*
X114587309Y-120005080D01*
X114587310Y-120005081D01*
X114747161Y-120111889D01*
X114883111Y-120247839D01*
X114951208Y-120349755D01*
X114989920Y-120407691D01*
X115044927Y-120540490D01*
X115063493Y-120585313D01*
X115101000Y-120773871D01*
X115101000Y-120966129D01*
X115063493Y-121154687D01*
X115063492Y-121154689D01*
X114989920Y-121332309D01*
X114987632Y-121335733D01*
X114883111Y-121492161D01*
X114747161Y-121628111D01*
X114613891Y-121717158D01*
X114587309Y-121734920D01*
X114460646Y-121787385D01*
X114409687Y-121808493D01*
X114221129Y-121846000D01*
X114028871Y-121846000D01*
X113840313Y-121808493D01*
X113789354Y-121787385D01*
X113662691Y-121734920D01*
X113636109Y-121717158D01*
X113502839Y-121628111D01*
X113366889Y-121492161D01*
X113262368Y-121335733D01*
X113260080Y-121332309D01*
X113186508Y-121154689D01*
X113186507Y-121154687D01*
X113149000Y-120966129D01*
X113149000Y-120773871D01*
X113186507Y-120585313D01*
X113205073Y-120540490D01*
X113260080Y-120407691D01*
X113298792Y-120349755D01*
X113366889Y-120247839D01*
X113502839Y-120111889D01*
X113662690Y-120005081D01*
X113662691Y-120005080D01*
X113840311Y-119931508D01*
X113840310Y-119931508D01*
X113840313Y-119931507D01*
X114028871Y-119894000D01*
X114221129Y-119894000D01*
X114409687Y-119931507D01*
G37*
G36*
X121559687Y-119931507D02*
G01*
X121559690Y-119931508D01*
X121559689Y-119931508D01*
X121737309Y-120005080D01*
X121737310Y-120005081D01*
X121897161Y-120111889D01*
X122033111Y-120247839D01*
X122101208Y-120349755D01*
X122139920Y-120407691D01*
X122194927Y-120540490D01*
X122213493Y-120585313D01*
X122251000Y-120773871D01*
X122251000Y-120966129D01*
X122213493Y-121154687D01*
X122213492Y-121154689D01*
X122139920Y-121332309D01*
X122137632Y-121335733D01*
X122033111Y-121492161D01*
X121897161Y-121628111D01*
X121763891Y-121717158D01*
X121737309Y-121734920D01*
X121610646Y-121787385D01*
X121559687Y-121808493D01*
X121371129Y-121846000D01*
X121178871Y-121846000D01*
X120990313Y-121808493D01*
X120939354Y-121787385D01*
X120812691Y-121734920D01*
X120786109Y-121717158D01*
X120652839Y-121628111D01*
X120516889Y-121492161D01*
X120412368Y-121335733D01*
X120410080Y-121332309D01*
X120336508Y-121154689D01*
X120336507Y-121154687D01*
X120299000Y-120966129D01*
X120299000Y-120773871D01*
X120336507Y-120585313D01*
X120355073Y-120540490D01*
X120410080Y-120407691D01*
X120448792Y-120349755D01*
X120516889Y-120247839D01*
X120652839Y-120111889D01*
X120812690Y-120005081D01*
X120812691Y-120005080D01*
X120990311Y-119931508D01*
X120990310Y-119931508D01*
X120990313Y-119931507D01*
X121178871Y-119894000D01*
X121371129Y-119894000D01*
X121559687Y-119931507D01*
G37*
G36*
X112002391Y-120356685D02*
G01*
X112036369Y-120366993D01*
X112067690Y-120383734D01*
X112095139Y-120406261D01*
X112117666Y-120433710D01*
X112134407Y-120465031D01*
X112144715Y-120499009D01*
X112148800Y-120540490D01*
X112148800Y-121141710D01*
X112144715Y-121183191D01*
X112134407Y-121217169D01*
X112117666Y-121248490D01*
X112095139Y-121275939D01*
X112067690Y-121298466D01*
X112036369Y-121315207D01*
X112002391Y-121325515D01*
X111960910Y-121329600D01*
X111284690Y-121329600D01*
X111243209Y-121325515D01*
X111209231Y-121315207D01*
X111177910Y-121298466D01*
X111150461Y-121275939D01*
X111127934Y-121248490D01*
X111111193Y-121217169D01*
X111100885Y-121183191D01*
X111096800Y-121141710D01*
X111096800Y-120540490D01*
X111100885Y-120499009D01*
X111111193Y-120465031D01*
X111127934Y-120433710D01*
X111150461Y-120406261D01*
X111177910Y-120383734D01*
X111209231Y-120366993D01*
X111243209Y-120356685D01*
X111284690Y-120352600D01*
X111960910Y-120352600D01*
X112002391Y-120356685D01*
G37*
G36*
X117807054Y-120191067D02*
G01*
X117837386Y-120197100D01*
X117923102Y-120232605D01*
X118000245Y-120284150D01*
X118065850Y-120349755D01*
X118117395Y-120426898D01*
X118147265Y-120499009D01*
X118152900Y-120512615D01*
X118169656Y-120596850D01*
X118171000Y-120603611D01*
X118171000Y-120696389D01*
X118152900Y-120787386D01*
X118117395Y-120873102D01*
X118065850Y-120950245D01*
X118000245Y-121015850D01*
X117923102Y-121067395D01*
X117837386Y-121102900D01*
X117807054Y-121108933D01*
X117746391Y-121121000D01*
X117653609Y-121121000D01*
X117592946Y-121108933D01*
X117562614Y-121102900D01*
X117476898Y-121067395D01*
X117399755Y-121015850D01*
X117334150Y-120950245D01*
X117282605Y-120873102D01*
X117247100Y-120787386D01*
X117229000Y-120696389D01*
X117229000Y-120603611D01*
X117230345Y-120596850D01*
X117247100Y-120512615D01*
X117252736Y-120499009D01*
X117282605Y-120426898D01*
X117334150Y-120349755D01*
X117399755Y-120284150D01*
X117476898Y-120232605D01*
X117562614Y-120197100D01*
X117592946Y-120191067D01*
X117653609Y-120179000D01*
X117746391Y-120179000D01*
X117807054Y-120191067D01*
G37*
G36*
X116507054Y-120191067D02*
G01*
X116537386Y-120197100D01*
X116623102Y-120232605D01*
X116700245Y-120284150D01*
X116765850Y-120349755D01*
X116817395Y-120426898D01*
X116847265Y-120499009D01*
X116852900Y-120512615D01*
X116869656Y-120596850D01*
X116871000Y-120603611D01*
X116871000Y-120696389D01*
X116852900Y-120787386D01*
X116817395Y-120873102D01*
X116765850Y-120950245D01*
X116700245Y-121015850D01*
X116623102Y-121067395D01*
X116537386Y-121102900D01*
X116507054Y-121108933D01*
X116446391Y-121121000D01*
X116353609Y-121121000D01*
X116292946Y-121108933D01*
X116262614Y-121102900D01*
X116176898Y-121067395D01*
X116099755Y-121015850D01*
X116034150Y-120950245D01*
X115982605Y-120873102D01*
X115947100Y-120787386D01*
X115929000Y-120696389D01*
X115929000Y-120603611D01*
X115930345Y-120596850D01*
X115947100Y-120512615D01*
X115952736Y-120499009D01*
X115982605Y-120426898D01*
X116034150Y-120349755D01*
X116099755Y-120284150D01*
X116176898Y-120232605D01*
X116262614Y-120197100D01*
X116292946Y-120191067D01*
X116353609Y-120179000D01*
X116446391Y-120179000D01*
X116507054Y-120191067D01*
G37*
G36*
X112002391Y-118781685D02*
G01*
X112036369Y-118791993D01*
X112067690Y-118808734D01*
X112095139Y-118831261D01*
X112117666Y-118858710D01*
X112134407Y-118890031D01*
X112144715Y-118924009D01*
X112148800Y-118965490D01*
X112148800Y-119566710D01*
X112144715Y-119608191D01*
X112134407Y-119642169D01*
X112117666Y-119673490D01*
X112095139Y-119700939D01*
X112067690Y-119723466D01*
X112036369Y-119740207D01*
X112002391Y-119750515D01*
X111960910Y-119754600D01*
X111284690Y-119754600D01*
X111243209Y-119750515D01*
X111209231Y-119740207D01*
X111177910Y-119723466D01*
X111150461Y-119700939D01*
X111127934Y-119673490D01*
X111111193Y-119642169D01*
X111100885Y-119608191D01*
X111096800Y-119566710D01*
X111096800Y-118965490D01*
X111100885Y-118924009D01*
X111111193Y-118890031D01*
X111127934Y-118858710D01*
X111150461Y-118831261D01*
X111177910Y-118808734D01*
X111209231Y-118791993D01*
X111243209Y-118781685D01*
X111284690Y-118777600D01*
X111960910Y-118777600D01*
X112002391Y-118781685D01*
G37*
G36*
X129309766Y-117278299D02*
G01*
X129441888Y-117333026D01*
X129441890Y-117333027D01*
X129560798Y-117412479D01*
X129661921Y-117513602D01*
X129661922Y-117513604D01*
X129741374Y-117632512D01*
X129796101Y-117764634D01*
X129824000Y-117904894D01*
X129824000Y-118047906D01*
X129796101Y-118188166D01*
X129770361Y-118250307D01*
X129741373Y-118320290D01*
X129661921Y-118439198D01*
X129560798Y-118540321D01*
X129441890Y-118619773D01*
X129441889Y-118619774D01*
X129441888Y-118619774D01*
X129309766Y-118674501D01*
X129169506Y-118702400D01*
X129026494Y-118702400D01*
X128886234Y-118674501D01*
X128754112Y-118619774D01*
X128754111Y-118619774D01*
X128754110Y-118619773D01*
X128635202Y-118540321D01*
X128534079Y-118439198D01*
X128454627Y-118320290D01*
X128425639Y-118250307D01*
X128399899Y-118188166D01*
X128372000Y-118047906D01*
X128372000Y-117904894D01*
X128399899Y-117764634D01*
X128454626Y-117632512D01*
X128534078Y-117513604D01*
X128534079Y-117513602D01*
X128635202Y-117412479D01*
X128754110Y-117333027D01*
X128754112Y-117333026D01*
X128886234Y-117278299D01*
X129026494Y-117250400D01*
X129169506Y-117250400D01*
X129309766Y-117278299D01*
G37*
G36*
X110984591Y-117207085D02*
G01*
X111018569Y-117217393D01*
X111049890Y-117234134D01*
X111077339Y-117256661D01*
X111099866Y-117284110D01*
X111116607Y-117315431D01*
X111126915Y-117349409D01*
X111131000Y-117390890D01*
X111131000Y-118067110D01*
X111126915Y-118108591D01*
X111116607Y-118142569D01*
X111099866Y-118173890D01*
X111077339Y-118201339D01*
X111049890Y-118223866D01*
X111018569Y-118240607D01*
X110984591Y-118250915D01*
X110943110Y-118255000D01*
X110341890Y-118255000D01*
X110300409Y-118250915D01*
X110266431Y-118240607D01*
X110235110Y-118223866D01*
X110207661Y-118201339D01*
X110185134Y-118173890D01*
X110168393Y-118142569D01*
X110158085Y-118108591D01*
X110154000Y-118067110D01*
X110154000Y-117390890D01*
X110158085Y-117349409D01*
X110168393Y-117315431D01*
X110185134Y-117284110D01*
X110207661Y-117256661D01*
X110235110Y-117234134D01*
X110266431Y-117217393D01*
X110300409Y-117207085D01*
X110341890Y-117203000D01*
X110943110Y-117203000D01*
X110984591Y-117207085D01*
G37*
G36*
X109409591Y-117207085D02*
G01*
X109443569Y-117217393D01*
X109474890Y-117234134D01*
X109502339Y-117256661D01*
X109524866Y-117284110D01*
X109541607Y-117315431D01*
X109551915Y-117349409D01*
X109556000Y-117390890D01*
X109556000Y-118067110D01*
X109551915Y-118108591D01*
X109541607Y-118142569D01*
X109524866Y-118173890D01*
X109502339Y-118201339D01*
X109474890Y-118223866D01*
X109443569Y-118240607D01*
X109409591Y-118250915D01*
X109368110Y-118255000D01*
X108766890Y-118255000D01*
X108725409Y-118250915D01*
X108691431Y-118240607D01*
X108660110Y-118223866D01*
X108632661Y-118201339D01*
X108610134Y-118173890D01*
X108593393Y-118142569D01*
X108583085Y-118108591D01*
X108579000Y-118067110D01*
X108579000Y-117390890D01*
X108583085Y-117349409D01*
X108593393Y-117315431D01*
X108610134Y-117284110D01*
X108632661Y-117256661D01*
X108660110Y-117234134D01*
X108691431Y-117217393D01*
X108725409Y-117207085D01*
X108766890Y-117203000D01*
X109368110Y-117203000D01*
X109409591Y-117207085D01*
G37*
G36*
X109599591Y-115746085D02*
G01*
X109633569Y-115756393D01*
X109664890Y-115773134D01*
X109692339Y-115795661D01*
X109714866Y-115823110D01*
X109731607Y-115854431D01*
X109741915Y-115888409D01*
X109746000Y-115929890D01*
X109746000Y-116531110D01*
X109741915Y-116572591D01*
X109731607Y-116606569D01*
X109714866Y-116637890D01*
X109692339Y-116665339D01*
X109664890Y-116687866D01*
X109633569Y-116704607D01*
X109599591Y-116714915D01*
X109558110Y-116719000D01*
X108881890Y-116719000D01*
X108840409Y-116714915D01*
X108806431Y-116704607D01*
X108775110Y-116687866D01*
X108747661Y-116665339D01*
X108725134Y-116637890D01*
X108708393Y-116606569D01*
X108698085Y-116572591D01*
X108694000Y-116531110D01*
X108694000Y-115929890D01*
X108698085Y-115888409D01*
X108708393Y-115854431D01*
X108725134Y-115823110D01*
X108747661Y-115795661D01*
X108775110Y-115773134D01*
X108806431Y-115756393D01*
X108840409Y-115746085D01*
X108881890Y-115742000D01*
X109558110Y-115742000D01*
X109599591Y-115746085D01*
G37*
G36*
X129309766Y-115278299D02*
G01*
X129441888Y-115333026D01*
X129441890Y-115333027D01*
X129560798Y-115412479D01*
X129661921Y-115513602D01*
X129661922Y-115513604D01*
X129741374Y-115632512D01*
X129796101Y-115764634D01*
X129824000Y-115904894D01*
X129824000Y-116047906D01*
X129796101Y-116188166D01*
X129741374Y-116320288D01*
X129741373Y-116320290D01*
X129661921Y-116439198D01*
X129560798Y-116540321D01*
X129441890Y-116619773D01*
X129441889Y-116619774D01*
X129441888Y-116619774D01*
X129309766Y-116674501D01*
X129169506Y-116702400D01*
X129026494Y-116702400D01*
X128886234Y-116674501D01*
X128754112Y-116619774D01*
X128754111Y-116619774D01*
X128754110Y-116619773D01*
X128635202Y-116540321D01*
X128534079Y-116439198D01*
X128454627Y-116320290D01*
X128454626Y-116320288D01*
X128399899Y-116188166D01*
X128372000Y-116047906D01*
X128372000Y-115904894D01*
X128399899Y-115764634D01*
X128454626Y-115632512D01*
X128534078Y-115513604D01*
X128534079Y-115513602D01*
X128635202Y-115412479D01*
X128754110Y-115333027D01*
X128754112Y-115333026D01*
X128886234Y-115278299D01*
X129026494Y-115250400D01*
X129169506Y-115250400D01*
X129309766Y-115278299D01*
G37*
G36*
X127551000Y-115896000D02*
G01*
X125449000Y-115896000D01*
X125449000Y-114994000D01*
X127551000Y-114994000D01*
X127551000Y-115896000D01*
G37*
G36*
X112551000Y-115896000D02*
G01*
X110449000Y-115896000D01*
X110449000Y-114994000D01*
X112551000Y-114994000D01*
X112551000Y-115896000D01*
G37*
G36*
X109599591Y-114171085D02*
G01*
X109633569Y-114181393D01*
X109664890Y-114198134D01*
X109692339Y-114220661D01*
X109714866Y-114248110D01*
X109731607Y-114279431D01*
X109741915Y-114313409D01*
X109746000Y-114354890D01*
X109746000Y-114956110D01*
X109741915Y-114997591D01*
X109731607Y-115031569D01*
X109714866Y-115062890D01*
X109692339Y-115090339D01*
X109664890Y-115112866D01*
X109633569Y-115129607D01*
X109599591Y-115139915D01*
X109558110Y-115144000D01*
X108881890Y-115144000D01*
X108840409Y-115139915D01*
X108806431Y-115129607D01*
X108775110Y-115112866D01*
X108747661Y-115090339D01*
X108725134Y-115062890D01*
X108708393Y-115031569D01*
X108698085Y-114997591D01*
X108694000Y-114956110D01*
X108694000Y-114354890D01*
X108698085Y-114313409D01*
X108708393Y-114279431D01*
X108725134Y-114248110D01*
X108747661Y-114220661D01*
X108775110Y-114198134D01*
X108806431Y-114181393D01*
X108840409Y-114171085D01*
X108881890Y-114167000D01*
X109558110Y-114167000D01*
X109599591Y-114171085D01*
G37*
G36*
X129309766Y-113278299D02*
G01*
X129441888Y-113333026D01*
X129441890Y-113333027D01*
X129560798Y-113412479D01*
X129661921Y-113513602D01*
X129699985Y-113570569D01*
X129741374Y-113632512D01*
X129796101Y-113764634D01*
X129824000Y-113904894D01*
X129824000Y-114047906D01*
X129796101Y-114188166D01*
X129744223Y-114313409D01*
X129741373Y-114320290D01*
X129661921Y-114439198D01*
X129560798Y-114540321D01*
X129441890Y-114619773D01*
X129441889Y-114619774D01*
X129441888Y-114619774D01*
X129309766Y-114674501D01*
X129169506Y-114702400D01*
X129026494Y-114702400D01*
X128886234Y-114674501D01*
X128754112Y-114619774D01*
X128754111Y-114619774D01*
X128754110Y-114619773D01*
X128635202Y-114540321D01*
X128534079Y-114439198D01*
X128454627Y-114320290D01*
X128451777Y-114313409D01*
X128399899Y-114188166D01*
X128372000Y-114047906D01*
X128372000Y-113904894D01*
X128399899Y-113764634D01*
X128454626Y-113632512D01*
X128496015Y-113570569D01*
X128534079Y-113513602D01*
X128635202Y-113412479D01*
X128754110Y-113333027D01*
X128754112Y-113333026D01*
X128886234Y-113278299D01*
X129026494Y-113250400D01*
X129169506Y-113250400D01*
X129309766Y-113278299D01*
G37*
G36*
X127551000Y-114626000D02*
G01*
X125449000Y-114626000D01*
X125449000Y-113724000D01*
X127551000Y-113724000D01*
X127551000Y-114626000D01*
G37*
G36*
X112551000Y-114626000D02*
G01*
X110449000Y-114626000D01*
X110449000Y-113724000D01*
X112551000Y-113724000D01*
X112551000Y-114626000D01*
G37*
G36*
X108266591Y-112635085D02*
G01*
X108300569Y-112645393D01*
X108331890Y-112662134D01*
X108359339Y-112684661D01*
X108381866Y-112712110D01*
X108398607Y-112743431D01*
X108408915Y-112777409D01*
X108413000Y-112818890D01*
X108413000Y-113495110D01*
X108408915Y-113536591D01*
X108398607Y-113570569D01*
X108381866Y-113601890D01*
X108359339Y-113629339D01*
X108331890Y-113651866D01*
X108300569Y-113668607D01*
X108266591Y-113678915D01*
X108225110Y-113683000D01*
X107623890Y-113683000D01*
X107582409Y-113678915D01*
X107548431Y-113668607D01*
X107517110Y-113651866D01*
X107489661Y-113629339D01*
X107467134Y-113601890D01*
X107450393Y-113570569D01*
X107440085Y-113536591D01*
X107436000Y-113495110D01*
X107436000Y-112818890D01*
X107440085Y-112777409D01*
X107450393Y-112743431D01*
X107467134Y-112712110D01*
X107489661Y-112684661D01*
X107517110Y-112662134D01*
X107548431Y-112645393D01*
X107582409Y-112635085D01*
X107623890Y-112631000D01*
X108225110Y-112631000D01*
X108266591Y-112635085D01*
G37*
G36*
X109841591Y-112635085D02*
G01*
X109875569Y-112645393D01*
X109906890Y-112662134D01*
X109934339Y-112684661D01*
X109956866Y-112712110D01*
X109973607Y-112743431D01*
X109983915Y-112777409D01*
X109988000Y-112818890D01*
X109988000Y-113495110D01*
X109983915Y-113536591D01*
X109973607Y-113570569D01*
X109956866Y-113601890D01*
X109934339Y-113629339D01*
X109906890Y-113651866D01*
X109875569Y-113668607D01*
X109841591Y-113678915D01*
X109800110Y-113683000D01*
X109198890Y-113683000D01*
X109157409Y-113678915D01*
X109123431Y-113668607D01*
X109092110Y-113651866D01*
X109064661Y-113629339D01*
X109042134Y-113601890D01*
X109025393Y-113570569D01*
X109015085Y-113536591D01*
X109011000Y-113495110D01*
X109011000Y-112818890D01*
X109015085Y-112777409D01*
X109025393Y-112743431D01*
X109042134Y-112712110D01*
X109064661Y-112684661D01*
X109092110Y-112662134D01*
X109123431Y-112645393D01*
X109157409Y-112635085D01*
X109198890Y-112631000D01*
X109800110Y-112631000D01*
X109841591Y-112635085D01*
G37*
G36*
X112551000Y-113356000D02*
G01*
X110449000Y-113356000D01*
X110449000Y-112454000D01*
X112551000Y-112454000D01*
X112551000Y-113356000D01*
G37*
G36*
X127551000Y-113356000D02*
G01*
X125449000Y-113356000D01*
X125449000Y-112454000D01*
X127551000Y-112454000D01*
X127551000Y-113356000D01*
G37*
G36*
X129824000Y-112702400D02*
G01*
X128372000Y-112702400D01*
X128372000Y-111250400D01*
X129824000Y-111250400D01*
X129824000Y-112702400D01*
G37*
G36*
X108266591Y-111111085D02*
G01*
X108300569Y-111121393D01*
X108331890Y-111138134D01*
X108359339Y-111160661D01*
X108381866Y-111188110D01*
X108398607Y-111219431D01*
X108408915Y-111253409D01*
X108413000Y-111294890D01*
X108413000Y-111971110D01*
X108408915Y-112012591D01*
X108398607Y-112046569D01*
X108381866Y-112077890D01*
X108359339Y-112105339D01*
X108331890Y-112127866D01*
X108300569Y-112144607D01*
X108266591Y-112154915D01*
X108225110Y-112159000D01*
X107623890Y-112159000D01*
X107582409Y-112154915D01*
X107548431Y-112144607D01*
X107517110Y-112127866D01*
X107489661Y-112105339D01*
X107467134Y-112077890D01*
X107450393Y-112046569D01*
X107440085Y-112012591D01*
X107436000Y-111971110D01*
X107436000Y-111294890D01*
X107440085Y-111253409D01*
X107450393Y-111219431D01*
X107467134Y-111188110D01*
X107489661Y-111160661D01*
X107517110Y-111138134D01*
X107548431Y-111121393D01*
X107582409Y-111111085D01*
X107623890Y-111107000D01*
X108225110Y-111107000D01*
X108266591Y-111111085D01*
G37*
G36*
X109841591Y-111111085D02*
G01*
X109875569Y-111121393D01*
X109906890Y-111138134D01*
X109934339Y-111160661D01*
X109956866Y-111188110D01*
X109973607Y-111219431D01*
X109983915Y-111253409D01*
X109988000Y-111294890D01*
X109988000Y-111971110D01*
X109983915Y-112012591D01*
X109973607Y-112046569D01*
X109956866Y-112077890D01*
X109934339Y-112105339D01*
X109906890Y-112127866D01*
X109875569Y-112144607D01*
X109841591Y-112154915D01*
X109800110Y-112159000D01*
X109198890Y-112159000D01*
X109157409Y-112154915D01*
X109123431Y-112144607D01*
X109092110Y-112127866D01*
X109064661Y-112105339D01*
X109042134Y-112077890D01*
X109025393Y-112046569D01*
X109015085Y-112012591D01*
X109011000Y-111971110D01*
X109011000Y-111294890D01*
X109015085Y-111253409D01*
X109025393Y-111219431D01*
X109042134Y-111188110D01*
X109064661Y-111160661D01*
X109092110Y-111138134D01*
X109123431Y-111121393D01*
X109157409Y-111111085D01*
X109198890Y-111107000D01*
X109800110Y-111107000D01*
X109841591Y-111111085D01*
G37*
G36*
X112551000Y-112086000D02*
G01*
X110449000Y-112086000D01*
X110449000Y-111184000D01*
X112551000Y-111184000D01*
X112551000Y-112086000D01*
G37*
G36*
X127551000Y-112086000D02*
G01*
X125449000Y-112086000D01*
X125449000Y-111184000D01*
X127551000Y-111184000D01*
X127551000Y-112086000D01*
G37*
G36*
X112551000Y-110816000D02*
G01*
X110449000Y-110816000D01*
X110449000Y-109914000D01*
X112551000Y-109914000D01*
X112551000Y-110816000D01*
G37*
G36*
X127551000Y-110816000D02*
G01*
X125449000Y-110816000D01*
X125449000Y-109914000D01*
X127551000Y-109914000D01*
X127551000Y-110816000D01*
G37*
G36*
X129008191Y-108965285D02*
G01*
X129042169Y-108975593D01*
X129073490Y-108992334D01*
X129100939Y-109014861D01*
X129123466Y-109042310D01*
X129140207Y-109073631D01*
X129150515Y-109107609D01*
X129154600Y-109149090D01*
X129154600Y-109825310D01*
X129150515Y-109866791D01*
X129140207Y-109900769D01*
X129123466Y-109932090D01*
X129100939Y-109959539D01*
X129073490Y-109982066D01*
X129042169Y-109998807D01*
X129008191Y-110009115D01*
X128966710Y-110013200D01*
X128365490Y-110013200D01*
X128324009Y-110009115D01*
X128290031Y-109998807D01*
X128258710Y-109982066D01*
X128231261Y-109959539D01*
X128208734Y-109932090D01*
X128191993Y-109900769D01*
X128181685Y-109866791D01*
X128177600Y-109825310D01*
X128177600Y-109149090D01*
X128181685Y-109107609D01*
X128191993Y-109073631D01*
X128208734Y-109042310D01*
X128231261Y-109014861D01*
X128258710Y-108992334D01*
X128290031Y-108975593D01*
X128324009Y-108965285D01*
X128365490Y-108961200D01*
X128966710Y-108961200D01*
X129008191Y-108965285D01*
G37*
G36*
X130583191Y-108965285D02*
G01*
X130617169Y-108975593D01*
X130648490Y-108992334D01*
X130675939Y-109014861D01*
X130698466Y-109042310D01*
X130715207Y-109073631D01*
X130725515Y-109107609D01*
X130729600Y-109149090D01*
X130729600Y-109825310D01*
X130725515Y-109866791D01*
X130715207Y-109900769D01*
X130698466Y-109932090D01*
X130675939Y-109959539D01*
X130648490Y-109982066D01*
X130617169Y-109998807D01*
X130583191Y-110009115D01*
X130541710Y-110013200D01*
X129940490Y-110013200D01*
X129899009Y-110009115D01*
X129865031Y-109998807D01*
X129833710Y-109982066D01*
X129806261Y-109959539D01*
X129783734Y-109932090D01*
X129766993Y-109900769D01*
X129756685Y-109866791D01*
X129752600Y-109825310D01*
X129752600Y-109149090D01*
X129756685Y-109107609D01*
X129766993Y-109073631D01*
X129783734Y-109042310D01*
X129806261Y-109014861D01*
X129833710Y-108992334D01*
X129865031Y-108975593D01*
X129899009Y-108965285D01*
X129940490Y-108961200D01*
X130541710Y-108961200D01*
X130583191Y-108965285D01*
G37*
G36*
X109816091Y-108825085D02*
G01*
X109850069Y-108835393D01*
X109881390Y-108852134D01*
X109908839Y-108874661D01*
X109931366Y-108902110D01*
X109948107Y-108933431D01*
X109958415Y-108967409D01*
X109962500Y-109008890D01*
X109962500Y-109685110D01*
X109958415Y-109726591D01*
X109948107Y-109760569D01*
X109931366Y-109791890D01*
X109908839Y-109819339D01*
X109881390Y-109841866D01*
X109850069Y-109858607D01*
X109816091Y-109868915D01*
X109774610Y-109873000D01*
X109173390Y-109873000D01*
X109131909Y-109868915D01*
X109097931Y-109858607D01*
X109066610Y-109841866D01*
X109039161Y-109819339D01*
X109016634Y-109791890D01*
X108999893Y-109760569D01*
X108989585Y-109726591D01*
X108985500Y-109685110D01*
X108985500Y-109008890D01*
X108989585Y-108967409D01*
X108999893Y-108933431D01*
X109016634Y-108902110D01*
X109039161Y-108874661D01*
X109066610Y-108852134D01*
X109097931Y-108835393D01*
X109131909Y-108825085D01*
X109173390Y-108821000D01*
X109774610Y-108821000D01*
X109816091Y-108825085D01*
G37*
G36*
X108241091Y-108825085D02*
G01*
X108275069Y-108835393D01*
X108306390Y-108852134D01*
X108333839Y-108874661D01*
X108356366Y-108902110D01*
X108373107Y-108933431D01*
X108383415Y-108967409D01*
X108387500Y-109008890D01*
X108387500Y-109685110D01*
X108383415Y-109726591D01*
X108373107Y-109760569D01*
X108356366Y-109791890D01*
X108333839Y-109819339D01*
X108306390Y-109841866D01*
X108275069Y-109858607D01*
X108241091Y-109868915D01*
X108199610Y-109873000D01*
X107598390Y-109873000D01*
X107556909Y-109868915D01*
X107522931Y-109858607D01*
X107491610Y-109841866D01*
X107464161Y-109819339D01*
X107441634Y-109791890D01*
X107424893Y-109760569D01*
X107414585Y-109726591D01*
X107410500Y-109685110D01*
X107410500Y-109008890D01*
X107414585Y-108967409D01*
X107424893Y-108933431D01*
X107441634Y-108902110D01*
X107464161Y-108874661D01*
X107491610Y-108852134D01*
X107522931Y-108835393D01*
X107556909Y-108825085D01*
X107598390Y-108821000D01*
X108199610Y-108821000D01*
X108241091Y-108825085D01*
G37*
G36*
X127551000Y-109546000D02*
G01*
X125449000Y-109546000D01*
X125449000Y-108644000D01*
X127551000Y-108644000D01*
X127551000Y-109546000D01*
G37*
G36*
X112551000Y-109546000D02*
G01*
X110449000Y-109546000D01*
X110449000Y-108644000D01*
X112551000Y-108644000D01*
X112551000Y-109546000D01*
G37*
G36*
X112551000Y-108276000D02*
G01*
X110449000Y-108276000D01*
X110449000Y-107374000D01*
X112551000Y-107374000D01*
X112551000Y-108276000D01*
G37*
G36*
X127551000Y-108276000D02*
G01*
X125449000Y-108276000D01*
X125449000Y-107374000D01*
X127551000Y-107374000D01*
X127551000Y-108276000D01*
G37*
G36*
X130481591Y-106679285D02*
G01*
X130515569Y-106689593D01*
X130546890Y-106706334D01*
X130574339Y-106728861D01*
X130596866Y-106756310D01*
X130613607Y-106787631D01*
X130623915Y-106821609D01*
X130628000Y-106863090D01*
X130628000Y-107539310D01*
X130623915Y-107580791D01*
X130613607Y-107614769D01*
X130596866Y-107646090D01*
X130574339Y-107673539D01*
X130546890Y-107696066D01*
X130515569Y-107712807D01*
X130481591Y-107723115D01*
X130440110Y-107727200D01*
X129838890Y-107727200D01*
X129797409Y-107723115D01*
X129763431Y-107712807D01*
X129732110Y-107696066D01*
X129704661Y-107673539D01*
X129682134Y-107646090D01*
X129665393Y-107614769D01*
X129655085Y-107580791D01*
X129651000Y-107539310D01*
X129651000Y-106863090D01*
X129655085Y-106821609D01*
X129665393Y-106787631D01*
X129682134Y-106756310D01*
X129704661Y-106728861D01*
X129732110Y-106706334D01*
X129763431Y-106689593D01*
X129797409Y-106679285D01*
X129838890Y-106675200D01*
X130440110Y-106675200D01*
X130481591Y-106679285D01*
G37*
G36*
X128906591Y-106679285D02*
G01*
X128940569Y-106689593D01*
X128971890Y-106706334D01*
X128999339Y-106728861D01*
X129021866Y-106756310D01*
X129038607Y-106787631D01*
X129048915Y-106821609D01*
X129053000Y-106863090D01*
X129053000Y-107539310D01*
X129048915Y-107580791D01*
X129038607Y-107614769D01*
X129021866Y-107646090D01*
X128999339Y-107673539D01*
X128971890Y-107696066D01*
X128940569Y-107712807D01*
X128906591Y-107723115D01*
X128865110Y-107727200D01*
X128263890Y-107727200D01*
X128222409Y-107723115D01*
X128188431Y-107712807D01*
X128157110Y-107696066D01*
X128129661Y-107673539D01*
X128107134Y-107646090D01*
X128090393Y-107614769D01*
X128080085Y-107580791D01*
X128076000Y-107539310D01*
X128076000Y-106863090D01*
X128080085Y-106821609D01*
X128090393Y-106787631D01*
X128107134Y-106756310D01*
X128129661Y-106728861D01*
X128157110Y-106706334D01*
X128188431Y-106689593D01*
X128222409Y-106679285D01*
X128263890Y-106675200D01*
X128865110Y-106675200D01*
X128906591Y-106679285D01*
G37*
G36*
X108266591Y-106158085D02*
G01*
X108300569Y-106168393D01*
X108331890Y-106185134D01*
X108359339Y-106207661D01*
X108381866Y-106235110D01*
X108398607Y-106266431D01*
X108408915Y-106300409D01*
X108413000Y-106341890D01*
X108413000Y-107018110D01*
X108408915Y-107059591D01*
X108398607Y-107093569D01*
X108381866Y-107124890D01*
X108359339Y-107152339D01*
X108331890Y-107174866D01*
X108300569Y-107191607D01*
X108266591Y-107201915D01*
X108225110Y-107206000D01*
X107623890Y-107206000D01*
X107582409Y-107201915D01*
X107548431Y-107191607D01*
X107517110Y-107174866D01*
X107489661Y-107152339D01*
X107467134Y-107124890D01*
X107450393Y-107093569D01*
X107440085Y-107059591D01*
X107436000Y-107018110D01*
X107436000Y-106341890D01*
X107440085Y-106300409D01*
X107450393Y-106266431D01*
X107467134Y-106235110D01*
X107489661Y-106207661D01*
X107517110Y-106185134D01*
X107548431Y-106168393D01*
X107582409Y-106158085D01*
X107623890Y-106154000D01*
X108225110Y-106154000D01*
X108266591Y-106158085D01*
G37*
G36*
X109841591Y-106158085D02*
G01*
X109875569Y-106168393D01*
X109906890Y-106185134D01*
X109934339Y-106207661D01*
X109956866Y-106235110D01*
X109973607Y-106266431D01*
X109983915Y-106300409D01*
X109988000Y-106341890D01*
X109988000Y-107018110D01*
X109983915Y-107059591D01*
X109973607Y-107093569D01*
X109956866Y-107124890D01*
X109934339Y-107152339D01*
X109906890Y-107174866D01*
X109875569Y-107191607D01*
X109841591Y-107201915D01*
X109800110Y-107206000D01*
X109198890Y-107206000D01*
X109157409Y-107201915D01*
X109123431Y-107191607D01*
X109092110Y-107174866D01*
X109064661Y-107152339D01*
X109042134Y-107124890D01*
X109025393Y-107093569D01*
X109015085Y-107059591D01*
X109011000Y-107018110D01*
X109011000Y-106341890D01*
X109015085Y-106300409D01*
X109025393Y-106266431D01*
X109042134Y-106235110D01*
X109064661Y-106207661D01*
X109092110Y-106185134D01*
X109123431Y-106168393D01*
X109157409Y-106158085D01*
X109198890Y-106154000D01*
X109800110Y-106154000D01*
X109841591Y-106158085D01*
G37*
G36*
X127551000Y-107006000D02*
G01*
X125449000Y-107006000D01*
X125449000Y-106104000D01*
X127551000Y-106104000D01*
X127551000Y-107006000D01*
G37*
G36*
X112551000Y-107006000D02*
G01*
X110449000Y-107006000D01*
X110449000Y-106104000D01*
X112551000Y-106104000D01*
X112551000Y-107006000D01*
G37*
G36*
X130441091Y-104888085D02*
G01*
X130475069Y-104898393D01*
X130506390Y-104915134D01*
X130533839Y-104937661D01*
X130556366Y-104965110D01*
X130573107Y-104996431D01*
X130583415Y-105030409D01*
X130587500Y-105071890D01*
X130587500Y-105748110D01*
X130583415Y-105789591D01*
X130573107Y-105823569D01*
X130556366Y-105854890D01*
X130533839Y-105882339D01*
X130506390Y-105904866D01*
X130475069Y-105921607D01*
X130441091Y-105931915D01*
X130399610Y-105936000D01*
X129798390Y-105936000D01*
X129756909Y-105931915D01*
X129722931Y-105921607D01*
X129691610Y-105904866D01*
X129664161Y-105882339D01*
X129641634Y-105854890D01*
X129624893Y-105823569D01*
X129614585Y-105789591D01*
X129610500Y-105748110D01*
X129610500Y-105071890D01*
X129614585Y-105030409D01*
X129624893Y-104996431D01*
X129641634Y-104965110D01*
X129664161Y-104937661D01*
X129691610Y-104915134D01*
X129722931Y-104898393D01*
X129756909Y-104888085D01*
X129798390Y-104884000D01*
X130399610Y-104884000D01*
X130441091Y-104888085D01*
G37*
G36*
X128866091Y-104888085D02*
G01*
X128900069Y-104898393D01*
X128931390Y-104915134D01*
X128958839Y-104937661D01*
X128981366Y-104965110D01*
X128998107Y-104996431D01*
X129008415Y-105030409D01*
X129012500Y-105071890D01*
X129012500Y-105748110D01*
X129008415Y-105789591D01*
X128998107Y-105823569D01*
X128981366Y-105854890D01*
X128958839Y-105882339D01*
X128931390Y-105904866D01*
X128900069Y-105921607D01*
X128866091Y-105931915D01*
X128824610Y-105936000D01*
X128223390Y-105936000D01*
X128181909Y-105931915D01*
X128147931Y-105921607D01*
X128116610Y-105904866D01*
X128089161Y-105882339D01*
X128066634Y-105854890D01*
X128049893Y-105823569D01*
X128039585Y-105789591D01*
X128035500Y-105748110D01*
X128035500Y-105071890D01*
X128039585Y-105030409D01*
X128049893Y-104996431D01*
X128066634Y-104965110D01*
X128089161Y-104937661D01*
X128116610Y-104915134D01*
X128147931Y-104898393D01*
X128181909Y-104888085D01*
X128223390Y-104884000D01*
X128824610Y-104884000D01*
X128866091Y-104888085D01*
G37*
G36*
X109196191Y-104291685D02*
G01*
X109230169Y-104301993D01*
X109261490Y-104318734D01*
X109288939Y-104341261D01*
X109311466Y-104368710D01*
X109328207Y-104400031D01*
X109338515Y-104434009D01*
X109342600Y-104475490D01*
X109342600Y-105151710D01*
X109338515Y-105193191D01*
X109328207Y-105227169D01*
X109311466Y-105258490D01*
X109288939Y-105285939D01*
X109261490Y-105308466D01*
X109230169Y-105325207D01*
X109196191Y-105335515D01*
X109154710Y-105339600D01*
X108553490Y-105339600D01*
X108512009Y-105335515D01*
X108478031Y-105325207D01*
X108446710Y-105308466D01*
X108419261Y-105285939D01*
X108396734Y-105258490D01*
X108379993Y-105227169D01*
X108369685Y-105193191D01*
X108365600Y-105151710D01*
X108365600Y-104475490D01*
X108369685Y-104434009D01*
X108379993Y-104400031D01*
X108396734Y-104368710D01*
X108419261Y-104341261D01*
X108446710Y-104318734D01*
X108478031Y-104301993D01*
X108512009Y-104291685D01*
X108553490Y-104287600D01*
X109154710Y-104287600D01*
X109196191Y-104291685D01*
G37*
G36*
X110771191Y-104291685D02*
G01*
X110805169Y-104301993D01*
X110836490Y-104318734D01*
X110863939Y-104341261D01*
X110886466Y-104368710D01*
X110903207Y-104400031D01*
X110913515Y-104434009D01*
X110917600Y-104475490D01*
X110917600Y-105151710D01*
X110913515Y-105193191D01*
X110903207Y-105227169D01*
X110886466Y-105258490D01*
X110863939Y-105285939D01*
X110836490Y-105308466D01*
X110805169Y-105325207D01*
X110771191Y-105335515D01*
X110729710Y-105339600D01*
X110128490Y-105339600D01*
X110087009Y-105335515D01*
X110053031Y-105325207D01*
X110021710Y-105308466D01*
X109994261Y-105285939D01*
X109971734Y-105258490D01*
X109954993Y-105227169D01*
X109944685Y-105193191D01*
X109940600Y-105151710D01*
X109940600Y-104475490D01*
X109944685Y-104434009D01*
X109954993Y-104400031D01*
X109971734Y-104368710D01*
X109994261Y-104341261D01*
X110021710Y-104318734D01*
X110053031Y-104301993D01*
X110087009Y-104291685D01*
X110128490Y-104287600D01*
X110729710Y-104287600D01*
X110771191Y-104291685D01*
G37*
G36*
X127951591Y-103123285D02*
G01*
X127985569Y-103133593D01*
X128016890Y-103150334D01*
X128044339Y-103172861D01*
X128066866Y-103200310D01*
X128083607Y-103231631D01*
X128093915Y-103265609D01*
X128098000Y-103307090D01*
X128098000Y-103983310D01*
X128093915Y-104024791D01*
X128083607Y-104058769D01*
X128066866Y-104090090D01*
X128044339Y-104117539D01*
X128016890Y-104140066D01*
X127985569Y-104156807D01*
X127951591Y-104167115D01*
X127910110Y-104171200D01*
X127308890Y-104171200D01*
X127267409Y-104167115D01*
X127233431Y-104156807D01*
X127202110Y-104140066D01*
X127174661Y-104117539D01*
X127152134Y-104090090D01*
X127135393Y-104058769D01*
X127125085Y-104024791D01*
X127121000Y-103983310D01*
X127121000Y-103307090D01*
X127125085Y-103265609D01*
X127135393Y-103231631D01*
X127152134Y-103200310D01*
X127174661Y-103172861D01*
X127202110Y-103150334D01*
X127233431Y-103133593D01*
X127267409Y-103123285D01*
X127308890Y-103119200D01*
X127910110Y-103119200D01*
X127951591Y-103123285D01*
G37*
G36*
X129526591Y-103123285D02*
G01*
X129560569Y-103133593D01*
X129591890Y-103150334D01*
X129619339Y-103172861D01*
X129641866Y-103200310D01*
X129658607Y-103231631D01*
X129668915Y-103265609D01*
X129673000Y-103307090D01*
X129673000Y-103983310D01*
X129668915Y-104024791D01*
X129658607Y-104058769D01*
X129641866Y-104090090D01*
X129619339Y-104117539D01*
X129591890Y-104140066D01*
X129560569Y-104156807D01*
X129526591Y-104167115D01*
X129485110Y-104171200D01*
X128883890Y-104171200D01*
X128842409Y-104167115D01*
X128808431Y-104156807D01*
X128777110Y-104140066D01*
X128749661Y-104117539D01*
X128727134Y-104090090D01*
X128710393Y-104058769D01*
X128700085Y-104024791D01*
X128696000Y-103983310D01*
X128696000Y-103307090D01*
X128700085Y-103265609D01*
X128710393Y-103231631D01*
X128727134Y-103200310D01*
X128749661Y-103172861D01*
X128777110Y-103150334D01*
X128808431Y-103133593D01*
X128842409Y-103123285D01*
X128883890Y-103119200D01*
X129485110Y-103119200D01*
X129526591Y-103123285D01*
G37*
G36*
X129224549Y-99871116D02*
G01*
X129335734Y-99893232D01*
X129545203Y-99979997D01*
X129733720Y-100105960D01*
X129894040Y-100266280D01*
X130020003Y-100454797D01*
X130106768Y-100664266D01*
X130151000Y-100886636D01*
X130151000Y-101113364D01*
X130106768Y-101335734D01*
X130020003Y-101545203D01*
X129894040Y-101733720D01*
X129733720Y-101894040D01*
X129545203Y-102020003D01*
X129335734Y-102106768D01*
X129224549Y-102128884D01*
X129113365Y-102151000D01*
X128886635Y-102151000D01*
X128775451Y-102128884D01*
X128664266Y-102106768D01*
X128454797Y-102020003D01*
X128266280Y-101894040D01*
X128105960Y-101733720D01*
X127979997Y-101545203D01*
X127893232Y-101335734D01*
X127849000Y-101113364D01*
X127849000Y-100886636D01*
X127893232Y-100664266D01*
X127979997Y-100454797D01*
X128105960Y-100266280D01*
X128266280Y-100105960D01*
X128454797Y-99979997D01*
X128664266Y-99893232D01*
X128775451Y-99871116D01*
X128886635Y-99849000D01*
X129113365Y-99849000D01*
X129224549Y-99871116D01*
G37*
G36*
X109224549Y-99871116D02*
G01*
X109335734Y-99893232D01*
X109545203Y-99979997D01*
X109733720Y-100105960D01*
X109894040Y-100266280D01*
X110020003Y-100454797D01*
X110106768Y-100664266D01*
X110151000Y-100886636D01*
X110151000Y-101113364D01*
X110106768Y-101335734D01*
X110020003Y-101545203D01*
X109894040Y-101733720D01*
X109733720Y-101894040D01*
X109545203Y-102020003D01*
X109335734Y-102106768D01*
X109224549Y-102128884D01*
X109113365Y-102151000D01*
X108886635Y-102151000D01*
X108775451Y-102128884D01*
X108664266Y-102106768D01*
X108454797Y-102020003D01*
X108266280Y-101894040D01*
X108105960Y-101733720D01*
X107979997Y-101545203D01*
X107893232Y-101335734D01*
X107849000Y-101113364D01*
X107849000Y-100886636D01*
X107893232Y-100664266D01*
X107979997Y-100454797D01*
X108105960Y-100266280D01*
X108266280Y-100105960D01*
X108454797Y-99979997D01*
X108664266Y-99893232D01*
X108775451Y-99871116D01*
X108886635Y-99849000D01*
X109113365Y-99849000D01*
X109224549Y-99871116D01*
G37*
M02*
