%TF.GenerationSoftware,KiCad,Pcbnew,(5.1.5)-3*%
%TF.CreationDate,2020-05-01T16:03:37+02:00*%
%TF.ProjectId,SX1280_module,53583132-3830-45f6-9d6f-64756c652e6b,rev?*%
%TF.SameCoordinates,Original*%
%TF.FileFunction,Paste,Bot*%
%TF.FilePolarity,Positive*%
%FSLAX46Y46*%
G04 Gerber Fmt 4.6, Leading zero omitted, Abs format (unit mm)*
G04 Created by KiCad (PCBNEW (5.1.5)-3) date 2020-05-01 16:03:37*
%MOMM*%
%LPD*%
G04 APERTURE LIST*
%ADD10C,0.100000*%
%ADD11R,2.000000X0.800000*%
G04 APERTURE END LIST*
D10*
%TO.C,R18*%
G36*
X129424691Y-103171253D02*
G01*
X129445926Y-103174403D01*
X129466750Y-103179619D01*
X129486962Y-103186851D01*
X129506368Y-103196030D01*
X129524781Y-103207066D01*
X129542024Y-103219854D01*
X129557930Y-103234270D01*
X129572346Y-103250176D01*
X129585134Y-103267419D01*
X129596170Y-103285832D01*
X129605349Y-103305238D01*
X129612581Y-103325450D01*
X129617797Y-103346274D01*
X129620947Y-103367509D01*
X129622000Y-103388950D01*
X129622000Y-103901450D01*
X129620947Y-103922891D01*
X129617797Y-103944126D01*
X129612581Y-103964950D01*
X129605349Y-103985162D01*
X129596170Y-104004568D01*
X129585134Y-104022981D01*
X129572346Y-104040224D01*
X129557930Y-104056130D01*
X129542024Y-104070546D01*
X129524781Y-104083334D01*
X129506368Y-104094370D01*
X129486962Y-104103549D01*
X129466750Y-104110781D01*
X129445926Y-104115997D01*
X129424691Y-104119147D01*
X129403250Y-104120200D01*
X128965750Y-104120200D01*
X128944309Y-104119147D01*
X128923074Y-104115997D01*
X128902250Y-104110781D01*
X128882038Y-104103549D01*
X128862632Y-104094370D01*
X128844219Y-104083334D01*
X128826976Y-104070546D01*
X128811070Y-104056130D01*
X128796654Y-104040224D01*
X128783866Y-104022981D01*
X128772830Y-104004568D01*
X128763651Y-103985162D01*
X128756419Y-103964950D01*
X128751203Y-103944126D01*
X128748053Y-103922891D01*
X128747000Y-103901450D01*
X128747000Y-103388950D01*
X128748053Y-103367509D01*
X128751203Y-103346274D01*
X128756419Y-103325450D01*
X128763651Y-103305238D01*
X128772830Y-103285832D01*
X128783866Y-103267419D01*
X128796654Y-103250176D01*
X128811070Y-103234270D01*
X128826976Y-103219854D01*
X128844219Y-103207066D01*
X128862632Y-103196030D01*
X128882038Y-103186851D01*
X128902250Y-103179619D01*
X128923074Y-103174403D01*
X128944309Y-103171253D01*
X128965750Y-103170200D01*
X129403250Y-103170200D01*
X129424691Y-103171253D01*
G37*
G36*
X127849691Y-103171253D02*
G01*
X127870926Y-103174403D01*
X127891750Y-103179619D01*
X127911962Y-103186851D01*
X127931368Y-103196030D01*
X127949781Y-103207066D01*
X127967024Y-103219854D01*
X127982930Y-103234270D01*
X127997346Y-103250176D01*
X128010134Y-103267419D01*
X128021170Y-103285832D01*
X128030349Y-103305238D01*
X128037581Y-103325450D01*
X128042797Y-103346274D01*
X128045947Y-103367509D01*
X128047000Y-103388950D01*
X128047000Y-103901450D01*
X128045947Y-103922891D01*
X128042797Y-103944126D01*
X128037581Y-103964950D01*
X128030349Y-103985162D01*
X128021170Y-104004568D01*
X128010134Y-104022981D01*
X127997346Y-104040224D01*
X127982930Y-104056130D01*
X127967024Y-104070546D01*
X127949781Y-104083334D01*
X127931368Y-104094370D01*
X127911962Y-104103549D01*
X127891750Y-104110781D01*
X127870926Y-104115997D01*
X127849691Y-104119147D01*
X127828250Y-104120200D01*
X127390750Y-104120200D01*
X127369309Y-104119147D01*
X127348074Y-104115997D01*
X127327250Y-104110781D01*
X127307038Y-104103549D01*
X127287632Y-104094370D01*
X127269219Y-104083334D01*
X127251976Y-104070546D01*
X127236070Y-104056130D01*
X127221654Y-104040224D01*
X127208866Y-104022981D01*
X127197830Y-104004568D01*
X127188651Y-103985162D01*
X127181419Y-103964950D01*
X127176203Y-103944126D01*
X127173053Y-103922891D01*
X127172000Y-103901450D01*
X127172000Y-103388950D01*
X127173053Y-103367509D01*
X127176203Y-103346274D01*
X127181419Y-103325450D01*
X127188651Y-103305238D01*
X127197830Y-103285832D01*
X127208866Y-103267419D01*
X127221654Y-103250176D01*
X127236070Y-103234270D01*
X127251976Y-103219854D01*
X127269219Y-103207066D01*
X127287632Y-103196030D01*
X127307038Y-103186851D01*
X127327250Y-103179619D01*
X127348074Y-103174403D01*
X127369309Y-103171253D01*
X127390750Y-103170200D01*
X127828250Y-103170200D01*
X127849691Y-103171253D01*
G37*
%TD*%
%TO.C,R17*%
G36*
X110669291Y-104339653D02*
G01*
X110690526Y-104342803D01*
X110711350Y-104348019D01*
X110731562Y-104355251D01*
X110750968Y-104364430D01*
X110769381Y-104375466D01*
X110786624Y-104388254D01*
X110802530Y-104402670D01*
X110816946Y-104418576D01*
X110829734Y-104435819D01*
X110840770Y-104454232D01*
X110849949Y-104473638D01*
X110857181Y-104493850D01*
X110862397Y-104514674D01*
X110865547Y-104535909D01*
X110866600Y-104557350D01*
X110866600Y-105069850D01*
X110865547Y-105091291D01*
X110862397Y-105112526D01*
X110857181Y-105133350D01*
X110849949Y-105153562D01*
X110840770Y-105172968D01*
X110829734Y-105191381D01*
X110816946Y-105208624D01*
X110802530Y-105224530D01*
X110786624Y-105238946D01*
X110769381Y-105251734D01*
X110750968Y-105262770D01*
X110731562Y-105271949D01*
X110711350Y-105279181D01*
X110690526Y-105284397D01*
X110669291Y-105287547D01*
X110647850Y-105288600D01*
X110210350Y-105288600D01*
X110188909Y-105287547D01*
X110167674Y-105284397D01*
X110146850Y-105279181D01*
X110126638Y-105271949D01*
X110107232Y-105262770D01*
X110088819Y-105251734D01*
X110071576Y-105238946D01*
X110055670Y-105224530D01*
X110041254Y-105208624D01*
X110028466Y-105191381D01*
X110017430Y-105172968D01*
X110008251Y-105153562D01*
X110001019Y-105133350D01*
X109995803Y-105112526D01*
X109992653Y-105091291D01*
X109991600Y-105069850D01*
X109991600Y-104557350D01*
X109992653Y-104535909D01*
X109995803Y-104514674D01*
X110001019Y-104493850D01*
X110008251Y-104473638D01*
X110017430Y-104454232D01*
X110028466Y-104435819D01*
X110041254Y-104418576D01*
X110055670Y-104402670D01*
X110071576Y-104388254D01*
X110088819Y-104375466D01*
X110107232Y-104364430D01*
X110126638Y-104355251D01*
X110146850Y-104348019D01*
X110167674Y-104342803D01*
X110188909Y-104339653D01*
X110210350Y-104338600D01*
X110647850Y-104338600D01*
X110669291Y-104339653D01*
G37*
G36*
X109094291Y-104339653D02*
G01*
X109115526Y-104342803D01*
X109136350Y-104348019D01*
X109156562Y-104355251D01*
X109175968Y-104364430D01*
X109194381Y-104375466D01*
X109211624Y-104388254D01*
X109227530Y-104402670D01*
X109241946Y-104418576D01*
X109254734Y-104435819D01*
X109265770Y-104454232D01*
X109274949Y-104473638D01*
X109282181Y-104493850D01*
X109287397Y-104514674D01*
X109290547Y-104535909D01*
X109291600Y-104557350D01*
X109291600Y-105069850D01*
X109290547Y-105091291D01*
X109287397Y-105112526D01*
X109282181Y-105133350D01*
X109274949Y-105153562D01*
X109265770Y-105172968D01*
X109254734Y-105191381D01*
X109241946Y-105208624D01*
X109227530Y-105224530D01*
X109211624Y-105238946D01*
X109194381Y-105251734D01*
X109175968Y-105262770D01*
X109156562Y-105271949D01*
X109136350Y-105279181D01*
X109115526Y-105284397D01*
X109094291Y-105287547D01*
X109072850Y-105288600D01*
X108635350Y-105288600D01*
X108613909Y-105287547D01*
X108592674Y-105284397D01*
X108571850Y-105279181D01*
X108551638Y-105271949D01*
X108532232Y-105262770D01*
X108513819Y-105251734D01*
X108496576Y-105238946D01*
X108480670Y-105224530D01*
X108466254Y-105208624D01*
X108453466Y-105191381D01*
X108442430Y-105172968D01*
X108433251Y-105153562D01*
X108426019Y-105133350D01*
X108420803Y-105112526D01*
X108417653Y-105091291D01*
X108416600Y-105069850D01*
X108416600Y-104557350D01*
X108417653Y-104535909D01*
X108420803Y-104514674D01*
X108426019Y-104493850D01*
X108433251Y-104473638D01*
X108442430Y-104454232D01*
X108453466Y-104435819D01*
X108466254Y-104418576D01*
X108480670Y-104402670D01*
X108496576Y-104388254D01*
X108513819Y-104375466D01*
X108532232Y-104364430D01*
X108551638Y-104355251D01*
X108571850Y-104348019D01*
X108592674Y-104342803D01*
X108613909Y-104339653D01*
X108635350Y-104338600D01*
X109072850Y-104338600D01*
X109094291Y-104339653D01*
G37*
%TD*%
%TO.C,R16*%
G36*
X130481291Y-109013253D02*
G01*
X130502526Y-109016403D01*
X130523350Y-109021619D01*
X130543562Y-109028851D01*
X130562968Y-109038030D01*
X130581381Y-109049066D01*
X130598624Y-109061854D01*
X130614530Y-109076270D01*
X130628946Y-109092176D01*
X130641734Y-109109419D01*
X130652770Y-109127832D01*
X130661949Y-109147238D01*
X130669181Y-109167450D01*
X130674397Y-109188274D01*
X130677547Y-109209509D01*
X130678600Y-109230950D01*
X130678600Y-109743450D01*
X130677547Y-109764891D01*
X130674397Y-109786126D01*
X130669181Y-109806950D01*
X130661949Y-109827162D01*
X130652770Y-109846568D01*
X130641734Y-109864981D01*
X130628946Y-109882224D01*
X130614530Y-109898130D01*
X130598624Y-109912546D01*
X130581381Y-109925334D01*
X130562968Y-109936370D01*
X130543562Y-109945549D01*
X130523350Y-109952781D01*
X130502526Y-109957997D01*
X130481291Y-109961147D01*
X130459850Y-109962200D01*
X130022350Y-109962200D01*
X130000909Y-109961147D01*
X129979674Y-109957997D01*
X129958850Y-109952781D01*
X129938638Y-109945549D01*
X129919232Y-109936370D01*
X129900819Y-109925334D01*
X129883576Y-109912546D01*
X129867670Y-109898130D01*
X129853254Y-109882224D01*
X129840466Y-109864981D01*
X129829430Y-109846568D01*
X129820251Y-109827162D01*
X129813019Y-109806950D01*
X129807803Y-109786126D01*
X129804653Y-109764891D01*
X129803600Y-109743450D01*
X129803600Y-109230950D01*
X129804653Y-109209509D01*
X129807803Y-109188274D01*
X129813019Y-109167450D01*
X129820251Y-109147238D01*
X129829430Y-109127832D01*
X129840466Y-109109419D01*
X129853254Y-109092176D01*
X129867670Y-109076270D01*
X129883576Y-109061854D01*
X129900819Y-109049066D01*
X129919232Y-109038030D01*
X129938638Y-109028851D01*
X129958850Y-109021619D01*
X129979674Y-109016403D01*
X130000909Y-109013253D01*
X130022350Y-109012200D01*
X130459850Y-109012200D01*
X130481291Y-109013253D01*
G37*
G36*
X128906291Y-109013253D02*
G01*
X128927526Y-109016403D01*
X128948350Y-109021619D01*
X128968562Y-109028851D01*
X128987968Y-109038030D01*
X129006381Y-109049066D01*
X129023624Y-109061854D01*
X129039530Y-109076270D01*
X129053946Y-109092176D01*
X129066734Y-109109419D01*
X129077770Y-109127832D01*
X129086949Y-109147238D01*
X129094181Y-109167450D01*
X129099397Y-109188274D01*
X129102547Y-109209509D01*
X129103600Y-109230950D01*
X129103600Y-109743450D01*
X129102547Y-109764891D01*
X129099397Y-109786126D01*
X129094181Y-109806950D01*
X129086949Y-109827162D01*
X129077770Y-109846568D01*
X129066734Y-109864981D01*
X129053946Y-109882224D01*
X129039530Y-109898130D01*
X129023624Y-109912546D01*
X129006381Y-109925334D01*
X128987968Y-109936370D01*
X128968562Y-109945549D01*
X128948350Y-109952781D01*
X128927526Y-109957997D01*
X128906291Y-109961147D01*
X128884850Y-109962200D01*
X128447350Y-109962200D01*
X128425909Y-109961147D01*
X128404674Y-109957997D01*
X128383850Y-109952781D01*
X128363638Y-109945549D01*
X128344232Y-109936370D01*
X128325819Y-109925334D01*
X128308576Y-109912546D01*
X128292670Y-109898130D01*
X128278254Y-109882224D01*
X128265466Y-109864981D01*
X128254430Y-109846568D01*
X128245251Y-109827162D01*
X128238019Y-109806950D01*
X128232803Y-109786126D01*
X128229653Y-109764891D01*
X128228600Y-109743450D01*
X128228600Y-109230950D01*
X128229653Y-109209509D01*
X128232803Y-109188274D01*
X128238019Y-109167450D01*
X128245251Y-109147238D01*
X128254430Y-109127832D01*
X128265466Y-109109419D01*
X128278254Y-109092176D01*
X128292670Y-109076270D01*
X128308576Y-109061854D01*
X128325819Y-109049066D01*
X128344232Y-109038030D01*
X128363638Y-109028851D01*
X128383850Y-109021619D01*
X128404674Y-109016403D01*
X128425909Y-109013253D01*
X128447350Y-109012200D01*
X128884850Y-109012200D01*
X128906291Y-109013253D01*
G37*
%TD*%
%TO.C,R14*%
G36*
X130379691Y-106727253D02*
G01*
X130400926Y-106730403D01*
X130421750Y-106735619D01*
X130441962Y-106742851D01*
X130461368Y-106752030D01*
X130479781Y-106763066D01*
X130497024Y-106775854D01*
X130512930Y-106790270D01*
X130527346Y-106806176D01*
X130540134Y-106823419D01*
X130551170Y-106841832D01*
X130560349Y-106861238D01*
X130567581Y-106881450D01*
X130572797Y-106902274D01*
X130575947Y-106923509D01*
X130577000Y-106944950D01*
X130577000Y-107457450D01*
X130575947Y-107478891D01*
X130572797Y-107500126D01*
X130567581Y-107520950D01*
X130560349Y-107541162D01*
X130551170Y-107560568D01*
X130540134Y-107578981D01*
X130527346Y-107596224D01*
X130512930Y-107612130D01*
X130497024Y-107626546D01*
X130479781Y-107639334D01*
X130461368Y-107650370D01*
X130441962Y-107659549D01*
X130421750Y-107666781D01*
X130400926Y-107671997D01*
X130379691Y-107675147D01*
X130358250Y-107676200D01*
X129920750Y-107676200D01*
X129899309Y-107675147D01*
X129878074Y-107671997D01*
X129857250Y-107666781D01*
X129837038Y-107659549D01*
X129817632Y-107650370D01*
X129799219Y-107639334D01*
X129781976Y-107626546D01*
X129766070Y-107612130D01*
X129751654Y-107596224D01*
X129738866Y-107578981D01*
X129727830Y-107560568D01*
X129718651Y-107541162D01*
X129711419Y-107520950D01*
X129706203Y-107500126D01*
X129703053Y-107478891D01*
X129702000Y-107457450D01*
X129702000Y-106944950D01*
X129703053Y-106923509D01*
X129706203Y-106902274D01*
X129711419Y-106881450D01*
X129718651Y-106861238D01*
X129727830Y-106841832D01*
X129738866Y-106823419D01*
X129751654Y-106806176D01*
X129766070Y-106790270D01*
X129781976Y-106775854D01*
X129799219Y-106763066D01*
X129817632Y-106752030D01*
X129837038Y-106742851D01*
X129857250Y-106735619D01*
X129878074Y-106730403D01*
X129899309Y-106727253D01*
X129920750Y-106726200D01*
X130358250Y-106726200D01*
X130379691Y-106727253D01*
G37*
G36*
X128804691Y-106727253D02*
G01*
X128825926Y-106730403D01*
X128846750Y-106735619D01*
X128866962Y-106742851D01*
X128886368Y-106752030D01*
X128904781Y-106763066D01*
X128922024Y-106775854D01*
X128937930Y-106790270D01*
X128952346Y-106806176D01*
X128965134Y-106823419D01*
X128976170Y-106841832D01*
X128985349Y-106861238D01*
X128992581Y-106881450D01*
X128997797Y-106902274D01*
X129000947Y-106923509D01*
X129002000Y-106944950D01*
X129002000Y-107457450D01*
X129000947Y-107478891D01*
X128997797Y-107500126D01*
X128992581Y-107520950D01*
X128985349Y-107541162D01*
X128976170Y-107560568D01*
X128965134Y-107578981D01*
X128952346Y-107596224D01*
X128937930Y-107612130D01*
X128922024Y-107626546D01*
X128904781Y-107639334D01*
X128886368Y-107650370D01*
X128866962Y-107659549D01*
X128846750Y-107666781D01*
X128825926Y-107671997D01*
X128804691Y-107675147D01*
X128783250Y-107676200D01*
X128345750Y-107676200D01*
X128324309Y-107675147D01*
X128303074Y-107671997D01*
X128282250Y-107666781D01*
X128262038Y-107659549D01*
X128242632Y-107650370D01*
X128224219Y-107639334D01*
X128206976Y-107626546D01*
X128191070Y-107612130D01*
X128176654Y-107596224D01*
X128163866Y-107578981D01*
X128152830Y-107560568D01*
X128143651Y-107541162D01*
X128136419Y-107520950D01*
X128131203Y-107500126D01*
X128128053Y-107478891D01*
X128127000Y-107457450D01*
X128127000Y-106944950D01*
X128128053Y-106923509D01*
X128131203Y-106902274D01*
X128136419Y-106881450D01*
X128143651Y-106861238D01*
X128152830Y-106841832D01*
X128163866Y-106823419D01*
X128176654Y-106806176D01*
X128191070Y-106790270D01*
X128206976Y-106775854D01*
X128224219Y-106763066D01*
X128242632Y-106752030D01*
X128262038Y-106742851D01*
X128282250Y-106735619D01*
X128303074Y-106730403D01*
X128324309Y-106727253D01*
X128345750Y-106726200D01*
X128783250Y-106726200D01*
X128804691Y-106727253D01*
G37*
%TD*%
%TO.C,R13*%
G36*
X130339191Y-104936053D02*
G01*
X130360426Y-104939203D01*
X130381250Y-104944419D01*
X130401462Y-104951651D01*
X130420868Y-104960830D01*
X130439281Y-104971866D01*
X130456524Y-104984654D01*
X130472430Y-104999070D01*
X130486846Y-105014976D01*
X130499634Y-105032219D01*
X130510670Y-105050632D01*
X130519849Y-105070038D01*
X130527081Y-105090250D01*
X130532297Y-105111074D01*
X130535447Y-105132309D01*
X130536500Y-105153750D01*
X130536500Y-105666250D01*
X130535447Y-105687691D01*
X130532297Y-105708926D01*
X130527081Y-105729750D01*
X130519849Y-105749962D01*
X130510670Y-105769368D01*
X130499634Y-105787781D01*
X130486846Y-105805024D01*
X130472430Y-105820930D01*
X130456524Y-105835346D01*
X130439281Y-105848134D01*
X130420868Y-105859170D01*
X130401462Y-105868349D01*
X130381250Y-105875581D01*
X130360426Y-105880797D01*
X130339191Y-105883947D01*
X130317750Y-105885000D01*
X129880250Y-105885000D01*
X129858809Y-105883947D01*
X129837574Y-105880797D01*
X129816750Y-105875581D01*
X129796538Y-105868349D01*
X129777132Y-105859170D01*
X129758719Y-105848134D01*
X129741476Y-105835346D01*
X129725570Y-105820930D01*
X129711154Y-105805024D01*
X129698366Y-105787781D01*
X129687330Y-105769368D01*
X129678151Y-105749962D01*
X129670919Y-105729750D01*
X129665703Y-105708926D01*
X129662553Y-105687691D01*
X129661500Y-105666250D01*
X129661500Y-105153750D01*
X129662553Y-105132309D01*
X129665703Y-105111074D01*
X129670919Y-105090250D01*
X129678151Y-105070038D01*
X129687330Y-105050632D01*
X129698366Y-105032219D01*
X129711154Y-105014976D01*
X129725570Y-104999070D01*
X129741476Y-104984654D01*
X129758719Y-104971866D01*
X129777132Y-104960830D01*
X129796538Y-104951651D01*
X129816750Y-104944419D01*
X129837574Y-104939203D01*
X129858809Y-104936053D01*
X129880250Y-104935000D01*
X130317750Y-104935000D01*
X130339191Y-104936053D01*
G37*
G36*
X128764191Y-104936053D02*
G01*
X128785426Y-104939203D01*
X128806250Y-104944419D01*
X128826462Y-104951651D01*
X128845868Y-104960830D01*
X128864281Y-104971866D01*
X128881524Y-104984654D01*
X128897430Y-104999070D01*
X128911846Y-105014976D01*
X128924634Y-105032219D01*
X128935670Y-105050632D01*
X128944849Y-105070038D01*
X128952081Y-105090250D01*
X128957297Y-105111074D01*
X128960447Y-105132309D01*
X128961500Y-105153750D01*
X128961500Y-105666250D01*
X128960447Y-105687691D01*
X128957297Y-105708926D01*
X128952081Y-105729750D01*
X128944849Y-105749962D01*
X128935670Y-105769368D01*
X128924634Y-105787781D01*
X128911846Y-105805024D01*
X128897430Y-105820930D01*
X128881524Y-105835346D01*
X128864281Y-105848134D01*
X128845868Y-105859170D01*
X128826462Y-105868349D01*
X128806250Y-105875581D01*
X128785426Y-105880797D01*
X128764191Y-105883947D01*
X128742750Y-105885000D01*
X128305250Y-105885000D01*
X128283809Y-105883947D01*
X128262574Y-105880797D01*
X128241750Y-105875581D01*
X128221538Y-105868349D01*
X128202132Y-105859170D01*
X128183719Y-105848134D01*
X128166476Y-105835346D01*
X128150570Y-105820930D01*
X128136154Y-105805024D01*
X128123366Y-105787781D01*
X128112330Y-105769368D01*
X128103151Y-105749962D01*
X128095919Y-105729750D01*
X128090703Y-105708926D01*
X128087553Y-105687691D01*
X128086500Y-105666250D01*
X128086500Y-105153750D01*
X128087553Y-105132309D01*
X128090703Y-105111074D01*
X128095919Y-105090250D01*
X128103151Y-105070038D01*
X128112330Y-105050632D01*
X128123366Y-105032219D01*
X128136154Y-105014976D01*
X128150570Y-104999070D01*
X128166476Y-104984654D01*
X128183719Y-104971866D01*
X128202132Y-104960830D01*
X128221538Y-104951651D01*
X128241750Y-104944419D01*
X128262574Y-104939203D01*
X128283809Y-104936053D01*
X128305250Y-104935000D01*
X128742750Y-104935000D01*
X128764191Y-104936053D01*
G37*
%TD*%
%TO.C,R12*%
G36*
X108164691Y-106206053D02*
G01*
X108185926Y-106209203D01*
X108206750Y-106214419D01*
X108226962Y-106221651D01*
X108246368Y-106230830D01*
X108264781Y-106241866D01*
X108282024Y-106254654D01*
X108297930Y-106269070D01*
X108312346Y-106284976D01*
X108325134Y-106302219D01*
X108336170Y-106320632D01*
X108345349Y-106340038D01*
X108352581Y-106360250D01*
X108357797Y-106381074D01*
X108360947Y-106402309D01*
X108362000Y-106423750D01*
X108362000Y-106936250D01*
X108360947Y-106957691D01*
X108357797Y-106978926D01*
X108352581Y-106999750D01*
X108345349Y-107019962D01*
X108336170Y-107039368D01*
X108325134Y-107057781D01*
X108312346Y-107075024D01*
X108297930Y-107090930D01*
X108282024Y-107105346D01*
X108264781Y-107118134D01*
X108246368Y-107129170D01*
X108226962Y-107138349D01*
X108206750Y-107145581D01*
X108185926Y-107150797D01*
X108164691Y-107153947D01*
X108143250Y-107155000D01*
X107705750Y-107155000D01*
X107684309Y-107153947D01*
X107663074Y-107150797D01*
X107642250Y-107145581D01*
X107622038Y-107138349D01*
X107602632Y-107129170D01*
X107584219Y-107118134D01*
X107566976Y-107105346D01*
X107551070Y-107090930D01*
X107536654Y-107075024D01*
X107523866Y-107057781D01*
X107512830Y-107039368D01*
X107503651Y-107019962D01*
X107496419Y-106999750D01*
X107491203Y-106978926D01*
X107488053Y-106957691D01*
X107487000Y-106936250D01*
X107487000Y-106423750D01*
X107488053Y-106402309D01*
X107491203Y-106381074D01*
X107496419Y-106360250D01*
X107503651Y-106340038D01*
X107512830Y-106320632D01*
X107523866Y-106302219D01*
X107536654Y-106284976D01*
X107551070Y-106269070D01*
X107566976Y-106254654D01*
X107584219Y-106241866D01*
X107602632Y-106230830D01*
X107622038Y-106221651D01*
X107642250Y-106214419D01*
X107663074Y-106209203D01*
X107684309Y-106206053D01*
X107705750Y-106205000D01*
X108143250Y-106205000D01*
X108164691Y-106206053D01*
G37*
G36*
X109739691Y-106206053D02*
G01*
X109760926Y-106209203D01*
X109781750Y-106214419D01*
X109801962Y-106221651D01*
X109821368Y-106230830D01*
X109839781Y-106241866D01*
X109857024Y-106254654D01*
X109872930Y-106269070D01*
X109887346Y-106284976D01*
X109900134Y-106302219D01*
X109911170Y-106320632D01*
X109920349Y-106340038D01*
X109927581Y-106360250D01*
X109932797Y-106381074D01*
X109935947Y-106402309D01*
X109937000Y-106423750D01*
X109937000Y-106936250D01*
X109935947Y-106957691D01*
X109932797Y-106978926D01*
X109927581Y-106999750D01*
X109920349Y-107019962D01*
X109911170Y-107039368D01*
X109900134Y-107057781D01*
X109887346Y-107075024D01*
X109872930Y-107090930D01*
X109857024Y-107105346D01*
X109839781Y-107118134D01*
X109821368Y-107129170D01*
X109801962Y-107138349D01*
X109781750Y-107145581D01*
X109760926Y-107150797D01*
X109739691Y-107153947D01*
X109718250Y-107155000D01*
X109280750Y-107155000D01*
X109259309Y-107153947D01*
X109238074Y-107150797D01*
X109217250Y-107145581D01*
X109197038Y-107138349D01*
X109177632Y-107129170D01*
X109159219Y-107118134D01*
X109141976Y-107105346D01*
X109126070Y-107090930D01*
X109111654Y-107075024D01*
X109098866Y-107057781D01*
X109087830Y-107039368D01*
X109078651Y-107019962D01*
X109071419Y-106999750D01*
X109066203Y-106978926D01*
X109063053Y-106957691D01*
X109062000Y-106936250D01*
X109062000Y-106423750D01*
X109063053Y-106402309D01*
X109066203Y-106381074D01*
X109071419Y-106360250D01*
X109078651Y-106340038D01*
X109087830Y-106320632D01*
X109098866Y-106302219D01*
X109111654Y-106284976D01*
X109126070Y-106269070D01*
X109141976Y-106254654D01*
X109159219Y-106241866D01*
X109177632Y-106230830D01*
X109197038Y-106221651D01*
X109217250Y-106214419D01*
X109238074Y-106209203D01*
X109259309Y-106206053D01*
X109280750Y-106205000D01*
X109718250Y-106205000D01*
X109739691Y-106206053D01*
G37*
%TD*%
%TO.C,R11*%
G36*
X108139191Y-108873053D02*
G01*
X108160426Y-108876203D01*
X108181250Y-108881419D01*
X108201462Y-108888651D01*
X108220868Y-108897830D01*
X108239281Y-108908866D01*
X108256524Y-108921654D01*
X108272430Y-108936070D01*
X108286846Y-108951976D01*
X108299634Y-108969219D01*
X108310670Y-108987632D01*
X108319849Y-109007038D01*
X108327081Y-109027250D01*
X108332297Y-109048074D01*
X108335447Y-109069309D01*
X108336500Y-109090750D01*
X108336500Y-109603250D01*
X108335447Y-109624691D01*
X108332297Y-109645926D01*
X108327081Y-109666750D01*
X108319849Y-109686962D01*
X108310670Y-109706368D01*
X108299634Y-109724781D01*
X108286846Y-109742024D01*
X108272430Y-109757930D01*
X108256524Y-109772346D01*
X108239281Y-109785134D01*
X108220868Y-109796170D01*
X108201462Y-109805349D01*
X108181250Y-109812581D01*
X108160426Y-109817797D01*
X108139191Y-109820947D01*
X108117750Y-109822000D01*
X107680250Y-109822000D01*
X107658809Y-109820947D01*
X107637574Y-109817797D01*
X107616750Y-109812581D01*
X107596538Y-109805349D01*
X107577132Y-109796170D01*
X107558719Y-109785134D01*
X107541476Y-109772346D01*
X107525570Y-109757930D01*
X107511154Y-109742024D01*
X107498366Y-109724781D01*
X107487330Y-109706368D01*
X107478151Y-109686962D01*
X107470919Y-109666750D01*
X107465703Y-109645926D01*
X107462553Y-109624691D01*
X107461500Y-109603250D01*
X107461500Y-109090750D01*
X107462553Y-109069309D01*
X107465703Y-109048074D01*
X107470919Y-109027250D01*
X107478151Y-109007038D01*
X107487330Y-108987632D01*
X107498366Y-108969219D01*
X107511154Y-108951976D01*
X107525570Y-108936070D01*
X107541476Y-108921654D01*
X107558719Y-108908866D01*
X107577132Y-108897830D01*
X107596538Y-108888651D01*
X107616750Y-108881419D01*
X107637574Y-108876203D01*
X107658809Y-108873053D01*
X107680250Y-108872000D01*
X108117750Y-108872000D01*
X108139191Y-108873053D01*
G37*
G36*
X109714191Y-108873053D02*
G01*
X109735426Y-108876203D01*
X109756250Y-108881419D01*
X109776462Y-108888651D01*
X109795868Y-108897830D01*
X109814281Y-108908866D01*
X109831524Y-108921654D01*
X109847430Y-108936070D01*
X109861846Y-108951976D01*
X109874634Y-108969219D01*
X109885670Y-108987632D01*
X109894849Y-109007038D01*
X109902081Y-109027250D01*
X109907297Y-109048074D01*
X109910447Y-109069309D01*
X109911500Y-109090750D01*
X109911500Y-109603250D01*
X109910447Y-109624691D01*
X109907297Y-109645926D01*
X109902081Y-109666750D01*
X109894849Y-109686962D01*
X109885670Y-109706368D01*
X109874634Y-109724781D01*
X109861846Y-109742024D01*
X109847430Y-109757930D01*
X109831524Y-109772346D01*
X109814281Y-109785134D01*
X109795868Y-109796170D01*
X109776462Y-109805349D01*
X109756250Y-109812581D01*
X109735426Y-109817797D01*
X109714191Y-109820947D01*
X109692750Y-109822000D01*
X109255250Y-109822000D01*
X109233809Y-109820947D01*
X109212574Y-109817797D01*
X109191750Y-109812581D01*
X109171538Y-109805349D01*
X109152132Y-109796170D01*
X109133719Y-109785134D01*
X109116476Y-109772346D01*
X109100570Y-109757930D01*
X109086154Y-109742024D01*
X109073366Y-109724781D01*
X109062330Y-109706368D01*
X109053151Y-109686962D01*
X109045919Y-109666750D01*
X109040703Y-109645926D01*
X109037553Y-109624691D01*
X109036500Y-109603250D01*
X109036500Y-109090750D01*
X109037553Y-109069309D01*
X109040703Y-109048074D01*
X109045919Y-109027250D01*
X109053151Y-109007038D01*
X109062330Y-108987632D01*
X109073366Y-108969219D01*
X109086154Y-108951976D01*
X109100570Y-108936070D01*
X109116476Y-108921654D01*
X109133719Y-108908866D01*
X109152132Y-108897830D01*
X109171538Y-108888651D01*
X109191750Y-108881419D01*
X109212574Y-108876203D01*
X109233809Y-108873053D01*
X109255250Y-108872000D01*
X109692750Y-108872000D01*
X109714191Y-108873053D01*
G37*
%TD*%
%TO.C,R9*%
G36*
X108164691Y-112683053D02*
G01*
X108185926Y-112686203D01*
X108206750Y-112691419D01*
X108226962Y-112698651D01*
X108246368Y-112707830D01*
X108264781Y-112718866D01*
X108282024Y-112731654D01*
X108297930Y-112746070D01*
X108312346Y-112761976D01*
X108325134Y-112779219D01*
X108336170Y-112797632D01*
X108345349Y-112817038D01*
X108352581Y-112837250D01*
X108357797Y-112858074D01*
X108360947Y-112879309D01*
X108362000Y-112900750D01*
X108362000Y-113413250D01*
X108360947Y-113434691D01*
X108357797Y-113455926D01*
X108352581Y-113476750D01*
X108345349Y-113496962D01*
X108336170Y-113516368D01*
X108325134Y-113534781D01*
X108312346Y-113552024D01*
X108297930Y-113567930D01*
X108282024Y-113582346D01*
X108264781Y-113595134D01*
X108246368Y-113606170D01*
X108226962Y-113615349D01*
X108206750Y-113622581D01*
X108185926Y-113627797D01*
X108164691Y-113630947D01*
X108143250Y-113632000D01*
X107705750Y-113632000D01*
X107684309Y-113630947D01*
X107663074Y-113627797D01*
X107642250Y-113622581D01*
X107622038Y-113615349D01*
X107602632Y-113606170D01*
X107584219Y-113595134D01*
X107566976Y-113582346D01*
X107551070Y-113567930D01*
X107536654Y-113552024D01*
X107523866Y-113534781D01*
X107512830Y-113516368D01*
X107503651Y-113496962D01*
X107496419Y-113476750D01*
X107491203Y-113455926D01*
X107488053Y-113434691D01*
X107487000Y-113413250D01*
X107487000Y-112900750D01*
X107488053Y-112879309D01*
X107491203Y-112858074D01*
X107496419Y-112837250D01*
X107503651Y-112817038D01*
X107512830Y-112797632D01*
X107523866Y-112779219D01*
X107536654Y-112761976D01*
X107551070Y-112746070D01*
X107566976Y-112731654D01*
X107584219Y-112718866D01*
X107602632Y-112707830D01*
X107622038Y-112698651D01*
X107642250Y-112691419D01*
X107663074Y-112686203D01*
X107684309Y-112683053D01*
X107705750Y-112682000D01*
X108143250Y-112682000D01*
X108164691Y-112683053D01*
G37*
G36*
X109739691Y-112683053D02*
G01*
X109760926Y-112686203D01*
X109781750Y-112691419D01*
X109801962Y-112698651D01*
X109821368Y-112707830D01*
X109839781Y-112718866D01*
X109857024Y-112731654D01*
X109872930Y-112746070D01*
X109887346Y-112761976D01*
X109900134Y-112779219D01*
X109911170Y-112797632D01*
X109920349Y-112817038D01*
X109927581Y-112837250D01*
X109932797Y-112858074D01*
X109935947Y-112879309D01*
X109937000Y-112900750D01*
X109937000Y-113413250D01*
X109935947Y-113434691D01*
X109932797Y-113455926D01*
X109927581Y-113476750D01*
X109920349Y-113496962D01*
X109911170Y-113516368D01*
X109900134Y-113534781D01*
X109887346Y-113552024D01*
X109872930Y-113567930D01*
X109857024Y-113582346D01*
X109839781Y-113595134D01*
X109821368Y-113606170D01*
X109801962Y-113615349D01*
X109781750Y-113622581D01*
X109760926Y-113627797D01*
X109739691Y-113630947D01*
X109718250Y-113632000D01*
X109280750Y-113632000D01*
X109259309Y-113630947D01*
X109238074Y-113627797D01*
X109217250Y-113622581D01*
X109197038Y-113615349D01*
X109177632Y-113606170D01*
X109159219Y-113595134D01*
X109141976Y-113582346D01*
X109126070Y-113567930D01*
X109111654Y-113552024D01*
X109098866Y-113534781D01*
X109087830Y-113516368D01*
X109078651Y-113496962D01*
X109071419Y-113476750D01*
X109066203Y-113455926D01*
X109063053Y-113434691D01*
X109062000Y-113413250D01*
X109062000Y-112900750D01*
X109063053Y-112879309D01*
X109066203Y-112858074D01*
X109071419Y-112837250D01*
X109078651Y-112817038D01*
X109087830Y-112797632D01*
X109098866Y-112779219D01*
X109111654Y-112761976D01*
X109126070Y-112746070D01*
X109141976Y-112731654D01*
X109159219Y-112718866D01*
X109177632Y-112707830D01*
X109197038Y-112698651D01*
X109217250Y-112691419D01*
X109238074Y-112686203D01*
X109259309Y-112683053D01*
X109280750Y-112682000D01*
X109718250Y-112682000D01*
X109739691Y-112683053D01*
G37*
%TD*%
%TO.C,R8*%
G36*
X108164691Y-111159053D02*
G01*
X108185926Y-111162203D01*
X108206750Y-111167419D01*
X108226962Y-111174651D01*
X108246368Y-111183830D01*
X108264781Y-111194866D01*
X108282024Y-111207654D01*
X108297930Y-111222070D01*
X108312346Y-111237976D01*
X108325134Y-111255219D01*
X108336170Y-111273632D01*
X108345349Y-111293038D01*
X108352581Y-111313250D01*
X108357797Y-111334074D01*
X108360947Y-111355309D01*
X108362000Y-111376750D01*
X108362000Y-111889250D01*
X108360947Y-111910691D01*
X108357797Y-111931926D01*
X108352581Y-111952750D01*
X108345349Y-111972962D01*
X108336170Y-111992368D01*
X108325134Y-112010781D01*
X108312346Y-112028024D01*
X108297930Y-112043930D01*
X108282024Y-112058346D01*
X108264781Y-112071134D01*
X108246368Y-112082170D01*
X108226962Y-112091349D01*
X108206750Y-112098581D01*
X108185926Y-112103797D01*
X108164691Y-112106947D01*
X108143250Y-112108000D01*
X107705750Y-112108000D01*
X107684309Y-112106947D01*
X107663074Y-112103797D01*
X107642250Y-112098581D01*
X107622038Y-112091349D01*
X107602632Y-112082170D01*
X107584219Y-112071134D01*
X107566976Y-112058346D01*
X107551070Y-112043930D01*
X107536654Y-112028024D01*
X107523866Y-112010781D01*
X107512830Y-111992368D01*
X107503651Y-111972962D01*
X107496419Y-111952750D01*
X107491203Y-111931926D01*
X107488053Y-111910691D01*
X107487000Y-111889250D01*
X107487000Y-111376750D01*
X107488053Y-111355309D01*
X107491203Y-111334074D01*
X107496419Y-111313250D01*
X107503651Y-111293038D01*
X107512830Y-111273632D01*
X107523866Y-111255219D01*
X107536654Y-111237976D01*
X107551070Y-111222070D01*
X107566976Y-111207654D01*
X107584219Y-111194866D01*
X107602632Y-111183830D01*
X107622038Y-111174651D01*
X107642250Y-111167419D01*
X107663074Y-111162203D01*
X107684309Y-111159053D01*
X107705750Y-111158000D01*
X108143250Y-111158000D01*
X108164691Y-111159053D01*
G37*
G36*
X109739691Y-111159053D02*
G01*
X109760926Y-111162203D01*
X109781750Y-111167419D01*
X109801962Y-111174651D01*
X109821368Y-111183830D01*
X109839781Y-111194866D01*
X109857024Y-111207654D01*
X109872930Y-111222070D01*
X109887346Y-111237976D01*
X109900134Y-111255219D01*
X109911170Y-111273632D01*
X109920349Y-111293038D01*
X109927581Y-111313250D01*
X109932797Y-111334074D01*
X109935947Y-111355309D01*
X109937000Y-111376750D01*
X109937000Y-111889250D01*
X109935947Y-111910691D01*
X109932797Y-111931926D01*
X109927581Y-111952750D01*
X109920349Y-111972962D01*
X109911170Y-111992368D01*
X109900134Y-112010781D01*
X109887346Y-112028024D01*
X109872930Y-112043930D01*
X109857024Y-112058346D01*
X109839781Y-112071134D01*
X109821368Y-112082170D01*
X109801962Y-112091349D01*
X109781750Y-112098581D01*
X109760926Y-112103797D01*
X109739691Y-112106947D01*
X109718250Y-112108000D01*
X109280750Y-112108000D01*
X109259309Y-112106947D01*
X109238074Y-112103797D01*
X109217250Y-112098581D01*
X109197038Y-112091349D01*
X109177632Y-112082170D01*
X109159219Y-112071134D01*
X109141976Y-112058346D01*
X109126070Y-112043930D01*
X109111654Y-112028024D01*
X109098866Y-112010781D01*
X109087830Y-111992368D01*
X109078651Y-111972962D01*
X109071419Y-111952750D01*
X109066203Y-111931926D01*
X109063053Y-111910691D01*
X109062000Y-111889250D01*
X109062000Y-111376750D01*
X109063053Y-111355309D01*
X109066203Y-111334074D01*
X109071419Y-111313250D01*
X109078651Y-111293038D01*
X109087830Y-111273632D01*
X109098866Y-111255219D01*
X109111654Y-111237976D01*
X109126070Y-111222070D01*
X109141976Y-111207654D01*
X109159219Y-111194866D01*
X109177632Y-111183830D01*
X109197038Y-111174651D01*
X109217250Y-111167419D01*
X109238074Y-111162203D01*
X109259309Y-111159053D01*
X109280750Y-111158000D01*
X109718250Y-111158000D01*
X109739691Y-111159053D01*
G37*
%TD*%
D11*
%TO.C,M1*%
X111500000Y-106555000D03*
X126500000Y-106555000D03*
X111500000Y-107825000D03*
X126500000Y-107825000D03*
X111500000Y-109095000D03*
X126500000Y-109095000D03*
X111500000Y-110365000D03*
X126500000Y-110365000D03*
X111500000Y-111635000D03*
X126500000Y-111635000D03*
X111500000Y-112905000D03*
X126500000Y-112905000D03*
X111500000Y-114175000D03*
X126500000Y-114175000D03*
X111500000Y-115445000D03*
X126500000Y-115445000D03*
%TD*%
D10*
%TO.C,L1*%
G36*
X111900491Y-118829653D02*
G01*
X111921726Y-118832803D01*
X111942550Y-118838019D01*
X111962762Y-118845251D01*
X111982168Y-118854430D01*
X112000581Y-118865466D01*
X112017824Y-118878254D01*
X112033730Y-118892670D01*
X112048146Y-118908576D01*
X112060934Y-118925819D01*
X112071970Y-118944232D01*
X112081149Y-118963638D01*
X112088381Y-118983850D01*
X112093597Y-119004674D01*
X112096747Y-119025909D01*
X112097800Y-119047350D01*
X112097800Y-119484850D01*
X112096747Y-119506291D01*
X112093597Y-119527526D01*
X112088381Y-119548350D01*
X112081149Y-119568562D01*
X112071970Y-119587968D01*
X112060934Y-119606381D01*
X112048146Y-119623624D01*
X112033730Y-119639530D01*
X112017824Y-119653946D01*
X112000581Y-119666734D01*
X111982168Y-119677770D01*
X111962762Y-119686949D01*
X111942550Y-119694181D01*
X111921726Y-119699397D01*
X111900491Y-119702547D01*
X111879050Y-119703600D01*
X111366550Y-119703600D01*
X111345109Y-119702547D01*
X111323874Y-119699397D01*
X111303050Y-119694181D01*
X111282838Y-119686949D01*
X111263432Y-119677770D01*
X111245019Y-119666734D01*
X111227776Y-119653946D01*
X111211870Y-119639530D01*
X111197454Y-119623624D01*
X111184666Y-119606381D01*
X111173630Y-119587968D01*
X111164451Y-119568562D01*
X111157219Y-119548350D01*
X111152003Y-119527526D01*
X111148853Y-119506291D01*
X111147800Y-119484850D01*
X111147800Y-119047350D01*
X111148853Y-119025909D01*
X111152003Y-119004674D01*
X111157219Y-118983850D01*
X111164451Y-118963638D01*
X111173630Y-118944232D01*
X111184666Y-118925819D01*
X111197454Y-118908576D01*
X111211870Y-118892670D01*
X111227776Y-118878254D01*
X111245019Y-118865466D01*
X111263432Y-118854430D01*
X111282838Y-118845251D01*
X111303050Y-118838019D01*
X111323874Y-118832803D01*
X111345109Y-118829653D01*
X111366550Y-118828600D01*
X111879050Y-118828600D01*
X111900491Y-118829653D01*
G37*
G36*
X111900491Y-120404653D02*
G01*
X111921726Y-120407803D01*
X111942550Y-120413019D01*
X111962762Y-120420251D01*
X111982168Y-120429430D01*
X112000581Y-120440466D01*
X112017824Y-120453254D01*
X112033730Y-120467670D01*
X112048146Y-120483576D01*
X112060934Y-120500819D01*
X112071970Y-120519232D01*
X112081149Y-120538638D01*
X112088381Y-120558850D01*
X112093597Y-120579674D01*
X112096747Y-120600909D01*
X112097800Y-120622350D01*
X112097800Y-121059850D01*
X112096747Y-121081291D01*
X112093597Y-121102526D01*
X112088381Y-121123350D01*
X112081149Y-121143562D01*
X112071970Y-121162968D01*
X112060934Y-121181381D01*
X112048146Y-121198624D01*
X112033730Y-121214530D01*
X112017824Y-121228946D01*
X112000581Y-121241734D01*
X111982168Y-121252770D01*
X111962762Y-121261949D01*
X111942550Y-121269181D01*
X111921726Y-121274397D01*
X111900491Y-121277547D01*
X111879050Y-121278600D01*
X111366550Y-121278600D01*
X111345109Y-121277547D01*
X111323874Y-121274397D01*
X111303050Y-121269181D01*
X111282838Y-121261949D01*
X111263432Y-121252770D01*
X111245019Y-121241734D01*
X111227776Y-121228946D01*
X111211870Y-121214530D01*
X111197454Y-121198624D01*
X111184666Y-121181381D01*
X111173630Y-121162968D01*
X111164451Y-121143562D01*
X111157219Y-121123350D01*
X111152003Y-121102526D01*
X111148853Y-121081291D01*
X111147800Y-121059850D01*
X111147800Y-120622350D01*
X111148853Y-120600909D01*
X111152003Y-120579674D01*
X111157219Y-120558850D01*
X111164451Y-120538638D01*
X111173630Y-120519232D01*
X111184666Y-120500819D01*
X111197454Y-120483576D01*
X111211870Y-120467670D01*
X111227776Y-120453254D01*
X111245019Y-120440466D01*
X111263432Y-120429430D01*
X111282838Y-120420251D01*
X111303050Y-120413019D01*
X111323874Y-120407803D01*
X111345109Y-120404653D01*
X111366550Y-120403600D01*
X111879050Y-120403600D01*
X111900491Y-120404653D01*
G37*
%TD*%
%TO.C,C8*%
G36*
X109497691Y-115794053D02*
G01*
X109518926Y-115797203D01*
X109539750Y-115802419D01*
X109559962Y-115809651D01*
X109579368Y-115818830D01*
X109597781Y-115829866D01*
X109615024Y-115842654D01*
X109630930Y-115857070D01*
X109645346Y-115872976D01*
X109658134Y-115890219D01*
X109669170Y-115908632D01*
X109678349Y-115928038D01*
X109685581Y-115948250D01*
X109690797Y-115969074D01*
X109693947Y-115990309D01*
X109695000Y-116011750D01*
X109695000Y-116449250D01*
X109693947Y-116470691D01*
X109690797Y-116491926D01*
X109685581Y-116512750D01*
X109678349Y-116532962D01*
X109669170Y-116552368D01*
X109658134Y-116570781D01*
X109645346Y-116588024D01*
X109630930Y-116603930D01*
X109615024Y-116618346D01*
X109597781Y-116631134D01*
X109579368Y-116642170D01*
X109559962Y-116651349D01*
X109539750Y-116658581D01*
X109518926Y-116663797D01*
X109497691Y-116666947D01*
X109476250Y-116668000D01*
X108963750Y-116668000D01*
X108942309Y-116666947D01*
X108921074Y-116663797D01*
X108900250Y-116658581D01*
X108880038Y-116651349D01*
X108860632Y-116642170D01*
X108842219Y-116631134D01*
X108824976Y-116618346D01*
X108809070Y-116603930D01*
X108794654Y-116588024D01*
X108781866Y-116570781D01*
X108770830Y-116552368D01*
X108761651Y-116532962D01*
X108754419Y-116512750D01*
X108749203Y-116491926D01*
X108746053Y-116470691D01*
X108745000Y-116449250D01*
X108745000Y-116011750D01*
X108746053Y-115990309D01*
X108749203Y-115969074D01*
X108754419Y-115948250D01*
X108761651Y-115928038D01*
X108770830Y-115908632D01*
X108781866Y-115890219D01*
X108794654Y-115872976D01*
X108809070Y-115857070D01*
X108824976Y-115842654D01*
X108842219Y-115829866D01*
X108860632Y-115818830D01*
X108880038Y-115809651D01*
X108900250Y-115802419D01*
X108921074Y-115797203D01*
X108942309Y-115794053D01*
X108963750Y-115793000D01*
X109476250Y-115793000D01*
X109497691Y-115794053D01*
G37*
G36*
X109497691Y-114219053D02*
G01*
X109518926Y-114222203D01*
X109539750Y-114227419D01*
X109559962Y-114234651D01*
X109579368Y-114243830D01*
X109597781Y-114254866D01*
X109615024Y-114267654D01*
X109630930Y-114282070D01*
X109645346Y-114297976D01*
X109658134Y-114315219D01*
X109669170Y-114333632D01*
X109678349Y-114353038D01*
X109685581Y-114373250D01*
X109690797Y-114394074D01*
X109693947Y-114415309D01*
X109695000Y-114436750D01*
X109695000Y-114874250D01*
X109693947Y-114895691D01*
X109690797Y-114916926D01*
X109685581Y-114937750D01*
X109678349Y-114957962D01*
X109669170Y-114977368D01*
X109658134Y-114995781D01*
X109645346Y-115013024D01*
X109630930Y-115028930D01*
X109615024Y-115043346D01*
X109597781Y-115056134D01*
X109579368Y-115067170D01*
X109559962Y-115076349D01*
X109539750Y-115083581D01*
X109518926Y-115088797D01*
X109497691Y-115091947D01*
X109476250Y-115093000D01*
X108963750Y-115093000D01*
X108942309Y-115091947D01*
X108921074Y-115088797D01*
X108900250Y-115083581D01*
X108880038Y-115076349D01*
X108860632Y-115067170D01*
X108842219Y-115056134D01*
X108824976Y-115043346D01*
X108809070Y-115028930D01*
X108794654Y-115013024D01*
X108781866Y-114995781D01*
X108770830Y-114977368D01*
X108761651Y-114957962D01*
X108754419Y-114937750D01*
X108749203Y-114916926D01*
X108746053Y-114895691D01*
X108745000Y-114874250D01*
X108745000Y-114436750D01*
X108746053Y-114415309D01*
X108749203Y-114394074D01*
X108754419Y-114373250D01*
X108761651Y-114353038D01*
X108770830Y-114333632D01*
X108781866Y-114315219D01*
X108794654Y-114297976D01*
X108809070Y-114282070D01*
X108824976Y-114267654D01*
X108842219Y-114254866D01*
X108860632Y-114243830D01*
X108880038Y-114234651D01*
X108900250Y-114227419D01*
X108921074Y-114222203D01*
X108942309Y-114219053D01*
X108963750Y-114218000D01*
X109476250Y-114218000D01*
X109497691Y-114219053D01*
G37*
%TD*%
%TO.C,C7*%
G36*
X110882691Y-117255053D02*
G01*
X110903926Y-117258203D01*
X110924750Y-117263419D01*
X110944962Y-117270651D01*
X110964368Y-117279830D01*
X110982781Y-117290866D01*
X111000024Y-117303654D01*
X111015930Y-117318070D01*
X111030346Y-117333976D01*
X111043134Y-117351219D01*
X111054170Y-117369632D01*
X111063349Y-117389038D01*
X111070581Y-117409250D01*
X111075797Y-117430074D01*
X111078947Y-117451309D01*
X111080000Y-117472750D01*
X111080000Y-117985250D01*
X111078947Y-118006691D01*
X111075797Y-118027926D01*
X111070581Y-118048750D01*
X111063349Y-118068962D01*
X111054170Y-118088368D01*
X111043134Y-118106781D01*
X111030346Y-118124024D01*
X111015930Y-118139930D01*
X111000024Y-118154346D01*
X110982781Y-118167134D01*
X110964368Y-118178170D01*
X110944962Y-118187349D01*
X110924750Y-118194581D01*
X110903926Y-118199797D01*
X110882691Y-118202947D01*
X110861250Y-118204000D01*
X110423750Y-118204000D01*
X110402309Y-118202947D01*
X110381074Y-118199797D01*
X110360250Y-118194581D01*
X110340038Y-118187349D01*
X110320632Y-118178170D01*
X110302219Y-118167134D01*
X110284976Y-118154346D01*
X110269070Y-118139930D01*
X110254654Y-118124024D01*
X110241866Y-118106781D01*
X110230830Y-118088368D01*
X110221651Y-118068962D01*
X110214419Y-118048750D01*
X110209203Y-118027926D01*
X110206053Y-118006691D01*
X110205000Y-117985250D01*
X110205000Y-117472750D01*
X110206053Y-117451309D01*
X110209203Y-117430074D01*
X110214419Y-117409250D01*
X110221651Y-117389038D01*
X110230830Y-117369632D01*
X110241866Y-117351219D01*
X110254654Y-117333976D01*
X110269070Y-117318070D01*
X110284976Y-117303654D01*
X110302219Y-117290866D01*
X110320632Y-117279830D01*
X110340038Y-117270651D01*
X110360250Y-117263419D01*
X110381074Y-117258203D01*
X110402309Y-117255053D01*
X110423750Y-117254000D01*
X110861250Y-117254000D01*
X110882691Y-117255053D01*
G37*
G36*
X109307691Y-117255053D02*
G01*
X109328926Y-117258203D01*
X109349750Y-117263419D01*
X109369962Y-117270651D01*
X109389368Y-117279830D01*
X109407781Y-117290866D01*
X109425024Y-117303654D01*
X109440930Y-117318070D01*
X109455346Y-117333976D01*
X109468134Y-117351219D01*
X109479170Y-117369632D01*
X109488349Y-117389038D01*
X109495581Y-117409250D01*
X109500797Y-117430074D01*
X109503947Y-117451309D01*
X109505000Y-117472750D01*
X109505000Y-117985250D01*
X109503947Y-118006691D01*
X109500797Y-118027926D01*
X109495581Y-118048750D01*
X109488349Y-118068962D01*
X109479170Y-118088368D01*
X109468134Y-118106781D01*
X109455346Y-118124024D01*
X109440930Y-118139930D01*
X109425024Y-118154346D01*
X109407781Y-118167134D01*
X109389368Y-118178170D01*
X109369962Y-118187349D01*
X109349750Y-118194581D01*
X109328926Y-118199797D01*
X109307691Y-118202947D01*
X109286250Y-118204000D01*
X108848750Y-118204000D01*
X108827309Y-118202947D01*
X108806074Y-118199797D01*
X108785250Y-118194581D01*
X108765038Y-118187349D01*
X108745632Y-118178170D01*
X108727219Y-118167134D01*
X108709976Y-118154346D01*
X108694070Y-118139930D01*
X108679654Y-118124024D01*
X108666866Y-118106781D01*
X108655830Y-118088368D01*
X108646651Y-118068962D01*
X108639419Y-118048750D01*
X108634203Y-118027926D01*
X108631053Y-118006691D01*
X108630000Y-117985250D01*
X108630000Y-117472750D01*
X108631053Y-117451309D01*
X108634203Y-117430074D01*
X108639419Y-117409250D01*
X108646651Y-117389038D01*
X108655830Y-117369632D01*
X108666866Y-117351219D01*
X108679654Y-117333976D01*
X108694070Y-117318070D01*
X108709976Y-117303654D01*
X108727219Y-117290866D01*
X108745632Y-117279830D01*
X108765038Y-117270651D01*
X108785250Y-117263419D01*
X108806074Y-117258203D01*
X108827309Y-117255053D01*
X108848750Y-117254000D01*
X109286250Y-117254000D01*
X109307691Y-117255053D01*
G37*
%TD*%
M02*
