%TF.GenerationSoftware,KiCad,Pcbnew,(5.1.5)-3*%
%TF.CreationDate,2020-05-01T16:04:52+02:00*%
%TF.ProjectId,SX1280_module,53583132-3830-45f6-9d6f-64756c652e6b,rev?*%
%TF.SameCoordinates,Original*%
%TF.FileFunction,Plated,1,2,PTH,Drill*%
%TF.FilePolarity,Positive*%
%FSLAX46Y46*%
G04 Gerber Fmt 4.6, Leading zero omitted, Abs format (unit mm)*
G04 Created by KiCad (PCBNEW (5.1.5)-3) date 2020-05-01 16:04:52*
%MOMM*%
%LPD*%
G04 APERTURE LIST*
%TA.AperFunction,ViaDrill*%
%ADD10C,0.300000*%
%TD*%
%TA.AperFunction,ComponentDrill*%
%ADD11C,0.440000*%
%TD*%
%TA.AperFunction,ViaDrill*%
%ADD12C,0.500000*%
%TD*%
%TA.AperFunction,ComponentDrill*%
%ADD13C,0.800000*%
%TD*%
%TA.AperFunction,ComponentDrill*%
%ADD14C,1.350000*%
%TD*%
G04 APERTURE END LIST*
D10*
X108223810Y-114313200D03*
X108995409Y-110540751D03*
X110540800Y-102260400D03*
X112555085Y-103041994D03*
X113248400Y-109030000D03*
X114300000Y-118618000D03*
X115189000Y-118618000D03*
X115585200Y-111824000D03*
X116055661Y-104089139D03*
X116535200Y-115671600D03*
X116535200Y-117348000D03*
X116535200Y-118618000D03*
X116855200Y-103645200D03*
X117769600Y-106998000D03*
X118887200Y-114554000D03*
X118922800Y-116230400D03*
X118938000Y-108826800D03*
X119195420Y-113389679D03*
X119502074Y-108114688D03*
X119700000Y-103289600D03*
X120751138Y-107003287D03*
X121630400Y-103238800D03*
X121744919Y-106967951D03*
X122957958Y-109632842D03*
X123764000Y-100464610D03*
X123916400Y-101765600D03*
X124943231Y-107709200D03*
X124981207Y-106057899D03*
X125596484Y-102555562D03*
X125729916Y-105312606D03*
X128386800Y-104407200D03*
X129453600Y-105931200D03*
X129656800Y-108318800D03*
X130315303Y-110450659D03*
D11*
%TO.C,J2*%
X116400000Y-120650000D03*
X117050000Y-121650000D03*
X117700000Y-120650000D03*
X118350000Y-121650000D03*
X119000000Y-120650000D03*
%TD*%
D12*
X111607600Y-121869200D03*
D13*
%TO.C,J1*%
X129098000Y-111976400D03*
X129098000Y-113976400D03*
X129098000Y-115976400D03*
X129098000Y-117976400D03*
D14*
%TO.C,J2*%
X114125000Y-120870000D03*
X121275000Y-120870000D03*
M02*
